<mxfile host="app.diagrams.net" modified="2024-03-21T06:24:38.259Z" agent="Mozilla/5.0 (Windows NT 10.0; Win64; x64) AppleWebKit/537.36 (KHTML, like Gecko) Chrome/122.0.0.0 Safari/537.36 Edg/122.0.0.0" etag="Cgl4ce2Gjw_3hp5z3irD" version="24.0.7" type="github">
  <diagram name="Page-1" id="_HsaQnrSGcTZgTkn2MWz">
    <mxGraphModel dx="1242" dy="588" grid="1" gridSize="10" guides="1" tooltips="1" connect="1" arrows="1" fold="1" page="1" pageScale="1" pageWidth="850" pageHeight="1100" math="0" shadow="0">
      <root>
        <mxCell id="0" />
        <mxCell id="1" parent="0" />
        <mxCell id="CC_-eeNmm2QGvlABfils-1" value="" style="shape=image;verticalLabelPosition=bottom;labelBackgroundColor=default;verticalAlign=top;aspect=fixed;imageAspect=0;image=data:image/png,iVBORw0KGgoAAAANSUhEUgAAA+sAAAHPCAYAAAAroktAAAAAAXNSR0IArs4c6QAAAARnQU1BAACxjwv8YQUAAAAJcEhZcwAAFxEAABcRAcom8z8AAP+lSURBVHhe7F0HeFRFF11RKVIVEBvFQrH33hV77+W3oqh0ECkKSLWhgoqACEgXlCbSe0kIkJBeCaGk0EMJkEBCOf+cl0xYwuySmQ1ZE+Z8XsPum3ln7p075ex7+9YFTRw6dAgHDhzA0aNH894pPPbv34/NmzfjyJEjee8UDjk5OTh48KA25+HDh5Gdne20WResR05dsI1r165FXFycdnvJR14d0DfW0Y0py7MfTWLDuuzHffv25b1TOEhO9osOGEfmAM0kB8ipGx+Ccd20aZNRn+hy+iNXiV27dmHbtm15rwoPcurGhZD5apID9JE5YAL6uHv37rxXhQM5dcdIUeSqbmwIxrS4cpVgeXKZ5Kvk1I0PwTmnuNYQOSb9kasclzrwhVOOSZMc0B0fEqzLfuSeQAeSU6dPWMd0TPqSq6fDfofYuXMntm/fnveq8CAfeXVQ2nOVYL+b5iu5yKkbH4L9Yfc7apBTNy6EzFeTHKCPzAETlKT9jkmuMqYlZb/D2LAvdeNDcL+zZcsW599WrHsA65lMCPQtPj4ekZGR2n6SzyT5WMck+XQHpgTrsh+tWFdDjhEdTn/kKmEXL88gp+4YKYpc1Y0NwZhase4Z7A/dNUSOSX/kqhXrakhOnT5hHdMx6UuuWrHuHeQjrw5Ke64S7HfTfCUXOXXjQ7A/7H5HDXLqxoWQ+WqSA/SROWACK9bVMMlVguXJZZKvjA37Ujc+hBXrhQDrmUwI9I1X1SMiIrT9JJ9J8rGOSfLpDkwJ1mU/WrGuhhwjOpz+yFXCLl6eQU7dMVIUuaobG4IxtWLdM9gfumuIHJP+yFUr1tWQnDp9wjqmY9KXXLVi3TvIR14dlPZcJdjvpvlKLnLqxodgf9j9jhrk1I0LIfPVJAfoI3PABFasq2GSqwTLk8skXxkb9qVufAgr1gsB1jOZEOhbTEwMwsLCtP0kn0nysY5J8ukOTAnWZT9asa6GHCM6nP7IVcIuXp5BTt0xUhS5qhsbgjG1Yt0z2B+6a4gck/7IVSvW1ZCcOn3COqZj0pdctWLdO8hHXh2U9lwl2O+m+UoucurGh2B/2P2OGuTUjQsh89UkB+gjc8AEVqyrYZKrBMuTyyRfGRv2pW58CCvWCwHWM5kQ2MYNGzYgMTFRu73kM0k+1jFJPt2BKcG67Ecr1tWQY0SH0x+5StjFyzPIqTtGiiJXdWNDMKZWrHsG+0N3DZFj0h+5asW6GpJTp09Yx3RM+pKrVqx7B/nIq4PSnqsE+900X8lFTt34EOwPu99Rg5y6cSFkvprkAH1kDpjAinU1THKVYHlymeQrY8O+1I0PYcV6IcB6phMCB8mOHTvyXhUe5DNJPtYxST7dgSnBuuxHK9bVkGNEh9NfuWoXL88gp+4YKYpc1Y0NwZhase4Z7A/dNUSOSX/kqhXrakhOnT5hHdMx6UuuWrHuHeQjrw5Ke64S7HfTfCUXOXXjQ7A/7H5HDXLqxoWQ+WqSA/SROWACK9bVMMlVguXJZZKvjA37Ujc+hBXrhQDrmU4IVqyrITlNJq7SPiH4K1ft4uUZ5NQdI0WRq7qxIRhTK9Y9g/2hu4bIMemPXLViXQ3JqdMnrGM6Jn3JVSvWvYN85NVBac9Vgv1umq/kIqdufAj2h93vqEFO3bgQMl9NcoA+MgdMYMW6Gia5SrA8uUzylbFhX+rGh7BivRBgPV8mhNNh8bJiXQ05RnQ4/ZmrdvFSg5y6Y6QoclU3NgRjasW6Z7A/dNcQOSb9katWrKshOXX6hHVMx6QvuWrFuneQj7w6KO25SrDfTfOVXOTUjQ/B/rD7HTXIqRsXQuarSQ7QR+aACaxYV8MkVwmWJ5dJvjI27Evd+BBWrBcCrGc6IXCgMJF0QT6T5GMdk+TTHZgSrMt+tGJdDTlGdDj9lat28fIMcuqOkaLIVd3YEIypFeuewf7QXUPkmPRHrlqxrobk1OkT1jEdk77kqhXr3kE+8uqgtOcqwX43zVdykVM3PgT7w+531CCnblwIma8mOUAfmQMmKEn7HZNcZUytWD8JpLMmxKfD4sU2rl27FrGxsdrtJZ9J8rGOSfLpDkwJ1mU/WrGuhhwjOpz+yFXCLl6eQU7dMVIUuaobG4IxtWLdM9gfumuIHJP+yFUr1tWQnDp9wjqmY9KXXLVi3TvIR14dlPZcJdjvpvlKLnLqxodgf9j9jhrk1I0LIfPVJAfoI3PABFasq2GSqwTLk8skXxkb9qVufAifxLpstAmysrLyiXXATjVNWgbXJEisZ8rJ31kPDw/Pe1V4kE83GeibSQIR7EeTgUKwHzMzM/NeFR6mucMc0J3wCMbHlJNx5SKtG1/TMUKe4s7VPXv2GG20yKkbF8KXfKWPJjlA0MeMjIy8V4WHyRjxNVdNc6A4c5Ugl0lbfeHknFOca4i/cpXjUhemnL6MSZPxIcF+5J5AFyZjxHRM+pKrp8t+h6IgPT0971XhQT7dvDsdcpUwzVdymeYr+8Pud9Qgp0ne+ZKv9NEkB4iStN8xAWNaUvY7jI1pvnK/s3XrVuffLk6yOsYk4MSlOnYy4ych69atc86hOu7J+CkRG6w65s3Iw3qsrzruzXzh5G+sBwcHa/tp0lbZTj7QTnXck7E8+1G3jTTWZT+mpaUpj3syU07Wo580Uz9169EY16SkJO08oH+6nKxj0v80mQOqYyezlJQU56cGVce8mewP1TFvJttqknem8aHRR/qqOubNdPP1dMhVGsub9ofkVB07mXHO4dyj216Zd6pjnkyOyZKSq6acMjYmOaA7PqSxDvuRewLVcU8mOXXayrL0kabroy+5Kvc7upyyP1THvJnMV19yQHXsZJacnGy0hpi0VbZTN6Ysb5qrrFtcuUpjefpJM6lrwkljPbvfUZvsD9UxbybbapJ3pvGh2f2O2kxylcbypv0hc0B17GQm9zv8t4svCmucrFJTU50k4L9VZTwZyzOB1qxZ45xDVUZlkpOmyynbqsNH84WTxqvqoaGhymOezJST5emj6pg3I4eMjYmP7Ef2p05dyak6djJjPV/qmvjITQj91OElj+wTHU5Zh39Vxz2Z5DPpR5bnRMCvbaiOezJfOFmnuP2k0Ue54VIdVxnLyrbq1GMdmurYycyXesWVq9JYz7QfTThZXq4hquOeTHLq9qNsp6mPunzSijNXadJP1TFv5itnca4hrKNbj1wyNrr+sXxx5ipNtpV/Vcc9mS+cLF+cawjLm/Q/OWRsdH2kFWeu0ljPl7omPtr9jtp84WSd4vaTVpL2Oyb+FWeuSmM903404WR5zjmJiYnOa+3b4HlJ3/T7Irykz1sXdG8l4O0HJrcu8JYH01tJWM/0dgkGeePGjXmvCg/y6d4uIW+x0I0py7MfTW9fYT/qfodLcprcisYc0L3lhSCX6fdFGFf2pUmf6HL6K1dNv8NFTt24EDJfTXKAPprkAEEfdb/DRZiMEV9z1SQ2jGlx5SrB8uQyyVfJaQL5PWDd9rI/dMeIHJP+yFXd76wTppxyTJrkgMn4IFiX/aj7VSrJqdMnrGM6Jn3J1dNlv2P6nXXykVcHpT1XJUzzlVzk1I0Pwf6w+x01yKkbF0Lmq0kO0EeTHCBK0n7HJFcZ05Ky32FsTPOV+x3eCUBYse4BrOfLhHA6LF5WrKshx4gOpz9z1S5enmEyRnzNVZPYMKZWrHsG+0N3jMgx6Y9ctWJdDcmp0yesYzomfclVK9a9g3zk1UFpz1UJ03wlFzl140OwP+x+Rw1y6saFkPlqkgP00SQHCCvW1TDJVYLlyWWSr4yNab76JNZJzKfpmQRYbrR0E5dBMgkwA2ua8KxHThNwkPA7Drogn26nykTQjSnL6z75UYJ12Y/2afBqyDGiw+mvXDVdvMipGxdC5qtJDtBH3clZwmTxIqfuGCmKXNWNDcGYFleuEixPLpN8lZy68SHs0+DV8IVTjkmTHNAdHxKsy37U/cBXcur0CeuYjklfcvV02e/Yp8GrITlN5g/TfCUXOXXjQ7A/7H5HDXLqxoWQ+WqSA/SROWCCkrTfMclVxrSk7HcYG/albnwIn54GL501IbZi3TvIZ5J8rGOSfLoDU4J12Y9WrKshx4gOp79y1S5enkFO3TFSFLmqGxuCMbVi3TPYH7priByT/shVK9bVkJw6fcI6pmPSl1y1Yt07yEdeHZT2XCXY76b5Si5y6saHYH/Y/Y4a5NSNCyHz1SQH6CNzwARWrKthkqsEy5PLJF8ZG/albnwIK9YLAdYzmRDYRj5MgA930G0v+UySj3VMkk93YEqwLvvRinU15BjR4fRHrhJ28fIMcuqOkaLIVd3YEIypFeuewf7QXUPkmPRHrlqxrobk1OkT1jEdk77kqhXr3kE+8uqgtOcqwX43zVdykVM3PgT7w+531CCnblwIma8mOUAfmQMmsGJdDZNcJVieXCb5ytiwL3XjQ1ixXgiwnsmEQN/i4+MRGRmp7Sf5TJKPdUyST3dgSrAu+9GKdTXkGNHh9EeuEnbx8gxy6o6RoshV3dgQjKkV657B/tBdQ+SY9EeuWrGuhuTU6RPWMR2TvuSqFeveQT7y6qC05yrBfjfNV3KRUzc+BPvD7nfUIKduXAiZryY5QB+ZAyawYl0Nk1wlWJ5cJvnK2LAvdeNDWLFeCLCeyYRA3+Li4hAREaHtJ/lMko91TJJPd2BKsC770Yp1NeQY0eH0R64SdvHyDHLqjpGiyFXd2BCMqRXrnsH+0F1D5Jj0R65asa6G5NTpE9YxHZO+5KoV695BPvLqoLTnKsF+N81XcpFTNz4E+8Pud9Qgp25cCJmvJjlAH5kDJrBiXQ2TXCVYnlwm+crYsC9140NYsV4IsJ7JhEDfYmJiEBYWpu0n+UySj3VMkk93YEqwLvvRinU15BjR4fRHrhJ28fIMcuqOkaLIVd3YEIypFeuewf7QXUPkmPRHrlqxrobk1OkT1jEdk77kqhXr3kE+8uqgtOcqwX43zVdykVM3PgT7w+531CCnblwIma8mOUAfmQMmsGJdDZNcJVieXCb5ytiwL3XjQ1ixXgiwnsmEQN/4I/YU7Lp+ks8k+VjHJPl0B6YE67IfrVhXQ44RHU5/5CphFy/PIKfuGCmKXNWNDcGYWrHuGewP3TVEjkl/5KoV62pITp0+YR3TMelLrlqx7h3kI68OSnuuEux303wlFzl140OwP+x+Rw1y6saFkPlqkgP0kTlgAivW1TDJVYLlyWWSr4wN+1I3PoQV64UA65lOCOnp6di6dWveq8KDfCbJxzomyac7MCVYl/1oxboacozocPorV+3i5Rnk1B0jRZGrurEhGFMr1j2D/aG7hsgx6Y9ctWJdDcmp0yesYzomfclVK9a9g3zk1UFpz1WC/W6ar+Qip258CPaH3e+oQU7duBAyX01ygD4yB0xgxboaJrlKsDy5TPKVsWFf6saHsGK9EGA90wmBg8T+dNuJkJwmE1dpnxD8lat28fIMcuqOkaLIVd3YEIypFeuewf7QXUPkmPRHrlqxrobk1OkT1jEdk77kqhXr3kE+8uqgtOcqwX43zVdykVM3PgT7w+531CCnblwIma8mOUAfmQMmsGJdDZNcJVieXCb5ytiwL3XjQ1ixXgiwnumEYMW6GpLTZOIq7ROCv3LVLl6eQU7dMVIUuaobG4IxtWLdM9gfumuIHJP+yFUr1tWQnDp9wjqmY9KXXLVi3TvIR14dlPZcJdjvpvlKLnLqxodgf9j9jhrk1I0LIfPVJAfoI3PABFasq2GSqwTLk8skXxkb9qVufIjjxDoboGMkzcrKUh7zZmwwkyc1NdUJFl+ryqmM5WmqY96MbWU9/lUd92amnPSLA4WJpOMjzYRT+qg65s1kP+rGhj6Rj/3I/tT10YSTZhIbmvRTdcyb0S8uzvzNfP7V8dOEk3XoX3HGhj7xQyVuRHT70Zf+8Ief9JG+6vppkq++xMZ0TBZnrtJYz7QfTTnpFzdbnHt4Dh0/TfrEFx9N+Gj0iblK8aPjH82UU/qpOubNZD/qxod+ka+41hDpny8+qo55M/q0Z8+e02K/w1zlhlK3H004pY+qY95M9qNubOgT+diP7E9dH004aSaxoUk/Vce8Gf2iMPBlDdHxk2XpX3HGhj4xV0v7fodWkvY7qmPejD6VpP2OaXzoF/c7aWlpzmsXyXWMpLJDdYyfSEixLoOlKqcyU06aDJTqmDczqSd9SkpKQkJCwnHvFcZMOE3qSGNMTXxkPbnRYr+qynkyE06ar36q3vdm9EsuXvzLgaMqpzK204TT1EfTevRRLl46eUor7rbSTPOVxg/PuHgVR7766qPqfW9WMFd1fGQ7TThppn6actIvKdZ5Dt25VZfT1D+aaV36JMV6ceQqzRc/TTjpI+sV5xpi6iPr6OYNjT6V9v0OjX4W5xpi2k6aSd74I1dppn6yjknu0K+9e/fa/Y4HK+620kzzlX/tfkdtbKcJJ83UT1NO+uV+ccLFS/M6xhOQnLcFqI57MoKfgnCgyFtCVOVUxonDhJM80mnVcW8mA6bDSZCTT4IPDw/X9lNyqo55MvrGAUou1XFPRr8YU93YEORiP3KgEKpyKmM9E062lTlAM8kBcurGh2BfuN9qoyqnMjlGdDhZlnzFlas0wv22MFUZTyY5Vce8Gf1jPd3+kPnKHFAd92QS7reFqcqpzITT37nKv4SqnMpMcpVG3zgudPuDxjrk1I0PwTmHcw/rEqpyKjPh9CVXWc8kNgRzleOSUJVRGTl1c1Ua/fTXGsI9AaEqpzLW0+VkOxkX09j4mqtsM6EqpzKTXKWRh3mn2x801qOpjnkzwv02eFUZT2bC6c9cLQn7HZmvuvEh2Be+7Hd02loUuaobG+J02O/wr93vqM10fNA3jguTfGVsdMcHjeCcw7uW+Np+Z90DWE8mgg7oW2xsrCPWdf0kn5woCwv6xjq6XCzPfjSJDeu6L16FheRkv+iA/S4nBJMckANFF4yr++JVWMgxosPpj1wl3BcvHZBTNy6EzFeTHKCPzAETuC9ehQU5dcdIUeSqbmwIxrS4cpVgeXKZ5Kvk1I0PUVCsFxbsD901RI5Jf+SqFOuFhS+cckya5IDu+JBgXfajFOuFheTU6RPWMR2TvuTq6bDfIex31tWQnCbzh2m+koucuvEh2B92v6MGOXXjQsh8NckB+sgcMEFJ2u+Y5CpjWlL2O4wN+1I3PoQU64QV6x7AeiYTAn3jLfBRUVHafpLPJPlYxyT5dAemBOuyH61YV0OOER1Of+QqYRcvzyCn7hgpilzVjQ3BmFqx7hnsD901RI5Jf+SqFetqSE6dPmEd0zHpS65ase4d5COvDkp7rhLsd9N8JRc5deNDsD/sfkcNcurGhZD5apID9JE5YAIr1tUwyVWC5cllkq+MDftSNz6EFeuFAOuZTgj0kd+n0AX5TJKPdUyST3dgSrAufbRiXQ05RnQ4/ZWrdvHyDHLqjpGiyFXd2BCMqRXrnsH+0F1D5Jj0R65asa6G5NTpE9YxHZO+5KoV695BPvLqoLTnKsF+N81XcpFTNz4E+8Pud9Qgp25cCJmvJjlAH5kDJrBiXQ2TXCVYnlwm+crYsC9140NYsV4IsJ4vE8LpsHhZsa6GHCM6nP7MVbt4qUFO3TFSFLmqGxuCMbVi3TPYH7priByT/shVK9bVkJw6fcI6pmPSl1y1Yt07yEdeHZT2XCXY76b5Si5y6saHYH/Y/Y4a5NSNCyHz1SQH6CNzwARWrKthkqsEy5PLJF8ZG/albnwIK9YLAdbzZUKwYv1ESE6Tiau0Twj+zFW7eKlBTt0xUhS5qhsbgjG1Yt0z2B+6a4gck/7IVSvW1ZCcOn3COqZj0pdctWLdO8hHXh2U9lwl2O+m+UoucurGh2B/2P2OGuTUjQsh89UkB+gjc8AEVqyrYZKrBMuTyyRfGRv2pW58CCvWCwHWM50Q+Huc6enpea8KD/KZJB/rmCSf7sCUYF32oxXrasgxosPpr1y1i5dnkFN3jBRFrurGhmBMrVj3DPaH7hoix6Q/ctWKdTUkp06fsI7pmPQlV61Y9w7ykVcHpT1XCfa7ab6Si5y68SHYH3a/owY5deNCyHw1yQH6yBwwgRXrapjkKsHy5DLJV8aGfakbH8KK9UKA9UwmBLaRSbRx40bt9pLPJPlYxyT5dAemBOuyH61YV0OOER1Of+QqYRcvzyCn7hgpilzVjQ3BmFqx7hnsD901RI5Jf+SqFetqSE6dPmEd0zHpS65ase4d5COvDkp7rhLsd9N8JRc5deNDsD/sfkcNcurGhZD5apID9JE5YAIr1tUwyVWC5cllkq+MDftSNz6EFeuFAOuZTAj0zf50mxqS02TiKu0Tgj9ylbCLl2eQU3eMFEWu6saGYEytWPcM9ofuGiLHpD9y1Yp1NSSnTp+wjumY9CVXrVj3DvKRVwelPVcJ9rtpvpKLnLrxIdgfdr+jBjl140LIfDXJAfrIHDCBFetqmOQqwfLkMslXxoZ9qRsfwor1QoD1TCYE+mbFuhqS02TiKu0Tgj9ylbCLl2eQU3eMFEWu6saGYEytWPcM9ofuGiLHpD9y1Yp1NSSnTp+wjumY9CVXrVj3DvKRVwelPVcJ9rtpvpKLnLrxIdgfdr+jBjl140LIfDXJAfrIHDCBFetqmOQqwfLkMslXxoZ9qRsfwor1QoD1TCYE+hYXF4eIiAhtP8lnknysY5J8ugNTgnXZj1asqyHHiA6nP3KVsIuXZ5BTd4wURa7qxoZgTK1Y9wz2h+4aIsekP3LVinU1JKdOn7CO6Zj0JVetWPcO8pFXB6U9Vwn2u2m+koucuvEh2B92v6MGOXXjQsh8NckB+sgcMIEV62qY5CrB8uQyyVfGhn2pGx/CivVCgPVMJgS2MTEx0bm6rtte8pkkH+uYJJ/uwJRgXfajFetqyDGiw+mPXCXs4uUZ5NQdI0WRq7qxIRhTK9Y9g/2hu4bIMemPXLViXQ3JqdMnrGM6Jn3JVSvWvYN85NVBac9Vgv1umq/kIqdufAj2h93vqEFO3bgQMl9NcoA+MgdMYMW6Gia5SrA8uUzylbFhX+rGhzhOrDNgOsYGyw5VHfdkdDYjI8MJMBuvKuPJTDllkHT5aKxHTtUxb0Y/GdyUlBTlcW9GPvKqjnkyxsbER5m0JrFhHfYjn3pPf1VlVMZ6JpxsK/2Ug0VVxpOZctKvrKwspKWlOX9N/NRpK+v4I1f5qwXMV9Vxb0ZO3Vylmfop85U5oDp+MqOP9FWnH004T4dcpcl+NOkP1jHhpF+cc4prDZE+6nKRQzdv3G3r1q3FkqvSWMcXP3Xr0ViH+co9gUm+6nCyLH2k6eYc6+jmDY0+nS77nR07djg5qzruzchHXtUxT+avXGU/Fkeu0thW03w15aRfmZmZp8V+xyRXyambqzRTP2W+MgdUx09mdr+jNslp0lb2o0l/sI4JJ/2S+x2+dskkLKyRlAFSHfNmdJaf9KSmpjr16YCqnMpMOVlPmuq4NzOtRz+5eHGw6PhIM+E0bSeNMdWtS59Yj/3ITyllEhfWTDhpvvqpet+b0S9+qsUPXfhXx0+2U5dT+mfio2k9+sQrIrxqUBy5SpP1TOqa5g59o4/0tTjy1dQ/WknIVWmmfppy0i/OOVykeY5TvYZI/2iq497MtF5x5yrNtK00E073NYR7AhM/Ve97M1MfWceET+bq6bDf4VW84lpDTNtJY0x167rnamnf7+zdu9fudzyYr201qWuar/xr9ztqYztNOGmmfppy0i+53+FrF9W+jsnJiydSHfdk/GSAn0ySmOdQlfFkbCgd1uWUiavLR5OcqmPejH7ytjAuYKrj3kwmguqYJ5M+6saG5dmPJrFhHfYjP/Whv6oyKjPlZD366IufuvXoF+txkeYnzjp+0j9dTtmPJv3Beqa5Kq+sq457M9kfqmPezNRPxtJkfEiTnzSf6nxlHRkb3ZyTfLr16BNzVAqDU52rNOmnSb6actIv+UmzLi/bqruGkMPER3L4I1dNOaWfuv3B8rrjQxrrcA3hnsBkTOq0lWXpn4mPbKcvuXo67HfklXXVcW9mkq/SR93YsLyvuVra9zu8zd/ud9Qm+0N1zJuZ+slYms7nNPpIHXKq85V1ZGx0c07y6dajT6xXXLlKk376kq8mfsr9Dl/b76x7AOuR0wTyyrouZDLogL6xjm5MWV5OeLpgXfYjP9XSgeRkv+jgdPhejL9ylZ/c2e9wqUFO3TFSFLmqGxuCMS2uXCVYnlwm+So5deNDcM4prjVEjkl/5CrHpQ584ZRj0iQHdMeHBOuyH+131k+ESa4SMl9N+oP1yGkC+511NSSnyfxhmq/kIqdufAj2h93vqEFO3bgQMl9NcoA+MgdMUJL2Oya5ypiWlP0OY8O+1I0Pwf2O1JJWrHsA65lOCBs2bHAeMqcL8pkkH+uYJJ/uwJRgXfajFetqyDGiw+mvXLWLl2eQU3eMFEWu6saGYEytWPcM9ofuGiLHpD9y1Yp1NSSnTp+wjumY9CVXrVj3DvKRVwelPVcJ9rtpvpKLnLrxIdgfdr+jBjl140LIfDXJAfrIHDCBFetqmOQqwfLkMslXxoZ9qRsfwor1QoD1TCYE+mZ/uk0NyWkycZX2CcEfuUrYxcszyKk7RooiV3VjQzCmVqx7BvtDdw2RY9IfuWrFuhqSU6dPWMd0TPqSq1asewf5yKuD0p6rBPvdNF/JRU7d+BDsD7vfUYOcunEhZL6a5AB9ZA6YwIp1NUxylWB5cpnkK2PDvtSND2HFeiHAeiYTAn3jz7aFh4dr+0k+k+RjHZPk0x2YEqzLfrRiXQ05RnQ4/ZGrhF28PIOcumOkKHJVNzYEY2rFumewP3TXEDkm/ZGrVqyrITl1+oR1TMekL7lqxbp3kI+8OijtuUqw303zlVzk1I0Pwf6w+x01yKkbF0Lmq0kO0EfmgAmsWFfDJFcJlieXSb4yNuxL3fgQVqwXAqxnMiHQNyvW1ZCcJhNXaZ8Q/JGrhF28PIOcumOkKHJVNzYEY2rFumewP3TXEDkm/ZGrVqyrITl1+oR1TMekL7lqxbp3kI+8OijtuUqw303zlVzk1I0Pwf6w+x01yKkbF0Lmq0kO0EfmgAmsWFfDJFcJlieXSb4yNuxL3fgQVqwXAqxnMiGwjcnJyUhKStJuL/lMko91TJJPd2BKsC770Yp1NeQY0eH0R64SdvHyDHLqjpGiyFXd2BCMqRXrnsH+0F1D5Jj0R65asa6G5NTpE9YxHZO+5KoV695BPvLqoLTnKsF+N81XcpFTNz4E+8Pud9Qgp25cCJmvJjlAH5kDJrBiXQ2TXCVYnlwm+crYsC9140NYsV4IsJ7phMDFy2RCIJ9J8rGOSfLpDkwJ1mU/WrGuhhwjOpz+ylW7eHkGOXXHSFHkqm5sCMbUinXPYH/oriFyTPojV61YV0Ny6vQJ65iOSV9y1Yp17yAfeXVQ2nOVYL+b5iu5yKkbH4L9Yfc7apBTNy6EzFeTHKCPzAETlKT9jkmuMqZWrJ8E0lkT4tNl8eKEcDosXlasqyHHiA6nP3PVLl5qkFN3jBRFrurGhmBMrVj3DPaH7hoix6Q/ctWKdTUkp06fsI7pmPQlV61Y9w7ykVcHpT1XCfa7ab6Si5y68SHYH3a/owY5deNCyHw1yQH6yBwwgRXrapjkKsHy5DLJV8aGfakbH8KK9UKA9UwnBA6S9PT0vFeFB/lMko91TJJPd2BKsC770Yp1NeQY0eH0V67axcszyKk7RooiV3VjQzCmVqx7BvtDdw2RY9IfuWrFuhqSU6dPWMd0TPqSq1asewf5yKuD0p6rBPvdNF/JRU7d+BDsD7vfUYOcunEhZL6a5AB9ZA6YwIp1NUxylWB5cpnkK2PDvtSND2HFeiHAeqYTwo4dOxw/dUE+k+RjHZPk0x2YEqxL/6xYV0OOER1Of+WqXbw8g5y6Y6QoclU3NgRjasW6Z7A/dNcQOSb9katWrKshOXX6hHVMx6QvuWrFuneQj7w6KO25SrDfTfOVXOTUjQ/B/rD7HTXIqRsXQuarSQ7QR+aACaxYV8MkVwmWJ5dJvjI27Evd+BDHiXWeQMfcnVUd92Zy8WInqY57MumsLqf7hKA67s1YTwZYx9jGhIQEREVFabeXfORVHfNk9I11dLlYXg5M1XFvxriyH5lIquOeTHLq9j/ryQlB10/3CUF13JuxPzgh6OaByRjxR67S5OKlOubNyKmbqzSZryY5QB/loqBrcvFSHfNk5NQdI6zja67qxoZWnLlKY3nTfDXlpEmxrhsj9gdjo8Mpx6Q/cpXjUnXMk/nCKcekbn+wvO74kMaYSgGkOu7JJKdOn7CO6Zj0JVdPh/0OTYp11TFvRj7yqo55stKeqzTWM81XcpnmK+vZ/Y7ayKmbqzSZryY5QB+ZA6rjJ7OStN/RrUdjbErKfoexYTtN/JRinf928SQ6RkezsrKcv6rjnoyOcqCkpqY69VVlPJkpJ8tLUx33ZpJTdcybZWZmOkI9NDTU+beqjCcrTh+lf7r1aKzHfmR/sl9VZVRmysny7qYq48lY3oSTfu3duxcpKSnOX1UZT2bCybLSVMe9meRTHfNm9JGbLG5EVMe9mS9tNanL8ib9KI0TO3091fnKsu6mKuPJWL4ocrW4x6TquDcz5aRfFAbFtYawrDTVcU9mwuVuHI/cbBVHP9JYR5rquCfzhZP1imsNYVl3U5XxZCxv4iN9Oh32O/STuWqyhhSnj9I/3Xo01jsd9jsZGRmlfr9jmqu+tNWkLsub9KM0u99Rmykny0tTHfdmppz0S+53+NolPxUprLESSXki1XFPxk9ROBnIT0P4CYWqnMpYns7qcrK8DJDquDdjPV0/6RO5YmJinN9Z1/VTcqqOeTJy0HRjQzOJjfSR/bhnzx6nX1XlVGbaH6xn6qfk1K1Hv/hJelpamvOhi46fbKcup2ynbmxorGfqI7+ysXXrVq08pUlO1TFvZhIbGstzDtCND/2icYHmcyROdb6yDsvTTHw07UeZq/x7qnNVmvRTdcybmXLSL845nHtYVydnyam7hpi2k+V180YafeJ45LjUzVWT8UFjHZqunzQTP+kj67AfuSc41WOSJn1UHfNmrONrrvIcpzpXaaaxobEeTXXMm9FP5iqv/uj4SDPhpG80f+RqSdjvsA45devRL1/3O6pjnsw0NjTWM/XxdNjv8K/d76jNtD9o0k/VMW/GOibzOf3inEM/+dp+Z90DWM+Ek77Fx8fn3wavA/KRVwf0jXV0uVie/WgSG9ZlP/IWDR2YcrIPZAKb5AA5deNDMK5SGOhAjhEdTn/kKsGrBfy0WRfk1I0LIfOV/uqAvtFH5oAJ5G1hOiAn+1GHsyhyVTc2BGNaXLlKsDy5TPqDdchpkq/yNnjd9pJTd4z4M1c5LnXgC6f00yQH2I8mcxbrsh+5J9CBCSfrMC403ZyT48MkV0vifscE9jvraphyst99zVfd+BDsD7vfUYOcunEh6B/r+WMNKSn7HZNcZUz9sd8xyVfGxjRf5W3whBXrHsB65DQBPwnZsGFD3qvCg3wmycc6JsnHfjSJDeuyH03FusnEVdonBH/lql28PIOcumOkKHJVNzYEY1pSFi/JqRsfojjFuhyT/shVK9bVkJw6fcI6pmPSl1y1Yt07yEdeHZT2XCXY76b5Si5y6saHYH/Y/Y4a5NSNCyHz1SQH6CNzwAQlab9jkquMqRXrJ4F01oT4dFm8OEh4u40uyGeSfKxjkny6A1OCddmPVqyrIceIDqe/ctUuXp5BTt0xUhS5qhsbgjG1Yt0z2B+6a4gck/7IVSvW1ZCcOn3COqZj0pdctWLdO8hHXh2U9lwl2O+m+UoucurGh2B/2P2OGuTUjQsh89UkB+gjc8AEVqyrYZKrBMuTyyRfGRv2pW58CCvWCwHWM50QrFhXQ3KaTFylfULwV67axcszyKk7RooiV3VjQzCmVqx7BvtDdw2RY9IfuWrFuhqSU6dPWMd0TPqSq1asewf5yKuD0p6rBPvdNF/JRU7d+BDsD7vfUYOcunEhZL6a5AB9ZA6YwIp1NUxylWB5cpnkK2PDvtSND2HFeiHAeqYTAh/swIdY6IJ8JsnHOibJpzswJViX/WjFuhpyjOhw+itX7eLlGeTUHSNFkau6sSEYUyvWPYP9obuGyDHpj1y1Yl0NyanTJ6xjOiZ9yVUr1r2DfOTVQWnPVYL9bpqv5CKnbnwI9ofd76hBTt24EDJfTXKAPjIHTGDFuhomuUqwPLlM8pWxYV/qxoewYr0QYD2TCYFtXL9+PdasWaPdXvKZJB/rmCSf7sCUYF32oxXrasgxosPpj1wl7OLlGeTUHSNFkau6sSEYUyvWPYP9obuGyDHpj1y1Yl0NyanTJ6xjOiZ9yVUr1r2DfOTVQWnPVYL9bpqv5CKnbnwI9ofd76hBTt24EDJfTXKAPjIHTGDFuhomuUqwPLlM8pWxYV/qxoewYr0QYD2TCYG+xcXFISIiQttP8pkkH+uYJJ/uwJRgXfajFetqyDGiw+mPXCXs4uUZ5NQdI0WRq7qxIRhTK9Y9g/2hu4bIMemPXLViXQ3JqdMnrGM6Jn3JVSvWvYN85NVBac9Vgv1umq/kIqdufAj2h93vqEFO3bgQMl9NcoA+MgdMYMW6Gia5SrA8uUzylbFhX+rGh7BivRBgPZMJgb5Zsa6G5DSZuEr7hOCPXCXs4uUZ5NQdI0WRq7qxIRhTK9Y9g/2hu4bIMemPXLViXQ3JqdMnrGM6Jn3JVSvWvYN85NVBac9Vgv1umq/kIqdufAj2h93vqEFO3bgQMl9NcoA+MgdMYMW6Gia5SrA8uUzylbFhX+rGh7BivRBgPZMJgb7FxMQgLCxM20/ymSQf65gkn+7AlGBd9qMV62rIMaLD6Y9cJezi5Rnk1B0jRZGrurEhGFMr1j2D/aG7hsgx6Y9ctWJdDcmp0yesYzomfclVK9a9g3zk1UFpz1WC/W6ar+Qip258CPaH3e+oQU7duBAyX01ygD4yB0xgxboaJrlKsDy5TPKVsWFf6saHsGK9EGA9kwmBbeRvrNvvrJ8IyWkycZX2CcEfuUrYxcszyKk7RooiV3VjQzCmVqx7BvtDdw2RY9IfuWrFuhqSU6dPWMd0TPqSq1asewf5yKuD0p6rBPvdNF/JRU7d+BDsD7vfUYOcunEhZL6a5AB9ZA6YwIp1NUxylWB5cpnkK2PDvtSND2HFeiHAeqYTAgeJ/em2EyE5TSau0j4h+CtX7eLlGeTUHSNFkau6sSEYUyvWPYP9obuGyDHpj1y1Yl0NyanTJ6xjOiZ9yVUr1r2DfOTVQWnPVYL9bpqv5CKnbnwI9ofd76hBTt24EDJfTXKAPjIHTGDFuhomuUqwPLlM8pWxYV/qxofwSawzwKYDJTMz0yHWbbRMeF0wwAyU7kAhWM+EkzAV6+Qjrw7om8lAYXn2o0lsWJf9qLt4SU6TwckcMBkoxKFsfR+JI4ePYuuWbc5fLYjiJpwOjyYVwXqHc/RjSuzdsw87d+gJA4Kc2nEhRBWjegL08aiZm46P+zL08pVw+lGzuWyjaTtNc5VzADeUJvOHyULC8uQymT8kpwk45xTXGiLXD5P5ynRhJyh8dDdahCmnP9cQ7gl0IDl1+oR1TNcPX3L1dNnvUACdDvud4shVCdN8JRc5deNDsD+Kaw3xV65yXjX5YImcunEhZL6a5AB9NMkBgj7u2bMn71XhYTJG/JGrjGlJ2e8wNqb5yv2O/BlwFwOmYyTlpMVGq457s7179zqfhrDxquOejMHNysrS5mRw+SkK26w67s1Yj5yqYyczftLMT7ZUx7wZ+eSnPoU1+sY6ujFlefajSWxYl/2YkZGhPO7JJKecvAprcoDJiaTgsZzD2cg+dFBpWQczkbF/Dw5kZymPe7N9mXuxMWWD81d13JNlHtivzcl2kod1Vce9GevtzcxQHjuZbduxBWmbU5XHvBk5deNCo3+sR39Vxz3ZwZwDjo/7s/Ypj5/M6OP29K3KY56MnOxHnT5hHbaRxn+ryngymaueYsM89zQHcg5IS0szmj84Jk3mD3KZzB+SU3c+p3HOKa41RK4fJvMVucipOn4y4+Kcnp6uPObJfOH05xrCPYHquCeTnDp9wjqe1o+TmS+5errsdyjUT4f9TnHkKo39bpqv5CKnbnxo7I/iWkP8laucVzm/qo55M3LqxoUm89UkB+gjc0B1/GRGH6lDVMc8GTl1x4i/cpUxLSn7HcaGfakbHxr3O/LuLFdycjIKaykpKc5ffidb/ruwxvLr1q1DQkICNm7cqCyjMtZjeZouJ+uwrTp8NF84afy+enx8vPKYJzPlZHn6qDrmzcgh65n4yH5kf+rUdefUNRkb9/c2p25B1NowjF85EGOW98fYoJ9OsDHLf8KowH4Yozh2MuM5/1jS1+O5PRnL63KOFnVGL+/n/FUd92a59fopj53MRi77ASOWfq885s1MOf3lJ32kr6pj3szpR822mrYzP1fF34LHRi//ERNXDUFUYihSklMccx8LHFcckzrjS45d1jGZA1iv4Jg8mfnCyfJyDVEd92SsJ+cPHU6WN/XRhE8a14+1a9dq1WVZ2VZdTumn6pg3k5zy3wWPezNy+rKGmPDRVMc8meQw4WP54sxVGuvIHFAd92S+cLI8c5U5qzruyUw5Wb64c5VWnLlKk7FRHfNmvnCuX7++2NYQ2Y+6PpJDxkbXR5YvzlylsU5x+0nzZQ2R/y543JPJdqqOeTPJZ+If6xVXrkpjPdN+NOFkefc1xEXlXljjJ4u8jYSfTqmOezPW5aevbDhvz1CVURnr8TYrfkqkOu7N2FbWY33VcU/mzsl/q8p4MvrGp8GHh4dr+ynbqsMp26nDRWN59iNjZOIj+5H9qVPXnVN13JvRz4L9uH/vfkQnh+LrmS3wy8IuGBH4A0YKkTRCCBtpI93+rWs816ig/iec82TmC2dxG30bGaTnX0k0+qjbj9KKqz8lT0E+5uBPC75A39ltEZO8Gnsz9jrmPhY4B3BB4F/3970Zx66cz03mDzlfqY57MndO1XFvxrrFuYbI9cNkvpKx0ZkfpXGRllfyVMc9mSmnjI1JDvhrDdFpK8vSR5rquCdju0pKrtJkvpr4KTl1+oLG8sxV5qzquCdjPZN8le3UiSlN5s1/PVel0U/dfqT5wsl6xbWGlLRclf2hyynbSn9Vx72ZjI8uJ40+8oqsbl2TMSJjozrmzXzJVcampOx3ZA6ojnsz1pVrCF9rf2ed9+7zVgAT8FYAfvdHF7wFgLdMmIC3Hph8J4K3PZhyyt9Z1wX5yKsD+kYfTcB+NIkNYfIdLsI0d+RtIQWxIT0BP85rjynhI7FyYwBWp6xAcPJya9ZKiQUhNHUVpkaMRr/5HbBxV0Je5h8PzgFcnHXnAl/mc9O51RdOzjnFuYaYzq3kUs1XhQFvK+bmQBemnP5cQ7gn0IVJ7nhaP04GX3L1dNnvyA2wLshXkvY7xZWrhGm+Eqac7IviXEP8kaucV02er0BO3VwlfMlX0/mcoI8UeLowGSP+yFXGtKTsdxgb03zlfif/O+vO/zXAhOW9+yaNPh2ejkrfYmNjnSvrun6STzeR6Bvr6HKxPPvRJDasy378LzwNft32WPSf3xFzYicjdlssEnckImF7vDVrpcTWICk9CfPipjp5vn5HXF7mHw/OAbxqYDJ/yO996YDlyWUyf0hOkzXEPg1eDV84/bmGFMcTtlnH0/pxMviSq6fDfofgVSP7NPgTITmLcr9zMpCLnLrxIdgfxbWG+CtXOa9yftUFOXXjQsh8NckB+sgcMAF95IdoOiCn7hjxV64ypiVlv8PYsC9140P49DR46awJ8emweLGN/L5IdHS0dnvJZ5J8rGOSfLoDU4J12Y//JbE+K2YiordEIX5bHGK3xlizVkosFmu2JzgfRlmxbsW6J/jC6c81xIr1E2GSq4Q/9juEFetqSM6i3O+cDOQip258CPaHFetqkFM3LoTMV5McoI/MARNYsa6GSa4SLE8uk3xlbNiXuvEhrFgvBFjPdELgUwr5PQNdkM8k+VjHJPl0B6YE67IfrVi3Zu1UmxXr7rBiXQ1fOP25hlixfiJMcpXw137HinU1JGdR7ndOBnKRUzc+BPvDinU1yKkbF0Lmq0kO0EfmgAmsWFfDJFcJlieXSb4yNuxL3fgQVqwXAqzny4RwOixeVqxbs3aqzYp1d1ixroYvnP5cQ6xYPxEmuUr4a79jxboakrMo9zsnA7nIqRsfgv1hxboa5NSNCyHz1SQH6CNzwARWrKthkqsEy5PLJF8ZG/albnwIK9YLAdYznRA4SEweYkE+k+RjHZPk0x2YEqzLfrRi3Zq1U21WrLvDinU1fOH05xpixfqJMMlVwl/7HSvW1ZCcRbnfORnIRU7d+BDsDyvW1SCnblwIma8mOUAfmQMmsGJdDZNcJVieXCb5ytiwL3XjQ1ixXgiwnumEYMW6GpLTZOLyNCFYsW6tdJsV6+6wYl0NXzj9uYZYsX4iTHKV8Nd+x4p1NSRnUe53TgZykVM3PgT7w4p1NcipGxdC5qtJDtBH5oAJrFhXwyRXCZYnl0m+MjbsS934EFasFwKsZzIhsI2pqalYv369dnvJZ5J8rGOSfLoDU4J12Y9WrFuzdqrNinV3WLGuhi+c/lxDrFg/ESa5Svhjv0NYsa6G5CzK/c7JQC5y6saHYH9Ysa4GOXXjQsh8NckB+sgcMIEV62qY5CrB8uQyyVfGhn2pGx/CivVCgPVMJgT6Fh8fj8jISG0/yWeSfKxjkny6A1OCddmPVqxbs3aqzYp1d1ixroYvnP5cQ6xYPxEmuUr4Y79DWLGuhuQsyv3OyUAucurGh2B/WLGuBjl140LIfDXJAfrIHDCBFetqmOQqwfLkMslXxoZ9qRsfwor1QoD1TCYE+hYXF4eIiAhtP8lnknysY5J8ugNTgnXZj1asW7N2qs2KdXdYsa6GL5z+XEOsWD8RJrlK+GO/Q1ixrobkLMr9zslALnLqxodgf1ixrgY5deNCyHw1yQH6yBwwgRXrapjkKsHy5DLJV8aGfakbH8LvYl23rqmz/pgQ2KmxsbEIDw/XTgjymSQf65gkn+7AlGA/sB+tWLdm7VSbFevusGJdDV84/bmG/NfFOnkOao4piUzRzi1bt0I3y01ylZD5atIfrEdOE5R2sV6cuUqQz5d8JadufAj2hxXrapBTNy6EzFeTHKCPzAETWLGuhkmuEixPLpN8ZWzYl7rxIY4T6zyBjpFYOqs67s1IzACzk1THPRmDRGd1OeVAkYmkY5JTdcyb0beEhARER0dr+0k+8qqOeTKZCLpccqCYxIZ12Y979+5VHvdkkpP9ojruyeRAobnnAHdBSdtirFi3VorteLHOD6fcx4Y0zgFpaWnac5acz03mD3KZzB+S02QN4ZxTXGuIXD9M5ity6c7l0rYKgUcBpDrmyXzh9Ocawj2B6rgnk5w6fcI6jAvtuP6X/xYbIU/bqMPiuDM+BN8RmvD1sDjPYRGvQ2xHVhYOZWbm/mU5HhNlWHafyFXngyVxDm9w+GWbhLGdurlK88d+h5aenu6IA9Uxb2aSr6U9V2nsd8aFZpIDTr5qxofGesW1hvgrVzmvcn5VHfNmsj9Ux7wZ/WM9kxwwGR/S6CM/mFAd82Tk1B0j/spVxqak7HcYG9bVjQ+N+x2uIfy3iw3XtSyxMKne92ZsMJOHD1/LFIsbG68qpzLymXDSfKln6ieDSz91fKSZcvrio+p9b0af2H/0j/1Jf1XlPJkvbS1YF4eB+E3hVqxbK8UmxfoU9J/XEQmbIpwxePDgsXHHMchJPSUlxflbnGNS9X5hzKQu/eJmi3MP6xfHGmLqoykffeL6QfFj0o++tFf1/snM1MfiXkPy6zhjR5jgPCg2Xo7l8WdlZSJr/35kijG0f28G9u3ehV0bN2Bz6GpsWhGE1IBlSF68CBsXzMOG2bOwbvq/WDt1MhIn/uX85esNc2cjeeECpAUGYP3SJVizZDF2JK7B3i1bsF/4uj8jA5k0wUGuA6JdTntkW4SxjVlubdcxX/rRpC77jrnKnNUZjzRTTl98VL3vzfyRqzTT2NBM6tGvDJGXcg0x6UvV+96suGPjj1ylFbefNH64xLtdimtu9cVH1fvejD6VpP2OaXzol9zv8LWLn27omAwMP2FQHfdk/FSBkwGTiOfgJxWqciqTA0uXU36KQj7VcW/GeqZ+MsCcFHR8pElO1TFPRt8Yn+KKDX1iHfYj+5P+qsqpzJST9ehjQT95SSJxa5QV69ZKsR1/ZX3t1tw7dg4fPjbuOAa5oeQnzfyrMyY5Fk3mOfcxqTruzVjHhJN+7dmzx5l7WPdUryG+xIb1TGJDn3hVhFcrTeZWE076yXqmfurO5/5YQ1g+O1vkjOA6fOSoc8WcN0IeEufbJ4T09ohwpCycjzUTJyD6t0EI+ao3Ajt+iqWtmmHxJ02x6KMmWNKsKZa2bIZlrVsgsG0rLP+0DVZ0bCesPVZ0+NR5HSDeX9aqOZa2+FjU+QALWa/FJ1jWpiUCRZmV3bsg9PtvEf37b0iaOgWbVwRhz4b1yBabucNiPWO7skV7DxwU/jG/pRXwR2WmsaGxHk11zJux75irzFmd8Ugz4aRvpT1XWY8+mvhJLnLq1qNfcg2hsNDx04TTNDY01jP1sThzlWbaHzI+uvO59Iu3TlOHmOSrDifrmOaq5NOt556rxb3fMclX1jP1U+53+No+YM4DWM+Ek+B3RezvrJ8Iycl+0QH7gDlAK9gf9jvr1kq32e+su4NzTnGtIXL9MJmvyEVOE/CDXl7F04EvnP5cQ4rre8D0jJYj8mf3mgSkCmEeP/IPhH7zFVZ07oDAdq0RJMT0KvHv1V07I/zLLxDVqzsS+n2PDUN/w8YRw5Ay6g+kjh2F1D/HIG3COGz6ezy2TPoLWyb/7fzd/Nd4pI0fh9Rxo5EyegSSRfmNfwzF2gE/I67vN4j+qhcien2JiJ7dENqjG1Z1+RxBQugv79AOq77sgoif+yFp8kRsDl6J/en6+4ei2O+YgKLAPmDuRJjmKseyp/3OyUAucurGh2B/FNcaUhS5qhsbgvMq51ddkFM3LoTMV5McMJ3PCfpov7N+IkxylWB5cpnkK2Njmq/c79inwZ8ErEdOE/CTO37qowvymSQf65gkn+7AlGBdK9atWSsOs2LdHVasq+ELpz/XkFMtgI4eOYyd8XFY9+8/iB46xBHnQV90EsK8HVZ82hrB7dsisueXWCOE8vrhvyPtz7HYNm0Kds2bg32By3AwbDUOx8XgSEJcrsXH5lpcrPO+Y7F5f1lOHhecRxLinX/nRIbjQMgq7F8RiIwli8S5Z2P79GlC9I9F0m8DEdv3a4R16Yzgzp8huNvnWClEfPBXPREvBD8/VNjJ8wufTwZ/7XesWFdDN1clOJY97XdOBnKRUzc+BPujJIl1E1ix7hnk1B0j/spVxtSK9ZNAOmtCfDqIdbYxKSnJ+a113faSzyT5WMck+XQHpgTrWrFuzVpxmBXr7rBiXQ1fOP25hpwKAXRUtCdjw3qkLV6EWCHQV375BQJat0DAJ02xSgj0yN7dsXbQAGz6ewJ2L5iHg6Ehjqg+TIuNxqHoSORERTgiOzsizBHsvlh2eKhznmxxvpxIcV5xbnKQiwL/UEw0MletwM75c5H293gk/NIfoV90QFCbFlj5RSeEfNULMb//huQ5s7AzLhaHMtUx88d+h7BiXY3C5KoKHMue9jsnA7nIqRsfgv1hxboa5NSNCyHz1SQHTOdzwop1NUxylWB5cpnkK2PDvtSND2HFeiHAeiYTAn0r7T/dxrpWrFuzVhxmxbo7rFhXwxdOf64hRSWAjorX+9PSsD0sFEmT/kbYd99gWfOPsbTJuwjt0hnrhGjn1Wxe3XaEckyUI5opoCmmVSK72MxdzIs2UcDzvXQhztePGI7ovt9ihRDugS0/QUjvHkgYOwqbgwKRsW6dc1u/BHvPdEyynsl+h7BiXQ1PuXoycCx72u+cDOQip258CPaHFetqkFM3LoTMV3+sIVasnwiTXCVYnlwm+crYsC9140NYsV4IsJ7JhEDfrFhXQ3KaTFyeJgQr1q2VbrNi3R1WrKvhC6c/1xAjASTaKnvxkKifsX4dUubNQfiP3yOgxSdY2vR9rP6iI5J+G4Sdc2c7gti5ul3AKIhPEM7+tgJtzA4Pc97bHxTg3AkQ/c1Xjo/LPvkQoX16Yu2E8dgZFYkDO9NzH54nYsIH6OmC/W+y3yGsWFdDchblfudkIJfJfE6wP6xYV4OcunEhZL76Yw2xYv1EmOQqwfLkMslXxoZ9qRsfwor1QoD1TCYE+sZb4CMjI7X9JJ9J8rGOSfLpDkwJ1rVi3Zq14jAr1t1hxboavnD6cw3RFUDsPf7UWo7g3ZeSgiQhYAPbtcLiD951vvO9duAvSJ/5ryNus1YH5wrevNvZHYGuEsj/VWPb2e48OxAagqzgldizeCFSxo1G1De9navtSz7+EJE/98e28HBk7c0Q+Vp8+x3CinU1JGdR7ndOBnKZzOcE+8OKdTXIqRsXQuarP9YQK9ZPhEmuEixPLpN8ZWzYl7rxIaxYLwRYz3RCYBIlJyfnvSo8yGeSfKxjkny6A1OCda1Yt2atOMyKdXdYsa6GL5z+XEO0BZDoi13r1yFh3Bgh0ltjqRCqEb27Ow9ryxAiNnNVkCNs/zO3uBehSb9oB1YHY1/AUqTPmo7EX39GUNuWWPxxU4T/9CN2iOMiwHkRKxzY/6b7HSvW1ZCcRbnfORnIZTKfE+wPK9bVIKduXAiZr/5YQ6xYPxEmuUqwPLlM8pWxYV/qxoewYr0QYD1fJoTTYfGyYt2atVNtVqy7w4p1NXzh9OcaoiOADu7aibUT/0LgZ22xrMXHiOzTw3l6e8bSxY4oP5T3PfT/5O3tRWwU7vzuPX3mw+n4ffwEIdQp2pe1aYHogQOwMzoqL3InB/vfdL9jxboakrMo9zsnA7lM5nOC/WHFuhrk1I0LIfPVH2uIFesnwiRXCZYnl0m+MjbsS934EFasFwKs58uEYMX6iZCcJhOXpwnBinVrpdusWHeHFetq+MLpzzWkMALo8MEDSFu80Hm42pJPPkJ4ty+QMmYk9gYsFYI1yhGspekKuq7xAwo+WZ63yG+dOglx33+LoDatsLzDp85T5NOjIvMi6Rnsf9P9jhXrakhO4/3OIb16BGe37Bz9eZXIEaHZvGUHdGn5iARdTpYmj8HjFZx6bKsJdmdkYvuOPXmvCg9yGnSH4x/rGbjp+HhYL83zQR/37M3Ke1V4HBT9qNsnbKNJO0ljmquMqUmuyr2HyfzBecdk/jDZe0hYsV4I+LJ47dmzB+np6XmvCo+StnhZsW7N2qk2K9bdYcW6Gr5w+nMNOZkASo+MQPTgXxHQujlWtGqGpMEDsS9gWf5PrJ0OV9ELa7za7jxJXvx7y6S/Ef11LwS1zv35tzXjxmBfquev5rH/Tfc7VqyrITlN9zsHMncja9da7N8RKSyqUJaxLQI7N63G3u2Fr+NYejR2bQ7FxoTF2L0lzHmtLKewjK3h2pxs5+7NYU5d1XFvxnps6z7FMa8mfNqyPgipa5epj3sw8pCTpjruzeif46fwV3Xck+0TsaSPTl8ojp/MUhOXYuuGIK1+dDg3hWr1CeuwjTT+W1XGk+XnqmZs6BNj6uQq+yTPx5zMrXkjyDPk3sNk/uC8YzJ/mOw9JKxYLwR8Wbzoo/3O+omQnFasW7NWWLNi3R1WrKvhC6c/1xBPAogPj1v/z1QEdWrvPN099ruvsXPOLEeg8/fPCwpVa8fMuUU+726DrVMnI7Lnl1jy4XtY/U0f7IgId36HviDY/6b7HSvW1ZCc2vOHMI7jvekJSA3rj41BXZEa/DVSgr86qSWv6oONK3sjZZX6uCdLDfkaySv7ICmwu3MOvlaVU5kJJ+uQj39Vx72ZU0+YiY/rg3ph3fKeyuMeTfDkc6qOezFjP/M4Nxpw0pICezi+6vRjvp86bRV12EannZr9QR7mjW5sjstV8oZ8hfWBHbFrw8zcAeQFcu9hMn9w3jGZP0z2HhLHiXWeQMdILJ1VHfdmcqPFyUt13JNJZ3U55cTOv6rj0goLVd2CRt/kT7fp+ikXL9UxT8bYsI4uF8vLxUt13JuxLvtx7969yuOezJST/U4/ae45QCRti7Fi3VoptuPFOj+cch8b0jh3UKzLRaGwxrEoN5Sq456M5TnvcEyqjnsz1jFdQzjnFNcaUtj1o6CRg1wmsaFRrFMAqY55Ml84WccfawjzlXsCvpbIydyPbcGrECrE+ZIP3sXqzzs6gpPCkw+Ms1fSNUzEyvlgIzQEyaNGIKDZR1jevg2SZ89E1o5j4prxZ//rzh3SeBchc1Z1zJuRj7yqY57MX7nKOUfmamHNlPOIsJycbOzZvBqJi1sgObA9dsQMwPaofsVg/RXvlR7b5vwt3T7mWv88X0uz5fbj1ohvkTD3DWyO+k2MH+86jWPRH/sd3b2HNLnf4b9dPJGOkZTOqo55MzrL28PT0tKcczBoqnIqM+WUC5AMssoYBCIrK8vZIHEDkZSU5Pz8Gv9u3brVaTfPQTDgqvPQ6BP5oqOjERYWpu0nfWQd1TFPxvIn89GTkU+3nvSR/cgHWLBfVeVURi4TTpr00/09Ys2WSCvWrZViO16sr9kc6YzBQ4eOjTuOwczMTKSmpjpXf0zGpOqYN2M91ZgsjLGOCSf94pzDuYf8p3oNkT6azFfkMokNfeIn6Tt27NDqR5opJ+v44qduPbmGMF+5tvIaxyGxru7bthVJkydiqRCVQa2aC4H5BzKDAp0rxTQr1PXN+ZAjL347hUiP6NkNSz5qgohf+iN9TQKyRX+Ibavz13RM8qo6c1ZnPNJM8tVfuco5h7lqMrdqt1XM7QcPHsDuTSFIXNIKuxOH4WhWFI5mBFuzZi3fQnB0bwgO7ViMjQGtkBo+AIcOC33mZR6SY1J1zJuxnpx7VMe9GeuYzq1yv8PXLtmAwhpJKWxVx7wZyUjMBZr13Z0/mZlysp60gsfYHnk1gqJ8zJgx6NatG95++23ccccduPrqq/HII4/gk08+Qd++fTF79mzn02PWYRBV7ZeJEBMT44h1Ez9VbfVmJnWksX26dekP67Efeasm46gq58lMOGkqP7nLS9gUYcW6tVJsUqxPcfI8YXOEMwazs4+NO45BXvVJSUlx/uqMSY4pk7mVphqThTFTTvrFOYeLF8+hO7fqckr/aKrj3sy0Hn3iJ+kUQP6cWwtrJpzua8iejAznSuKOhASE/tAXiz98D1Ff9cLOubMdsckrw45QLyBCremZI9hFLPcFLsOGYUMQ0PwjBH7aFsmLFjq/zX6QolRjPEljjnJfxJzVGY80k7zzZ64W235HzO0HRL1dacFCrLdGRtJIIDsB2BduzZq1fIsA9kfgyM4AbAxsi5SwAWK8ep/HOBY5JlXHTmamc48pp/t+h69dFJ86xhOQXHXMm/EKNjeSvHLNTyv5WlVOZXIRUB3zZuRhXbbZ/X15NZ1Xof744w/ceeeduOSSS3DTTTfhxRdfxGeffYauXbuiadOmjmBv0KAB6tatizfeeAMrV6506hIFfeBrCvk1a9Y4gp3/1vGTPrK9qmOejL6xDrlUxz0Zy7MfC8bmZEZ/GFf2o7wNXlVOZZKT9VXHvRl9LBgbfrnL3gZvrXSb59vg5Tjgvzl3yEldZ0zK+dxk/lDNrYUxyak65s3oV8Hb4FXlVMa26q4hcv0wma9M5nIafeLdXPI2eFUZT2bK6Y81hHU3Cz/3ZWZi64rlzpPLlzX7COuGDMLeZUtyf0/cfje9SI2CXf5G+5YpExHa9XMs+aQpoocMxq6NG8F71Zyc08g7lne/DV5VxpOZ5Ks/clXud+Rt8KpyKpOc2vOH4MjOPujcBr9WiPXda/8ADsQCe1dbs2Yt30KFYA/FofSl2BjQGmmRg046f8m9h8n8wXlHd/6gsZ7u3oNGX+R+h69P2wfMBQYG4s0330Tt2rVx33334eeff8asWbOcK+LcLPEugHXr1mH58uWYPHkyOnbsiEaNGjlX3Hv16uVcxfIE1ufGWRdy8dIBfWMd3ZiyvFxIdMG67EcuXjqQnOwXHbDfmQO0gjlgHzBnrXSbfcCcOzjnFNcaItcPk/mKXOQ0AYVPaX/AHJG2YT1ixo5GYMtPsKpda2ya8CcOhAQjJzrytP4ptlNtFOx8UN/uBfOQ8HM/Ef9mWNnzS2yLjMjrGT3YB8ypITm15w9h8jvrVqxbs+bJjhfrm6IG5w4gL5B7D5P5w3S/Y7L3kOB+57R+GvyKFSucK+a8Wt6uXTusWrUq74hn8DaGSZMm4ZlnnsEFF1yATz/91OPPs9mfblNDclqxbs1aYc2KdXdYsa6GL5z+WEMyt23F6l/6Y2GTdxD+ZRekz5phn/RejMYPQ/jEeF5lTxk7GstbfoKgzh2wbXVIXg8VHlasqyE5rVi3Zu1UmBXrXiGdNSH+L4h1PriHt7rz1vbhw4drB58/yfbOO+84Qn/AgAF57x4PXpUnjy5K2uJlxbo1a6farFh3hxXravjCWdxryL7UFEQN+BmBzZoivt/32Lc8wPnddJWotHZqLSciDIdE7LdNnYwVbVoisH1bbFkRlNdThYMV62pITivWrVk7FWbFuldIZ02I/S3WeZ7vv/8eF198Mb766ivnPRPwO+lPPPEErrnmGuVVeQp1GWAdlLTFy4p1a9ZOtVmx7g4r1tXwhbM415CM9esQ0f8HBHzyITaOGIYDQjDyirpKSForJgsPxeGYKOyYPg0r27dBYNtW2BIYgCOF7Fcr1tWQnFasW7N2KsyKda+QzpoQ+0usk4/G3z7nd855ZT0hISGvlBmmTZvmfIf9tddeQ0ZGRt67udi4cSPWrl2b96rwKGmLlxXr1qydarNi3R1WrKvhC2exrCGifbsT1yD8+28R2PwjpI4d5dyCnR0VoRaQ1orXhGDnd9nTZ89ESOcOCGjZDJuWLMaRQswnVqyrITlLhlgXwiczUkx6gudInmVHiAk3JPd4hjA+fdv9eI4oL8SSU895L1r8W7x2P+++MNH2qGN1pPHc+/PO7ZQLF50bc2I5dzvIJ4C7nTvfBEe2ou4hwbtfVZ4m2pkljrv7c1i0/4A4F487/haiTUfEObLEuTLyzqcsk2eHxPlZludnzA6J9w6zvuAk33HtEybbxzgzrgdFW/ja6Rf3suSWfeBmrHec/6LcgbxzFCzrbk6c3fqmYF33vPCriTZZse4Z0lkTYn+JdYLfI+dPsPGJ79OnT3fe8wWMQ48ePXDllVdi9WqROHmgb3FxcYiMjNT2s6QtXlasW7N2qs2KdXdYsa6GL5yneg05KsrtjI1FSJ+eCGrdHFsmTnCEuvP9dPsguf+MZYfnPi1+9/y5COv6OZa1+BipC+ad9Aq7FetqSM6SIdZDcGRnIPamLMLO5Fzbu20lDmfkiVchDo9mrEBW6mLsyju+a3MgDu4R9XYFYh9fpyxD5s5gHKWIYp39QvRRiIrzyjrSMsS5j+4XYpQiVJ47bTF2Fyjnbhk7xLkp/vMFqKhLDiGwj2xfigy3ttN2py3Hof1CWLINgiPfV+ccwnYvxx73OqkByNwljueVl20q2PbjTficznaF4PCOAOxVlsm1XZsCcGBP3gcO6QHYTe6UAGTtEsLXvX2OCZ92BmBf6kLsTBP1BEfOtiUixqLOliDkiLg7dfiBQpawPUFOH7jz7RblDvEDFscfEauMEORsX3K8zwrL2LoCh/bk9aETL8Y5DEeFKGaMed4c9+N+M9EGK9Y9QzprQuxPsc6NLH8zvXXr1tiwYYPznq+YM2cOHnzwQfz9999O+wj6Fis2JryKr+tnSVu8rFi3Zu1UmxXr7rBiXQ1fOE/1GrIjIhyrvuyCVe3bYuuUSbnC0Ar1/6Tx590OCcG+Z/FCRPbu4Qj2jbOm46iXMWDFuhqS8z8v1jOFaN6/AGn/tkaT669Aowb1HHu58/dYvm6t4BaC74gQg4nf4bu7r8LNecfveLsdpsTPx7ZF7dBKvL7xmufQd/Zc7Nwfk3clWKxVW6ci8peXcG3DOqh/ea41uKIunmreBXPiEsW5I8VEuwrZmwZg8FM3405xnob1RZm8svl16l+KJ7/oh1VrhfDMEeKU7abo5r93TsbMTnfikSvd6lxxOe546AOMCV2Bg7xCnenmL68Qp8/DptHv4r4bL8vnanDLM2g7bAIyeMX7iGhT2s8Y8OgNuMNDm3LtBfSeOA1ZR5ZhzZim+MCJTV3hY4FywudrGj+D7tMWC2G9ApjXFm/cXx+NbngJvSZOxcGjoo0U305/UIBHIHHsK3jrlrq48632mDRvOhb1vBfXXt8IjZr1wcqE5WIwiNhl8W6GOVj/98d4o1Hd4/hue6sVxq5YJfpBnC8nBkd3LMGKH+7G07eKNtZXtDHPXu36E1ZtYL+zPaIfs0U8dgdg5Y/34Inr6uGRln2wJFH0XZY4LtvsF7Ni3SuksybE/hTrvC39ySefxHfffecsLkWB4OBgvPLKK84Ve165J+ibFetqSE4r1q1ZK6xZse4OK9bV8IXzVK4huxPiENy9G1Z91g7bp011xCBNJRSt/TfMEewxUchYugjRfXohoMUn2DjD892IVqyrITn/+2JdCL79c7Bu1Cu40+WCS9rtb+L7+QGiQYI7Zyl2LmqOl8odO37mbW9gSMRspP7zBh513rsOLSbMxLZMrlFJQkv3w7BPrsaNF5557JzSzqmFRk81Qacps0XZVTiy6St0qVMRZQuWc7dz6+CNPkMQuVkIyYNCqB4IxP6Qr9Hj6RtxZRVFeVdF1L3jAbT842+kbYsQdYS4p7jdMQsJw9/BfZdXLFC+DCo2eAzNh/6NPQgWYr0POl9YDmceV6agXYO3B/2FfViC8H5P4i5lGWln4eL7XsTIgOXYF98DrS49W7xXDfe264/ovfGiD3i1WrSRt+IfnoxJb16K80Sb6r3UEwvj/8LkD2rlnueRdpgXFSjitk4Im5GY3OMB3H55ZTeePDvzXNS7/WW0G/ondh8V59+5CHPb1UTtMwuUK2CXvf4l5q7ZIOIlcoN5x7+LOuK5q3P7sc6zn2JqzPpcMW/F+klhsveQOC3FOm9L5y3rAwcO1F4gPIGivEmTJs4Ve/62OsE28jvrSUlJ2u0taYuXFevWrJ1qs2LdHVasq+EL56laQ/Ymb0TIVz2xqn0bbJs6yXmQnBXqJcPkT7vtC1iGiC+7YJkQ7GkLFuT17PGwYl0NyVkyxPpcbBj7JhpXKYcyF9bAhWefjTKXPILmYyeL9iQ5AjdmwGO4svIxUVf9ofcwImoONs14Dy+I1+eUux2fTZ6N7QfWANv/wbQvbke9s0XZM+vjxY6dMXBQT/z+Ww90f+VSXFqW5yiLmo3bYdnmVTi45Xt8fXUNVHFdiFtfeR/f/i7K/tIFvw/sgd/7tUfPVxvigrNcqHjXu/h1abAIUiyy1v+OiR/WRQ22p+y1eK5VK/w+VJT/rQ9+7/02mtxe1mnn2Ve8iF9mzcPubLF2HlmLrMj+GPRcFXHsbNR/7gP0/VHU6f86XruynFO+wq0tMGdbMLI2fYdeDc5DZdfFuO219/GdbNNxNgBBkQE4hHkI+/UZ3CcEeeWa9+CDbzph8JDuuWUG98bvXV7CyxS7Zavjxj7jsCV9LhK6349rq7lwbuOmGB3O29WF+ORdAPtCsDeoJd698hycUft+dPhzCfZu/xPTml+KMytUgOu5TlgUu0L4sgih/V7EneIcLtc5uLNJZwz4pZfw/0v8/PHtuK56bj9VuvlZjIiIR076Miz5oi4aVHLh/FufROteX4v4ivYNcPenC6bN/webt4l2HBb9uC8QyZOa4pP7z8cZjLOwG//XCTPi1lmxXkiY7D0kTkuxHhERgcsuuwy//vqr9gLhCfxu+vvvv493333X2ShL8DfWpXjXQUlbvKxYt2btVJsV6+6wYl0NXzhPxRqSKXIx7Me+WNGutfMd9ZwoK9RLnFGwx0Zjz5KFCO3aGYFtWmJL0PK8Hj4GK9bVkJza84cwv4j1Ma/j4XMrocx1N+Huyyvj/PIN8FS335ByeB1y1gzBiNcuQJWzqqBuvQtQtfKZqHrvOwqxPhc7D21E5qLm+PgmISyr1MYzbQYjaqcQ/EgVloLD8V/j22fOQ4NaNfFos4FYJYTxwc3foc+V1VHBdS3eGTIZ+8H9sxCESBMmhOPUt3B37bPgqvEAWo+dJt5bhU3TP8YrjlCti7s/64fVO0WMkJxb52gwNv71IZ5s4MJZrsq4+/OBiNzCtXMDdi3rjk63u3BGuSqo33IoNoM/sxyC5ClfoHu7t/FV31+xevtK7E/5Gj2uOA/lXbeg2QR+UMW5lfOyu20UCwV5Z2L1r0/gTld51KrfAv/u43v0lz4IX7aNxtSP6sJVphoqvPQlQjeuEqKkIz65TsRIiPvmo2cg51C4SHDRF3vmY1W3m9CgvAsXvNARM9OETxvHYFqzevlifUlCiHjve/R6tAZc5Wrh9nfbYYnzUGvGS7Rp0wSM/OgyNKhbAde/0RazYxKQs2MpFnWug8vFea9u2h8xzlAo6M82YaLtByNEs+chasQ7eLURr6ifiYrnlkG5ci5c97oV6zow2XtIFIlYN0FmZqYz6ek2WjqrC3exzqe/33PPPejWrZvRwqLCihUr8NRTT+Hzzz8/7tZ6f/zOum5MWd508WJdE7EuOXUXL4I5oNqIrt8eZ8W6tVJsx4v1DenxeZl/PDg2KNZVY8Qb5HxuMn+YLl6+rCHyA1/d9pqsIaZinSCXbl9ImIh1wpSzqNeQLLG+Rg/6FctbNRN7xj+d76dnR4SrBaG1/7wdjo3B7gXzEPpFJyxv3xY7wsQm2Q3+EOtFlauFAetyzuH+VQeS02y/4w+x/hoerFIFZ13zNN57vRFuOO9sXPn8F1i6dw32BHfGZ5dVwLnV78UHTe7HDVechfK3v3WCWO8gxPruI4nY8McTaFzFheq3vILhEfxuuhB/zoPhmDvhSJ3RHuP6dcCCNevF62AcThPCuFGuWH978CTsFRIaoPgUgvdoKPaNfhK38Xb6qvehxdgZos1TsKzH7bjEVQFlL/8Qf8cH4ihFpvNUdSFkjySJiXQWlne8BOdXcqHSA80xLihAlNmIzPAfMej5Ss5VYtelD6HVt90wYckMbM3is6zIy1+KWokDyX3QTYj1Sq46uPvd5hg04UdMGPG1m32DCXMmIjmNPs1xE+vN8U9GjHgvRRg/pBBifcMgjPnfJYKzMso99TmCNgaJeIzGyFcvRUXX+bizdX+sOyB4D4tzpQzCT4/WFLwX4+keQ5B8eJPQ/KPxjxTrz3fG0jXhODT/E7zRwIUzGzyIL2cJvw8Ise98N1+cQ/ifEdgd4wa3xPhg8R5vg09fhPmdcq+sX3DnC+jc7xdMGCP8GOnu01CExS3BwSOiX0K+wbcv1oDropuEznkVTRqfi5oVXGj0askX6ybzh+l+x2TvIcH9Tr5Y5ycGOkZiOQGpjnuzvXv3OhtKOqw67skYJDqry+keJN6a/tZbb+GDDz5AIh+OUASYPXs2brjhBvz+++9OUCUvN1pcvNzbUhhjXNle1TFPJn3UjalMWtZXHfdmrMt+5E/WqY57MlNOuWmmuecAP4JeuzXainVrpdiOF+tJ22KOGxvSOK7S0tKcv6rjnkzO5ybzB+cdk/lDcpqsIZxzimsNYTtNfCQH/SOn6vjJjHdl8e4s1TFPRk621YRT+mmSA/RTxofbnwNCuMWP/APLmjVF2tjROBgakvswOYUItFZy7HBsNNLnzEJwpw5YIUR7ekwUDov+J9J37HA+YCqYHycz5g7zTnXMkxVVruoY63LO4f5VddyTmXIeFpadfRC7N4UUs1h/FQ9Uroqzr30H/Xs9j6duKIOqd7yN0WFLsHnqm3ikwnkof1dT/NLzMTx65Rk487aCYv0OdJgyB3uOLsWq3nfjRvFe3ftbYHISH/AmhGS+sBMiiz81xu+dOz8XtxIHU79GzytrCIF6KRq3+RLTVk7AykUjsTJgAoJm/oQfX66I88T5KtzxHn4NFvXX/Y4Rb9aEq7xo77u9EbV+pThPxDGf+BC5PQuxa9zruLFmebhqPYnu0/7FYYrn7dMRM+AlXFnzjFzBTqv/MJr9NAChsXOwLZ1XxVciO+VrdG9QHdVlGZXd8QFGBfL74/OFWH8a97jORrWLn0XPf4YiYMU44cMorFwxGbN+ehkv1xXlz7wEV3f9HZu2Cx8QiMgBj+HBimeg1m3v4bcoEaesFche/DFerl0OZeu9gN4z5olyQjgnjcZUKdZf+BzLEldi29hn8ch5LlS5/kn0WyzazCfju/9UW6aIBx/gx4f9Zcfi6PZFWPB5PVwt6ih9cewGNPltHLbyDoXowRj7w3t4Y9if2L35T/zzfm1cIspc8R8V62mRg5Tjyd04FjkmTeYPk70AzWTvIY37HX5QyH+72HBdy8rKUr7vzdhgitjU1FTnE0o2XlVOZeQz4aSxHj8V4WT7xRdfoHHjxs4VcV/Bc1Kk165dG3PnznW45ELC4NJPHR9ppn76EhvV+96MPrH/6B/7k/2qKufJfGlrwbpi5kX8pnAr1q2VYpNifQr6z+uIhE0Rzhg8ePDYuOMY5EYyJSXF+evPMVkYM61Hv3gVj3MP6xfHGmJSh2bKJ9cPih+TfvSlvar3T2YOp/ibLTYi+8R6ECcE+rJPPsTGEcOQFSw2vFaolwpzvsMeHYkdM6ZjxadtsaLb59geG4NDOIpt27djs9hf2f3OiWbUVjG3ZwnOnamrkLi4NfYUo1i/v1IVnH3du/hzeDM0e7gGylz4EFr064uQHrfg7Ko1Ufmt7pje9zk838CFM04Q63eiw9Q52IvJmNHkOtQW7132UEtMWR+Fo+5inVe/+ZvhvOWbgtIR69+i99Xn537/PN/OwJlnl0W5cmVx1jmVUfOCm9D0h+FIPJgKxA3C8Ddq5Ir19/sgel0Bsc4n3Gcuxb55zfHCRRXhqvk4ukylWBecfLp58hQs7vMArrusGiqXkXxlUOWGB/Hp6JnYlx2CQ2nfoIcQ6+e6zkL5ylUFfw1cUKu6m9XEBa99hn9WBwlFQLH+Ahof135hZc7C2WXLomzZCqhYrRauv+8dDAsOwgHG/GAkjkZ/hd6P1sCZ5zTCgz9MwMEdMxDW4w5cWuls3NzsB6xI4ZX5BDexfo4Q650RmDQD8f0fwq2Co9pNT+InIdaP8mfc8sV6iBD+giNHxJnfhXcT61dWc+HM8pVwbg3R/uP8oT2BruMnYjsfKpgRjEO7Q5CTLc6b/ifG/e+i/6RYPyzEenJgGySHDRDjVYjxk8xDxTl/0FjPpK77foevXVT7OiYnK37SoDruyShu5ZV1+emEqpzKTDmleCY44Y4YMQJ169bFL7/84rznC9avX4+XXnoJV111FZKTkx3/6BM54+PjERUVpe0n20pTHfNkjA2NXKrjnkx+6su6quOeTPoor6zTb1U5lbGeCSfbKv10z4HcK+tRVqxbK8V2/JV13knCMXjkyLFxxzHIxYBX1vlXZ0xyTHFMmswfckyqjnszyak7n9OvglfWVeVUZsLJOpyPTWLDeiaxoU/yyrpOP5LTZG6lsQ7NdA3JyeuLddP+QUDzj7F24C/HhLr9ebZSY+zPnPAwbJ0yGcvbtEDkLz9h/5bN2LVvn5OzOuORZvc7nuwoskVceGU9cUkxi3Uhis+6/l2MXd0PY5pcgwvPugEPf/gR+r5/Mc65oA5e/nESVv32Fp661JtYn4qZH16HuuK9eg82x0ReWedvgUthx6ee71mFI7tXCYEpjh3xJNbd7OrX8dPMKdgjxP3RI2uFWB+MUW9fAFc5Idbf7InwDavEfjDymE+M1+6F2DHieVxVoyxcFz2NXtOm54p1Xs0/KHj3LcGWmMEY8r/LcGXFMsh9gNqZuPC2pzFg+UpkbPwOvRueh3NcjfB8j/4ITlmElPiZx9uGpcjcGSEUwWy1WJd25mW4vfnXCE9djmxeAefPzvE30A9PxpwOt+FyV1Vc+WwbTA3rhk8vF5xlbkLzsUI0HxFC/ZBarCf83Bi3l3Ghyg1P4PuFQpS7X1nn+TNyY3yET5jPyRXr8zvVQf1zXLj0mVYYvTgQKWuFDwnuPi3Abv6+vhDBzjkOiHgdjcCRrWMx+s3/pljPvbLeBmmRA3GE49PLPMSx6KxZBvOHnHtUx72Z5OQ5VMc9mft+h69PiwfMkY91+YT2O++807l1PdC5dcUc/fv3R61atdChQwenbRLksj/dpobkZL/ogH3HHKAVzAH7gDlrpdvsA+bcYR8wp4YvnL6sIQdFPUZ064ogrOj4KaK+7oXMlUHIiYqwQr0UWg6fPyD+pk0Yh8AWH2Pd5IlIF/m6Y6f+z+GWtP1O6X/AHMV6JZx53bsYGTMBy/o+iLvPqYBKNWriQiF4q150P3r9Ow8xY97GY3VVYj33O+t7jsRi7eDH8UgNF8o2bIwv/l0qOHhLNsWkMKxE/Jh30K/j+/grNFE4HIzDm46/DX7WyllYNqIFmt9OsXsGXFUfRM8Z85HJ29izhTBNn4QV392PK1zlcPYF/8Ow8CXIgVgbHZEp7GgSjqZOxawW1VGjggvnPfkppoSswFFefWcbhHgF+HVYMU+tnYSYkCEY0+Ee3Man119wLZr+OQPp67/B142qo7zrBrw3ZCIynAfG8fvsbnaE4l8If8w67jb4Xv+OQNDKPzG+zZW4gbedn1EDN7zUFcv3CM7svDsA2E7EYP34t5xb5C+u1xAftngStSpUhOuWJhi7YjGO8OF6x4n13O+sL0tcgQNzm+HtRi6UqXkjnhk4RbRD+MXfVKd/hxOxdVZL9Ov5Kn6eL7TOIX5nfbEj1q8Q8Wj4Vm8sTeNztQr44zxcTtTPzw8K/TAc/s+LdfuAuRMgnTUh9pdYlwFm/X/++Qd16tRxvrvOqxcmWLZsGW688UY8+OCDznfh3UHfrFhXQ3JasW7NWmHNinV3WLGuhi+cpmsIObNF3T3r1yO4d3eEfP6Z89vcOdGRVqiXYsuJChf79GAk/PQjVnzaBtFTJmPX3r15WVF4lLT9zukh1iuizLXv4o+whdg292O8f91ZeVeHK+P8B9rg39jFSPn7DTSurRbrfBp8ek4yclZ+hvb3VIHrrKq4ng+pS6MQ5JPaNwBr++Pr56rhwsqVcMfrX2HRpmAc2Pwdvsp7GjwfMLcfYm9+KATrp7TAx0Kwn+WqiDo3NMGgRQuFYF8jghuEzXPb4L2LRTtcNdHogZb4M5K/VEAOIaqzliD6txdx60VCzLpq4LFeQxG3QwjlIwuxYXZndHu6Md599zPMWCN8d56Cvhs58z7Ae3WEr7Wuw9t//I0d674+JtZ/50Pv+ItPFPgF7BDX5JkIkQ+Yu6I5pmXwwwDRjtQJmPzZTbi1pgtlq12DJz4ZgGghqo/mULALsZmzFtlhfdD32fPhOrMMap17Llxl6+Oxb4cjYRvvABBlCop1Pg0+XvTb1gH46cXaIjbnoOYDL2FiOB8+S//Xi0VkPIZ/UB8X1jgL9Z98FxNWJyB7xzIs/lyI9fIuNHq7N5Ztpv5R+IO8W+edh/VZsU6wvOl+x2TvIXHainWC5/jmm2/QsGFDtGnTJj8QhcXy5cudp8rfdNNNWLx4cd67x8Dzr1271vlZN932lrTFy4p1a9ZOtVmx7g4r1tXwhdN0DSEy92YgYsDPuT/RNvlvHI6LUQo8a6XIwkORExGG/csDEPZFJyxq2wqpq0PyMqLwKGn7ndNJrA9bLYRvbB988VjNXLFe7kJc8PEPSNoUiN0TX8MDl3gQ65P4O+tCXO5ZgEXfPoTrK1HoX4R733wL7dt/gE6fNUG7567CZc77FXDhc18gbEcwcrb0dX667RzXVXjtx5HYyCu8h5JEIAKQOP5h3O/8Lvu5aPheN8zcEC4iFIuDaWMwv+M1znfjeezKR59By84folOHpuj04aN4oiHf5++Mv4fRS5Zgfw7FbAjWTXgbT/MKuqsqbnj+NbRuL+p0/BgtXrwajUS7zr64MXotWYDdyd/iKyHWq7hq4qqHn0LzTqL9bd89wQZOmIS0A4sRNfgp3OUqh5qXfYCxG5cj+yg/CEjG4ZTvMfC13N+DL1PlDrw++V9k8WsBB4UQ3i8EecYMLP/padxQMbe9rrov4rfAxTh4hHcKiP45Qax3zP2d9aNBWDP0bTwh+oK/Gd/oybfQtq3w5bP30enNW3BNDT5A7yxUu+cNTEyIx6Gdub+z3rCyC+c2uhOvfPgxOrUXPrQr4NOP/bAoaplon2gjb4W3Yt0pb7rfMdl7SJzWYp3gFfWePXvitttuQ9OmTbFEDOSTgUEbOXIkHnvsMeeK+sSJE/OOnAh+f4sPBdBFSVu8rFi3Zu1UmxXr7rBiXQ1fOE3XkKOi/Lrp0xDQshnWDxns3PrOB5EpBZ61UmW5D5yLwo4Z/2J5m+ZY/e1XOKD5c7Ulbb9TesU6v+88G0nDn8ENFIu1X8WAILEn3jkcQ9+4AmfyvbNr4c7vp2LPtlXYPeqpXGHZ8CUMDp+F1Kmv4WGWcV2NZn/OwNZMrlFJyE78A//2eBBPNiyXK0LdrdrluO+DLvhl8SJRdhUOp/VEpwt4Fb82nvxqODZACOsMIRSPCsG4cxxmvtzQeRq866xL8HCnHxG7ba1Y9FYhZ81gDGn+KO67uMD5HauOG194Hd/8OxM7+b3yA0LcZa/BwQ0TMf+7h/FYgzIn1jn3erzZbQgiM0KQldIbnWvJOws820Uv9kDg7pWI+/VBXCVelznvfxi+IRAHj0aJ+AofhH+pU1rik0vL5tZp9Bh+n7sQGfsZd9EmxGLv8m7oeh3PdwYqvdADAXxg3pG82+UPrwESR+Cvd87Lrf9QG8yN5Nd4hWBOnYQlv72Cl27L+1DF3cpdhJufa4Efpk5DFuO5cxHmtKmOiwqWK2gXPIr2k2eJ8/N7/aL9h4RY3zIKQ5+thHPE8epPtsWUmPVWrBcSJnsPidNerBNsw9ixY/HQQw/h6aefdp7szp9iCwoKcn7ajbe3R0dHO7e8//vvv+jRowfuuusuvPHGG1i1alXeWdTwx++smySfr4uXFevWrJ1qs2LdHVasq+ELp8kacvToEewU62NAm5aI7fs19gcF5n5PXSHsrJVSo2CPiUbyqD+cB84l/jkGRzXGSknb75Resc7vRS/HwZW90fv1p/Fqu+8QlCKEIkKwaUpHdHmhMd5u9hH+ieGTyYVIXtUDvZs2xqudv8Gq7cE4HNMXP4kyb73aEn+HcW/Mr4bytnf+ZvlKZMxoj/+99DBefl5aY3T46Tck7uVzDvjb5mJNy/oT01u/iLde+AC/zpmLbOccQqTylm4ej+uHXi2exivP3o+Wvb9H8KY08T7bw3JBiB/2Ftq94s7xGJq27IWg7ULQOreG81w0tmuT6JxgbJ3aDB++7l7nOXT9aSRSjm7LLSfaNK3li2gifHslv8yJ9uWwv7BdCO59S7ug+wtP4MNmPyCUQpxi2uFMEf03D2vGNRPneQgvvfgUfp4t4n2Iv8PO46nArpkIHvgyXn3rZfSZOhc52fyNed6Snlc/Yx5ih/8Pr732FF7p+zs27uBVe/rPc0QId75G75caH9euD0ScVm5i/GgiTofCsf6v/+Gzt73783KnPpgVyztl2P68W+NzFiDkl9fQTMSiTf+hSNjJrwTImJ7EDud9KJEhzqnKP2OzYt0rpLMmxP8lsS7BW9bbtWuHq6++GjfffDMef/xx5/fYmzRpgpdfftkR89dcc41zFX7IkCHO0/lOBivW1ZCcVqxbs1ZYs2LdHVasq+ELp8kakrVtK8K++wYhX3TCzjmznN/hVgo6a6XasiPCcHB1CBJ+7IvAtq2QHsFblAuHkrbfKZViXYidw7uDsWnNbKxeOgarl+WZ+HeI83osQvPec/7mv59n/LfidX7dgHEICxh77Hi+jRXvi2Pi3yyrOmf++0t5nrxzLB2NkCXC5DGeJ9ALhzzmfj4v7Qp1jgljOadsIUyWdS8v/i35jnHm8Yn2By8pePyYucf5uDK0vGPyuLsvsp+OWV6M3fzPP8fJLK+8u+XXzft3weMqYzzXRU1Dzs6VQgCGqXPQ2KxY9wrprAnxf1GsEwxIQkICpk+fjn79+uGOO+5wnvT+6quvOgKd303nbe2FXVj423jccOmipC1eVqxbs3aqzYp1d1ixroYvnLpryBHBkTx3Dpa1+ASb//oTOZFhuaJNIeaslX47FBOFXXNnI+zLLgj9ujcO7t6dlyneUdL2O6VSrB+IwN5NS9H/m/a4/PK6aNTwUlzZoC7qX3YJLq93Ca64Qr5XDw0uF+9dKozlGriVu6wOGrJMQ1nm4txyzt/azjmudI4fs0b164i6PC5M8LBcA55TnKPh5bXFe+7nEH8vr5PLeVxdHs+tW79+vdx2uptsX357pOW+vuKKeseXF8ZzX3FCm7xboyuEjzxffvxE+8hznA+ijW58DQvG6bJcH+g/z3esrYr6bKPTP3w/9xz53O5WX/ovz5Hr8wnlCpqIW4P888v6sn2q+Hu2RqINbZq9jq1Jc3OvsKty0NisWPcK6awJ8X9VrEuwPK+ct27dGrfffjvGjRunPUGzjfwN9jVr1mi3t6QtXlasW7N2qs2KdXdYsa6GL5y6a8iuuFis7PwZYn/o69z+fija3v5+Ohu/v86vQKSOG4NlLZshRQj3wyIXT4aStt8pvVfWVyEtYRaCF4+yZq1IjXdBJEX+g+ydK+yVdcP9jhXrXsCHz/FBcgsWLMh7p/Cgb3wSfEREhLafJW3xsmLdmrVTbVasu8OKdTV84dRZQw7u3InY4UMR2KoZds6bk/u724YPlWM9z6auc0osj1N57LSwvJgrjxXOcmKisC9wGWL6fougju2xZx2/T+sdJW2/UyrFOk0IHuTwO9CK7xtbs+arHRa5a7+zbrzfsWLdC7p27YrGjRtj1iw+EVEP9M2KdTUkpxXr1qwV1qxYd4cV62r4wqmzhqQtXoSAVs2xbuhvOBga4oh1lXjzbCFCHIeJ/Vu8mLyFoFvvyUSeR4UhW3Coz1MEJs6dHRkFrBV86xKBmFDkiPYdUJUtrRYaASSIDfV64X9CJA6HKsoUxoTY59X1HTP/xfLWLZAwagSyT3I7fEnb75RasW7NWok0K9a9QjprQlzcYp0wqdO9e3c88sgjmDdvXt47euAt8HySvC5K2uJlxbo1a6farFh3hxXravjCWdg1ZH9aKkK//QrBnT5zbn83+Z56dmQEsoMDkDL2Owzs2BpftW6lsDb4qu1ABC9diey10TikJdhDcZACfE2MEN/hXsX+oegY7Jn3J+b2boVvO3XF9MlB2L06Aoci1OVLl4WK/hMxiJyN8J+6o3/rThg+YBKSo3PvlDC5yk6xfmB1MNYPH4qAls2xOWBZXuaoUdL2O1asW7P2XzIr1r1CNtoEWVlZ+cQ64GTnaRPCALA97AAGxN0yMzOxd+9eZ5IteMyTkadz587OU+CnTZvmnFtVzpOxHfHx8YiKispvE//STjZpk1s3GdgfJglEmCx6EuxHxlcX5DRJWsZOFb8N6fFWrFsrxXa8WN+4kz89cyI4B3BDaTJ/mM7n5DKZP3zh5JxT1GuIJ3Ceoo8m8xW5Tjbfe8L27duxZ8+evFeFhylnodaQI4exZuxoBLZuhs2T/nKEusmt4zkxcTgUOBvLW9+MmmcpfuM33xri6U8HIXi12JBFCy7FuY43XrEPdx52hvD5iPhzMmJmLUEmr84ry4vN3poNSBveBm+fT75yeL7rQiSvihN86vKly8JwKCoUR2OHYsj9F6OcqwIaPt4bAWuinAcG5ijrnNxyIiOwL2ApVn7aBuE/9EWml7Fa0vY73L/qwny/cwh7t4aVQLHOn3zjGpUoOou/06249TkzUhznLdLxIkDhJx53twxh+93KHxTlPd1OnSGOHRZlyO38xrmijCfL4sU1/lyaGP/8PXZVGRPL5ofrPK80ERv6vE9R1pqmHS/WN0f/JuLrHb7sPUz3OyZ7Dwnud7Zu3er828UJSMeo9PnTZDyJ6rg341PSU1JSHPGsOu7JKLi5eSnIyaDzCvbgwYPxzTff4Ntvvz3Ovv76a/Tp08f5W/CYyr777jv88MMPjlCvX78+3n//fXz//ffO+6ryKmNZXpnv1q1bfj22jfbPP/84G2oKd3c/pNFHPuBOdcyTMTasoxtTlmc/sj9Vx70Z67If09PTlcc9mSkn+51+0txz4EDWQcSlhlmxbq0UW65Ynxs7Bf3mdUB8WvhxY0Ma54Dk5GTt+UPO5ybzB7k4JlXHvZkvawjnnKJcQ7wZ20kfTeYrcpnEhpaWluYs0KpjnswXTtbxuoYcPIj0uFis6NIZ4T26OuLX9DveOTGxOLR8Dla0vwuXVnGhTOVauOzyK3Hz1Vfhpiuvws3XNMIN9S9AzTOEgK75CDr0n4Lda2JwWN4+HxMj9u1iQy4tNhKHw3ksAoejxQY96B8E9/sAz9zzAb79eToOp4pNvhCfR2KF2EkQG2eK+Xjxb9ZdvwF7/umPX165BY889BT6/rYM20KicSRStFWc7yjrSB7WjQ5HDr9LH8qryGJzz/fjo3DE7Uq8c1t9PMuLdkaFOWXZ7iOxor481xpx3tgIHHKLywkm6mWHh+NonHu9vPPy6rdzx0AocqLF6wTxvjjfUfofJ8uKenGMjegneWt7KG9VF2Wc4yIu64RwSByJUY9fgRquGrj5uW8QlOCbWM+OyP1aRMrYUQho/jHWTp0ickg95krafof7V9VxTyY5dduaKWzv3gxs3xiExMWtsKdEiHUKJ4roRdi8ajxCFo8Rw2wRMvcWEKb8fnz6YmwO/xOrlkxAdOLSY+/nn0uaeC8zBEd2LkDK8nHinJOwfmMgcjJVDypj2UDsjp2EyMVjERU+H3t5TuV53S23zOFNs7Fu5SgEr5iK1LRVucd8EdT7RBuzY3F00zSsXeH2wLXlf2N9muDMEnHZr6hnTcNy+45iPTmwDZLDBijHk7v5Y7/DOrp7D2lyv8N/uzZu3IjCGjeDGzZscJ52zn+ryngylk9KSnKuOvMcqjIqk5w0d07+m1cgxo4di7vvvhv16tVTWt26dZXve7JLL70U1apVQ4UKFZyfb1OVOZmRs06dOie8/9FHH2H58uWOYHf3Ufqj8vNkxvLsD9Uxb0YO1tPlk8Z+ZH/q1JWcqmMnM9YrWHdz6lYERS9yRMxsMUlbsW6t9FmuWJ8XNxU/zGnv5HvyxuQTxh3HBsekzvjiOeT8YTIHsB7rq455Ml84WV6uIarjnkxy6s51sp2mPurySePXqBITE7Xqsqxsqy6n9FN1bKPYKCQLCx7wMwLbtETq+HHO7c78jnJBoVYYyxfr7e5APSHWz3u4HSZMXI4DYSuxZ0UwsiKXYcvsnuhUpwrKu2qi8ScDsTpYCEshUA9HhOJA0EJsnDsL6+fkWtqyIGRGRONwlBDSS6Yg7POncEX18jij+sNo3ecPbAhZiYyVK7F76VxsmD8Xm5YHYseCeUhh/cVLsS1ACIc5/yB+xgykBgYjUwja7AghfMNXYc+y+fk86+fOxeYVov1CjB6KDEFG4EKkzp6F5IXLsGe1iIVz67j4uyoAWxfOQtKcuUgJWOGI18NRq7F32Vwky3PNmY9NAStxkILdw4P0eOdCTngw9iyZg4359YTNW4gtQcGiD3jHQDD2LV+IlHmzsHEZ/QzAzsWyrKi3JAj7KehF3A6GhuFQjKgTItonjy+Yg11hw/HHE1fiAhHrW57/1mexTmPbs1YsR0jHT7Hsyy5IDAlGcmrqcXllOka85qoX82V80Ip3v5Mi6q3D2qjZiF/QHBlJI0qAWBfi86D4u284hj99BS4uXwk3v9MNC9JEuzMpqnhMCNgDMTgS3B1fPFQD5WvdhGcH/J37fpZKgEcAR1dgf1IvdLmsJqqVvx0fDR+PLbz6fVw5cf79gh8TMK3ZjbjUVQWNHu+CxRTEB4QdV7aAsV5WBPbOaoF3byyH8tc8gq5TF4n3RXvYblWdkxk/IMiMRM72BVj27Z14oHYZnMG7hc44A2fXuhRP9xqCNRuDcZjts1fYfbBcsX5YiPXUoHZICPwOG5NTxPhRj1GORzl/mMwBcv5QHfNkvnCyPOcc/qw4X7t4dbqwxkv5VPj8dEJ13JuxLj9d4O+V89ZwVRmVsR4/keAnGwXf520JPCeDwc1NQaOTsbGxzkSrOu7JmjdvjrvuugvDhg1THj+ZrV69GivFBqHg+xTp9IXtdvdF+kMfafx3weOejP3BOjoxpbG8/JRZh4/GuuxHfkKlU1dy8s4C1XFvxrjR3N87lHMIazZH2ivr1kqxHX8bfKLI8Zzs3Oc3uI8FzgEckwXnSW/Gc8j53GT+IBfrq457MndO1XFvxrqcc4pqDTmZcZ5iHZP5ivXIWbCfCmNcJ/hBtG5dxtSE09sa4sR84wYs7/QZInp0Q5YQv778pnpBsV7jiS6YPS8e2JgIrBGWHI+jwSMx6IHqqCE2uFe/2BtzFqx3rhQfWjIRc1rfh6suqYkLa9YQVhMPvPo5ps1NFnVmIKbrM7i82tl5t9GXQ6Wq5+GeVz7H38MmY9L7N+HKKxvgyebN0Oa663BLjRpo9Oxn6NurF/o9WRfX33AXuvy8FFtChBCIjcSh6f3R/6WbcRF5RNkLa1+BZ9sNRcxSIeTXr0TU92/h9Tq1cMPdzTBm+mpkRkXjqBDQ24e2RrPbaqF2w8fwwXfTcDQhAgeWjcTIl6/ETReIdvNcNW/AU69/jxVREY7oPlEYh+NIbAi2Tv8RPzxyCRo4vtLOx8WXPYA3O/2BtLh4IXoWI7rnc3igwQW47pWe+LVzU3S+h+Vq4uJa9XHlU59j5pxlyIkT/oRH4MjaeYjo9yHernW+8Eu05aKL8HbnT9H+7ptQryjFejg/IAjD+j+GIqB1CyROnSzy6Pg9D/OKOUfTyVdvuerNWN7X/Q73mjp1Jaf+/MH5aj/SU8QecnGrknMbvBC92B+IwO7X4/pyYgxe+zy+mRco2i6EL58GnimOH4xC4vAn0fg8F85q9Ci+misEq/O+MNZ3TLzH8lKsJ3ZFu+rlxZi+Bv8bPA6beUt8fllxbopjKdab34TLylTFlU90PV6s8wOBTPHvghxSrP/7IV6+XLS5zt1oP3GheD9PrDsfJBSodzKBfSAGR3cuReA3t+O+OmVwVv5Xe/Ls3EvweI/fEZ8qzp8jzue0i38ZJ3euPN+OO794XdAP1YcKzgcGBco5MXUvQx/lcWnkdCvznzbhj/BT3gafGjEQ2c74VI9Rjl259zCZPzjvsL7quCcjJ9dkX/Y7vNOOr0v8d9ZPBXr37o3HH38cS5YsyXtHD5yc2Tm6oI8l6TtcTF5dkLMov7POB25ZsW6t9Jr9zro7OOecDt9Z5yKtC1POk60h64XYWvnZp0gZMxKHY6OVAq2wdoJYf+xzzJgdDSQJkRwvcjshGPsmdcHH9SqKTW413N/kJ6wM3QQs+wuzhFBvUK3Axrdcddz9Ri8s/GsWQlrfefwxYTXv+AhDfpmAUS9c4Lw+o0olVJDHHmiHr7v1RPtG4nWF8/FW76XYFCKEwJz++O7561Cr7PHncp13GZ5r9zsiVsZi78jWeLeueK/qdXi/7xzsiRA+xC3E4la34CpRttq1TTBkdhj2Lf4DY15tgEblC5yr/FV4TAj2oPAwHIgOP+6W+CNxidgzZyiGvVoT57vXcawMKl33DL4dvQo5KxYgouNdqMNzlxdlq1XI982xc2rj6fZDERsYjaPJ8xHa9z28cVFllHUvU7U6alSshPKuOrhLiPUVRSDWaRTs+5YHIKRje4R99zVyMjLysukYStp+h/tXXZjvdw4hY0toyfrOOoVmZiQORHbFl/fUFGPzGjz73Wjsys4TghSVacMw+MV6qOSqi3s++xFJe8W4PxApkkGMn3wTr50r7aIOxfra7uh4cVWRozfh/d8nYBu/+y3LZouyjqgWtn859iRMFfk+AfFRC8UePO99R+CKc2VHuXGIf1PI54nVvTM+wZtXifFQ/wF0npx3ZZ1tcOrJOnl8XgWtOOehEGSn/YK+N1UW47EibvrfpxgXMAMrxbzW56lzc8fdrZ/gr1Dqi5g8/0V7+IHFAbc2Or4xDm7nZ4wPFvCD3+M/rj2MhaIc/XUX7AV9o8l45p/rv2yinW5ivTR+Z537nfzvrDv/1wAbTDFqMgGRmBtKXYfpKD/Z0OVkkNgxupO7Lz/dxjby1gX+fJtue+WnPTqgbyaLEMuzH00WPtZlP+p+ICE5dTeUjCNzgFYwpvZp8NZKtx0v1u3T4O3T4FXwhdPbGnJgZzqCOndA1Fe9sC8oQOyjdX+q7XiTYn1l+7txWdUzUPaCRrj7nkfx2hOP4ZXHHsdrjz2I526ui/O4ob3kMXz5y0xkbA7Ful+b4vWaZ8BV9nq8JTb5E4cMw9x+LdHsumo4s+K1ePXzCdg49Vf88dZtqFXxLLiq3IQXP+iAfybPxbpJIzD6tXoo4xL1XQ3x1CcdMPiXHzB/4iKsHirE+rUuVDivHpp+twxbQoIQ0/VB3FTBhXJXPIx23UZh7sifMfnrN/BM+TNQ/vxn8OWQxTgUOQpjX7oU5cvUwtVvDkB8SDCw6jf8eO9FOEcI34dbj8CumADEf/UiGlUUvlz4CNp264s5Y0ZhZte38Vr9s3HGuXfi09/mYldoOI5GHvtaAb9Xvm/JdKwe1BXDv/oa4/r9jOmDh2BK+5fwdD1xrioN8XCXqcgKWoC4bg/jyur0qxquvu9tfDPoN/zx2bt4s6Eod4YL5R/tgtmzxKY2dCgGPnO5EDzC15oPo/VX32LMD1+j/7NXo15VUVaIp3uLUKzzawGHoiOxdvCvCOrwKdIWLczLqGMoafsd3YsTklN7/hBWMp8GT5EoxGX2dMzuwLs1KqDhC19g2VYKSiEE96/Gvjkf4ZUrxPis/Qg6TVwqPBWCcftw/Pne03j3JTEP0N5vh6EL+UtM/GB6BTIdsV5N5O6taD1lCJbN645eTtnH8f5Hn2Nu4mocyRaiN2cWIke3Q7emb6Nn/+FIpDClECb3ut/xR9dXc89Pe/tNtB43BUf5YLkj0ciY7i7WRa4e4PlE26L747u2z+fXe6t1a4xduUqcUxxTilrBdyQIB1J6oPMl5wqxXg71P+yFoP38sCpajIsB+Gvktxg7aRySNq0EMqYi4Kf38M7LTdD11wEImPAxPnorr43NumLy6jxBnyG4Dok47p+L4J9fQ6tX88q89D/0/HksNvOrAfJDi4Pi3ymjMEnMWbLdr735Cj4cPh779/DDBNF2bERO7EBM6CLPk2dt+2BBbKA4Lrj4cL8T/PsvWa6/Uqzbp8EXgHTWhPh0EOv0jbfeh4WFaftZ0hYvK9atWTvVZsW6O6xYV8MXTk9ryBFxrpR5c53vqvOq+qHYKLUw07B8sf7Zvbi8Wpncq0wnWBlc/3ATdPh+IhICxeZy7VQs/FSIUnGsXMUGeOyNlujdoRP6tXoJLzWsLsrXQqNnv0d89AocGPA6Gp5bFq4LXsQ3o4UY2L0NmDcEI1+6GK4zK8DVoDmmzhebvPRNQOom7Bz3OdpcI0TteZfh4+8XY3PI3xj75GWoLbgq170Vr77XBf2+aIM+Hz+C+yqVwxmuK/Bix5FIWReNtd+9iYfPOxPnXfMR/pweiO1jWuK1uuR+DJ1+Xw4E/YlZ714p2ifESa3b8Np7zfFj1y7o+84TeKTemXBVuhg3fjIcaUFi4xlz7EOQA6tXISdajPOte4Gdm4HZP+G39k3R9qnbcBM/sKh6JW7r8Kcj1uO7PohG54qYVX8Yn/00G8gSgjJExOu9S1GuvGjLfZ9i+sxgYGpPtLtV+F/5cjzy7nAkJyUDWzYAi3qjyx01Ucl1Ae4ootvgpfGDnYzFCxHapTNWf9MHhzKP//WYkrbfsWK9EMZbq4+EYtO4N/D8+WK8XvkM+gaEiM4WgjNzIUJ634Fry7tw/hPtMH2TmE82/oY/370BjY4b/xVwwcNN8duSRTiMlTiwrgc6CeFb0XUtnmz6EJ6/V+R1ftmLcOeb32LxxlUibn9hyttXoKp4//y7PsNcinQK7oSh+KP1nahX8E6ZGx5H2wl/Y8fuSBya2zxfrHeaGpArfCN/wk9vXyPGhnu9crjsleaYsHIZDvEq+gmCXfgvOA9tGYthT1ZFzTKiTu2r0Pj1t/D1wB8RtZvz+nZh8SImQthvGYShL9UV5z0bZS9qgJvruHOdj2teaY+/goVgPxqDw7v+xaqfn8YzF7qXEXZ+Y7QZPA4bD4nz8S6GdaPx1xcP4uoqBco1uA9Nho1G6s5IMQ8Pwu+fXING/LqCexlXFVz+7ueYScH+n39qvRXrXiGdNSE+ncR6eHi4tp8lbfEqzWI9Zkss4nasxYbsNGzK2YS0fYlI3M731eX9YlvisXZfMtJyUpGyPxFrTkXbtkQjTojFpP2bnDhsVloq0vavxZptsaK84hyl1XYmIflAGjYf3ID1O+NOUW5Yse4OK9bV8IXT0xpyIH0HVn3ZFZFf9UKG2DjzSqlKlOnYsSvrdzlX1stffB0eeexlNH35YTzesAbO5oaxXDXc0/Ff7IgWYnKd2NSuHIdZHz+AK47bVLrbObj4pi+wePVCpH7zPC6tJjbz5z+NboP+xcGUjTgy+3eMeP5ClKlQDef/70eELxLiNS4CRxPWYfOYL9BWivUfFgmxPgyDb78UFyt5aNXxyIcDERa7E9kzf0T/+yujbM3b8FHf8ZjZ6l7ninyNB9ti8kLR9gUjMPb1y1H+TNV5aNVQ6bUfsTFQtCdWivUQR6hnBc1DzLAeGP5lewz59CN8+NxTePn2hri8mhDr516FuztNyL2y3uVBNKzqQtlbPsBv48UGe+0aYMW/iOn4MCqeUxGu+9tj1myxsR3fCU14u/8ld6Ht4AAcDROb+lghLJL/wuRnr8GFfBp8EYt1/mrA4ZgorP31ZwS2a4Ptq0U7jh7LsZK237FivRDmfMdbCPO1/dDvpZqoWKkeHvtsFLZkC2G18w8MfPICVKpwGV7+dhy2HZyLlT8+4HxtxHXNffig+bv4/PNP0OyZK1C34rmo89xnWLE9FPvX90GXulVRWYyX6ldfjSffeBrvNX0Krz9aH3WccXQvvhB79QOYhrnN5QPmumLp4RgcyZiHdX3vwRW8u+W8y3H3ky+g6UdP47XGdVCddeu8g3FhAcgMaIu3HbH+ILrMDMLhLZOx+vNrUUWI7fNvfgTvtWgh2vY6Pnziclx0ViVc88b3CElbhSOHxTgqGIPMaCAjGEnT/of3byyLM+V4r3wJHm/RA8OGDkPcNiGEc8Ravu13jP7gJtTi8TJnoc4dz+K9d14U8+H1QmyfKepdiNtafIOkraHYNrM5nq0tylW9Go+/84ZoT3N8/t69uOui8ih/0dPoF74cB/ctQ+pvj+PW88hXG7c8+rzw9xm89bRoNzlqvoBfAwORNOFJPFZDvK5WDw++8QE6tW+Czz97D+2bPoN3OnXD5JWLRfusWJdgedP9jsneQ8KK9ZPA19vg+WA7/qScbntL2uJVesV6LOJ3RSMyeTHmTBmOEROHYVzQUqxMiRPCSVW+uC1WTPYxiN+xEsuWjceYiaMxYelSrBKxiBWCOU5Zx8zidohc3rgcC5cMw4hJwzBcxOIEmzQaoxYtxIrUKFG+aPlPbsLn9LXYsCcRa9Nji+fDFCfG0YhbMxdTZv6B4dOnYlZcKBJE/IvedyvW3WHFuhq+cKrWkKPi3zvCw7G4aRNsHDHMeaic6c+1udsJ31l/vAtmz0+C2G0h6ZdP8Oal56G8qwxcN7+OQSPnYn9cIhDzN+a1FqJUbDbPKns+rrz5Pjz1cGO8+PBDeF7YCw++gFYthiA2dBE29X8dN51bHq5az6P3iIVAutjozB2C4c9dgLMrnoe7PhmK2KVCUAhxfKJY55X1cRjx8KW4RHCVO68Obrr9UbxAjnyuV/FV3wlYE7EeCJmIxa3vxgUVqqHRoy/hf9edh/MrXoEX2gzD2vg0YOEoTPlfA7jOEP5UrivOdS+ef7QxXngo91zPP/UK3u81GltXBOMIf+aNMQpn2yKwcXgnNK0vNtNnXoIPfhab8C0HgMnt0eoaca5KV+KuPLEe2+UBNBBiveoDbfD3VLF5TUwAlv+D8E/vwznnnOOI9ZkU65O6ocUNZwnBcjVe/nQi0tesA1JEbIN/xg8PXIJqrlq4rYjFOo3PONg2bSqCP++ImMGDcESIUImStt+xYr0wRgElRB6WIOyXp3B32TKoeXUT/Jm0HJvnv483a5dDuVvfxW+hQtAn/IRfnqsE19mVUe6pT/Dn1D+wcuVkTO31MO4/34Wyl92DHvMDsSvxK3xZrzIqus5Enf99gVmJIncRhl2BbdCkUhmcU+ZGtBw7A7vxL+a1lGL9SwQhHAe3/oYBDwmR76qIK97rhgUb+FvnYUJPf4Vv7r8LT97bEmMil2DL0jZ41xHrjdFz3iLsjfkOPW8s41xVv/aNDhgxbZpo2y8Y/+WDuEW0o1K1F9B/9WLsPyL8UAlaftc8Zymihr6NFo80RKPqYuxRLNPKNMJrvUYgenukEPXDMe7961HVVQ7n3/E0hgTz1n8xH+4cgSGvNED1s1yodt+bGDp1CoK73oKzzjobrsufRNfhA0V7pmLliGb4+PayQsDXQ+Pvx2Jr6iiMf/ViXOgqj4teaIspCWvE+SJwZH0//PLovXji7g8wZMVSxM1rgjd5Fb/61Xjv+1EIWjwWK5eNRrLYPwEbxOIn+tDT79n/Z8yKda+QzpoQnw5ineDT+/iEel2UtMXrVIl1PmCJT191f6AL28k8KJgDp0Ssb0vEhsxVCJzfHk+d43I+Ga35UncMWhmNlH3x6jrFanFCqMdi7d4J+OHVq1DTVQNXvdwX4zPWIC5dHFPWMbPEfZuwetVQdHlebGg9XiGqhAoPdcawmFDE712DBMV5TomJvk5IX4N1m1ZiUVwQlq+PdASzsmxR2o41SNwajoQprXB/fSEM6jyGd8bMQ0pGgsi/oua3Yt0dVqyr4Qsn+6PgGpK9Zw/WjBmNoE9bI33WDCG6YpRiTNcKivXqj3bCP9PFxjAxHohahHU/f4Tnq/GKkgu1H22PyUKAHtkSgOjvXsdj5YVYr3QHWn49BkH/TEfCP5MRNflvhE7+B7FLxMYyYinSxeb15RpCAJx7Pz7qPhhrQiKwZ/pw/CHEelkh1u/4aAhilGL9UnzUd6kQ64sR2OpWXC3muirXPIfev8xF3LQpiJk6CVGTJiBkykwkB67AwYgoYH0A1g5tgbdEu87ImwvL3fERBo5dJvbbQgivnIaQjg/hPCFYXPVeQJ+fRyJm7nTETJmMyEl/I3zyZGxYFoKssFBky59wi4wGIv/B8s6POLcGn13uUXQePFa4tgBz2t6PB3jLe7VrcfcXfyPbTaxXub81JkwRG9gTxPqnmMHb4AN+Rd/HaqOMEAU1r3gbv06ciqgZU7C4XWPc7txWWxv3FOV31vOMt8LvDwpE9Le9Edi+jXO3hkRJ2+9YsV5I4/emjyRh54L2aHfDmShb70a8M2A0hr19IS47+2zc+ElfrN65CweDuqDr/XIPobALb8DHE/7BzjW9hFivigquS/Bsn6GI30+xHo7dwV/i8+vORJUKNzlifc9xYr07ViAYmam90KU2v+9+Iz74fQK280nyfEo6v8t+WAjTIyKu2ZHYl/+AuUfQa+EM7AjpgJbVyh3/wEY3O6PiPejy73zszBTnyCwYA+F/ljj/ETGn8bvke/7CvJ7P4oErLkbdmufgbH4Yedaj6D57Ng4dHIu/327k+HZj65+xkQ/iOyrqZMcg7rf78VBNwXfDi+gy+FdMa90QlQveyi/trAtwcYfvkbzuW/xy8wXifA3w0jcjkOo8OV/4y/bQXxofJBc3AL+3vA8NL78Qdfi1Iec8Z+DeVt9i5qqV2LlrleIW//+aWbHuFdJZE+LTRazv3LnT2XDpoqQtXqdKrC9cuBDt2rXD4MGDnTiy/9n3qv4/JWJ913okb5iBKb0aO99/ciayS59Dsz/nIkosFMeJUQrGnUK87YxHghBS8TsSkLhLvKbtTDhBPMbJ8k6Z3OOss4avhdB2rszmlylQP58rUVgckvaOR98X66Oaqyrqi43Wn/li3e2c7ibPT9sejzU8V7rg2CH+zePi9ZoCV8Ydsb5yCDo/mfuhheuMs8UGsjzKly+HctIqXoRaz3bHyDgh1vcnIcnreUXbxLHj2iViF7/tGGecaFuun3nxEYLcvWwC724QsYjfuRZrk5dhxdjmuKPll/hy9nJsz0oSPNEOD+8KILesu4axyedxO873RVuP9Uvue8ddJRciPL9vM9Zjw84oJE5ugbvrioX3gofxv1FzrVgvJCSn6eJlxfqJ8IVTtYZkbFiPVV0/R+wPfbE3YCmc31ZXiDFdk2I9qM0tuLiCC5Ufao9J/4iNV2wkjvDnyAKmYn7zW3GJ813KS/DUR78iOGI9cub8hmEv10els8uiQqWqOK/auahRrRqqVz8fl9z0DD7qNwOIXo6MP9vhrQsqOHP2mWXL44ZnPsOYQeMw8rmaKFO+Mm764DdEu4v10Z3RqpELZSpfjPe+XobNq+Nw6O/OaHb7xSgv5rlzKufy1CBfjYtw6T3NMOTPecheI8T6mkTsmjEIvzYWgiRvnbjjvZ+wdMla5zvoiF+N7f98h+53VUX1suVQqXIV1Dg393w1a5yPa+94Gv1GhGBPaCSORsgYiU31ugWI+ekdvHAmHxwnzi1Ed+VK56L6uRVRuZx4r3J93NJmDPYEzUf05/fi0nNcKH93S/w5WcTREetTEdb2bpwlhJHr7rb4d9oKIG0WFrR/EvfwgwOxKT/7nIqoVLEizq1cAWXPYNsvxu3PfF3kV9ZpvLqePOoPLG3xETYHLMPRvDmjpO13rFjXsIPxOLpuCCY0aYAzzzsPVZ97FC9VrYCaZ9+GT0b8hV3Yisxl3dDtAeaeyGkxVitVroiqVSqhWjUxXmqci4tueRidp/0rxHpPdKubK7jfH/Jn7k+3IRTpK4VYv/5kYr2PqEuhfy3eHjgOW/gkeX6vOzMEh7cvx4HtK3EwIwx7pjfD//LF+kykr+6E1ueVxTmcR8pVEG2rnN+2GjVroF7DZ9B3zkLs3i+E73FiXQjIjBAc3RGAPWlLkLEtWMSCfGHI3DYV0cNfxr1ncFxfhQ+HT8GeHeMx+T2K9YtwXfPvxX5LzCt8sN4RsYf59T48UF206cYX8eVvgzC9TSNUpFg/82xUEGO3atVKwqrgvOrnoual1+GWPj8jbUNf/HJrLVR0XY5new3FBufJ+WJOyRLjcIfwd1sgDuwMcUTu4X1h2LtmNBZ/+SBqirmlapVyqFyxMqo1fBqfjZmIfYeFb/vcffuvmRXrXiGdNSE+XcQ6f3Znx45jnyAXFiVt8TpVYp3xa9asmdgc1cC9996LgQMHesybohfrQgRnxmPV4l5oefsFOKfcnbjt3nNwbs1KuPb9vhgTvxnr04WgzC8vRN92IfY8mpv45e3TyjLSZFlZTvx1E7HH3hfCMt3zlfUECtnjzutm8nwe2nI837Er652fcKHiOeVwe8uB+H3+Isxf+S+mB0ibiZmhy7F6k1hgFOfMPy8Fr+KYtHzuQsQpYfc6xG9cin/7P4/b61eB644P0VWI9W2Za51z8EMRT3Xd+0NdJs/E8dw4FGjPzrVI2h6JxH9a4wF7ZT3vncJDcpouXlasnwhfOFVryObAACxp+j42/TXeEVxFcQs8Lf/KetvbUaeSC+c2/gyTp4mNF7+zHS42lbGh2D2nH3rdLQS52CiXu/gZdPh5JrKS4rB32q8Y9OJlKJcnjB2rfhOeajcYCcvEpjg+FPsWDUa/B2rmfgdU2Dk3vok+Xw3C6Bd5Zb0abm1a8Mr652hztQtlq9XGB18vRhpvQ41agS0jOqHlbecf46HVeQqf9xuP5NWhYv8biuyoOBxZPRsxfZ/BnRTGQkw0+34ikteuwVHha3ZkBA5HB2HTxN7ocUclVHY7V7lLbkaLPv8iaZkQxvxdcnllnVfZ46JwcMFIzHn3VlTIv5upPp5r0xLdm96FBmWq4Ip7e2BBwDyEdHsAjSq7UOm+VhjvfmW93b0oX17MTfe2xfRpAWKhjEJW2ATMbvc47nZrx62vvYE3r78aF/F31p/75pSJ9fRZ07G66+fOrfDZeT/jVtL2O1asaxhF56FZCP/txVxxek5ZISDPQv2XvsCMSD4Mbh2ORPyEwS9Vg+usyij3fBv8M3c84qKnIC5kImKD/xZDdBY27wnAvrXd0ekS/nTbzWgydLwQ3FKsd0Nnj1fWu2E5IpC9bRh+f/I8sUcqh4tfaY+pURTDy7E96HN0aHQ5bmz0FPpMn4OkWe3Q5FoxJuo/jB7zFmNf3I/49o6znNvgb3i3G/5aOBdxERPz2xa3eia2bVklBC8Fo5vffLr87sXYO/kjPHVnA1x559v4ee4cwZksLBh7V7TG22eeibNdjfD+0CnYtU2I9Q9vQDURm/OufxB954XhEB/Gd3gcxr92FeqUEXPkQ29jzMzpCOt5J8qXFfNM/efQZ/wfiIub5rQnTrQnJuQfJKYGIHv7GIx7vTYucZ2N8x7/CKNCIgTvSmRE90LPGxvihob3o+PoSUjdL2LIK//8zv2W+YiP+gsxQZ3RrkFlnCHid1fLHxC6W8wl/+mr61ase4V01oTYinXvKGmL16kS68SUKVNw2WWXORuKiy++2OmPfv365SeuRJGL9e1rkbJLiMABL+K6SuehSuMOGPT7W3i5YQWcedUbaDszFFv2xgvxliBEVDiiQgaiy1uP457nO6Dfn4Px+y/v454H73Hsgaea47uFKxGSvg5rRbvWHUjE6pBB6NMk9/g9jT9En3kzMGZUW7z30D144dNfMSktGiFRv+LLZx7BQw99gu6zF2JV1jqs3xuDFct/Rtc370HjZ5rjqwUrELF/Cn5+3V2sJ2KNEOyJ25di/Lev4OVH83hoj76Il78ei0XbEpC4Ox4hs3qh2Rv34KF2LdGh75doLcrc99jjeHvgJCxaF+s8MI3xkGK902NCrFeqgCf6ByE0+whysAu7Hdsp/r8FWw6sR+K2aARN64YPX70HD3dsg07fdEUrcd57n3wK7/8+HQFp65CePgPDe7yNJ2S7HnwYj7zYB3+IzWRctvBz9wYsX/AdOr51Dx5970P0njYNv3Z6Bs89IsqKGN3zfgf0WhyOTWnzMaHv87i5Xt4tXJUuRoNbH8WHXw3HP1u3Yv3mIMwZ/gGefELy3IPXuw/A34lbkbwvCQnJAZg59EM8/8x9eEbEZdiY7uj+0d25ZR9+Gk9+MRQzNkYhYU8C4nZtwLYN/2J033dy2/DQI3jsqc8xdPCHuPvmqnDVtmJdB5LTdPGyYv1E+MJZcA05KLgTRv2BFZ+2xp5FC4rkwXLSsiPCkR0ShO0zRmP+4F8we/x0pAYJER+R+2FATpQQihEUuEMwf8BPmPTLCKycsQiZcSLvI0OQMXs05gz6RczPeTZyEuIDxKYtLsIRmQdCA5Ay8XfMH5h7fOZosZmdMw8bxflmDB6Mpf8swq5gIY4FX05kJPYtm4nIkb9gxpChCJu7Uuz/wpETLTbLYWIDOOmPYzwDBmL6uFnYHhYuhL4QAaH0R2wUI4KRFTAdqwYNFGXGI3bJcmTG5ondUHFcxO5o9EpsnnSsTbR5YychOVhsmKPchXqehUfiSNhK7F/wF2bl+zoeCcuXYtviiVj2ywDM/WMaNoSswPbZ47Dot18wa9w0JC/Pve08JyQQ6TPGYgbbNO5fpAWtEv6KdiSGibZOw2rp06BfETp/HtZMGIeFAwZjyd9zsV3EkB/M8OFwx7XJB8uJjMD+FcuR8HM/BLZtiX0pKU6eZZew/Y4V6zomxiSikRXyPfo/wl9s4IdDdfHaz3+KNZ5PQucV6ekIGfQkbuexetfi8acfweuvPY7XX34Urzz3OFp0+AGrd4dg37qe6HxJFZRzfmfd/cq6EOvXlkHl8seL9Xquymj4WBcsORyLo/sWYcvAx3DNeWeIPcIFuPKWu/D4E7fhvhv5CwiCt8Yz+HHxQmxf3C73O+tXPIAvZgThyLZ/Ef/VHTi/vAvV6t+MR599Gq+/+hhef+kRvPrCc3in90DEbVkpOkrMB+5+748SvgVif3ArvHwOfS6PWlffgEcfvxePP347HryzLi7mnQR1n8ePCxcgZ/9Y/PXBTbjAiU8ZVK9/m9jr3o3HH2uERlWEMD/rMtzXoT/SdocjfdFneKehC2dWrItbH3kQr7/+hIjVY3jthYfx1gfvYNzKSBzavQJbx7yI+y46C67yNXDFjXfm8t52Ic519kkP4MsZf2LlpOb49PGbxR7zHjz1VGPh26N4/cUbccO5gvOca/DKt8OwKVvk3H433/5zZsW6V0hnTYhPF7HO76xv3Lgx71XhQT9128pYmiQQQT6TfiS4oWQe6KKwbWWutG/fPm+Sz7WLLroIzz//PH7++WesX7/eKbdl/wb8tKBTkYn1uJ0pWL9mPH768FJUqnQh7vzqX6xImITvX7oEFc+ujXs7DseS7RuQkJ6IpB2rEbmwI56rxYeHVMelDeuhXrVj7XW5qqLe299iaEQENhxcg+AVP6Pba42Oe9JwxaufxyMPX4Ia4t/n3tYeg1OF4F3xGV50jt+Il4ZPQ8CRFKQeiMHi6W3wHJ/y6boZ/xu7GMGZ/+LXN46J9b+zUhG3eTn+7v8gbjmuHXlW/xG0nLwUq7cmIHjUm7j1fPFexYqoVrMqyuSVuabD35iVlITk3bmiU4r1z592oULZM3HxrU/gqf+9jbeavIbX3qX9Dx90/B6jY+IQvT0WAUNewHVsY5XKqFa9ch73Gbi1278IDJyA/l24cOZyHbNLcM0LbfFjwCpEHdiFZeOb4Ck+/OSMsrjouutzn2Iq7YzquKF5P0yePwl936jhdo5cq/lYbwyLDcfMYe/jgYa5333NtypX4NFOgzB5XTqS1i/E+M7X517tuvBa1L+0snPLW37ZC27HO39MR+CWJGxf9y9G9XweN1zE29dkmXNQ75pLUb1WebgaPGXFugYkp+niZcX6ifCFk/1BP2VM02OisapLJ8T1/wGZK4OK7Bb4XAtxHqJ2ODYBWJcErIl2bgE/4IhfYfwbHiHeXwusF8f5NPgYIfBDWS8cR+LERp3vS0sS4yGaIj3vHE7dxGPHE8WGMyYSSBDvrRPnFKL+kBDHTllxzmx+R3ytKLeOD7ITwlm074B4/4AQt8edh7ZWiHj+HjrbkufLASHYc6IFh1NGtFW0JSf/ODlkm/L8yT9X7ocP+eWOM3FeJ0bifPl1RLyihRBw3hPnShRxE6L6cIx4LeMYSb9y6x6S5Zz4hua+zw8PYmRb8yxW+M+r8SybEInDbK+yTT4Y7xyIisTmiROw5KMPkLZkMY6IfMvJG186KJirhQXLc84xma9Y14p1AzsgxurOqVj17a3OXTKuKk/gu/lzkcXvZFNoHQpF1tbRmNnhPtyav67mWc3b8bEQ9gn7VmH/2i/Qik9zdzXAKwPGIA1iXAqxvmN5J7Sqm/v+e3/8i934BzPf59cCXah192eYd1CMF94CvnE8ZvR8BNdUdjs/7YrH8OnYCUjZG4GsmR/g2YvEezVvRau/loq2CxGeOBx/tbld7K8K1Kv7CNqNGIONvJ38QFgBv4VfB1bjyP5ZiB7dDu3uPAdnnVD/ITQfNgYbhADHnuEY++41os3no/5t9+Hd+6u5la2DOz/ugQXxQSKZonFk7zzEjn0b71zudi7HquG+Zn2wIFLMGfywYPMULPzhWdxVq0C5i+7Dh4NHYP2eAGwOHYSBb12Jy9yPO3Y+bvmwJ+asXyk2FQV9+6+ZFeteIZ01QWZmpjPp6TZaOqsLX8T6E088geXLl+e9oweK9XXr+BCM4oFJErBOwcWL70ljctIYw4LGmKakpDh3ELA++4fG92nsKxrPL40Pi+Nix00oE5C5II3v0/i+NJ5v4sSJqF+/foHJxIXq1avjjTfewKgRYqJfNgm/LPkc89dMRcxWX8V6HNZmR2PZpE/xcv1yqFTvWfSKSMVGpCJm7Ju4r9aZqHb3x/g2eA2SdiZi3Y5QRC79Em80qulMyGXOb4BbXmyOFh+9iBfuvDi3vdWeReupi5BwNAjjuzdGI34/sOyluPHV9/BOi/fw3sP3otGlFXF2xQqo/0gXDEuLxopVXfBWtUoo57oXb4+ZgcBDyUjJisHS2R3xxmVC4Fe9Hx+KBSUkcxoGHCfWkxGTuhyTf3sXTZu9g/faNEfrbp3RvuULePhqISrLVUPdVsMxT2w6Iyc1Fe/xqvRZqFTrZjzU+gM07dAWP81bhVWb1iJxR25MpFjvygfM8TdD3foh38o1RusF0QjfkYCVI/+HexryltCzUeXi29C4TVN80rUzBs2bh8lfPY4rueieeSEue/hFtGjfAu+++xTuqMfzVEb9j3/BXylbEPlvK7x+I987y3la6f3vvo0mbV/FIzfWcBbiijc+jzbjl2HmqNZ49b4Lc7/HdeF1uPuVT9B30iT89U8vNLlG+HtGPdzxTgu07PE5unV+BY0bVETZGjfixWEhCNu4BJP73ItL+FNIrgqodcPDeLZdG7z12v1ClLONZ+G8d/pjUtxabJzVHM9eVU6Uq4Jzb3sSH7RugiYfP4rrxWLofFf1queKTaxvSBebcAU4XijW+VcHcj7XnUNY3nTxkpwm4DxRXGuInOv4Vxfk0u0LCROxTphysj+yRT0Z05S5c7CsaRNsnTIpV2xF5D2p3Jo1Q+Ot8HsWzscqPhV+yCAc2LEdHFUcXzpwclXUMZmvOOeYzFesyzmHexUdSE6T+aPEinX+drgjprn/5QWraCBpOCZ93QE/jp6AzVlcv/h+kjDeGs5/z0Fov8/wU+/W6OvY55g0bz4OgXOgOFfOdKz6uSP69f4Oi+KEiBRy3Tn/7n8RMqwtfv7mOwQm8XbvcOxe+B2G9u6IEX9PQwZ4QYccm0S7ZiHoz6555xfWpwuGzJwnjqXmWuqfmDdEvD/4Z4RsFLGW7++ZjJnDOh2r900vjFu6LO84HyJNP+irNL4mL9uYhEMhP+Cv7/LqOryfY+C02eIY7y5JEMJ6CMa83RDlXZfjnlbfICH4R/zWr21u2UHDEL2dH87n+etwRiJ9TjcM++rYOYeMHYbkLMaK7SG3EHdHFiB6Snc33k74ZcoMEVPGm+fZKxbTfxE+7th5cu1XhKWxDwVnthD+/+knwpuLdZP5w3S/Y7L3kOB+J1+sSwFWWGOD5aSnOu7NMjIyHCHLxquOezJTThkk1lcdL2jy05YuXbrg2muvxaeffoqRI0d6tREjRuD333/HkCFDnL98KFr37t3xxRdfON+15utBgwY5//7111/zbcCAAfjll18c45Vi2g8//IDvv/8e/fv3d4y3ff/444/5xuOyDK1v37745ptv8NVXXzl/v/32W8f476+//toxHuvTp89x1rt3b/Ts2RPdunVz2sp/9+jRwzG+pn355ZfOcX5wIY1xoX3++edo1aoVPvvsM8fPzp07O9apUyfHOnbs6FiHDh0cYzleJWc827Rp4zw8Tlrbtm0d4/utW7fON5Z97733nH5QCkRhFctXwt0P3Y43OjyFvwNHIXoLnwZu+rR2IbK2JWLTnmkY0vFuXEixedEz+OD3n/Dz+EEY0fsN3HW5EGy1H8I7I5YiYd9arN8ZJsR6N7ze8DzRnoq4+r2vMXZ7DrIOBiNozOu44uxyKON6EE0mzEd0+gR8/+aVKH9GJVz00GcYnpiM1CNbsCv2FzR/qg4qCr7LHy0o1u/HO+NmYvlhIdYzY7Fsbmf87wrPYv3PPfGI25WIjTm7sVtMxtu3LcSM2UPR/+umePm2ykJU10DF9/tj1poIRFGsNxJCtWx93PbJMCzDZqTlpGDDrjjEb41GTF5cpFj/4pncK+s1r7wDdz32OB57ujEaP0l7HC982B1DIuIQtT0Wy0cIsS7a6Cp3Je5pNxJB2I5tYsFcmzYK3R6piequSqj1WBv0Co4Si+lepG5bgnFdG+JSivjLX0GnWasRNO9TvHG1eF32YlzW9DfM25kszhKHWT8+gdv46XiDxvh4SrRzq/usr+/GBVWFH3e1xPcr4nEUgZjU7xlcI/KjfOWb8bxYfAb+Mx6T/uyIJvddIvrjQtR/ZwD+2bAYE78SYr2KOF/VxvhgxDysFdvH1Pgx+P410Z/lKsD1Qk+Mj16N+b8+gturCv8vfwqvjw8SS/8WbN0fgElf3ImrKp0p2v10sYn1taJvVHMXPwyTv6CgOu7J5NyqOyfrzq3u5ssasmfPnmJbQ6SPulzkIJdJbGhcnNPT05XHPJkvnKxzkPW4IRGCJO6P4Vje4hPsXx6Qe1W9iL6vbu30NebRPpFP8T/9iBVCsO9ck+CIdY4vVU56MidXDcYky5uOD9blnMP9q+q4J5Oc2vOHMH5FYPemkJIj1veH4qgQdsmxMzBx9LcYOqBrnn2JP4b0wYQx32HSyN4YPaib2zFaNwwfJATw6O8wcUxfTHLsW0z4oxdGDuyKYeL4sIE9MXYUj3+NP4d0x/ABXZy6wweJ90fmvj9uyJei7JcYOexr/C24/mJ9N45hg3vhz5Hf5p0/l+Nvh0McE2WGDe4tjov3R32Fsb/JNopjv/XGBMHtXu+v4T3xx6+59Y75caIN+5Xt+QZ/5dfNrT9R8I7+rQe2rl8I7BklxHruA+ZuafcrwrcHY8a0Abll2RbHL7dzDuyB0X+Itrud8++RX2HMYPK5lROxGTfC3V8RpxG9MEr6K2y48G0cfXY71yQnlt3x59DezvfhnSfJ83v5qj73ux0v1tMiB4rxo77AKI3j32RMsry/9ju8CMN/u3gSXeOGUPW+N2ODebWAG0p+QknHVeVURj4TTppOPXYIP0GhAK1SpYrzgLPatWt7tDp16hxndevWdf5eeOGFuOCCC5zX9erV82iXXnqp0vhd7YJ2+eWXe7Urrrgi33g12pM1aNAg3+Trhg0bKq1Ro0Yn2JVXXun8ZV2Wueqqq5z3aPx3Qbv66quPM/neNddc4wjx6667zqOxXK1atXCG8/RMIaoUVu28qrju7kYYMvVnRG2OwJodCQrBUwgTIitu10ZsXPEDPnuujpLLMSFub2rZDzO3JCNpVwRilnbF6w3OhevM6/BEn/FYfDgNKTlhWBHUGa+fU1EI7ofw3sSFiEscgo6P1oSrYiNc3esvxGyLR/LetUjMDMKEXvfganHuSx7+AsNS3cX6nXhzxHQsO5iClOwoLJnZHq9dLMR6FbVYn7BvHeLSYxEeOw3TF0/E+CFt8dbzt+HqhrVxQbWz4apwPqp9+DNmU6xPbIqHLhP+XPwAXhw2F+t3J2Atn4Du4QFznR4XvBXL4+HeM7EgbSs27Xd7cjqf0J6+Roj8KCz9403czVvY6z6CN0ctQPKeddiQFYXIpL5ofkUNlHVdh6d/nIQApCAxPQnJu1YjTIjQZ87nLfM34OXf5mL8kg54o6ELZ5x/FZ75ZT5CtqwTsUpCyKSWeLKROPcVD+OTKZFI3LgIk768DbWqiPy44yP0WRyGrL2zMKrro4rbu6RVxcV39cDQ9YvwV597cIkQ4Wfd3QxfLVyFrTlChq+fjomf34UzzqkC14s9MCFmNqb0vhsNRN26j3XBsKRkJNCnHdHYIPrjoUZC1Nd+tBjE+hT0n9cRCZuEeBJz58GDuQsAjXPr3r17nbtd+FcuDoU107mVZlLXdD6nX/ylDfmhRHGsISZ1aKZ89IlX8Xh13aQffWlvttgQ7EhMwOq+3yLsy67ICllVxLfAWztdLTsyHAdWByNl7Cgs+uBdpAYtxyGx18pS5OKpMtPxyP0q5xzuX4tlbhVze5bg3Jm6ComLW2NPSRDrmWE4sicYS2b9jmcevw/XXn3FMbumPq6/tgGuF3+vc38/38T7PO5ux5WVx8XfawrUuybv/bz3rvPIJcu6WUEOHlfUu/64enxd3+24d8tvj7uJ9268/kqEBf0l+vVP/PFKXbEvOQ83tv0V8+NmoXHjO/LKFmyLPOeJ5zuxXJ4/XsspyuRxPnDvzfhr1De5V9f3/1dvh88V64eFWE8ObIPksAFivOaI8eN9X2C6Rpoa+Uw43fc7fO2StzsX1uSnhVT6quOejODtzdyI8BMGimJVOZXJCVKXkzycbNlm1fGCJsGryLfccgt69eqF+fPnY+7cuY7NmzfPeS1twYIFzs+MLVq0yLHFixc7f8eOHetcdefrZcuWORYQEJBvgYGBzi32QUFBx5k8tnLlSqxatQrBwcGOhYSEYPXq1QgNDc23sLAwx/g+jf+OjIx0LCoqyrHo6GjExIgNf6wQEG4WFydEmTCW4es1a4TgSkzMt7Vr1yIpKckx3s4vjd8T5+/H899sU3x8vJNIycnJjlDgv/kJtDR+IsT+lsbXLCc3o7x6xE+r+elRQWOurFixwvmOekHBVaZMGVSrVg2NH3wUX/btjF5/t8Ss6EmI8eE763x6+Nr9G7Bg1Dt4utEZKHNWRVSpVR3Va5zn/DTGuTVq4PzzKuOcs8vg3OufQLvZ67B2ZyTiA4RYr18NrsoP4I1h0xGWlYwNB0KwPLDT8WJ9/TB88eSFcJW/DI06jEDwtiSkHdiI5IwFGNrxNlzhOgN13MV6lQqibj08/t1EzN+9G3sQhFkj/4c7znChfMUH0HRiQbH+PSYKUR+5Zjp+eK8WLq5aDbe1HoS/N+xEfFB/dHpStLFcDVRu8lO+WL+ft59f9QxaTwlGEp8iv/1EoVlQrD8kxPr8lC1I3ZeANTvzjHWlWB/+Ju6oLc57/cvoMH011u9MRNK+SEQk9UOrK6ujgqshHuw+CrOzRc7sF3myJwQrpn6ExjWE6C1zO978YwGmLO6AVxu4UK72jfhgbARCt67H+t1rEDyxxXFifa0Q61N73IULqpSB685P8E1AFHIOzsPY7o/icpEnZ5Qpj0o1zketiy/EhcIuqn0JLqlzI+55/SeMFWJ9ghDhtYVYP/f5LvhtVQxSRd+lrfsXf3d2F+vz8c/X9+BKEfeLH2iHftHrsS4rRbQ7CnF/f4J7LysHV53Hi+3KetK2GGfuFP8dN29xfuT44l/CfV7zZnI+51ypOu7JOBdzXqapjnsz0/mc4IcRnD9Y91SvIfLTdJPYsJ5JbOgT50Yu0oSqjMrISf9MOOkn6xFbVgZhVbcvsGbgAEdcZR93C3wIssPDcVisK853nU8wsbGLDne+E36sTigORUU6x47y4XH57xeh8TvafMpzjODgU9pVZUq8HYsjnDjy++78Lrh4zdjzvXBP34EvaKKe2CcgRtZTlck1PhDwKMvFROBw/s/LGZjzvfUI7Jo7C0s/aoKkaVNxICsT2ZpjS+aqyZjk+CjsXlAaxyO5OOdw7iFU5VTGeiac4r/8K+uJS0qIWM+zQ7tWYt/mZeDPllnzbBmblv6fvasAiGrb2qMCCip2d3dd+3rt7m69dnd3d3e3YmGLElLSDTMDTMDQqYQJKqjfv9eZGRxwQGa896Lvn/Xed3HOjrXWPvvss7+zC5/fMLKZcAV357dHzfJN0HPNccheeeFtgrPaNP8l3jL7PiW6MdKm/j7/GlAdWV+EaMFJbr+HLzn0C+hZpGdS2/6O5s/yP9Pfod+6DebUCJF12mDu6dOn3G/Sq0RuhHaCz7preW6E/NTUVrKJ/NRGtE1HQkRb2cH7t+TKlSsoVqxYBkmnEXZ9fX107dqV+yASHxcPUYwvjtqvgaXo3k9sMEdHc4kZCTPH6QVtUZ0R9codFmG/jw2sBbaw9baBjd9zeDzagGkdSyFfkXpotf0BAl/6QeqyUUHWu2LchSfwS1GQdaeVGKUk67et4f/mAY5Oaw5jXgGUbPI3tjn6wZfpDrZcjxF/loF+PgPUyZgGvwETiunBgMVtPu84TCQvkBB0Dcfm/wF9Vg56TNecrGR99GE8TPGFy5Ml6F2CZiI0wsDDd+D0+R341pswqw27RmR9+jFYqpL1RoOw+IEXN6qeG7LedfMjWITSdPnM8UQJWch685FY9cQHIYzMB78RwT/8NnaPrILyzKeCzUdhlqk1wt9FwE94FwemFkcpPZam9QzscPSHj+USDFOQ9enXBfDmyLoEHqZz0beenKzPvOuLiGgnuBwbgsolDcBrNQWbLNyRnO6E+ydHoQ0rp4JF22P8ydsw9bCFjYc5zF2f4KmLJaxFQvBDbXFrYztUZGS91ND1OOMZiEgi67JHuL2qPSPrRRlZ34Jb/kI4nR+IjmVppL8duuxn9YzW84ffxaHJdVldYeVaZ+B/RtZ1G8zpNphTJz+jk+6HMl0oI1Eu82cj5s4tjmRlJusMPp5I8WIdck/1eO8tJ3jfCKAXN0LPhXnRhmwqef1T8CEdSv3/ko48h2o5emb4mOqt8FujsmVxveV5vVPJSy3Y/X5P8Tw9kPKTm8/RzvjvnB3huXoZAs+dYaQgmpsKr4lQXaVnUpv2StlJ11QoLbU51H/VRJQ6NW4/GH7bNeusD4I0IbtRATr8CDRi/doF78MtERFgjpgIZ/lRcOn+38f9r5HGbKAp8Oru8S+DzNPgdRvMZRGls9oo/p3Ies+ePbnRdG2EvoZos0EQ2alpw05lqU0FItHmpUdC94EqkKYvL2WHMjc6aVR/1KhRGUSd0KdPH47ASyQSznaSqNfBOGTzc0e3iV6IIWZk089uDSa2LoT8hg3QZv0t+H+IRMynSEQyAh75IQbJaU9wdjEjeDwDlPpzAU6xDqmf82aMr1MMvCKdMYZG1jPI+gqMNDRihLsLJt20hO9XPh4fHo4OtEt7/mIo16AZmrZqjuY1WqJu7WIoYmyI2j3W4FxEMLz4R7G0dUEUZj4XKlMdtZu3QZsm1VG5OO06z4N+sW7fyPqYBijNK4UGIw7jwWdfuDotx1CjgtDjFUfZug3QtEMrNKxVBsXpvN5CZVBs5jFYMbLubzodnWgn1QYDuJH1H5H1lb15MGL5dtn0I7I+Fm0rs3ybDudG1kOSWL5JQZDGesD9/Bi0rESbzxnBuFo9tGrfCk2b1kZFbpfWaui04SrMExLh82AehtThwaByc0w14auQ9Tnow0g8r1Y3zGBkPSrGGZ6nR6FKKUbWC5dB5QYdMWnXZdywPo01fcshX/4SqNK8Ldp264SO3TqgQ5f2aD9sEqbdcURwmB3ubWqHCsY8lBi8lhtZzyDrK9uBZ1gEvCGbcEMQgASnDZjwJ+08rw+D8rXQvA27b3/URFkjnnwX/YaDMFFH1nMtSp3avrx0ZP17+RmddD/SGKhMA8+fgSsj6++cHb4j6rQT+8t7B3BiTDO0b9YU7Zo2QdtMaIvR47bBzlmEL0IBvgp98CXgNsxm9kefpp0wef4p8EUCpLF8/6kRdtqJ/aPlBdyY3gHt/+yOhTvvIcbNF1/8/1c2xWNlxcrri+guLOYPRv+mHTB+5lEIpBKkuj2D3YqOGNSqGcYvOQ3P51JW7ury+AY6li7N2RzuG4eib7s/MGTBMXjasPwDMpcX98GF6U28shYr+7D73Xc6Tl9jZIJdS1ccs6cpaGQ9xc0VgQf2wHfndsSzOqJp74PqKj2T2rRX1OZo015RWh1Z1+FfwTtGiNPYvQV7r6fx1cfRIRvoyHqOonRWG8W/28i67px19UJp6T5SRdJElDpz8/KiDfcMDQ250fQBAwZwG/TRVP+s8vPnrAdCnEhrrl1wc207bvo0r3ovzLgvRPBLESNKCvLF8pWlMdJ0fgK60KZkBRti0CkzOD5bgzGViUS3wZBTj+CbGonwj55wfr4IAykvdn30lSdwQQxkMZa4sX8EutJu41xYQdQasRQzprdBo0IFULXbSpyUhEP88jks7v6NPsXyK+IxFKmEWp3+REtGEHkF2uLv68/hmfoABwdXRUGeAar23YkbaSGQRDyC6bz2KEXkXJG2ZJueGDr/T1Rn/85XdSb2eLrD8c5ktKMj1Kp0x2xTj+zJ+vtYeLmdwuKO8rzarnmApyFRCM+GrD8/PRRNirG4Nftj0QMv7rx2MStH8QsxQmSWuHNpFvrXNfrmF4dW6L/lOG4H+0OamgCHm9PQpzy7XqwOxl/iwys+DGGMrLvfmIbOFdj1su3xt4kXwt94w89xOfpwO7rL8yrSfi72e4TB3WobZvYsoaKDUAbVxq/HBW8+gujotlVNuaPb9HquwHG3AETRx5ngB7ixqKk8fs9VuOLjh1fJnrC/uhBDWiiPoiNUQ+c+zVGmDPt3mc4YddESUW91ZD03otSp7ctLR9a/l5/RSRtaEd6/iIffPkak1q/hiFpWsv5VGoqYy8uxkM4jzngOskCvCjoOm4UbdwX4KPQHpKdxtLUxF1a+00bYSf1B56H/U2Q9XSTFxwd7sbMDtZXGaDf3CkKc2XsiC/n8fcHKipUXpBdwppP8qMoSrVfBPjQEqS5muDVMj/uoW3XAdlhZhwL+6vL4hnSRBOnP7+Hp3zW4E0yMe2+A5VOWv9gvU7xPfD4j5b6IOzwO3Uux+1qmA5YdfY4vdDyUlmSd6hPNDgi/chEui+Yj3M6WI6aaSF72d3RkXQcdfiXoyHqO8jMdrf8vZJ06W7RmW1MhH8leTYR8y6uX179F1mkd/YQJE9CtWzduF3x1JF0p/wRZF7E8xC/dYH53OzauWIjVp87jsTgUIka8VDdcEyeFwVdwC+ePLMSCLRtwwMIOXgJTXDywCos2HcAZJ2cIk4MQ9IoPH9FNnN6wDEvXHMR5Tw8EJD6HJetUzpvcDe3rV0D7qRuw9sBV2Erv4eD89tzZ61W6LMFhYSikb6UIeW2Hu4fXYfWahVjEsObcaVyyMcW1A4uwcssBXPT0Aj/ZCU+vbcWaNaux7cpD2CUFI5j5Esy/ip27l3PpFq3ZiePPLGAfchPHVi/BijUnYCLyhpvvFRzezcIPHIOJtx9H1LNuLif3WQaB1Aq3zi3E8o1LcdDcCW5R3452ywArd1G8P7ycz2DvTpbvoVO46cfnPnaIuHD2NzkUca+d8fTGzgy/Fq1ZjhXbr8H8ZRCCP8ogYz54el7FyX0LsXTnTlx0E0IQL4WUkVQ/zys4yq4v2nsQl939IH0dgIDYp7i5bzVWcXnNx/rT5/AgKBZhiQJ4WO/Dmo1KPQzMpkt+Arz4EApJtAfsn+zBus0LserSbVhKAxD8KgiySCc8f7wXizaw8rtoCttgAYLfRSI+3glW93Z9s3nzeZg5XcGBk6uxaOdhnHdzl2/Qp1om/wh0ZF1VdGRdvfyMTiLqtBN8vJcnvLduhuToIW4U9FOWXeC/SkIQe20tljXnQc+wOFr2nIaVcxZh+8J52L5kGZYNaI7GhkTaS6DVjKsQefiyNDYQndmLi+u3wfT8I0QLGYlm+dLad+7s8bCQbwgN4s5BpzXnNDU7zZ/VdToClc4kFzGyIlPGlcnPBOcz8hkgwcdHh3CwZ3HwjCuh5xIThLkQWWeduACWLiONEuwaI5wfvVlaOoucrslY3tx6bPlU8k90bjrplbFwoXpiSue0p/sHyOOp5k/nwnPnvjNSy4gxZyudiU4EV3HW+Weyi5FthEgzyPUHIctLxuJmyouVRwCNrDNdQhuIz+/H5fVbcevMA8RJgpDi9AR3x5dEJQMemozcA1sblkbIyo3Ojs/qN53THujHncue7vAAz2Y2QZnCeqg6ZDsc7Jme2HBFPPZvsQDpAjlZjz8+FYNpuVTNnlh/0kGFrAvYfWFxM3Swf7N7kp6lnDKB6hMDrVt3mjEF4ls38FnD5zgv+zs6sq6DDr8SdGQ9R/mZjtb/B7JONtIGbLT5mqb2ko9kryZCvuXVy+vfIuu0qR4diUcb5ymF0lI9yFqmP0/WlRBB+iYckZ+iEZ0SguAE/+/jxPlDnChDWGo0Yj5GIOwVTZ8PQmhqFGI+hSE0mZE1FicgjhHThGCEfWLX08IR+joYkS8e4fjcVijFSDmveBV0W3IYBy6fwMm9Y9CzVhHWwS2KWiO24np4MLfZneQlI+y0kVka08UQnRKKsDcyhH5g//7IdCUxHXFiBL2LQFRaJCLfBUFCuunjQ3IIIj+QbkobgfA3QdzO6+FpUSxtCGQJgZwf4SyvmNRQhCTmMBrM8hQxsiijzeCYP+Gvmc8vvh3tlhVipjtCka+M5Zs1XsALyisiw68YpU1E6rmyY2WcxMqY8vjAyi4pgPsIEBDH/rLrnM0fwhDC/KdrdNxeCPNVmV/UexmCXwq5jwd0P6PZ/ZTrkaejo+lIB4VLXocj6iPz610wgl4y20j/CzEkLF0M3bv3wYwoK66zMghmZZ1h8yfm32vmK917li/NIODsyeLvz0NH1lVFR9bVy8/o5Mg6+xtq9ghe61Yj8vpVbvfu7Mj6okY8GJaqgTmHvJEijQGiGMmMicfX56dxaVx91DIoBKP6k3H5sSNSJS6IvHEGZoeOw+aWBeL5fozkChn59kCEyX7c3roRZzcrsOswHj50YgRVwEihN149vYwnezbiwumr8HxwF95HFPG2bMWD23Z47ccIbrAUHx5mIeuufoysBiPF+irsD6nkv3kLzm+7CrGrF9Jl3oi5exL3N27E9aM3EeTOCDbZ5ueLVOubeHZgI07uOwlXczeksXLItAkbI+pfJP5IcbgPVxbvW/4M+6/A186T+eeIyJvHcHXDDlw5ex9R7J2WLiTfvZFgfgXPtq/H2R17YffEB6l8Rq5d78P26M5MeV3aexAetvTRhJFgoT1Cb53Dk0PH8Oz6UySKpd+TdWtGmmX++OhuAb9jG3FeJa+zu8/C2dyZ3eRgfFaQ9bJF9FFr7DbcP3MO9gc2y+PtPAjTew74GkAb9vkhLitZ5/PlYUHPIT21H9eV+W87hIe3bfGJlctXRug/ZbO+PY3Vq1RPN7gvng+/E8eQ8vq1vBLmUvKyv6Mj6zro8CtBR9ZzlJ/paP1/IOvkG40M+/n5aewn+Uj2aiLkW169vP4tsq4unOoAIWsd+OfIOgM3ki6H2nAFlHGUo6hZf38XjyHonT8cLFdherviKEiEPRMKoVjTkZh59Qm8XsmnUmeMRqtCJc8MPRnh3/RyswUyrn8LU/5Wxsv6O0co4v545FgRL6d8lXmpIGucjLBsrqtey5yfyvXvyoFBNV1GuOq1HK6r5sOQKX/VeP8odGRdVXRkXb38jM50VpZUmoEXz8Nj2WK8NHsonwKfDVlf3JiHQiWrYepOe8R4sfroTzuwM4IcGoC4W4zM1+KhaNE/sOS4DV6KbsGkZzUU4RVF4/474RIcgHS+A2Qm67G6dWEYZmoHDVG012I8e+zKiLMPYvePRCdaZlKjJXsfd0RnRkqVcct1nI7TV6zxShyCz49VyPrS64hw4yPN5TFuTG2EurRxZSYdrfH33puIYGQ9aOdgdNHnwaDaYOy95YFUGin394CMXf+LljrVHIQdl9w48qk69TtNIESK6208XNABf+TPkr9RS4xZfwUvhFbwWtsD9dg1/YbTYWLmjA8SVlZiGzit6IkW7HqB6l2w66oX3jqawW9pT9ThZiWooFBZ9J99CwHuAnwNu4Zr/WujBM8IdbptgrNMhlSXp7inQtbt7aOR7mcG+0390bVwlrwK1EP32QchEgTjq9MD2MxuhnJF9VGxyyCMaFmJWyIlj2uMEv2Ww97SHemMlCedUCXrjvgayMh6oC1CLi3G7EqFVHQURqm/FsDkvj3e+rPyymZXfiLrH3y84Ld5Pbz378GrsFB5Jcyl5GV/R0fWddDhV4KOrOcoP9PR0pH1nIV8JHs1EfItr15e/xZZzyp036kOELLWgX+UrP+rkCL0ozMsbi7EqJpVUa16ZVSuRqiCqm3GYd61p/B9F8TsV5dWh/+/0JF1VdGRdfXyMzppKvIXVix+hw5wI56v7axzR9Z32CHak5EIxaZmtKY98f5ebGnLg2GRUhi+7hHCfW/jNiOZpegc4UF74BURgNc2x7Dvz8KMeOqhaKnKqFO7LhrXroWGNaujftP2mLXzMeLcfZB4ZBx61yjAkUG9gsVRoWpV1KxYHhUKy69V7DwPJg+ESHt2DIcUZL3X8puIdPPF20uLMKtjLdSsUgW1a9RC41rVULd0YeTj5Qfvz7m48dADX5/uxNrWBVm6uhi67j6S+Hzmy32Yjq2LyryCaDxwM2xdAjmirhxZp9kGX0QSRF5citVdK6MW5V+9FhrVqom6ZYugICPvJdpMwun7bki6tQrzGNE1KNIK8w5bIlYQBDifwql+NaDPq4Dmfx+HzNcVqY93YH37xqhfmfKqiUb1aqB2eWMU5unDsNhIHH5gh5QoU5gOboByvGJo1GsLXNSQdUfnBLx/sBN7B1RhdjHbWF4Na9dG/QrFUESP3ZMG/bDhgifg8gjP57dEOe7jgAGKlCiDqtVZ2ZYvjbJGrGyNyuDPaWfh78zK8dwMDFGS9VOugMQViY9WY24lYxQtVAKVqtRA4/r1Ub9KWZQuXAoVuiyCmZUrPgYI8FnNkXA0Y4OWAwTu3w2vHVvxko6j00Dysr+jI+s66PArQUfWc5Sf6Wj9fyHrNAWezjvX1E/ykezVRMi3vHp56ci6JqCp54EIjPWBV6ATnFUh8YJvTCAk/8qaZx1+b+jIuqroyLp6+RmdRNY/pX6A185t8F61DCkert9NgSf8kKxLGFm/txdb2zNybWSM9rPPQux2DXcZySzLK4NWQ/bCOyJQTtbbFIQhryy6TtkH80fPIHv6CFJzC0Ta2yPR0w90jnj0wXHoW4uR63wV0br3Wph7eODFs3uwX/IX6tIJEgWaYdKGuwi2P4NjWdasf/V1RoLjc8TbWyPcygKim6dhOfsvlDTSA6/KCOy7YgeI7sFsyh8om68kagzYAU83d3y23oFVTUoin/4fGLvhOhLE/khnZaE6Skxlk+rhhCRHO8TZ2yDq2RME3L0Oy0Vd0YLbtLM3lp52wFena7gxqgoKFyqOFlNPQUDE//oSTKmXD7wK7TDvgA0+Chj5Z4Q90cEeLxxtEGn+FEHWF/Fo7QB04vFQ0KADVpyxQlLwXdwb1ggVeSXRtM9WuKoh63a2ofjq54JkJ2bXc3ZvrJ5A9PAuHNcNRY9KzK7SbTF6twUj64/hML8FShfkIV/+1pi6/hz8mB0Jj0/BdFIz6PH0kL/YGBy9a4ewy3MxSkHWN17wAtyewHlRS1RiaXmNRmH34euQOTnB/fBCzKzPg37xqqxeWCGK6oWaze64j0CMrAedOg6PTesR6+qiqIW5k7zs7+QVWX8tu8Q6h2LW+PnqoIMOGfBjpNIPn5OcGFlfpCPrWeVnOlr/H8g6CXWaw8PDFb9yL+Qj2auJkG959fLSkXUNEUeEPQiyd6EIU8XbYG5zssB/Zc2zDr83dGRdVXRkXb38jE5as/7uRTzc1q+BYMtGbvpz1lF1gkZk3dAYrWeegsj1qgpZ3w2P0CCkuz6G/ew/UKWwAYqXr4kmjZuiTZNWGDFmK+xdgwApIyYCL0QdGItedAxkzT5Yf+w5EBrK4IdUm81YXrskI/sl0HXmGbg9PIfjvVXJOm1ex+wKCQM87sBm5XC0aVgXzSoWg36BAuDVYCTzkhUQ5w3R/rHoVyQfStQai+M37SA+OBbdy+VD/kZjcfiqM76KaO1+5nIgpNFO96GRgJclvDYNRfcWDdGscgkU0Wf21uqL+YefAWGOCDo9Ef0KFYZx87m4wYi419beaM/ilG81A1fM6Rg7P3yhvIKY39HP4LZ6AiY0q48m1UqhOC8fChX5C6tOWiEx6MdkndtgTiRkfrO+h9AZQfsmYGi7JmhRrQxKELmu8CdG7HrKkXX7OU1RxqgAKnRfA7OnfCAqAoh0QNDx8ejO9Orna4fFx8zhf3o+xtSUk/Utl/zwwfYmTIYVQXFaklC4DGrWboA2zZujRa1KKE8j9YWKo/P8q5A4sjzV7MivPGEg4spFuK1ajggrS0UtzJ3kZX8nT8i6/QIkS05z5OTLK+dcwEUF6sJzgrZpfyaNpukI2qYj/Nc6len+S52E/1Lnz+rSNq0rvrx2xaeXz1hTO4+R9ZPyBygHyYv+jjZ9D6XoyPoP5GfJelJSEl6+fKn4lXshH8leTYR8y6uX1+9H1ml9ceZrqmuQ1UE1rro06sK1gkqeHNTF0eHHyFqOKlAbP69Btqm7ngEdWVcVHVlXLz+jk8h6IiPIrutWMvK6G19Egbkk66pr1n1ZY0xr1jdieV0eDAoVRb8VdxHifRt3BtXLIOuujER/9vPC22e3YXf2CC793Rp1iUhy655LoX6HwRi7/SbiXT2QfHQCetAxl01H4/BNb0bgGRGVeiHV5ygONCyPorwi+GvqKTje/kbWey27iQg3AT7d3YpNIzqhz6AJ2LblKK5vX4Ujw5vDuJA+eNVGYu8lC3yOCcX7O9uxpbUh9Ms0wPA1h3F2ZAPU1zNEoxHbYetIHw0YwVQpAxpV/xwYhBem23FwZGcM7DMEWzaexJXt23B8bCvUpWMrq/XBgkOMFEcG4Y3VCexuXQjFi7XByh1bsH1QYxTjVUDbiQcRKBTjq78nPlkcxdHhvdGv9zisWrkdT85uwt5Jf6EFI82GRn9h5anckXUH50R8sjyJi1M6Y1CPnli7hpXv7v24MK0LWpdldpVtj1G7WZ+GyPpsRtYL66HmuH1ws/UHAhkiHRF8aRbGsXtRWK8l5u1/CsEJVbLOR4qNCS4M1kMp+ijB3bMsyFcErWeehciB1Qd1ZJ3qFUPsPVPu+DbZvTuKWpg7ycv+zn9N1l/FekFqOxNSq7EId16MMKcF/x4c5X/DnRdm+v0/BeYTTZfmfPxf9I+gch/J1//V+0h/5XV1IUId5iDgcX/E+p+WP0A5SF70d7TpeyhFR9Z/ID9L1nXnrKsXpc7/nKxzI9ZSyGjnbtpJnXYpf0G7e0ciNi0GsenZ4FMUIrjdzxU7gicEIeQ9S6MSHv6KzhBnYVl15hZxyl3oVfTSjuOpMgQx33Sj7bkE7SKfHIrwjyrlmAlRiHwbBCm7V2rT5wEkr+T3nds5X93pAxx0ZF1VdGRdvfyMTiLrse5ucF+3GrKTx5Ae4J8jWVfuBj/3sA9Sg2KBqBAG9tf3PiwWtkO9QgVhULsvjt58jvfSW7jer24GWXcWC+VHqsW8YC/KJEBoCb9Lh3F791Js6FubOzOcV3MWblk4IOr0ZPSnKdglWmListtIjGedlsgA4MEyjKxujAK8iug3/xJ8rc7ieC8i61XQZ+V1RLjcwbMxzVCe5VWk/SI85n8EYn3xcms3lGUElabBE1n/GBYGON/Ak5mtUFGvIErXbYxmZQvCqEgrTNl8AzESMb6ojqqzMvnE9wO8nuDJrDaozPIvVHM8bvq9BZJikbynE/6kafCV+2LB4Sfc8WnpzmZwnd8U5YyMUbt+PdQpZYSStQdgzQlnfAyWIM3DCk7LmqBRPvJ7Ms48pRl5IiSdnoCulH+hDj8m6wV5aDrqADxsfSDY1B/NiEgb98Bh22jW6foAnBuJoTRDofSfGWT9+dzmKF0oP4rWmIDj112AN+xeyKzhv7UvatC6fl5XrLtoCdGFeRhdg2zriU0XfZD+/C4ejasI40J0rRvmLNyI24f2wmT3Lg7X9u/F09vPkOjhjTSVTfkylSFDkpUFXObOhPjKJXklzKXkZX/nvyXraUh5HYXE0MeICzjPcIHh4g8R438eUYKzjLjkLr4S8aJLiBacQ7D7EUQLz3G/1cVTB6XO3NpIIPtIH6VVF54TKB1BE30E8inM+yRCPI8jPjD3/hG+6VQfnh3IP0qn6f0g36hMY4SalY/SL/Ix3OeURvdRO50XuPjyNJr5SGWidV1ldZSrq6xsX7Df8YEX8T7BV/4A5SB50d/Rpu+hlExknYzQBKRY2QCpC88OZOjbt2+5DiU5rC5OdqBCImc11als2MlmdeFZoSzMTZs2oV+/frC2tuZ+03V18dWB4irJuibpCOSj8kWUW5BvykqkLjw7UFnSfcxt2aiCdNF9fPPmjUY+UjrlC1NdeHYgW8lHgmodIAlm5Ctnsk5TzxkxSraH2fktWLnnCC54+yIkwh5P7u7E6q0rsSobrN6zDUetHeAVzQj1q1DERNvioemejPC1e7fhircEgUl0/JmmhD2QO4osIl0KL8eTOLJHVfdGrLv6GE6JLDw1GFI6ukxtHj8HOmJO+joEoe9DEPxSfZzfAi/YPU6QwN31HE4eVS1HVWzDcXN7eL6JREjWM+J/BnH+jHSHIfRtGFcH1MbJClZHRS9FcHE4joN7V2LDmYt4EChVzADIGj8zWZexcHn9//bc0TNIz1V0dDT3V5NnUtv2XNO2VRXa6iS/qM35r94hSh+1aa+0acuViI+P52ZnaXIfVXUqRV2878B00P0If2YJz3VrEH7p/A+nwXPnrBuVQNt+c7FpySocXLEM+1evwZ6JPdGtAiNxvOJoPvUaJKydRcgVXO6jJOt74Rnqi9cOV/Fw/hxsm78Ie1atw+mtO3Ft+yKs79cApWm9dO05MDV3QPSZyRhYm5FrXgEUq9gBf69Yi4NL52FHv8YoTru8l+uF9cftkWjP2k9uzXoV9F1lgnDnczjbsRxKsHRVmw/AopWbsH/2GIxrWFg++lt7PA5ds0JaiITxYnuID0/FAJXd0wu1mIYT1+zxOViQeUdzP19G1vmA3xmcG1AXRXkGKFu9N+atXYU9y2ZiQkN9FKE86gzGkuMWgJjOaX+OlxdnoouxfFM8OqKz7YiNsPYIZeFSfHR4hPtjSqE4I9iGDXtixszVOLBkPKa1qcidGlKwcFdsPGeDZNm9H5D1Q/B2eAq7Oa1RgZcPRUt1wpSly7B37WLMbFUCZUh3pS4Ye+AZR9Yd57dEGSLcvBJo2GUUVmzeiINzxmLaH6XZtfwo3nwlHlm54uWlWRiuWLO+4aw7wLeF9NAwtKUPAlU6Ydq8tbi2dycubd+KC1s24OzmE/C09cA7Vk7papYPKMn6WycHuLI6IDx5HF/omcxlXae6qu0zSW2ONu0V6aI2h/qv/21/h7VX6czez2nsL+v75AJpnz7gQ+p7pHNp1cdRB6YEqSnvEB0VwaWn3+riqYNSp7qw7JCe9hEfP6RwadWF5wRKR1AXlhPIp6TEl4iPi8HXz+lq42QHbXWSf5SO/FUXnhOoTD99TFUblh2UfpGP5Ksm95GgjU6Kr2kaAtVRbevqh5T3KnWVPV/s+hfmu7rnSRXa9j3oGaZnUpv2g9Jpw1+V/R3l4ARP3ijkHuQoQV1YTiBnicRGRUVlNJrq4qkDxU9NZRVCTVhOoAKitMpOzI9ABUJ2zpw5E40aNYKJiQnX6VHeqNyA/CIfw8LC1IbnBG3KVpkmtz6qQpt0yspOPtLojyZlo+n9UIXST9Vr9AlaEsvPmay/CII0yR98wSaMq2oM/XpjsNxBhOiAS9g+pryiA5Ud9NFwxXXYhkoR88YL7lfmY0BDQ5Xw/Gg6cSvOOgvh/yIYklwTXhHEjKzJ4pxg8XQfFvavyDqWqnoZqvXB5L1n8FjChzAxCGK1+fwMJAj5EAxBgBWsbB/CLpzORP/RlOxfE6KXYkgZYX56sh860rTZrGXJIR8qdpyGTU+c4REvJ8bq8tIMIgS/i0aA5D6snG7BUirJhnBnhihBAkmiFPf3tEcj1unN13Ao1j2LgDiBztfPGj8zWZfE8LlnMC3t23NHzyCN+kRGRnJfYrV5JtWF5QRlOm3SapuO/KI2hz5KkP5/+x3yT7dXuQH5RC9nWkalyX0kKG2l96zqKKC6uEqkKUiM7NEDRtZXI/LaFTlZz0qyGGi395jLy7GwkbrnS4GCNdB11BRcuc1HqsCfNdDncaZzRRjwCqFu751wj/RBsu1hHOrUCHUKqElfoS0Gbb+JFx5eeH10AnrX0Ef+ElVRo0oFOeFUolRdDFl8Aj7uIYDZfuzswMhwvmLosJCRdVdbCLb1Qc/iKvF5hqhQrz5qGrF/F26PeXvuIl7EyHqQEMlmB3GiRxkU4uIVQqsJe2Fvw2z/bho3EU1ffJFZw2fDKAwqkU8lf31UaFIL1Yuya0WaYdgqEyRKAln+PnjneAqn2pSTE3leC4xZeRUxYQH4LPTHF6/nCDoyCX2rKvMhGKBk5XpoWpr+XRMjNt1GZMBNmPavwe0QX73zBjiFhCDV2Qy3hss/EFQfsBsOnv4IPzkL08oZqOTFQ8l6NVG7bEHw9Gvgr/kmiHd5BOvp9eXH5pWsgPJUJirxSzTujfXHLZHkI8Sb4xPQnewo+xeWHXUCpKwMPC/i+og2aJ712DqeEWq3n42Ld13wii/MPCtBBUTWaRNDjyUL4XtwHz6wupqWy7qufK60fSY1Tafa36Hn6j/t73DpqI0jnbkF2at5uvTPX/DufQrzMxrvU1K53+riqcNHpU7unZQ7UJqPH1kZaewfS8vSfWDQRB+BfHqZkIi4uHhW3+iDiPp46kD6SK+6sJygtZ/MNypTTXUq/YqNjUMC81WT+6iVTpaG84/SaHg//tG6yummfMj27KF8JtWF5QRlOm3SUhpt+Ktqf4d+a0zWyWhtFb9+/Tpj9EeTjpa2OpUFTH/VhauCvnqQ0Gh6mzZtkD9/fowfP577okqSG3spDukKCAiAr6+vxn5SfIK6sOyg9FFd2I9AZZqbslGF8uVF91HTlxdBG50ESpM1HR0OLI0V5EDWAyF5FYTAKGvcXPEXqhg3QMc1l2H1Nhkyv4vYNbEq6+DlR6EyVVGzQX00bFIf9Rt9Q4P2nTH+1BO4RIkR7rsD09uUYh2SfDAoXxMNG9ZE1TKsA5QvH5rNPY1bgSGIfEXEUYLgN2EIexcCWSKR3+9HW0WMqEleuMP1wRwMqGzEdXKMK9dE42aN0KhxLdSsXBR6XOenPNqwDumNoCCEv5Ii6HUowlm+IUnyXeMD4hiYPtXrSh2S5BCEvgtD+Hsl2G86w52VSWC8GMHvA+Avu4cDC4Zg3MjZOCKNQsjrIEYM5VP+xYnBCHmrkl6pl1sSQHrFTG8Idz2UpQtmNoQp9IW9Jv+IlEoRrMzjnQzBquXB8hC9VAnnQHGYDlpywBD4gpHw11SWYQhh91H2RoYwyv8N2fmtXOVkPRQWZ4eiO03ZNCiCMjUaoF7jBmjA7mmDJjVRqZQBK1NDVO2+EPt9pdzHEu6YPO5+hXD5ym0IRegbZr/CRsqfKwtmQxjTL2N2hFK8FPb7fRACZA44vaIdRk0eik1OCYhgtgUR4aZlFm9YmWTky0B1gpUhzQIgsv7wYFe0YoSiSMsx2GQb/gOyfp+r59I4AfcMqiPr1KGkv5p2KLVpWwnUDmj7LGv7DqE2Rxuyro1OSqOtj9qmI59o2hvNzNK0bSWdlCYiIgIODg7g8/ncl3mlqMuPyDrZGXTHlCPr0TdNkO4v+I5gEb6IgvDyzl4cHl4fzesz1KuLZgxNCXXpbyeMnXQEvmJGQlkeX2in84BbeDi1F7rVb49xc07AT8TCRHx88rqPx7M7oV8jRXrKq1FnDJl/ElI/AUeUYw6MRc9KPOj9MRnrN+/FpXF1OZ1N6zfBqGVnwXfgA8FSfDQ/h2uTW6NFq06Yvf0eYj3YdfeLuDaxFzrVr8dsbII+A5fg2q2ruPJ3e/So/xfmb7kBiY8IXwLFLK4ZROt6oageI/x6zTBn+22ECST4yv++DIiwfxQGAHaXcW9eP1YO8vzbtZoLE/NTuDKjL5f/lMVnESAV4rM/I+VeTgg9NAWj29ZHi55zcNLEFqAyYKQ13d8XH70ewWJ+NwxqTHnVRYfB83Di2DXYLeuBji1bYuSK8wh2vwuHhQPQs34bjJp6GHypFKluz2CztA16sTZu5IKTcHeKYr7cgfPaEQq76rNynYzTd0/jztqRGFi/FUZOOwVPd0u4bRyEXq2aYOCibTi9cDTmtaF7UA9/dOiPtUet8M6PPlb4IeHSKizuxuzuMQnHrzjhM6tTX0V07vwVmAztgh4Z974xevZZgrsWjIizOJ/Vlp0c8h3hPeG5Ygm89+xCKusX5pasK59JdWE/wu/b36F2LreQ69Q0HflFH3ozv0PUx80KslNTnZRGTgzJR/VxsgOlk9cB9eHZgXyidpXaV/m7I/eQ69TcVu39pPuofIeoC1cPpV/kY2IiI+sa3Edl3dFMZ97U1e/7OxRG+eQMsvObTs2g7TtdW53kF7U5xEHpt27NuopQJ6dPnz7o3r07hg4dyo2ur1mzhssjt0K+6c5ZVy9KncoPI7kVuu9UBwhZ60DOa9alkL31hbf3VkyuUQJ65QZi9l0bSPASUp9L2DGmPAoULY3mKy7BXBqA0CRGYGOFGRDG8CGMlxNU97sLMKxNaZSq1wujLtpCGvQUl5c2QVHaHKnTIhxy9ELc+2AERHvDU/wcDgFO8Aj3h/93o9UiRnJZ/RBdwqYBLD+eHgq2noAld58hiEZlI+xgfX0O+tJICE8fhXrMxw57d8QkC+EtdYCDvxNcQ/nMV0ZSafp3jA+8JI7sujNcQv24KdZEBAMiXOAawOwQKuEE5xABRIliFi6AMOISdo5pgcp6+VGx3VRstnOHUygLJ3KYHAxRtAc8RCrpmT/ukSyM0rMyFzG93lLS6wLnYG/4MtLq5C+P6yzzhX8iI63xvvBS5uHvBp8Y5j8jyVQe4kT6cOAHHyorpQ6hG7yjWVgy7RMQiIAYP6bjORxZvh5hrFwlLnAU2sNRzOJFfRsZzyDr54ahcwUejOr3xKK7QniGsfsX7QN+9DNcWNsRTWjqZq1u+PuqI5cmKFmK4AQBfCROLF+lDY5wljD7kxmhTmB+snsvDHfjytJZ4gYvZoerkPka+ByuYlMcXtAadfV4KNl6KJbd9YVrCJ/zUZrAh3emfBkCXeAZFcDdH2kSI+uHuqF1SR6MW4/F5h+Sdd2adRLdmnX1otRJf6mMdu7cidatW+PMmTPcjAsq7+yE7JTeMIEXI+uxpreyJetEVD94e+CduxOSXdTBBW88vfBJyEc6I2vyKeSeeO/uglcuznjt4YFUxeh0utAXHzxd8NpVJb0r+83Sp/szksuX7wZPZJ3XcDh2X3TCFx+WPxef5eUlJ31pNF3fx4PpcFak98QHpiON6afR21dc3iy+O9PN4qZ6kC1OeMVsSfH1w2dJMCO4D+C18E8Y6emBV3siTt2wwacgf6R/578SdO66F1I9XRW2k24PfGA66RqXP9OXwo0sM38ZPvq4yX11d8d7H2XZMDCbiLSrlgWXltJ4sfy5NMx2Rm5TONu/+fLR14tdc8YrFofzx8eX5cXy9Hb7ZpeLO4vrze4b0095uzH9lI7pe+VK5eiJVC83vHWT6052c8U7lk86n+xi6bzc8YbC6Lq3F2cz95FByHzl7qsiHdNFdn/g+3H3JNPygSyg+5bO6oj3quXw3rUDH1+/UtTEH0te9neo/6qJKHX+k/2dHwnp0qY9J6H24796hyjbVm3uB6UjW7URalepfdVUSKem5UKirK958Q4hoqeJkE5Nn5G8qqtUpr9Lf4fKRvlu1lToXa7bYC6LUMWeM2cOqlevjitXrnCVffbs2ahduzZMTU1z/bCRbyKRiBvV0NRP8lGbykdptKl8mj6YSqG0vwVZTwxBWIwjnM6MQI3iBuC1nIbtNq548SUOIkbWaRo8kfU/1pjAJjwYMYxsBzESpQopjfQSYQtxwnMfC1j5MtL6IgJh4Za4srwpShQrhPJjt+Oyjz/i0+PgbrcHi/qUR9XGLTHtEiN50TTCrkK+aJO6RA+4my1G3/KG4JXtjUmXzeD5LhyRdIxbSjgiIqxgsW8UanaZgL8v3IPn20gEeZ/Htkn1Ualxaww99AjOEWKEvQlGlOdxrBndFJXqd0avg3cRkMB8iPPCjV2d0LlJBVSoWB7lCVWb449Zh3Evwo+R4evYM6w5atC6TxrBNyiK4rVaoOnaC3AID0TUmyA8PT8GQ9p9S1+hQQsM2ncHtqFM71sZYnzPYvPkP1CpVme0HrcAS6ZVRf3aLF7lSmg2eSPOsI6e85NVmNKOpa9UERVrD8CCm9ZwesHKI0EC2Xt/OFpvw/xuFVBJaWOlAZhx9iEcPtCsgEj48W9h97RKaNCgMoauWIjRPTujNovXeOhs7HUKyyC3mch6OR4KNx6AtXZxCE2NRuynSER9CofP3TkYWJf5WrIF/tpzDyJ2H8KS/RHgdQhL+rZAjUpKGxqgRS9mPyPd/szP4ORgWF6egMEtK6F5v76YtmwOOjN/qlaqgD/blkY1bqoqg35hFKvUCq0XnoJFtBeEnvswr2tjVMvwrSKqtOyEcafM4RnDdL8O0pF1LV9eOrL+vSh1kq307ydPnqBmzZooUaIE2rVrhyNHjnDlps5/slN0+SK8GVmPf3AXacLsyDoj4nTUWEAAIFIHf8CfzkhXTcOIGSPf34fRqDK7piZ9ukCAdEaGo/aPRrfy7NmqOxA7LroBElb3xYq4QiKFLB8fRiAZ+f9MedGO5kIlUaRrpFeRbwCN9iri0W8hI/qMNKcFeiDMZD1WNdJHAf1CqD9mP1ysvVkcP4Wd2YDTqZJ/oACf/Rj5V/pK+avE/8R8QiCLy+J9+W7jtSxlEUCzEojQsrw4nxgJ5+KolCP5Tdfo2DdKw5UtXVOkU+YlIn3MLu4apSW7fNg9prwpHeunUL70b4ofKMRXwTf7aI3+1wy7VW1m/geo2EygMqZ7khFHPTiy7i+AD6tvntu3IDUh9yfn5GV/R0fW1Ys27xBl26rN/aB0ZKs2oiPr2Qvp1PQZyau6SmWqI+s/EKWz2ij+Vck6TVE4ffo0KlWqhA0bNmSQUHd3d/Tt2xdt27aFgF62uRCyUSqVclPhNbWXfNSm8lEabSqfpg+mUijt70DWRa/CECR7hjvr2qGUcQEUG7wOZzyEiEuL4cj6ronVkV9PH4Ur1UHDP1qgZdsWaNFaidboOGgRDjj7wpemazPSFsIIZBxC4O1yCCsHNUDtCsWh12wMVjy2hi8LD0+Nh8uT1RhdiwhcUfQ56AzHqDBuxD6DfCWFIDzqORxPDEO1Yoyst5qNPY6eiP8o4zYrC6Cp34ywSUPtcM/VAU4R/gj5GINAp0NY2k0PPL3SaLXeFM/DJYh4J0Os8y7MaEdT6auh0ZZ78At1wu09XdCmmoJEqqJIAzTdcga2smPY2LK8fOflDBSG4YyjsA5+hkcHRqJbrYIokCmchwIVG6HRsuO4LxEjVXAEC3uVk4cZFEFR1fWnhmVRrVlTNKqhnM5PKIjiPVdgv4snQj9L4Wy5CXO7lEOxjHBCfhSu3A9TTz2AK5LA976Mdf14yM/CDIp9y6tUhznY78fIumIqe1aybtS4P9ZYRyP4bQSiPoQh4oMvHu3vh7bGLH21vzD8giNC4nwQYLYWg7rUQPEM/UqUQ91us7DbyQ/8N9GwONoNbYmU588PoyLKPQuMULMU08Vt0qREMZQesxkm/KPY2KM2SmdcVyI/Sjabip0OfhC8DsPTw5qT9bBEsaLmZxZ6NuiZpL+aCD2L2rStymdS02eZRKlTG6F3CL28NLVX2U5qItRekY+atq0k2r7YSWi9uqYdLRJVnbTkbPXq1Rl1r0KFCujatSv27dvHTelVFfIx4MwpeK9fjZePHzAix1dLsv4rELElsh65dwQ60XNXqz+2nnPmSKvaTcs0BiOjjKx+tbkA03m90bBKSRTOpwf9TjNhamqHFKaf+xCgNq0OPwslWffbtB5ejKy/i8lcH3OSvOzv6Mi6eqEy1VQn2altG0nptH1/6Mh69kI6NX1G8qquUpnqyPoPROmsNop/VbJuZ2eHJk2aYOzYsdzGcCSUhtI/fvwYdevW5cKUhfYjod18aT2FpkI+alP5KI02lU/TB1MplPZ3IOvS15EQih7j0LSSKGXEQ4PZJ3FLFM4IXCRH1vdMrsURwcyESgUFOmGOmRe8EmSQcSRKivDPLnh0ahhaKuOU/wOzb9jBIzEa4clB8BOb4+6t3dh3/hhuevnBL1aSiYCJkkMRJLPC3fXtUbwoI9+d5mGfvTtevAtSxKGd30UsXggi38sQksgI3KtwBLoew6r+xcArXhUdt96FAyPr4TTC7boP87qV4Yh4m71m8GH6D07gcUS8Qo9ZWH7KBJdMT+HUtSM4eGoPdjw2h3ukPezN12Han1U5olqyQW9MOHgOp+2t4GO5HoOb0RR8lr7dKMw8ehLHTq/DmhltUYn8LdEFs64/R4jgPFYPq8nFK1SsKXqt3IGtx5djUpfyCpJaHOW6T8X6M5uxfm5n1DUoAF6hnphuagNpkhkOz2yCUrxCMO40DRuuncX5u2dwYFln1C5cEMU6zsYhUTT8BSbYNjI/DOlDQJE/0HPRSuy8dALnzSzgECPmlgHQlHpVst6jOg96xSqiQZdB6D98IAaNHMDASHG9otzuysVbTcUOv2AESm/j1KTK8k2lKrRH/yXrceb6aWxeOxrdaN07rxSqrrgIi7AQOJ0fqLhWEiXbjcTiEwdw8MJ5XLmxHvMHV0c5lkeRun9hxIYLOGNrCZfQx7hxchd2H9mN/RdO4Oz9k9i5bjD+LEG7aNfAqPMucH4RBatjmpH1o/arEfsuVFHzvxfaQfx/Xajt0HTU+XcTWmdO7eTPipeXFzczLKM9YyhfvjwGDBiAvXv3Ijg4WBGT8eATxziynmhuludkndt1nf19bXENlge34dKxy/Cz8WBEPefp1RqB74d058fwPrkDB1evxant+3Djti1S6Wg2f1988FGTRod/BDSNPo2RdeG2LfBkeBMq73PlRvKyv6Mj6+qFylRTnWRnbvrm6oTSka3aiI6sZy+kU9NnJK/qKpWpjqz/QJTOaqP4VyTr1GEZPHgwmjdvzo2kK0VZCVJSUnDo0CGULVsWGzdu5EYsfiQUhzZ30FTIR20qH6XRpvJp+mAqhdL++mSdduqWwdv3Alb1ZIRIj4fWS6/gXlAMIj9EcGR95/gqKFDQCBU6DMXEhfOxZPV8zFsxT4EFWLbjGG4I+OC/COJG1aPT45EAIdydiVhOxdQRzVAlH+sAt1mE7dZeEKYy0pgYjLAPsYhNozPYiUxmPnZN/CoMIslTXFjUEEUK5wev60IccPDAy7dZyXooolNCEJqUhayXqIauO+7DUUHW49wPYEH3chxZb7nrIQJDn+PJ5mbc7vJ69ftg1Iqt2LJ3HXZcugSbxFS8RRwiX8sQhac4PaUlR8Cr9lyN83Fv8eKVD1yO9kfVEvlRoFZ3zLlgC+GXdyxNFCReRzG7VUEY8Yqg4YIzeGp1GptGVGUEwBiVe63DNdagRH8NxN31TdGARpur9sUkE0+8hIzZvgpDixaGHq8jJt60gYfwAOZ3KcGlLdF6CGZs34CN+9Zj6cQ2qEXnFNfsjsm3fRHofx3bhvNgqM/uX09GpoVSJLE7EJMSjCCV89JVyXrvet+ISWYYoGzrUVh66ymc34rh5r4Nk6sWYGS9OpqvPIW7LyLwgf0vNtYMF5c1Rvn8BZgd07DbyQvm14aiO62dLdEGvQ+YI/DzC2ZHHGLTPXF9TRvUY/mX6jITB3xfI5bds5DkSMQjBWnsvwEux3Fw6yxMHNUW9YvyYFCiLIYedYJjDCPrx3NH1oMSpLDwv4cNJrNwx9wETk5OcHZ2zgR7e3s8fPiQ+5s1LCfQRmT0sVJdnjnB0dERz58/59KrC88J2uok0Aagjx494vSrC88OZCuVjSY6lT5qqot0kC5Kqy78RzAzM4OFhYXasOyQVaeLiwuXD73b9PX1v3seihcvjpEjR+LYqVPg+/nBa99u8DetQ7KVBdIEP5gC/h8hzV/EGvgQQMb+Cn3wQU0c7eGFD3wBIA0CwpiOsGBAIuRG7nVE/d8FR9aFfATs3gHPLZvwSiJRvM1/LHnZ39GRdfVCZaqpztz0zbMTSke2aiM6sp69kE5Nn5G8qqtUpjqy/gNROquN4l+NrNN0w/nz56Ny5cq4du1apgeK0ikbBCLftJ69atWquHr16g9vGD0ktOukpkL6tKl8lEabyqfpg6kUSvvrk3X5jufuHvsxr2U+bqS51ZJLuCuNziDr20eXQwHjMmi96R5cE2LxBrGI+RStQBSiP4QhJIkItyusLU7gyOEdOHjnAexjExkJDYHEZxemNiyK/Lxa6L3rBqzehSOYdhjPRLYyg0i4NNwGD/Z0R3Uj1omuOx7rLZwR9jlUvgv6CwmC4oWQiB7ixKMnsAgWICwtBoEux7B6AJ0lXBmN11zD81AxImmHcsedmNnZmJH1hmixzRSSWF8EOx/H/LljMLxTdZVp5mXQfu4h7HpgA/e4AIR+NMWB0U25UeHKXRbhiDgKokgXPNjREdWL81B06EacF4Qg4W0gpG/jEBBih9PzCqOsIQ+FB23EteuHsHVEFZZvFdSadgTmL4MhTQ7E7a3N0ZCRUsMOU7HNLhQx6b7w8FiH8cWKMGLcGZNu28HGfTumdyqWQRy+Q6k26HX2OcQBN7BlKA9FDPOh8aLzeCCmHfe/zZzIKFMVst6dRtaLV0Kj7kMxaPQQDB09GINHEZZg2z17+DCSHZPmAWeHJRiavzAMeP2x0MoJfERCGh+EmNcueH5jOtrxCkKf1xMznzrg2s0R6FaW5duwLxY+EDBCLYGM2SFJsMKZRS1Qi9lcssPf2GofheA3gZC8sMXjSwex/9hurF83AeNH98BfbWqhkhEj6yUrYsQJRq5ic0/WZcnBeOp7D+NW90XvgT0waMAgDBk8hCNihCFDhmDQoEHc5pj0l34rw3IDbdIQKB1BXVhOUKbTVCdt+kmjwuQn/dYkPekbOHCgVmWj7npOIB1KH9WF/wi09Kp///6cv+rC1YF0kn9KnZSWyHivXr1gaKh63GQW5MuHYSyu6cxpkO7ahle21r8MWdfhfxNKsi7avwdeWzYiidbr51Lysr+jI+vqhcpUU50/6pvnJJRO2TfXVHRkPXshnZo+I3lVV6lMdWT9B6J0VhvFvxJZp/wOHDiAKlWqYNWqVd/ddPqt2iCEhoZyu8R36tSJG8XISWhUnabCayqkT5vKR2m0qXyaPphKobS/PlmnkXUpPL1PYmknRj7zfz+yvn2MnKy32ngHzi+ikfw1mpsir4roDyEIemmLEzNroCLr3Bo0H4c19rF4xchdcNBprOhYHEa8yuiy8RqeJIQzci+F7F0EIlKURD/L0W0vgxCS7AVPmzUYWqkg8vHqouP683j4NhIJ9JHgawyi48zxcFVPlG3SB333XoZdQgSCPY5jzUBG1g3KoOjfh/EsJpTZEAPvu3MxlDZOK9YELTZfhyBeisj0l3iJJKRGMEK+dix6DPgLbZtXhDGvAAo0nIodLh6QpFvg1Iw/UIX5VKX7SpyJTEZ0gids9/dEVUbWDVqNw4bHXghJf4GXX2MhCTDBur6GMM6njyqTD+Leo+PYPLwy6/BXQs1JB/A4LgiSJH/c2twM9QvzULbHAhx0f4moNB+4u63BWEbWCyrIuovvHszuzHxhhNiwckO07tEFXft2Q9feXdGtT1d0+XsB1lh6IUBwHZsGs3tnlB9/rb2HJyHRCEtWKUsF1K5Zt4lh94HdQzqy7i0hGLIkMcSsfEJSfeDisg5jS+ozm1qg7+HbsE6JYiWWjLhEa9zd3Q218+mxMh2FdXZuuH+d5VuG2dGCzkMPY/okCE4WM7LuiEurW6NeAUbWO03HXu/3ePHJFy42c9HPuAB4Bbti6i1XxLK74Wu+DMNYHgWLlcfQ45qR9eCkIJjz72HqtiGYPGsC5s2Zx31kVMXcuXMxdepU7m/WsJxA8elDpLqwH4HSaqqPoK3OBQsWYNasWZyf6sJzgjY6582bx6Wjv+rCc4K2ZUOYNm0aZsyYwfmrLjw7kH9ZddLHjSJFimQm6AoUKFAA9Rs2xMgRI2AyeQIj69v/B8k6bYRG552LQZutZb8Bmg8+CYSAlMWTBgACOl5MXbyskG9wxx0BFyQBAvncenv1cf8h+DCyS7aSviCyldnObTinJu4viO/IOm1Ul0vJy/6OjqyrFypTTXXm1Df/kVA61b65JqIj69kL6dT0GcmrukplqiPrPxCls9oo/pXIOu2W26JFCwwbNowbYc8qlC5rg2BpaYn69etj3LhxOa5fDw8Pz7QeMLdC+rSpfJRGm8qn6YOpFEr765P1AAS9iYQg4B52jyuEEoY8NFtwHnckURlkfcfYCihQuAQaztiLizaWcPCxhIWb+Te4W8E60Bt+sUI8OtIFbUsQKW6Jjlsuw8XvHu6eGo/2hRkpM+yKyZeewj2dEa4IdxZmDktPazjJhMwm+fFf38iXCNLXYgiCb2L/hKrcBwBerX6YcPw6XPj2sA94iDumczG4aD6uQ63fdS4j14GIF57G+sF0znthGP45BzvNH8FWbIq9c1qiAa3pLt0Cf2y/Ab8oL3jzn8LC1RJWHhbMj2ewE93EuX2D0Yrll8+wM2bfc4B3ihdMt/6FJuxa2VaTsM7KFQ5SF/DvzMWfNQ2YnqJoOmodDjm7wdn7FkwOjkBz0qPfDCOOm4PvfR5rB1di8SqqJetlus/HAbcXWch6J0y8aY2AqOvYNqoGDHjFUHbAChy3N4OFFyt7lycwc3yAp5728EqIg5/vVWwYJCfrHdbcgZks6sdkvTwj6436YqVFKESJcoIuSSCIIGZ1hTs6760YvoJz2Ny3GAyp/JuPwoKLt+EV7In7N9dhajt2jZVz4Yn7cVcshuPFQejAiHaR5kOw1orly/TRSQFilu/dvX+hRXFGuBmRX3JXACefR7ixtiWK01KAJqOx9OpDCEJu4/j63mjIdBkUq4hRp13hHBeda7KuXLN+8NkKyFhdoucnK2iTTNong/6qC88O1OZQu0zPlrrw7EDxSRelVxeeE5Q6qe1RF54TaD03bZCmqb3U7tCSJk10UruqPB9VXXh2IB2kS9nWaQp6t9AHX3Vh2SGrTmonqTNDBD4rWTcwMEC1atUwZswYWFlb4y0rU+HRQ/BZvwZJv9A0+J8HrXF3w+vnlpA+egzJs+d4RcePMbL4fTwvpLrbI/LpIwSaWSHW1R0fvtu1/XvQMXQfvN2RaPsI0scPILNzxmtvxRFqauL/PJitfE+8d7NDxKOHED96hjg6yo2OWlMb/9dDxjT4PTvhych6sm4afCb51t/RwlbWPfr4iT3/it+ayKe0L4iJfYG0dA372exWaKqT7CQ9lFZToXRkqzby6vVb1t/XfG8X0qlpuZCQf5SO/NVUyMd0zapOhpCPr99o1j8nofuo6T0hG7Wx82fqKpWpNnWVnn96JrVpP6jd0ab9oGeZ+jya8leS//dkncg0TTWkI21cXV0VVzMLpSOdqkL50fm1NB1+7dq1am8c+SZmHXzaPV5TP0kf6dVEyIa8enn96mRd/IoRoGArXF3RFKWN86PcqG246CNC7KdoiLwvcmvWuQ6sviEKFy0K42JFUVQVxSuj4uBNuOjvg2DZKawb2BAlC+ghn4ERijHyWcRQDwX0i6D+5D244uOPmM9xcLPZgTmdi6J0jYaYcM4VLlEhjDBmIWAJUkbAvOFrtw4TW1RCYX19GBQqjGLFjWFcvAgKF6Y1pvnZtYbov+0qHsXHIUl6EycWtIFBfupw66MQ2Vu8OIoXMYA++VCyKVruvgUv0XUcnNoYDSuysBLFUaJUKZQpXxLFjQtCj1cCJXqswEnWkQxKY2R9R3e0KSrPr2D5hqi/6gxsA0xxfG4z1DHiIX8Bpse4GPOVEVfDAsivz8jt4DU47SnA+4ATWNqXdoMvi6oT9uGRgqzf3NgItQ14KNF5Lva5Ksi66yqMMiqI/Lw/Me6qOXy+BMLq4hQMqFlQ7neZUihdtjRKlymNcpWroMO0DbgkeQchn5H1/jwU0ueh3UpTPP4BWTc/Mxh/leJBv25PLDULhv8LCbezftb4gUmMxEc6wvH0GDSqSjvpF4Aes4PKqwizUz+fHopU6olZ95zgmRwN65O90ZYR8oKNB2K1pSpZl+Dxoa5oV5HKsAAMyvyB1uPX4vT+Yahe0QC8/AYoVKQouwclWN6svhTgIV+Rshhw2B4OMZGwOtoZLWjJQItR2GjzY7J+xHYVol6r/whIzwV9dNSmXdb0eVSKNrqUoq1OaiO1WWJEomkbSaKtj9roUgqN/mjatpJk1Unr1suVU5zYwKCnp8ftvTJhwgTY2tpyy7uUafxPHuc2mEv4FTaY+6cgEOKrzz04LOuN5iWro/7ATbB/7ob0QEHmM9T5QoDvhOTryzC9dgUUrzIIG06b4X2OZ63L8SVQgvfPH+HOpMpoVK4Eesw4CVf7YHz1Vx//5yEAZA4IvToPfxcthQpFh2LXDUskygLwVW38Xw8ZG8zt2AqvbZvxhvYlyKXkZX/nvyfrzM/PaQz0N3dI+5SK1PdvkJ7GCIma8JzwIeUtoqPC8DH1ndrw7PDpY4rGOslO0kNp1YXnBEpHtqoL+xGSEuMRHxelNiwnkE5Ny4VA/lE68lddeHb4nP4RqczHjx/eqw3/EcjH5KQXasOyA6eT3UdN7gmlIRsJ9G91cbLDz9RVKlPVuvqV8PXHzxk9//RMatN+qOOSuREdWc+FUCOZtYApH5rWSDu8nz17NltbKB3FzSo0tYSmYdJ57BcvXlRc/SaUX2BgIPz8/DT2k/SRXk2EfMurl9evTtbpmLSwCHvYHeiP8sX1kf+vOdhr74GXjFSLfC5yR7cpO7LqUQC89ktw3M8LslQJAtzpyLZ6KJoRXgh1/t6K8+7ekDLyFpYSBxfzdRhfn4UZlMKAI85wynp0m4KAiZidQYywu/pcxfYpjVAjk9784DUbj5XX78MxmsVPCIIsUQzv58ewYlgVlSPVGqDf8AHo1qMseIUboPnWGxDG+cHN5Qo2jimDMhyxV8IARauxPB0c4PFKipA3Erjdno8Rf3w7isxwwGaYBPshIPw5zq1ui6a02ZsyfX5jNJ61F2fdvCB+FYJE7yMKsl4O1SbuVyHrjVGnIA8lu8zF/gyyvhqjixhCj9cB468+gcvXKIS+dMSD81PQr4qKDobynadg/QNP8F/Fw8/nCtYP4MGIkU2OQWIAAP/0SURBVP/2q35M1i3ODkFHmmper1fOZJ2VvYQIN6sbFqaLMKSOsYoNBjCuMRFrnj2DC51Z/zoMT473QXtWFoZNBmGNgqxL2f2gkXXpk+UY3qakIm0hlGq+Aofd72DzjIqoqK/Is2RLdJ+1ELsnNQTPsDiKTz2KR1IR7E72wB/FeCj8x2hsygVZp3quO2ddd866Osmqk8po6dKlinrJ485bp/cWbdBH9URVKI3/2VPcOesvHj/Me7JOZI7vy5B1tFh5XXXkmsXxk1/LgHLkXOAP+NyC1YxWKMkrCKM/l8PC3g1fJP74ohqXI+sOSLw8G0OL0fKVzlh45CHey76RdXU6yLYvoiC8t7uHy4MLcO+FBiMPws6WkU8FWc8undz2bOIo4qnG+QZG1kPtEXR+Evpz97YbVl8xx8tQ1i6wNBk6lP9Wye9XGXlXHt3G37JRfnRbZKSiJv5Y8rK/85+RdQZ6Jt+/jsDLIFPECk8hzv9crhDjfwZR/FOI9T+rNjw7xPufRzT/NGSeRxAtOKM2TnaIEWquM1Z4ltMTw/6qC88JlC5acJrpUx+eHeIDziPc5zhCvY6qDc8OpEeu84zGOsk/Lp2GflJZRrH7Ec3KVl34j0A+Rvic4HxWF64Ocp2nuPupLjw7kI3a2KnUp11dPaNSV88jVnACb+Pd5A9QDpIX/R1t+h5KyXOyrmlabZ1VR9aPHTuGihUrYuXKlTnu7E7pSKc6oXPUaeOeli1bwtvbW3FVLnRT/9fJOt2H34Ks0y7urz3hab8U/coURr6qI7H0iT1kn8IgDneGnf0lnLx2AieyxVmcsbCEU4SQEX8ZIl77wt3tNi4qw2+exy1fP45Mc+vTE6QQBFnD7PEJnL59EQ/4fPDjGKlTu+kci58YhLAPUvD5d3DrVma9p63s4JUUjLB3UkjihQhIlCEo3hee7tdw2kQZ7x6sva3w1PEyTty4AhMPV2YLnQcfBj++Ca6bquZ5DhcfW8MjWQJJMtkkgSjYBmaWZxXhZ3HOwgrO0SIEp0YjUPIAd+9/S3/y9iXcEQgR/EqGEJZeGvocllbnWdh5XLa3hxftYM/8dPe4his3TuC8xVM8Dw2CNEkIQagVHt48jdPXbuKRvyf8kiSQvZVBHO0AS7MTOJVh4wnccHGB98tIhL2SwD/cBdbPTuAMy++mmzu8ojMfg5cBOsKNEWhvwT3cYj6ffmAKS4kIAdxHETXxacf9F6wMkoMRmeCKZ+aXcCbDhvO4xOqI17sQBL8mfSJ4+d3BzdvMjkf38CxILNengCzsOcwsLsrTXj2NCw+t8DwuAJ4+l3FVeU8fP2Jk2x0BvrfZfTqDI1ZWcI/0Z/fIFNdZnLNmD2ATzO4Hl2dWW3VkXVV0ZF29KHUq7wftBE8EnUDr3+kIUppRpk7ITtGl8xxZj79/lxv1VEey/hswUilkJFsqAcRCfKWp6LQeO9M67UBud3iauv6RtbEQsWeCu04QK9aNs7w4sm4Km7kdUIVXHGW6roG1gxcQLlPEZekoLn0E8PVAitNTCK9dhO2Vu5A+d8UHAR0h58XIpR++ipT5KyASMsLvxci6FO/t78NkZBGUN+Ch5fgjcLBj+fvTdHvWBwhUtY0hkNbNszDOV4qjst49A3K70r4rGwKzVeiBN05mEFy4APsL9xDs7Ib3Aj6+sn4H5z+Vm7IMlXnSen1m7/f5/fdQknXf9Ws4sp6qwf4+VL/zqr/zX5P1Ny/8IHNchlCHeYjx2oJoz40/RJQK1IVnj02KdBs0TquNTk3jq0IbfRy8lD6qCcsBqvo0TUvQJt3P6CNkpGU+qwtXB211apOGoK2+zHV1EyLd10FqNR4vxJflD1AOoux7aNN+aNvf0abvoZRMZJ0M0ASkVLmOTxOQwUSOaV0lFRb9VhdPHSg+QV1YTiBblTeGftvY2KBOnTrcTrnKNeVZ0yiRk06Se/fucWezjxo1iusk041QvkhCQkIgkUi+S/cjaOOn0kd1YT+Ccs2purDsQPeN9NF9pFkGmtxHgjY6CerKBuwdKI0VZE/WGYGUvGWkL+wuToxuhBLGrTHw4D04v4lAUAIjjO8iEZsekwOiEZPCSDKtdVbs1B78LgLRyvC0aES+YYSOEawARtAoDq2TDv3Awj5FMcLJyFeWo9u+Q5wI0jfhiExT6iREIzZVqVcZzx+BtLHZW1Wbw7nN08LeRzFbIhHJyKX86DdG8N5EIupT5jyjP8rku9WTLyyeKFGGMEbMleF0JJpUES55FYaIjyrp06IQwfKnDw8BlP6lFCEpTG96FKLfBUGi8Ef6OgJRzBcqt+AEIYvLyiAhGGGsrMjeMEb0RbEsPfNLzB1zp6KDIYrlFfSSwpl9zF9ZCsuL5Rf5RszKmexWlEdWsPjiZGYz+Uy7+Cdm2dgvO7wMYveL/FDawMrpAyt7lXKisohk+cawfGVZ8g0g31KV6SltMIIZwQ96E8WVA3f9YxjCXrMyYvWO6kzse/Zvlj8d4yfPNxSyhOzsVZL1+zj0bCWCWB2nZ071uaN/U0cyMjKS+6vJM6lte06g51GbZ1lbneQXtTnU9lAemviprv34EUiHtj5qo49APhExoCUNmvhHIH1EDIiU79+/n3s30ewv1f1TlB8glEhTdF5EJlfgtX414u7c5oiUOpL1r0PACKWHPRIubsLKqRMwb80JeFq7MeLLrkvd8ML8BK6MHYMlIxbikok14gNCAW8zuO1bjPnsOoe/p+DQGUsk+QYAEgZvOVmvzCuNSj3WwtHiEh6umYtlXPyFOH7wAV6ESfBV4I73lhdxZ+UibF66D5aP7ZHiz4i0OBhfvB3A3z8RqyYqdDDs2HEBAe7hQLAEKVnJui0j68FBTLcdJMeXYMn4b+kOHr6HMO8w5pMn0gMlHOGXHJuOjZO/xZk/aRmOnnmKVLEA6bR5XKZyYkQ30BUvLc7i1tz52DH3AOyeOeNDiC2Eh1Zg49gZ2LfpHPiWp3B6+t9YqMhz334TSNyZXb8AYVeSdZ81K+FJI+sv4uV1PRf1XflMqgv7EX62v0P9V02fSa36O5zOVCRHeyDIdh5eCPbiwwtLpMY8+tfxQc21/zXofPzfwIeYx+zvY7wLv4UQu+mI8jvGnk/GwXJ4RulZ/K/7O5ROmzaL2hrq79AePfSbR8o1ASlVNkCaQKlYuQkSKVcXTx201aksIJKAgAD07NkTbdu2BZ2bS0I2qUtHUBawujAi5m/fvsXevXtRvnx5rF+/HrTxEV2nPGkneOUol7r02SEnndlBmUbTdAQqU03TkU+UTpWsq4unDqRLG50EdT4SWZfE+uVA1mmKNCOgL/nwsJ6LHiWLokibOdjqykfEK0YaiZCpxNVBh18Pmcm6JIbPPYOfPn177ugZpC+wRNbpb14+k7mBUqe6sJxAftGIM7U9lMe//Q7R1j+CtmnJJ1Wyri5OdiD/6INxWFgYd946fTRWSnZl9YnIOksnuXWTI+sxt28g78i6P+Bng5hjw7mNL3nGfbH5tDneRwSzF7g5+Nv6ypcLFe2OHWet8YaRYdftY9GrsnyqvxL6TQZi63EzxPlKWH53GFnviBp6JVD6z+FYM7gp6mbEzY9SDSZg1x0i5k54dXkmBhmx6/k7YO6h+0iNCEO6px08do3B0Brf8udQriVmrLsGiWcEUhwe4Maob2Td8XkMI8X28D8wHaPryTcKVaJAza5YufchInxC8YU20mRxJjVSyVeJ+sOw/rwZ3vn64AvtTJ9RTopp8OcmojcXtzNWXrVCSuIjPBrZCOXZtcKlmqJv92ryvUwUKFxzGDYfsUeS1A9p/9rmd7kDkfU0vh+8Vy2D567teJeUyHWwP+bieVY+V9o8W9q0c6r9HWp7/pO2lbXt9EwmRzGybr8Qb0Kuss4qewZS2L3XQQcdFBACqUJ8SXZFhPMSRDKy/omR9ZzaEa2fSQZKo2060qkuLCeo9nfoN48IpiZQnUagLjw7kCinwSunBamLpw7UYGqjU6mHOj7Lli3j1pnfuME6I8wHEnVplFAWWHY6SeiLx8yZM7lz2q9fv56RLxWwcod5dWmzg1KnurDsoBzNJ1/VhWcH8ovKlNKrC88OJKSL7qNyGry6eOpA6bTRqZwZQVC9HyQhLwNyJOvc6HqyP8SJD3B24VB0G70YW6ycEP6Kph2rxtNBh18RmafB07IPpag+B9Ru0AdC+kuiDPsR6FmkZ1Kb9oOeR3qhqAvPCZRG23dI1mnw6uKpgzbvECobKk9tyobSkU514TmBRHUavLo46kA6yT/SmVXUxVeChO6H7OEDeDKyHmVyJe/Iuq8fvkp88MbhOHY1KAIjXlUMXH4B4tCX+GJ9AbdHVAXPsBgqTToNkZMnXl+cgWHVCzNSXxVtOw3DpKH9Ma53MzTQ46HkH9Nw8ro70qUPYDuvG+oaGEC/aiW0rNYGff/sioEdGqNJ2ULg5auABkP2IVDojOQbizChQlHwSvTCCkb2v0SLEX52CabXIsJbFFUat0fPLt0wqGVNVKD9QEo0x5yTArxzeATTMUqyfhRunmF4fWUZ5jc2BE+/Mlp1ZnYNGoRJvVuhafH8KFF3IHbdCEayxSns68SDHiPT5et1xKA+QzFp0ACM69Mdg3oPwaSt15Hk6Y0vwixkPeQ5ZJdmYAQdfcnrh83XnyHlpRnM/+6AZkTO8+vBuHJz9OzYEQPb1EY1I9qwtAL+GrkLroGBSM/jneOJrH/w8oDH0kXwPbgf6R8/cPWQqqO6OqqK/w/9HfZ/5uNHvIrxQtDzhXgdfBH4wNr9t9466KBDBnxYh8AH6YkOCHdahGjBKfnzmcMz+rP9Hc2fZe35Kwm1OTQNnn7/T28wR0K2Hj16lDtPnUbAaTQ4N0IFrOz45iQ03Z1G7Gn9uvL8dZoupSTrmoiyg6eJ0P2gNJqWqerLS1OhtKovr9yKUic9KJoI3XeqA0pioCo5rllXBbsuSRRDmiBfW602jg46/HLQrVlXlaxkPbeizTuE2inyUZv2inSRTm3kn9hgThOh+xFhawOP9WsQduEs0gOEao43+2+Q7i/CR3c7PF9UH40N86FKr7Uwc4rCu1trsbAeD0bGdTDniD3i+c9gNaUp6jFyatywD9bts0DA05vwuDgfU8sUZQS4IUauu4kXQU/hsKg7avHywcCoBmbst0GsIATgX8CV4Q1hzCuC2u03wI6R9cSbi/E3kfWSvbHilBUgegCbeR1QiVcAhSsPxqHrzngrDgasjuLIiNZo0qwPZhywwNvnD2E6uihH1luNPwFfT3u4LuuCxsy2ouW7Y8UBZteDBwi4uByLmpVmxLk2ei66Dqn9VVzoLz/No/GwbTC9/AQBD24j0NIOb4RB3Dpzbu19pjLKTNaNMpH1P7njIfUqt8asA7b4IOQDzw9ia7tKMGBxmw3YAEtnET4zsp5no+uKze/eOrIyWjAH/qdPKmph7oTqal71d/7bNeuf8DrWG8GMrL/SkXUddFADVbK+EDFCOVnPSZR9D23aD237O9r0PZSiJOsk/9NkneLfv38fjRo1wpAhQ7jObG6FbgzpzI3Y29ujYcOGmDhxIkJDQ7kp8TR1QVMhfaRXE8nLl9dvRdYZ6REnShBEu3jryLoOvw10ZF1VdGRdvfyMTrof8T4+cF+7CkFHD+FzoH+ekfWPfAG+8t2R8mAtFtQ1Rn5GkneYmEC8fxja5dNH8SpTcc3eBakyRnQ710E1Rk7z5S8AA4NCMDIsCMOCBZCPXaOR5F6zzkLqZQGnJZ1QnZHVYuXH44yVGz6EMCIcdhdmU1qjZnZk/cwzwP0Kbo+oDZ5+OZQddwAyV1/Q5nZfaeM5Hw+88/TApwCVNesFGVmfeBL8Z49gPrUtqpBt+QpAn9lmWIjZx2zLr7CtxYB94Ps9g2TbcDStUhaVS5dE8SKFYcTi1f1zNI5c9kKiuyc+8b0ZuVUto5zIelvU4eVDxaZTcNFciM8S1lYEmOHhpIbMT3007rsRlk55S9aJqFPdSnxqBud5syE2uaqohbkTqqt51d/RkXUddPiVoCPrOYrSWW0U/9dknc4679OnDzfq7evLXrQaCN0Y0pkbobi0yzxNs9+8eTO3Pp7OWtfUT9JHeWkiefny+r3I+q8F0UsRJAlihuxG+gO5Hc5pNoCY+Sj6LjwrFPFZnhRffRwFaJZBjrqzQyB3XBln04sf6NAEzB5lvhnIlc+/BjLu5Y/KXSvoyLqq6Mi6evkZnenMv+SQELisXoGAndvwWRSQd2Sdvac/+zN438H1ETVRPn9DjBs7A9umNoGBfgVUHX0EoV5e+Bp0Eac71eXIeqa13oys5tfXR0H9mhg67wKCPBhZX9gBVXnFUKbDKljSOevSAPbiuIPHU9qgNpH1PzfAXh1Zd2NkfXgtRtbLo+zEwwhzZZ1DiT8+C/j44i/AVxq5FkvxLitZt/pG1jPbxkN+PbKtFv4auBNuYgHSfFwRbfEIIbvGo2v1IlycfPqGKFmhNbpM2g8fN0+k+avuDJ8TWW+FWjwj1G67CuY+LA3L/yv/CR5PbcRIvJysW+XxyDpNgae/MbduwHXJIoQ8eqCohbmTvOzv6Mi6Djr8StCR9RzlZzpa/yVZT0lJwfz587nd369e1ezrLQndGNKZW6Gp75MnT+bOb1+3bl2mHXhzK6SP9Goiefny0pF1bUGj/MEIeROC0NdSjuRxu8mrxiFCnSxDyFsZZEmMzMbntLs5C1PED30jj58TCacj42Sk+xXpVh9HLV6IIX3NdLwNRnAi05HVZq1Au8VLEczspp3t5WA+vJLvsq8+za8FMZUnKxdZkvhf+MCgI+uqoiPr6uVndKazsnyfnAT3zRu447SUU5WzEq3/Cp+EAqTz3SDZNgAdyxVGSeNSKFe6CIpX7Yc1lxyQIhQCgQ9wd1wTbrM44/o9sXLnPXjcuA7PG9fgasJw7Sb8n7kh1fse7Lij20qgTI+1sOHOWWdkXWaKR5NbM3KbDVmnafDsmXs2ux3KMaJbpMYInLrjgY+ycMD+DM5N7ooOzXtj+sbbkNg/wI0xxqignAbvYQvnxZ3QgGwr3xVLdl2C/Y1b8FKxze+hNRKYnwgKASLDgABnhD66A+/Hh3FmfCtuI72CVYbj2F1XvBHQEXbK8vkRWS+KOu3XwErgJyfrfo/xcHJD1P7FyHrY+bPwWLMSUfa2ilqYO8nL/o6OrOugw68EHVnPUX6mo/VfkvXjx4+jZs2aWLx4MUfcNRW6MaRTE6H16507d+bWx9++fVtxNfdC+kivJpKXLy8dWdccoqRgiEId8Pj8HIyaOASDt5zAbYEvopLFijiMyDOyHRBrB9NjUzFp5EjMP2YK86gQRtpY+iz5EcRJMojEj3H14N8YOmkCFl5+AqfwQMgSM4/0EikWxfjC8dFGzJ02GMM3HMI1HyGL96MRdkbSkwUQhN3A0fnjMWLUPGy8awlXOoKMhWtHUOn4NzoHPwAS/4vYNns0ho0ajMEcZmDJ0ftwSg9FUAIrj3/ko8A/jUBWZoxIv/LEU5MlmDlzGhZdtYBXMs0S+CdH2HVkXVV0ZF29/IzOz6ws0z+nw2fPLnguW4R3zo5yUpVXhJ3PZ2TdF5/urcGCFqUUo9KlUbf3Oji7C5AW6I8vQnfEHZmAAZUKgVeiNrr1n4LFEydgycTxWDR2BKbP3I4HD525dee2Geesr8YzRtY//4isKzeYiwpAyIl5mFCF9JdAnTa9MHLQUEzq3Ag1GDHn8aqg1yozRNOa9THyNevyDeZCkHRhIabXMQCvYA10HjAW8yb+jaWcbSMxc/Y6XLxni1TL07g6uQtG9eqPcUNGYM7YCVg6fShGta6K0rxCKN50Bm5buCGFjq7LINc/IuvMn3arYeH3C5N1Hy9IjxyE55aNiPf2UtTC3Ele9nd0ZF0HHX4l6Mh6jvIzHa3/iqxbW1tzI9wDBgzQaoSbhG4M6dRUnj59yumm6fe0W7wmQvpIryaSly+v/9dknRFI0UspZCnRCH8jhTSnM8BVIEoOQ3CENR7s/JN1yFiHr9gALLhjA0m6DGIujgSyV/4QBZzE/D8Kcp3UNivPwyIpHEHZkHXJm0iIvM5iwwDWceXpodaCCzAPEiHideayECeHQBzljsdbWsGYdNccgdXmAkS+/tExdnS+PB9+ku2YUqoA01ENnbZcg/WXMASxcK3IOp1Zn8Ty9DiN7eP+QEWuQ/4NBasNwNRTD2CTzEgxfUxQl0eegpYd0Bn5fDifG4cOlQ1QqNscnA0IZWT9n5wVoCPrqqIj6+rlZ3QSWafSFJ48Do8lC5BsaZ63ZN2XkUmmH97muD+xKapSm6BXFz2W3cRLgS+++DMiygg9nFn7sGYo/iqXue3g8cqh+bC1eGjhDgTcheXUZijMrudvvQRP7RhZlzLiE3ITd0bXRwl2vWTTlXgmdEKCyWwMNWLp88mPbvsQGY40Nys4bhyA3pWy6ChUHd2m7MBzewk+Pr+HywN43EZxtYbuh619POD7DF47xqF/9SzpeMVQre8SXH9ohw+Ot3Fvbi90Kpk1Dg/5yvTG3OP3EMOI9WdaI59RNoysc0e3TUAvLq7q0W315P40XoLHRNYlRNZp87sqKMmuV+q0Gk+cxL8EWRfu2Aqv3TuQKBHLK2EuJS/7Ozqy/hvjIys/0FGWxAeEwJss4W+8VOKoA0v3laV7x+JR3HesffpCeVFYAJBCeSjzY+FEJD8HKcL9Gfmha8pwHf4Z6Mh6jvIzHa3/gqzLZDJ06tQJbdq04c6aJdG0sSShG0M6tZF9+/ahWrVq3HR4TTpPpI/0aiJ5+fL6nyTrcf4IJBL+LhIxadHZIAoxn2QQhdni6cPDMPXyhuBtAl5+CkNYsuj7Ke2qYMRLliyAj8tBTG1mhEKM+HbbfBVPXkdD9pKOmAuFNMYNzy4OQLuSBWDUeDrWWnhA+iEUIVlsinhDpJCleRUBkc9FbB9THgWKlkKLlVfwLCIciV9j5XE/hCOczpVnJFIU6wtni11YsXQipuw5iVt8ITelnWwTMQItex+F6E/f/Ix8H4ygF2IEv2XEWroXc2uVYjY3Qb89N2FLI9+svESszKWvw1XSRSPqvQxBzJ/v/FdAlBSK0IinuLm1CypQp7N6c3QaOBDjJnZFq5qF5Z3Wkv2w2l0AP26aeSgiPkYj+n0IQmkK/weFrk/MxjdSjhzLy90fAdx0/TAWpmLPO+ZHgjIOA/0lv1iZRqn4G5VCdiviEFhdCEmJQLQiHw4fI9l9ppF1Fp4gQ3zkdewaVxNFi9XHgEP2cIsXIyjpnxpd15F1VdGRdfXyMzppGjx5KLlxDR4rlyL+rmkek3UGP1+kBYgRe2M9Dozrh3GTlsLklgsjmYy8clPCmW0BEsDtPuy3zMC4/iwOh8EYP/cw3Bw82cuBEVNG+IUHF2NB/5GYvfwUBM4eSA8Q4LPYnJHF+VjSfxiWLD6LAIEbXj89ipPjh2PcqFW4ftsaKSI/fBXL8NnTBu5bB2PmYKWOfpi5eDdsrFjnPViMD67P4LhlGOay8HU7biKQNnGTso665zMI9s3A5IHf0o2buxNmT9wBqRBfREH4yndjcUZj0TCVOP0nYO3Ky5BJ/fFZyMohU9n44bPEGbEP9+Ew83VK/zW4+8QBqeE28N01T+7PolPwY+X3KYDF9bOG5+4Z7PogrFx7Fnx3IdJZGWbetO6/Q5rADx8YWfdavQLeB/bhjYYDGnnZ39GR9d8QRKrf+uKz7CYc7m7F1bMHYGn9FK/S2PX3jOxx8djfVAHeS67BxZTiqMMeWDta4l0aa3M+8oEkJ0Q57sG9C1tx86kpwqNZPimUHyPl3BngfKb2MMwubsU9i3uIjmdtxXsVu3T4B6Aj6znKz3S0/m2yTh0c5Tp1Ok+dhBpKbQqYbgzp1EYiIiIwbtw41KhRA3fu3FFc/bGQPtKriZBvefXy+l8k67RJW2C4C5673MSVh1eywS3cd7OHje8RrOhqgDbDFmHt5bswfW4O6zAJI3MRiGAkV0pkTg1xF78KgyjCBbdW10XlwjyUH7gexzzDEMWIfjAjo37i29jWtxCK8Qqj9YpLeBj7CrGJ3nD1uJ3JDjN/AfwTGXF9F45AJVk3Loc/1t6AtZ8N7Byuy+NaPsITiRChtA6cvTT8RJYwszPFXVc7uIQxsv8iEJIkKaRJfLi53cCtR0od15mfLvBJjkA4ewHxvyPrIYzoBzEEQhjwCLfMvtl2x9UBnvERkCXmMBuAb4L9f1cCT78QeJ3W4oo4FOkIwLNz8zC8bQu0HzQSG54I4RsrQYDkKe6ZX4aJszXshHawsVboemyCBwJfBCRIOV3+CUEITRTCP+AJrmX4cQW33Z3hHReMUEaiibBzJwO88oeH522YZsQzwR1HB3glMsLOSLGY5Rma5AUnpzu4rsiHYGJuCmuZhNWVIEakxQj9bA/TXX3RjGeMsn3X41KQAIG0H4AavzWHjqyrio6sq5ef0UkbzJGHYRZP4bluNSIuX+TIel6uW1ciTcA6uSJGVERCfBWosYfvhy8B/oCYxeEQAAQK8IWvPEvcB2m0xp2uB/C/HYXmwzp5/srrfhwh/sTn46uI/Wa6KP1HH3ncT5wOuq7UwUA6OHu8uI8a6f6KcH9Grv3YNdLhx8iyv6pt8nTkh3Kk/BMj1Z+VaTPikU0qtmYFs51s5eKJ5b5m9oelzYhP18kGuu6ncj1vQGQ9xd0VzvNmgX/6JD5o2IfIy/6Ojqz/hmAkHB88EXV+ILqWp5koRqjXdxls37D3aKqfPA4R+s/BiLg9BuPryWe2fI/8qNZ5Ms48t8frT8H4GvsUj+YURVkWpt9jHq57MJJOHwCIqH9hhD7qDs78XRplWHjlQcvwKDCU2UG6VGzT4SehI+s5ys90tP5Nsk52XbhwgRvR3rZtG3d8Gom2BUzpSKc2Qo3zs2fP0KtXL/zxxx/w9mYVKxdC+kivJkK+5dXL63+RrEteRyDQ7TjWDSunpsFWoiSqtF2Og/7XsGtWUzQpXQgF6Hql9uix9Tye+9nCTuAFQXIwghlBpqPiMk2RTwyGLN4bwrsz0KaSAXjVB2LOLTtEpIYxUuwFV/sVGGRcCPn1u2DaTWv4pkfAx2Ib5vYpm8mOFtP34oJ3EGQpsZBwZL0C9IuXQ8v5+7BneR+0rKyIW74F2m26CI8YZg/rAFgdG4xmTG+R7nOwy06A8LdBjLjy4eK0F4t7FEfxDB1GqNl1HnY5+iPgnT/4Qfsyk/XPEQhhPgp8TXBwblOU4NZxylGx80RsMhdCEC8f9c5K2KmcpYG3cWxePehRmnzdMPmsCR6G+8I3KpDZo1hawAgxzQawOzMKravqweivARg6ZTB6V1DoKlAY9Sdvw3l3XwQlByEkSQKZ72UcntNWfk8UKNljOjY9ceWmqEtp5/ZkATy9T2D1wPIom08ZzwAVW03GJmtPeL1g+uM84Wm7BdP/rMpNo1XmxStcBj3W3cFDEX3gkCD0gxAWVyehd0keilYbgOVWfvB+ycpak837soWOrKuKjqyrl5/RSWQ9naV/wcip95aNkBzazwguXz66roZw/ZcgMpvOCB5NBVc/dZumzFO4CrgPDd/CyQ/KIz2DwGdznZFuIpPf66K43+tQjUPh6nXknE41rWq8zPmoAc084OJ+y0+9n9lf/69BH38IieZmcJw5FdJ7d7jlF5pIXvZ3dGT9dwMjz6mM0CXchsn02qhrxOOOTizVsBu2PvVC+ntG1mn6OkfWgxB5Zzz+bsDe7/n0UbR0eVSpUgFVqxLKoExRPdZPMULtLjNgKgvC5zhLmC8oicp6PBTusxC3PD1ZHv7sReyPz5F3IDzYD7VK0JJBHpqMWQkzUYiOrP/j0JH1HOVnOlr/Jlm3sbFB48aNMXr0aISE0DqRb50tbQqY0pFObYQ+FLx9+xZWVlZo0KABhg8fnmFTTkL6SK8mQr7l1cvrf5ase5zG5gm1UMiwUDaojNod1uBMtD98IpxhdnAY2tYqBD3DwihSshTKla2BOq0XYT/fBZ6MXNGu6ZnJqhjSV0KIwk5gaZsKMCpQC51WX4DV53jERlnDYncPlDQyQoGuy3DSR4AQ192Y17cijArqoUBBQ7kNBQugoJExWs/Yh6tBrxAqvIgdE6rCyMgQ9Vq0QZWq5dm/9VFAQUT163TA31ecwY/wgu2RPqhTjF1vPw1bbQIQlyaGh9tBLOquIOr58qOAvj70WNp8+YqgSof5OCj0g1fwQSys842s2+MFggQ3cXhuM5QqzGwzKIiChoYwLKSHgoUMUa3LBGy2DkLgS+ZvVuKaIENYvD0szv2N9kX0mI35oFekGIo3HILJZx7A8w0j6Um0AV0wJIys254cihbculE9GLByLmzIXp4F8oM7U9mgMBpM2YVLAhmSZSY4Oq8djFl4Pr1CcntYORgUMkKFntOx2cIPER/F8BWcwRoi6gUoT/lxT5y/vEIo98dUbHXwgLf7fsxjRL0IK498BQxYedO9L8hghJLVBmLhLTu4vAxFRGoUnMxWYnwTHgqWrY/xFzzgFi3jRvoz+awVdGRdVXRkXb38jE66H0TYU+Lj4btnF7zXrOAIHkEd6dJBB23wSeCHVC8PhF+6ALelixDx3J4jppoI1dW86u/oyPpvhlQh64y7Iv3JDPSqUxhlW7VEr9Z1UFG/MlrOOwzpa0b2PjLCriTrdydiXE0eCtVoheVXnyEy2B7xkdaIj7kHyy1d8CcNRlRti4V3nfExxgLPlpZFtUI8FOu/CLe9mL4vIqQHm8BsZUtUMaY+DfWleGg+bhWe6Mj6vwAdWc9RlM5qo/jfIut0nnrv3r3RrFkzeHh4KK7mHVkPDQ1FZGQkp/fs2bPc7vBbtmz5YQeM9JFeTYR05NXL63+RrNP668AoD7j6PcWj5w+zgRmeejjD64UE0jehCIp0hI2rGSy9T2HXvD9RixppmhLdqCn67rgKM4kI4a8y2yVKlED80gPmewaiWWk9GHaYgh3ekQgKMMGu4UVgVLgheh98CMe39jBd0Ql12IvCuNEoLLtnATOXBzC7Pg/9qxZE/lI9MemWO4QSE+yZXA358xFR7o4xx8/hqo817p2cjaHN8oNnWA31NpjCM9QTz08OQsMyPBh0mokdjkF4FW+Fe7t6oRhHXP/C2ONncd3PBvdPz8ZA+tJcrDlGXbWEq+gAltQvrSDrd+AKf9hen4HeRXnIb/AHRhy8husu1nj+bAcW9agMvQLV0WrlNdjGiyBJpOPnVMs6EJJkKYLFD2G6uhtKFybdhAIoVK4q6nYfhmGnH3E73Ye85MPuzEi0rpmPhZdBvd6LscfLGo+enMbu6Y1QXI+lK9wNM0we4L75AgyuUAC8ErUwZNc9mDqyl6rnLiz8qyIK61dDu8XX4JjshGcnhqNyQdLXksU7jqt+9nh0cRnGtmRlVbge+h68B8dn6zG+VmHw9Jqj+4Yj7IVsjscOD/HQ/h7uWj2GtcQHfOZb0JsoCJ0OYlnvIshXogq67XwMp3AxQpN/ri7KoSPrqqIj6+rlZ3TS/Uhj+MrKVHThHJznzMDr57bcSPOvMBVeh/8N0GyN9+6uCNi3F767tuOFv1A3sq5GqIXSkfV/AJ9E+JpgA7eNdVGjkDH+WnoEN85Nx9gq+VGq+d+4FsDqJE2Tf/+NrI+tzoNR3b+w00bK7kIoA20SF4x0m8WY15z1DYrVQ+cDd5ESZQ6bZeUyyPpdIXsvR5ngwYoWqMwNPlRG3ToFUdSIh8ajdWT934GOrOcoSqO1kdTU1AzFmgg1dtl1Qig/WqdO09+zHpdGhUOFq+mNIaF02na2xGIx9wGBhM5fJ/toh/hr165x17IT0qdpZSDftKlAJNq89JRC5a7tkXjaVFqqA+peemGJ4n+UrBM5DAy4j4sHp2LomKHZYCKmrT6D+9FCBCTR5mvReIkU9pINxPOLE9CZI51ylBm3H9cFIkS/UR7NpgAj+pKXYkjctmDyH8aMIHbAmBO38OTOPHQpo49C9SZim5MnZMk3sH1IfW7E27BsfbQaPALDxg3BsAEtULu4AdPRGD233oFNyE3sm1iZEUtGLtuvwGWRGAl4h9cBp7F+YFlu9+Kaa64xsu6RiazvcglFnOQGDk2qCp6+MaoO3oNbwTK8QCJi4pxhZX4MR65fxl1/F3iJ92K+cmR93314fn4O0519UY/ZVkC/POp17Y8B40ZhzMiOaFWjGPIxYl2l+wZciQtEILdeXsV/7ug2RtYTAhEcbI6LN49iyciKKJcxJb0ADFoNxOoHLhDECOB0fiRaVuIhX53+mHfNBTIkI+GLCL7OyzG0UhHo8aqiz54d2LB9BNqQPYVLoE6nwRg0dgRGTuiEllWMoc8rinrDd+OyH9O3qCEMDAqhXK+NuCCUIp7lF/vSA3bWJ3HE5DxueLrCV3wZG/uVRRFeYZRp0Qn9JgzHsAnTMP3UE/h+iUd8mgxBL1idow3+aOnE4BLgGZVHpXknYR0sRMRriYq/2iIzWQ9PkihqfmahNoA6lNq0H9q256RLm/bjZ3RSm/NPv0OyE+X7Q5v2inSpa69yIy9fvsSrV68Uv3Iv2uqk+6FMF2H+BC6L5iHG9CZHsHSj6zr8U0j3F+CdixM8ViyD6PxZvKWPblyty71QXc2r/g71XzUV7fs76XgT56Mj61qDEfCvjMjFnsShdiVQpHAbzLttgzfhx3B6AHtPF22IToeu41UiI3yf+BlkfQxH1jtily2R9DAG+e7xsTfGYSQtvSvfBKPOWeBDtAWsl30bWb8fyOILd2H7uFrQ6z0dZ05txv6R5VFBn4e6o3Rk/d9BZrIe63+aHp0c5Wf6Htr2d7TpeyiF+jvx8fHcv3n0j9yCvvhTo0VHkqkLzwmUlkab6Sg1ykNdHHWgdNQJpVGjrNepQ0M7r9PI9ezZsxEVFYXExMSMOMp09Fc17Y+gqpP+rS5OdiDffHx84Onpyf2bbHR0dETLli3RtWtX2NracteypiM9Sls10am0U5MyVYLuI6XTxke6j3Q/NU2r1KkuLCeQn1nvY+LLZHhLnXHw2QpYBN79Z6bBv4lCoNN+LOr0jXCrRZkZOBAThOCvsZB5nsK2DdMxbf5A9GhRBgYUrv8H+qxdhV2WNnAJY4Q0y5nngTTazIiqLO4eDkxugDK8img+cCLmzmqGInrFUGncIdyVBiA+7CzWDmyIYln1Z6Aq2i++hkfht7B3XEXkL1wSVRadhoU0ENEpYYjzO42NQxkRN6yOOuuuf0fWdzOyHh5wFdtGlYF+sdJotd0Uz8OCEJ3ozwh2BFgXBR/xHikQQxC0F3NqKsj6/gfw/GSDmxv6KGYSqENBlGywBMcZWQ9gxFWVrMs3eQtG6EdWF/AWrxELoftRHDu2GXP/bo9mpVj6QuVRe/VNOIf4we3iKPxRnpH1TtOxy0WC2EQpQj4IIYw+juW1S8OIVwZdt63C0gVD0FKtLXJU6bUBh+2f4MiMGjAuVhgNVl2CBavLscnMpuQwxDBfP+Id3n4NhTTBE88e78XB/fMwpnNZGCrzKd4cvadPwz5LV7hF0y79EQh0PYq1g1gnoGAZFPx7L8wlfET9g2TdSnQfB6yWc/X9RfyL7547agPomaS/qtdzAuVBz6I27TmlU7ZX6sKzw8/opLT/5DvkR1Cm0dRHgjJd1vuUG9CSqbCwMI3TaquT0nDpEhIgtrKE06rlkBw/go/enty6aHXESwcdNALtByDkI8nyKRymT4bghgmiWX2NY3VVk/pK9ZTquTZ9iLzq76i7njOovYpBhNgWEtt5eC27pCPrmiI1gP21Rejd4ehaohBKdF+OxyFEwH0QcW0E/ippCOM/l8M+yhVf6Gg1BVmfWJ8HveIV0G7weCyYOxFLFo7HksXDMKJ9We5YxEJ1B+CIpz/S4ixhubhMBlm/4ycAXjyC17NjuO7rwFjWPTyaUgVVWJpaOrL+L0FO1j8zsh7pshjB7gcQzz2f6p9Rena17XtQOm36AqRT2WapC88JlFbZ36HfPDIit6AEpFjprLo42YHiKxVTHuriqINSp9JZ1etEei9evIj169fD398fCayzobwhBGU6ZeOeW1DeynSqOnMD0kkbyrm7u3P/po8HZJepqSl27NgBOzs7zu6s6bTVqUyjLuxHoPtINmrqI4HuI+16r2lapU51YTlBnZ+JL5LgJXH6R8m6OCkYgaKHuHp8LsZPG5cNZmHB9ot4EP4cD023Ylm/yijIETk9FGnRExNmzsSc9Zdh/joc4Z9CuI3G1B3nJqaNzt74wfzIIHQopw+jYqxxr1oCBqXaYcz1Z3B7KUPcy0vYMrQBN7JepEpr9Jq9APNWLcDClfMwn7B0Iw48doKj6Bp2jikPvaKl0XrNNVjJJIh4H4ZYn5NYP7hytmR9l0sIXkhv4tjUGuAVKIoK3bbgipRG1l8jLtoGD65vxJpde7DLxgzuoj1YWLdMxsi6x2cH3N3dD/WZbfoFq6PV6KmYvmoxFq1S2LZ8BdYeMMET5ntApmnwIkiT/eEpMMX5QyuxYe8WXPQUIwSfuJGWF4L9WNrJADyDCig+5yQcg73hcXkMt2Fevqo9Mf3sc0jwhv0viDXQa9G/sjEK8Kozm3Zj896RaMvs0TMuhxbD52DmikVYtFppz2JsuvgQz3zMcHlxY+jpFUSpP1fipJ8EcYygv3jhBPM7W5i/W7Hurhk84kKRjBRm1WuEiq7izJ6lWDB/NAY0N+JIe9mx+3GNL0HspyiI3BUj64UroPrCM7AJ9ueOy8t6zzXH92Q9Pk7emKs+C/Rs0DOpSVtAedCzSM+kuvAfQd0z+SOo6tS07aD41OaQn+rCs4NSJ9mqiU5lGk3bK9KhTKepjwQlWdckLcXVtj1X3sd49p4K5/vBfcc2eK9fgw9eHhzBUku+fkF88KFNzISALBgIk8p3efdR7Mz+D+KTkBEBmYxBAvj/G8sEvPDB1xdp/oyghTI9YdmAyEcAi8dnRCFI4XMgH58Uu9j/SuDWq3t7IuraZTyfORVBdjaIT0pCjIb1VVlX1YX9CD/b36H+q6ZptWtbaeAmGuFiGx1Z1wqMxH0JRFqYCe5NZn0IRqiLt+uPJaxNO3p8DXYt7orOxfPBuORf2OHkhJRP7Dn+IifrU5t/+7CfFUXqdMHSk+chfivDlzgLPF34jazfpg3mvrB24TNNn/fH1xcmuDKuIiqzdLV1ZP1fwvdkPY4R9TjWP1L3XNGzS8//79rf+e2nweckeTUNntasSyTqp6vmJKRP0yle5FteTQv7X5wGT9Oz6Sz0oDdhiEyNyAaRiP0qA194HMva81CmXF00+qsHuk9fiU02nniZTud10/nkgWqPLVNC9ELMjS4HeOzE3N4VFSO3JVCy7WpckgkgTpEhNMUWN9b2QCMjmp41CHMusJeAmQmuP7qCq3fP4oz5I1iGs3j8S4pz1ktz56xbBotzRdZ3OEjxKsEOjw4N5qZs8XjN0W/jDhx8YoJTW0ajaxW6VhYNtpnAwX8fljVUkPU9pnCBGI535mNI2Xzg6TXBwK3HccrsFm6aMdvuX8CFBzdw3dcDEkY4aUf8b76LIEuVwvXZRkysLX8R1huzEVsvXMKlexdwcvc0DGpaADx9pnfDPbiE8uF2eTTa1MzP4hZB5TbjsfjuZVy8vBv7ZraDMa1ZL9UX80wt8Mx2GUbVYES/aDX0XX8RZx/cxM0nzJ4H53H+7m3c4fMR9tIRNufHoQ63Tr4+ui3bhH1PbuDMrikYwB3dYoQKc8/C2ukuTG4dw8GLx3Dq1gVceWoKk2s7sHxoZW5X2UIDNuKshwAv0uMgcNyHxT2MkL9kVfTaYw7ncAlC/pGz1nXT4FVFNw0+e9FWJ90PZbovHz9CcuUSnGZPw1sH+197ZJ0R8XQitHTsmYCOBfNEioc5hGeO4+GRC/Awf47X/vJj2dSm1xTcGn5fpNg/gMf5Q7h/5gr41u4sjK6ria8taKd3P1e8sr4Dx2OHcf8I06UGD0+cgpeFC966WkN85SS7dgEuZvZ4R7u+/5P2cFAekSfI/ki5HJCmmAIvPrgPHhvW4k1oCLc2W5v2StM0SvnZ/o5uGvzvAj6rKB5I9tiE5Y31WH9F3sf4DoYl0H3DNUhihazEZRxZn9RQvoSubuuO6Nu7E/r3+YvDgD7jsOPCHSSBiL0EX2OewkyVrHvR0W10FJwv++uLz/EmuKoj6/8y/p9Ng+f+q4GQwdpuDvRv7gavTqiQ6MZo07hTOtKpjVBHizpcmgrp07QikW+URtMypfg/u+HK/+IGc3Iwks3yEb/MDhIEvxXDJ+AKDsxpj3lHb+NxSDQiX4shSVDGyZmoy0F6xAhNs8NVRsgb0wukUGXUXXsDrhGBCH8tgSgpBP7OR7BmbF2UZC+GTC+b/EVRqs8cRriFiA64hK3DirFrhdFg8SVYBIkRmRKOOO9jWN2nFItfDpVXXoNHqDvsj/ZBTSKqbaZgi7U/YtOk8PE7i40jq6ASR9hVURBVOo7HdgcBPCX7MKcKjSrXQfft12GLl5CJH+H82s6oXoqItGo6PRRs3Acjzz5GICtLOrdc1Xc6a17M0l5a3xX1yhfMkpZQEJX/HIb1FlIIYgK4Neutq+sjf5FSKFHaOPNRasbl0W7pMZiKQ/E6/D4uruuFyiUUu7FmQB9GdQdgIrPH91MwBFIT7JlUDzWMVOMQ9FCu7RCsvesGjwcbMKJLNRTJFC6Hfrm6GHvkKewiIhD1MRIOj5ZiTANG4Ms2xt9XvOAeo9sNPjtR6tTmHaLbYE69/IzOjHeIomyin9vBcc4MRN8w4abC/5rr1lmHOFCET26WiLU2Q7Qr63BL3fDKZgMWFdNnz2gdDFlzGbJwMb6qTa85uCPWhEIknZ2LcbVYO1DxTyw6RBvx+SrOXFefTmMIGCnmWyHowAR0UTkO8zvolcCYDU8Q+egodrcuza41RN/lFxEnYoT6nzymjUbu/b3w3sUWMnN7vPaWny2vNm42SA/0R7K1JTxXLYf40gV8SEoGtRzatFdcXdWivfrZ/o5ug7nfBKlUVpYIujQUbQ0LQL9EBdSpVxtNGtdG44YMTWqjYe0yKGVQEAYtJuOatwMr80jE0gZzNXgwrPMntjzl43NKAKugjIDTeeyEFEbE3zOCmCbGZx1Z/wWQmazrNpjLIkpntVH8/4ms09R3TYX0/U4vr/9dsp4L0NnpcQIIwr3AjwmEODEIwUmMrDN71MbPDi8CEfQuAg73FmNcy5Io37wb5t8TwDdWimCO7NGUcRkEzkexbnw9FCtWFEWNFeg1B1ue2CMsJRpi/jXsm14fZarXRufN1/FMJkb4u1DE+J3D9gmNUbJyM7TafhteYZ5wvDAW7esxXQMWYT8j4WGvpQh6EwhvwTlsHlkDNUsaw5jyL14MdXqMxybLIEje+EMoO4JlrWqhQukOGHXkDuzTwiB7FQqR+DEuru+MmhWLydMRmvbF8BP3IIwLyKZMAiFiZSYLtcaz4+PQsEZpGCt9K1YMtTqPwFozpjMhFEEv/GB7egT+qMCDwV/TMWvzcizoTfGYnWUqMaJ+HHeE/gh9JWFlFYwIyT1cWd8bpUsV/ZYnI+p/n7wLF3aPRAliBL0KAF9yHbsnNUA9Rv45u5ne6h0GYuUjIfzighAU5w1ft31Y1LsRKmTYZoziVeuhx+arsAwSIZTOdv/oh6eXJqBHMR6Maw7DWjs/+Caw+qA7Z12tKHVq+/LSkfXv5Wd0Zn2HvA6Swnv7Fvjv2Yn3rs65nwrvwwgin48vAYw4B/CRLuDjqz8jetxvAb4KfTMTSEZyP2eEKyHgiK8yHpefP7vO4tH541+V8QJphNcLbhv6YvWUoThpGg7IvPHeYQ+2NaqJqqU6Ys6OmwgPCcQXThfr1DGirarrq9Av44xyGh1Xhn+ls8sV+uXpFDaSDcyWREbWx9RkZLlCeyxUIetpAuajSv5cXqoj+yyePC9WLqxMPyvtoTiqo9UKsi7dPw6duI+ndExnYRRn7U/xot9QtnI9zN9ljtjHh7GzJX2QbYA+y1TJutz2bzbJ78F3Mw3oLHgqY5V4n/ms7CnMzw9fmK2fnp/DreUzMG70PsbbffGVdGTNJzvQenV272JuXYf9jCmIY3WKTh74pKh3mkjWuppbofg/29/RkfXfBJ9F+MLK7NbkqihsVAzNFxyAR6Az3iY54W0s+/vWGZFOG7H6DwMYFWqMKefvIf5zFJIefCPrW83Zs5vK3rXp7Hn9QOAzss7IIeWvI+u/CHRkPUdROquN4v8vZJ06WrqR9e9FqfN/gqwTXog5Ih1E67Ff+KuPkwuIXkjgH+EKZ19zWHrbwz1ChAAis8pwRvyCXvDhI7aGhZv5N/h7MFIpRkiyBAHR3vAMeAZLDyvYSXwgiA2Qj/BHe8HD/xksPKxhI/Xhykgoc4CtJ9NF58BH+jM9gRAnSCBJ9IdP4DNYu3/TYSN0hU98CPOR2RLrAVdvK1i62cIh2JcRaWYjI5I0myAg5DmsWZ4Ztvk6wTUyECFJomxmGNByA0aaExkiXWDjZfktLYO1wBnecTIEvwqGJM43g6znbz8VG5+6wl9iCSuy090S9sFC+dIF2huA/Q1OYPmHOMJSxQ8Lbye4RwUwks7IOp17TzvxJwXAj5WpjUo8a74TvGJlkNIMiUQJZIl8ePvbwkqZD8HTGo6hijxYuYWl2+DGlh5oyCuBSsN24EaIEKLvdr/XFjqyrio6sq5efkZn1ndI2tu3kJpcg/OCOXhlY8Xt4q2WhKmDjxe3NjmVWz9O68gVv71pHTYjbRkjvvJ/Z8RXgv3+wE03z5qffO35B25U14uRePbcr+iHrsX1UbnVIBwwEXP5pfk4IMbsIQIePEW4oyvekz4ii3z6UKCih4HsoVkDSqL8wUcRptClhPL6B0ZcuZH1c/MxoS4j0VX+wpLDcrLOEX9aa67MgwOznSsH5Si0Mpzlyf3+Fk/+WwHlyPr+MehkaIT81Ydi23ETBNlbIvjJY0iVMLdAnIs70ix2Y3OrcuDla4IBKy4pyLovh0+kU8WezPeAgdmeRvap2k3+03VKL2DE3fwEzoxujHLG1VCn/xa4u3rgkz+f+aticw6gjz1vnR0hOrAXLsuW4H10NFfPfrf+jo6s/w5gpPqrPULuT8EwRqT1DVtigaklXqfLWKmyMvzMQEeyxd2B1cLaKKqvj0IDlsFcIsR78ykYXZWlqdEWGx6xZ+INI+kpanQoyPrj+SVRWZ+HIn0X4pZnVrJ+DVfGlEMFRtZrjFgJMx1Z/xegI+s5itJZbRT/fyHrRNTJT03ld3t5/b8n6/8U4hhhTgxGyPsIRL4PVTN9Wr6OPjjrOvq3jMQzwhzA0nPEl8JTwhHGCCmtEafrRF7l6+/DuA3PRLSOPkmGsBRKH8zSs3icDQwvWB5vwxGhoiP8nYzFYflz4VLI3lN4KEKSifTSBwoGVuaSV6GIoDyVad+HcESdyztbMPvoowSzJ5zZnZGWIYLpJdJNo+/iWCLrw9GiPOsgtxqLDc/8EfMpCtEfKC75K5H7q8yTsyckU36R72WQMXs4P5T6yV9WNuEq8SLehcjJfkYcWvIQlqlMIlPCEMqVcSACE2SIC7qETcOrwKh0U4w64wbPeFbm3+3+ry10ZF1VdGRdvfyMzu/eISyveHc32E+fhIirlziy9+Op8Hx8CbaH9PxSLG7dCcO6LsPD4yswY0Q3dGrVEp1bDcSi5ZcQRCPdNOLOCCMczuL8uL7ozcIpTqdWrdC1+0CsO2KOJG8Bvor8ITs9D8t6tMLIMRNwYMN6zG7dBj1b/4FJ/RqjfeUCyEfTwY3KoW7Tgfh75TH42Z3G1bGDMarrFOw/9RCxUiG+ioPx0ekhLJa0Q/9233RNmr8XjvZhgFSEVEczFv4nhvzZCrPWXoXASYIvEhE+2ZnCYmkf9OzYBbM230SYuz8+XF6Qiayn+bNnUuAJ/q4hmNLlW/6dW3XFqBF74OLDSK+Ilc/z87g2qQ+6/TUF8xcux6kZLF7rDug2dhueWTmxOALWz2dlmUHWR+EvwyLI32AWblgzEvLmJRAdqUAEEM4IQCDrtFruxMaWqmSd1pb747PPE9gs6YvRbZU29cOseWcQGBSALzTC7ufHLSX4eH8P9o/ryOyVx+vZbQAOXvLCG74EsDiMg8P/QGVDGuHPB4MyNdG2QzdsOWKFSA92L4VZ68H3+CwKwEuzR/BYswqB588iTdFv+N36Ozqy/huAyinuGiyXNUYBVl/zNZuG2/7O+PI1QD6FnZE7fGDP61sbRN0cjjY0cyV/R6x+ZAOR7TSMpj5GpZZY+5A9s2+FQKoijSrSWdvAyPqjOUVRlrU/+j3m44Yn053OntF3jLCn++HLi2u4NKIUSrHwSkOW47GItTMfWVqlDT+COt90yAJ5WenIejaidFYbxf8fyDrZKJPJuLPWNbX3d3t56ci6Dv82lGTd+mg/1KUOY71hWGHmi7Bkms2gPs1/A5pVIGJk3xe2x4eidUVDGPdfjmvBIdxou+Qfs01H1lVFR9bVy8/oVPcOeRsRAc9N6yHcvQNvHJ/nYnRdwMijFbx3DsKfRKB5pdCwemH2l/4th36ZTpi28gqCg33xwesSbg5ojKoq4UqUaT4LJndd8U4qQ+CWLuhYlF3X00PZUsUy4lQ04KFAftV0+WHUaxnMzdZiSRkD9rsWBq2+hLA49kw8v4vHC9qhVUnV+AxFamDgjL1wcYpBit1tnO/DbGTX6444hOd2jAjLgpBmfhZn+xRl8fOh7sQTEDoF4PO1hRlkfdlxJ6R7O0N2aDr6VM6SP8GwBfrtvIU4b9axtN+DDc1LsutG0DcujjLKOM0X4JGZE75KhfIR74w16+PR1bAg8hnXQvsuvfH38CGYNGgg/iaMmoQl+0yRQLtQ2+zBpgyyfhkJoYH46PkA1ku7olsJFVsIhdti3MIzEPoLkR4oxPt7+7BncN1vtihQ7o8hOHTeEe8vr8bYOt/vKdJ5wV0EutJu9FnrwfdIDxAi/MI5OM6fjZc+3viqeJ5+t/6Ojqz/BnjPCHOCNRJcT+DOreN46maLz19ph3b2PHNnphNCGcTAG0v43z+KR9cusz6GAOlvn0L09CCeml9DRCKNxKumUQWdv+6PFOFJ2N45CAsXS7xJoeuURglvvPI8DZtbB2HvYY3UT5HsWtZ8soNEvj7+jZd6H3VQQEfWcxSls9oo/v9A1sm3wMBA+Pr6auzn7/by0pF1Hf5t0FRzUZwAHvbHsHXjbMzZfxI3/QTcjAJRXpP1F4GQJHvB6sEWrNmwGlsf2sHvlXxzQfVptIGOrKuKjqyrl5/Rqe4dQqOfwbdvwmXxfCQ8eYzPgf5qidg3MLIe9gx++8ajv4LQFarZFZPHzsCGxcMwrFFZGDHCW7DiAOy9b4ckj1swXzALaydPxfr5i7F//QpsntANHYrzoKdXFZN2WiBSEI6Qvf0wuCrlVxhG1dtj8vTZ2Dh3PS6tnYQ5f1bgSKZhhYboM3Idjp6+Bskz9ixWK8V0NcO4TTcQzzrh0n2TMKA05VEBrfpOxJJZc7FhWDs0LMiuGdTD2AMeSHl+DzdGGKIsu9Z64jE427MOd7AUaZYXcWVYJRQsXBytZ5xBoHMA0q+qknVHpHk6IOLcamycMRUrZs7FjuWrcXT+OExpWRa8/EVQsMdGuNq5Ai5HsKtjbRRlNhcwroA2vWZjzeyF2Hb0FiKdPfFZqJi9oCTrB/9GD0PF7AF1GLIXIc4ewPP938j66ht4L3VB5KmZ6F6WxTH+A8MnzcPhLZtwaNoA9K5aEAWKdcPGm3ZI9nsM23HNUaVgfpRrOgALl23C0dXzsHlYS1Rn+VftsxlW127Aav0I9KxJHyyKoGT9rpg5ewFu3XiOl55CfBZkrQeZQWvV37s6IWDXdriuWoaPr77V69+tv6Mj678BPvjhRZg9bl0/hK3rZ2HryklYNncMFswajQWzFaB/zxqLRQsmY/262SzedKxZOBZL50/GujXs95rpWL1gNBYq4yrTZaQfhYVzxmL5slnYzNJvYTqWz6PrynCWds54rFg+E5vXz8amFX9j+dxR6vNSg/07FuNlqDV7qQvV+6iDAjqynqMondVG8f8nsu5HG7No6Ofv9vLSkXUd/iuIk0MQ8SEK0Skh3MZ7OU+v/w8Rxwj7qzBmWwQi3khUzpL/p6Aj66qiI+vq5Wd0qn2HsPwSBHxuQ7DQs6c44pXzVHglWR+DXrz8MDBqhIn7zJAoiQSSPSHeNg4DS+cHr1g1dFxkgheeYiDxJfA6ArC/CaejW3FoVj90K8VDQaOiGLHWDCFeEQjd1w8DKjDSadQEvZbcwGtZCBDDEOYIh/lt0YyRytJtJ+LSE5ZXlC9Sn2/FqoolUIjI+tY7eCU2xZNJzVGMZ4jiTabitjmzMyoacDXBnUUjMGrwNGw/b4P39ndwXUHW2/59Ai7PmY5gCdKtLuPaiCrZkvUlh2zku6WHsTxpU1mxHYRXjuPa6ulY0L4iI7jFUawjez/ZujCyfhR7OtaAHs8A1dtPxS2HKPk56hIBPtO6eeX56JlG1g2Qr2gNtP6rO8YO6o+xfftiDGHoeMzfc1s+sm67N4OsD1xvinceD+A8pyX08uuDV6Er5q7aiSdXLsFs/VT83dgAvCKV0X7hGciebsfWBnQUZyHU6zQZew5fgvnJnbgyuxtaFCrI7lV/bLrqAHidx5l+VZgvFVF/9CEEiSVAECPqflnW2qvBF3Eg4u7dgfvyJRCdP4MvKvXzd+vv6Mj6b4CPAkRLLLB32yL07fnnb4lFc8ciRmrBKnuAeh91UEBH1nMUpbPaKP7/QtbpjHWhUKixn7/by0tH1nX47yAfyeagNjwPobTrXxnp15F1VdGRdfXyMzqze4fQKKjHxnXwWrMCyc8sueO31BEyOZRkfTi68gqiRKkpuGDnivehjGQEBiP93i5s62QEnkFlVJl2BNEez/HiwU24XTuLG8tHYVrHJmheswLKFeLBoHAJjFn/BKHecrLepzQPBWp0warjzkjj81l+tEP8U5jPaIlGjKyXajkaJ24TufbAW3tG1ispyPq2u3jneRkmg6oxvZVQccYpxHuwTp7ID5+ErCMcEgpEMLIcFooUO1NcGVqII+vNxx2Cg60UkIXgo8V5XBhchtlUTD1ZP/Icab4++OD4EJ4mF+ByYDmWDeqElg1qoHYp5m/+EijZZTUsObJ+BHs6VGaktxLaj9wPX6k/Pgv9vj+3PGPN+mh0NCyM/HWn4PxDJyAqmNnO7ObA4vgL8IXvha+WuzLI+uANdxDvfBv3JzVA0e+O4VQgf2mUHLMNgReWY0XDciioLg6HPzH/qBk+uZzA4R704aE86gzdCR9Pb3xm9+CHG8zRxn5CPiQH98Fp4Ty89GG2qtSx362/oyPrvwlozTft3p7GnpHfER9ZW0o+qPNNBxXoyHqOonRWG8X/H8g6SVRUFEJDaV2MZvK7vbx0ZF0HHf5t6Mi6qujIunr5GZ3ZvUO+fPqI8KdmeD57OsIvnkO6v1A9KeOgJOsj0Z2nD+MSw7D/kSNSwogMM9J7exPWtioInmF1NJx7GJKH67GxflkUKdwGUzbfRkJSAKIuLcH0CjwYGhbDiHXfyHqvUjwUrd8P+64G4pMf64T7+zKSawWrOa3RNB8j663G4ez9KKbHG++zkPW3vldxa1gt8AqURfmReyBxZelDJIDAHUn2lpA9tUCMGx9JSrJuwEOZPuvxxIJ1ml9G4fW9XdjQggc9w6JoM/NcFrLeEStOOeGj8yPYz2qN6sUMUWvoZljaBQGOF3BzVB1GcIvBuNOqb2SdG22vj56LziNKxFccsZalLL8j63/j9F17fAlhz77AjzvCjkBH431WQ9YTXEzxZEpDGBbIB56+McpWqIy6NaqjbvXqqFejJho0+QvdlhxG8I1VWFGvLCPr+VGoaGlUqVoDdatVY/FqoH7NWmhQbQx2X7RCmvNJHO9TBfl4FVB3xF7484WA+MdHt6Uzop5obgb3JQvgvWs70lNTFTVLLr9bf0dH1v+PvesAj6pqorGBir0rtt/eFQtir2DvvfeGvaKiooKCBcWKBRsiIiqICkjvvQUSIPQOoRMgvZz/npdcXMh9m53ZsGvCPZ/zYfa92fNm5twyu293q4itMbZ27L+/j17VLNsYY3DF5i3CfLMeFTZYDbG7WTcbouys4LfJS20VVq02G6Syo4Q2WLvZKp9g8zzmuaI9G/3IqcHy5cuDDZcUVW3x8s26N28b23yzHgnfrLsRD2e0NSR36VIMe/F5jGncCKv69o7ym+u2Wb8VF6ekYPMau+GMhz/FyJ7DsXZSPwx9/Rpcsp1pcPc4CTe/1Ab9nz8Hx/CL4w64Ck0+64Hchf0wruVtuMg03zVq7oibX+tqeu/1m/X3f5wE/u53SRp/w30sRjY+C2eY59jpuOvwwQ/pyJk4FFmRzfobHbF8Rlf0f/xsHGied5vdG+DNr3pg7sixWNvxDTS+4CDsvuvxuPLZn5DR7ze0v7EWdtsyBZsdfzdafdMTa2f2wLC3b8ZFW5jHauyIeo9s2Kyfh5e/6Y7Mv17Ds7tvjc1T9sCFj32BMWNmo7DLe3i//s6lzfo5L6FH38hm/Ug0eKoN5k+MsVk/9A58/ktv5E9NW79B5re5b9CsX974F2SP7YrU58/FjjW2NNd4JV7/8HtM7t0NGX/+gYldOiG9y9+YNXQwVg/5EO+csDe2S9kGx176HNr/1hPT/uqCyV3+wKQ/OmHCnz2ROXwsSkZ8hw43HYsdUnbHwVc2waABg5A9fpy5bvuTdOWNP1fHLyXMaNUSg558FPN69yxT1L+oavsd36x78/ZfMt+sR4UNVkPsataLxrdF83tPx7HHHINjaMeeiDp1X0fbjJWw07g22LBmfVnqOEyfMxvLy/52gX7k1IAvOizl59eEqGqLl2/WvXnb2Oab9Uj4Zt2NeDijriHmead3/AUDH304eHedP8Plas4im3X7BXNbbL83DjnocJxw9CE4eI9apoHeAbVPeBy/9fgHM5tdhcN2Ns3kNrtivwMPQ52jD8Ihe25vzjF+W++EW17tWvrO+ruX4MKdU1Dr8EvwbtuJEc36BIxpcjbO39M00qa5r33QBbj2mZYY8c/rePGAXczzHIdbXmuHBZkzsejbRnjiWF5TTexc+2AcffiROOGAXbG9aeBTdjkBd7XogzWD/8bAx45D7W3NYzV2wt77HYITjvmfuabtSm8TN8366Q/bZv1x3Haoeaz22Xjx695Y2v09ND1ua2yfUgO77H0gjjryGBx/wJ7YI/i5s52w07kvlb2z3got6u1lHjscFzzxNeZV1Ky/dyPOqLkNUg65HZ9Fbdbfxmsn7m6e9xhc+vyPWDVjLJb+9oaJuQZq1dwNBx1+DM44+UScWacOzjjhBFx44dX4rN0YrBozBJNevhj19qqBbXc9AMcef1LpOXVOwBknnox6D76LQT1HmWv5Cb/ecQr2SdkcW+2wF448vi4avd8ds4dPQonrp9tMo54/bixW9umFoaZRH9Pi7XU/1xaJqrbf+U8367xtmu8mr2dsZhznqizi+UOf054TK28sz1lmNj7+6zoeatJrclnEdVoTX8dGtPVqH0+ckcbniYjXZTYH6trEa7zGTahZ55NIjIHm5OQ4j0UzXjCb2HnzFqCgyGzUkIbuL92HK0+6CJc9+jJatvkaX37VBq0/eBvPX3oW6pz3EJr8noFFJqcl+YbT8Oblc3KPfN78IIGB2cfs38b4N683Ly/XcJagMHsV5vZqhQcefAVv/ZkaNOuFDj8a/Up93cfXM3Pc/j/jZKOemZkZ/G39150bafa5y45bzn/P4bGI8yOtzK/cdQqMdZT6kpt+vNWf9bRCjNU02qG54uTtFxkLU32z7q0am23WO+HDni9gysLxZXPAv+OOY5CT+ty5c4N/JWOSY6oyx2QspuVkXGxiOffwOZgH13kui+daXY9XZFo+xsTGYMmSJeK5NZ4Yw/zyzTWsnD0bgxs9hzEvN8KaIYNKv2jONGTrN2m2Wb8R9VO2xo7b18Odt52Bo4OGlbYV9jruHnzSoTeyMsYjr0dbvHvJzti5rLFPSdkTR5xzLZrVP8D8/+bY/qrmGNovDXPfrY/T+a3t+52PZt+VvbM+IRUF41Ox8qv7ccvh/Jm20ueoecQ9+K7LS3hs723N34fi6pe+x8z5s1FimtK0jx/GvUdZrjLb82Tc+fK3yBg8Dhg/Bks7fY5mDbbHjuvO2Rm7HX4Grj7JNMymET/mrs+RNmgiCr97GNfWNsd3ORkNWw1A4ah/MLnFlTh7XawpqHXYhbjtjstxTq0UbL7bJWj6XW+s6dcKb9fZwRzfD6c98gXmRm3W/0FGi6tQh8+3z41o9XMv5E8Lada7N0WjI2uZ5z0Y5z35DTKnTUJR2kBM+/pJPH7UZuuuKbAt98RFD3yEAd1NDVPTUTS4M3o9Wx8n7xRxDu3gS/DCu+0xZ6TJzZTeGNz4MpwV8Rn4o+76AmP7TwAmln93nfrgHRhTP/sUAx59CNP+6AxucbmHitSWRq8aH2tVZr9j5vZc47di/khM7fcEVlXUrAe/7c0XcfkTZZFmHsszx7IcPhKj/1ozvoOfQDNWwNu0N/xZMdM4ZRs98GfHYK41xzRv0Xj5s2TZ9jknm+tko+f6qTI+Zo7lmeckd7EZG9n03/A8lxm/HHtN6RVfU5gxrhI+R1n8fL5i8xgb43hzG7eZmArKchOYqXmuecyZyxjN1qY4MuYNzdSsKNXowHDll2mvyPispf8Gz7fRzOTfNOtFplmfM/hJzB33iRmvheXmmUjj+E/GfkfjF7nf4d8ppRu/2I1ONljX8TDjKxKrVq3EwkUrkJ+9ApO73YlzDz4ER1/TCn9MXf+zTNkT2uGxU3fEbmc+hGb9FyKvuATrXgcpLkCBfd6CiFcqCvlYwbp349dHIQp5alEe5v9wIw46+3489Ad/99CgoNQv8qnWoaR0Yg6OR3shZoNXW1avWo6Fc2YG18iE09/5mkpRWRzGnE9v+AucF2YOlfnlmuuzQrDPFatp6sh4yDd//vxg8bKvdMdiWu3w/EjB28eZtCm+WfdWra18s84xWFDw77jjGGSTzkmd/yZiTNLsmHQdi2b00a4hnHM499C3dG51n7uhaTh57oZzTixm/TS5YUx8JZ3NuqaOGs5ocRaYaygsKsKkH77DoEcfxpy23wc/48bbnNdv0myzfj3OS9kGu+9+J7776yf0+LgpPnn6Kbzz9Bvo0Ka7afzNxi5tAgpSx2FRh6b4/mUeM/bmp+jVuQdyfmuFlo1ewBvvt8X0waOQ9een6GDO+aDpxxjWk7fgjzG9At+5NRu1AZ3Q54PXSv2ffhGtm36NMQM6oNebL+PDp99Cl449sWyiaWgnTUXJ2MGY8tWz+Oi5Mj5jH3/wPdIGm028aTgLJ5hGeMJ4ZP78Jr57qeycxh/i9287YPz3r6Pliy/h+2+7InNkKvJ7tsWfTc3x195Drz+Ho9g0+iVDf0fPN17Ee8FzN8Yv3/2J6QO6YMCbT6LV8y3Q489BWD30b4x4/xVz/E10+LEbVo4fa+KIzGGZmSa8cNwgLP2jNdo9/7zJzVcY3WcI8tJ463nkuczFaBQO/h0DWzTGO8+8hV/b/4NV/Ey7qREmDsW0r5rgy4iYP2vxKcYNnl76uf9UE/dEs8ke8At6v9do3TnvPP8yWn3TDdmppqZ8QSF9NJZ2/QZdm5Qeb/FcI3z3TRcsGGa4TezrXbsx1mbN4IEY9sSjGNXiLaxeuNDsv0rKaUszRqJptSLTzDnJ2O+w4Yi5Wc83DVWJaVb+fA1vP347nl3PXkfXsUPMbnGa2VRLmzdzfgGbUtoorJ32A7o0vRkvPXkHvuveA0uXm3HMppnn8sWC7OEomtYGHV+9H08/1wSdR/Qy21vTzJV73jLLn4icjO/x93u3o9GLj6LjwMFYs9I0wPY5rWWb51g5BEv6vIH3XrwdL378KcZMM9eWw0Ztg3Mjba25prVDkZv+OX5sfC+efbkZuo/ti+Jo17ShBY2oyfuC9vj7k4b/5vXJh/HGdz9jKa+t0Fiyfg99jRmfef2xoPfbaGmvzcyDfwztg6w1fDHB4VOR8d3xnAkontIWPT578N+Yy9mjaNXmZ8xe0Q8z/mqEN567A29+Z+bsecY/eLHA8dzxWI6Zz4pNLfIjX3zasFn/1KxXRcELzO5xFc+YLJ2vtH4azsj9Dv9O4VvzEuMTkJy3BbiOhxmxdm0OlmUtQ87SQfjqip1w9OVv4NspZe11xHnEogFv49Wm76HN4AXILVmO2cN7oMv3ZjOwyARin7dwPib17Iouvw7DlOwyx6XD0f6Ld/FmkyZ47bXX8cYnv6DTDN7OvgZLh36LJrcejz0POgmn3NAIX3Qag5n2rsG16ej+aQs0e70JmjR5E29+9Rf6zs0NDpWwaV88AX1+7G42A73we8evzDlN8Eazj/H17zOQac5ZNKo1vmjxOl5r0hTPNP0c7fobUUW06GvHt8P3H7we+DV541183mEk5pcdQ0kxFo37Hb3HdEXXzp3QzlzDW62+Qe9ZPLgSGR2+wEdv8rrI2Rrfd56O0pskS1BUJkzeahWZ74rM3qLFerqOhxlBrsjb4F3nuYx+Gk5ea2mDUrCe7ogZS9J9s+6tGtv6t8HzYx8WkeOACwFvg+e/hD1Wkdn5XDN/cN7hmHQdj2Z2A6xZQzjnRN4G7zrPZRpO5kY7t7IOmtwQkbfBu85xGTkZn4YzWpwWWTNnYtgrL2H0i88jZ8Qwx8+4/dusn59SAzvtcis+7TEchYvmlv482cypCH6ijD9PNmaUOX8MiieZRnEGjxmbPtk0huNROMk0BzNMc8FvSk81jV+aaQp4zjTz7wT6/cuZO95sSKea5w2e3/hMM403v/xsuvn/mea508ehwHDlGsvnt8hnlHFZm2rG0oQxpT8/tu6azPPZa+IX0WWY58zgY/wmdtO4jjPn8Zvkp5njvOa0Mn++Gx7w0tf8m2GuI42P8XnMeYYn+HK84HrNtZnnKrA/1VbO+JNoY1GQZq4viMv8y6Y4uEbH+YzZPq9prvODmM3jpukPrj0y5mm8lvX9g2/Gn2avnVZ6/fw5OeaOz1XIa2Es9niQCx5f/7n4u+q862JGmy8x4KF7MbvbX2UKKq9lu3nd8PFoFs+Y1Ow9CHIlcr9j/gvekOJt8FP7hzTrbCTzzJiY1xH9f7gLtx/P38GPuDMisF1x/HV3onWv3zFnsal7rLdHrzE6xUwUTP4c4/p9hfSlU0xf2BLv1it93r3veQ9DphttF5Y1ZTnmOlYPwOJfr0Fd3gWz5xVo+ldPFMHocsPntmaef3nfRnjsCHP+5jvg5k97Y9Eyc425G5zHd9SX9sGEN45FLcZ0xE1oPXBkKXe0ePhueHZ/rOx+Ly7jHS81z8Wzv3Ux12S07jp/Q2N++fwzfsbfb9TH8RveefK/+njsm7aYtdw06rx7wfUcG9VMo5o/FsvHNsMHV+yLGuuurTZu/uw3zFlr5oINX/iIxdisF2agaMDLeP6srdaPeQPb/YxX0WfJn+jT6DBsY/7e9uqX0DPd+BdVYj54PQVGF0u7YPDAtug2qq+Jy9a+tFkvvQ3+yXW3wXPUusdV/Psd+ViOf7/DF+/5d2I/s55dgBWrTKM5uRWe2P8Q3PlKf6SW7i2jozAV/7x6C87c9Qa0GJKFVWUPI7cvvryuAU4/9gW0zyxC3opJSH3rHpxV7zSceOaZOPPMOjjsiGNwyr1fY/zsZZj26/O45pQ9UWunvbD3ERfggaZ/YnROLtbM6I/fm9+I8486HSefRr9jcdCRp+OsJ37A8IV81z8bOaNa4pa9jkP90y7D+bdeb845EycfdSQOP/gOvND2G3zQ5Gpc18D4nnYE9t3/CJz/xBeYtRooLlyB+WM6oVnDejj/zFMDvzNPOR716t6Ox9pOxPzg9YASDH/vZFx6zRE47fw7cOOpZ+LCGxvi8yELMHnku2h0bj2cfiKv60yccpjhPPkONBm/EDl8Q9+IjiKiECSIXLykoG/k4hUrLCcHigTUGgVvN6KR8J9Z91a9zX9mPRIbNuuxgnMHmwMJJ+cpxqiZr2yzrsF/6jPrEZjaoT36P3APZn/XBgWmWV+/YTfN+uweGN38ctQ1G7fNalyLll0HmEbDbI6Dd8JNUxjR1Fnju7CBbfhYxN/BZ6Aj/97Ayj8H/17/nH8fj7Byx0vt33M2eCzinOC51vu77LFyz82/I8/hc63/dzQrzxtm5XmsrbumqM8VcU7YeRUc5+Ns1vlZ9SFPNMTY95pj7fyyOxgdsM26BLFqdUPw/Hj3O/+Zz6yzgWHDsqgr+je/ECfvapqnrXbCoXXPwaUXnYVLLzkdl1x4GA5i42zG4vZHX4bXOg9Fbh6bHDY4bMYzjE0tM9MMFfAdYvPca82/JalYPbk9frjvENx0701oO9lsZHN7Iv2zc3FYzRpIOeo2fDmgFwrZjGeZ5yuegMK57dD5tkOx25Y74Lin38WIOeZYMdcqy2Gax3W3x5sGt2QGVgx8FY3qpqDmrrVx/9d9sXztnIjzeS7jNPPKisFY+NdzePG+i3HPm+9hSIbxzy1t1IJ3XIPntn6Gk+++rmWzbuafXg1x8961kLLnpXi1y1+mWTfnM851t+Bv4GffJeft8ysHYek3l6LOHlsiZZf9Uecsk9+LT8KZR+yIzdmw7tgAb3Xvhuwik78ixsqcmufnu/HrrmmD593wtn7LX2LmyQ3vfmCd+NzrrpF3OZjrChpVc/0YixntrsdVO6Zgyx0OwCkXXYRbb3wIbXr9g2VrDG+5/Ju/mbd1t8ibWgTXap63xFx3Ec+ZZmw2MPJNvFp/B6TUqIW9jz4JDeqfYbRlrIG1K/Fks+8xKfMvDHytDvbefnPUvr0J+k0yz1/IeG1tLD/NcPFdd/vOOP/lXRlFkVo0/8/b6Zkv3h3BW/wX/IHRH12JM669CTe37VZ6DrWxXrPuv2CuHGywGuK1uYVYuTgdS/q8jVv2vwZPfz0WwZvHFaEwDb2a3o0L978dLYetRlbZw8jtj29uvRIXnN4Ufy1Ygbl/vIyL97wET/44HcuCE1Yg9ftH8dR5t+HTEWZ85OdiXrs7cdyFD6Jhx8nBN86XLB+LHi+fiu0OPAGP/DgXi4K9zkwManYVjtnxBBzfdKhp1c2EO+FD3H3gdth6v7vxas95PAnLx3yF50/cBtvsdiju+2EOFrKOeYPwyW1H4ujDrkGrsUXImvkn3r3kKBz92BfotSBwCwbFkLfvwpHHXI1GfZZiZWEJ0lufgxN2rInj72mHocGnAkqQPb8T3r1wd5z35I8YWPZ9dQUTf0TzZ87HZR8PwbKc0ldgkrV4+Wbdm7eNbb5Zj4Rv1t2Ih5P1iGUNWT1zBkY1bYJhTz2KrP59N/jseipKpvfBpNaP4N5DjsRpJz2B9j0HIStjAoo3aOq8VU/jT7VljxiKyR++h/4P3YcFA/uXKccN36y7wRkqarPOd42zhiH7t9txwcHbmIZqe5x085P4I800O3mmQSo2DdHqb/HT1UegdsoWSNnjbNz7ZXss5+9355kGsGAYVk74HZOHdcAE2sgumD1nuEkuG9yhWDHpM7S+5UDsZxrSXetdg7d+6Ytpi/phRUYzvPS/Wtg25Wjc/VV7zC80zR0/y140AEv6N8R1NbfB5ts2wBvdu2Itm76lvbFgbBnHsF+QNqIHVmWxQeQLAmXN+qkp2GaPA/DgdwOwYHpPzBxfev7EtB5YvtycFzT3I5E3txtmjP0Vkyf2wqqlZY0cG7+VfTFvVMcyDmOjumLhopEmB2adtM36PtshZS/brJumOPgd86FYmf4L0q3fsD+xcIFpEtgoMsemmS5Z0gfdn90bB9dMQY3T7sGXI4wvhmF5t8dwx1GH4NgjLsIbv/6FzJxUMzd2Qcaw3zEjrTfWLPoHk0b9Uva8f5lmi3cCRDSg5nxk/oMZY+w5HZCR3gOrV5ka29v7+aJJ7nCsmdrl3zoN/w2TJg9EIX/ezRxbNbcjur5xPs4w17fTQZfgtV9/xfgZQ5C32hwvHoOC2V0xw/oaSx/ZFctXmOvINxZ8tnwo1pr+JGN4J0ya2AfLp/+Kqbym8X0xt9tLePG8GiZvR+Gu73qZvLCRZjPPxtpYsclF8WRgfhcMbHw89tphC+y7rlknh7mGVf2wcHgHpNlrGNsDy5YZXn7nQfCCCeMYhbVTf8cUc17pdXbGrKlDzNgxOjbH82Z1xqDm5+PkPVKMjuvihuafICOjN1auGIOS4O4H36yHwgarIS5t1tOwuNc7uOXAR/DmH5MQ0w+cmWa9d7N70eDAO/HB8MhmfQC+vf1q1D/rLXSblYmZ3z+CI3c/DTe07I/UJcuwfM1aZK1dE3wTafCZ9eIczG13N45v8DAe7zQ9eIqccd+jyc17Yb/HfsSEyC9wn/kbml9xKQ4842P0K1iLNWmtcP9Bu+G8+9ujb+krAcCC/mj75NnY4+Jm+GVG6S3zfHXo56dOx9mHXYePh63A3K4tcMP+t+CZdgMxYUFmsBFbnDkfU7p/iEcu2QX7PPs70hfnYfrX5+PYE07CtZ+OMRMdYZr1Od/g5UN3RZ0bWuKXcUuwdPkaZOfmo8DEkVNYKrZkLl6+WffmbWObb9Yj4Zt1N+LhjHkNMRzz+vQKGrHJrVoiZ+Tw0tuebcM2bpR5bAhWDBqApYOHYjVv2xa8i+ytChu/VM5oYfEfv2OA0cfENl8id7ndKLnhm3U3OENFbdb5ruyy/hjwysE4fBvT7J59F74YMBTFBXxX1zTcJWysTLM36EXcd/oVuKrRx8jg48FnrIdg9eS30PSkfVF76xqoWWMrbL3L0Tj32VaYapqfoiU/4sfb9sWBW5S+K5+y2RbYavvDUO+51pg87090fXwP1N5qcxxzXwsM4Mch2LBldsaEt0/H9jVrYItLXkDvSabpLRiIcV/fhJsOqomtDUfNmtui1o6X4vXOnbA4n++4zlzXrG+390G4u2U7fP3k8Ti1trmebbbBnqdfjtd++we5vMV+xQBM+/JKs6feCftd+yR+G22aXtPMlawyDW/7e3DNPjtiW8Nds0YNbL3PGbj5nTaYl82mfCCyyjXr5noLh2OR4X7lzFrYJfAz17d1Hdz86meYuHYCStgwB816X/R/6UAcVsvkYaczcfdH32Hh6hFYu3wEipYORc6iwcgxTWNxSSf0eukcnLT9/jj99Fvw3psXYs/dtzHPWxPb1qqLu5t/hQw+L5vTnDQUL+qG0R9chFMO3KYsNzVx4OmXoWX34cjNMo0uz8sehdwpH+DjG4/DftuUXeM2e2DvS59B5wn9TA/QAZ3vPRnHbrl58C7/Zptvia133ht7PtwC6bOGoSCrPX57/CzU3bZmqW/NrbHD7mfi+ba/YPbyCSimnrI6YWiLBqiz88HY/4I78ewtu+LIvc25h96A5168By9fsb1pkA/DDR+0x/w5JpeLByBrfv/A1iwZhqICozNXs25qU5zXA5M73ofbtquJ7Wqa5zTXsPUhl+KZ7ztgFV8sYYwFo5A95TN8ceN+OKSWrcP/cOaNTTBgVTqKVvXF5I/r47i97JdkboYtttoBh595P9pPNFqlntf6Zj0UNlgN8bp31vvynfUr8dSXY6K/s24oyFNSQbPe4LQm6LysEKtnd0WLyw/AIfsciIMPOxSHNGiIF/6OYChYjRk/2HfWOaEBC/s0xVMN/ocrPklFpu23A0xBzzcfxi1HPoOfZq3CsrGf4YFDzsK9b/XHRBv6vAH4qdHF2Pf6z/D3fPuh+an4/bmzcfHRt+CL/osxrc39ONgMotoHHYbDjzwchx9OOxJHHLo/9qm9F3Z9/HdkLDXN+pfn4ejLLsPDv84se54SFK+ZiSHNLsPxh+yD/Q4+DIcechFuefkfTjfrkMzFyzfr3rxtbPPNeiR8s+5GPJySNSR/5Uqkf9kaAx68F0v++iN4d523PwcN2xjeBm02YpPNRnnS+OAzz+WaOm/V0grTJwR3W6S+/ioGP/MkVk7lu3DRx5pv1t1g1sKb9bHm4DgULf4Z7W43+8qU7XHqoy0xarlpnPPKmvms0SjhbcgrB2Bheg/TaA1FSR7fCR2K1RmmUT+5NvYOmh9rpgna5VjUf/VjpM74Bt/etAf2iTy+2T444qGPzNozAKvaX4MT99ocW554Kz7qzTsnZpv+83O0vso05bW2xYXNfsbslSMx9fsbcdPBpmGNfJ6Umthxn8vx+u+dzR7e7B9Nw/zSmSmotd12qHfO2Thor22x2bpza+DAc67FV8MyULJsIKa1Oss0dObxs+7DDyPNHFPUC1PZqO+9bekt6etsM2y5Z11c905bLM8djDV9H8Mttln/s6u53jQsHvgKXjl7Z+y4eaTf5th6xzq48eXPMYm3mvMOhVVDkN3xNpx/CH9pYStss8vuOKjeBbix9S9mIjT14E6c71KjI/5+rC6OCJ5na+y00/qf9a65U13c0fRrzCiebib37hj7wcU4eb9/f8UisC1Mw37aZfig11gU8IvjZrXCR9cfg9oRv8AQ2Ga7Yq/LnsAfkz/Fz/fWwSHrHauFLW99FeMGv4cfH6iLg7bdfH1fE2OtPfbGrS2+Q1rmHKOpX9H/9XPwPx7bfBvTVJedV+dWNG76CD68YU9zXVthu932xIEH1sZB/zPGf42dc9uj+H3SXGDRnxjyqm3WX0e/yebaS/pi4s/34va9apWr//aHXYKnv/8NecXpyJn2Ob68aV8cuHXkOSnYoqZp2G9tgUELeyL1o3Nx2M6Rx7fA3ifcge/5BZm+WY8OG6yGuPQz6zOwIqMVntjvQNzxcl+MW69BtjDPvXIgvnnofXzwzTgsKZmB/qZZv2jDZj1/EL6/4xpcdGpj/LLYJBQ5WD65P/r91Rmd3r8XFxxbG1vueyzOuPxu3NdhEnKzs7Co/d1lzXrpO+tze76Kp84/FLe0TsdC228TZsD+/eKduO6ox/H95JVYOvpz06xfjAdbDOAnP0oxtx9+fK4+avMb7efYiXwqOptm/bLj70Cr7jPQ+5VLsPdu9XFj86/w02+/4bcy+73zn/i712AMnLoUOQWFSP34LBx91RV49PfZZc9TisJlkzG831/o0ul9PHfBsThwq31x5BmX45p7f8JAk89cU4fiJC1evln35m1jm2/WI+GbdTfi4WQ9GGesOV2WloYhzz6F1DebYM2ggUGj5mrgvG0aFnyGPXVs8Dv8/e+/B3O6d0VxDGPGN+tucIYKb9ZNg1I0AvkL30fzE3fD9im7ov4LnyA1a6p5fBIK53RCz7fOwNUXnoLzzz8DV1x+Nq66+Go82/wHTM/qipEtz8SBbHpOvgHv/vAlhg//Ez0+vQXX/S8FNQ45HU279sTUEa3w8fX7Y19z3q4nX4oXv/gFw8f3Q17uKGBma7xzxZ7Yuea+uOKVrzGPze8/DXGHaVC3P/46tBk+AAXTPkazS3bD1il7o849jdBteEcM7/05fnnqOOy9xdY44NaXMGDebBQMfw2vnm2as822xnYnXYeXv/oI//Rsh59eOgtn7WKucZ/j8cjPQ1C0dCBmfXYhjt0tBdte+BA6pk1FyZRW+PzaHbGFac5TzrkDX7T9FL17f4RP7j8CB5jr3r7e4+gxezBW9n0ct+1b2qy/1q2nacB/R4/nT8RubL5Pvwtf/vWdycHPGNDyKpy392aoeczV+GDIkNJ3fnONLeyGgc3r45Q9/20YN6t9GM69+EI807YzliznrfG/o9szZ5f+zOJOe+CU+17D33+2Ru9/nsTjx+2GbflTlGfcge8mDUbWuCZofMA22CxlP1z24tvoMqCz2d83w8e3H46dU3bGcU98ibQFQzDpm7NxDr/Ubpc6uPTFZia2r/HX1/fg1v14DUfgvjY/YNKUjvij0ZnBl/rtuP+5eLrNd+g1qjvGfHIGLuJt4ykHou69z6JL77bo3bEZPr39QHMtKah59J34ZMBQI7QuGPLWRcGLDJtvWQOn3d8U7X79Dr3H9cCM7q/g7Sv3WBfzhrZNnavResyC9Zv1O17HAH7p5sxP8fmNe2KblJ2w263P4Z8eP2L4sPb46ZljcOQ2W6P2lU9jwLiBmPHl1Thke/N8B1yCl7/5zNTB5OK7h3DfiVsFP4v5WMe/kTmxA3q/bnIb3AZfB1e8/BaG8KMFy/xt8BXCBqsh5rfBL1m5BAWrRuHvh+qiznXv46uJ7glw4R83ou7+Z+KaFmOwGjPR74170OCg+9A6NQ/rWsRl3fHBtQ1wRL3G6GA/D74Oi5DWuz0+b/Ywbq17KnY4+zP0XLgYM365B3UuegiP/V76zvqKIR/h2av3wcnNB2NR5C/IZfXDN3deg8OPexOdVq3CylTTrB9cH/e/3Z9fk1CKkGa9k2nWLz3udnzaYyYGvXYl9tztdrw6NPKVgA1RhJEfnoGjr7gcDX8Lv9cga2JvdP68OV64vR5O3f40vPTPMiziF/QV+2bdN+veqqf5Zj0Svll3Ix5O1oNxxprTIsMz6+8/0e+eO02D1qa0YYu8Hd7bJmVFk9KxtNtfGP7c0xjd7A3kxahd36y7wRkqvFk3DWThKBQs+gwfnbcndknZBfWf/xTj2axjOvImf4tPL16/sUox59S55QMMnNsOP965HbbeyjS4/zsJ1951Kxo1egSP31w3+EzwZjvug2s/6YpVOf0xovGxONL47nvZY/hjGn/vqOwW+7UDMPHds3B8rRTscvkL6DLyF/RpfAz23nIXHP1oa0zJHI2Sng/i+qP5zvEuOPD0i/DYC/ej0ZO34P7z98eu/Gb2U2/D58NSUTL6Dbxyhvm75i445KGPMHUV78ZYCgx8Co+eYK5xnxNwf9teKFw6IKJZfwSdMsZjbd8n8OCBKdhqlxNw/Td/YW0x981TUDj5G/T47GW0+7k9pmUOxMrej+LW2qXN+us9+qJ4Zit8cg2b0K2x7SH1cFvDO00O7sMz15+Ao/hFfbVPwvWfdTJxmkYwN9WI1OR9bkcM+utVvHHHsWXvnpdazSPORNMO3bG0oBv6vVDP5Ksmdj/5drSZxnfb+WV5QzH1vStw3t7m/P3PQcN232F+lztxacpm2DxlVxx38dV45JmH0OjpK3FTvX1QK2UH7Hbyo+g4uQN+efIAHLR5DRxy3UvoNIt5MfHl9sHUzq/jx4+ao9eIgSjEJCz87SZcZWqxxzF34ec5M4w2+uKfR/fF/ltshYMufAJtzbxsuilj45Az7FHctt+22GyLQ3Hj+z9iaXZ3jGh+Pg5J2RK1djoHzYeNNOexMeQXzL2Bl8/fFinb74W6tz+GTz9+DW1aG/v01cB+6fwDpi2eDizogkGvlDbr+5lmffDsacjv9xQeP9nEvOX22PGUC/H443ej0Qv34t76+2HfGqaGp16Pd3/4AX2eORpbbLEFUnY/BpfccbOpw8NodOfZOOtA85jhPabx91ix3OTyz9twkal1yoEX4+k/+5rrM/nwXzBXMWywGmJOdosyzURelI816c1xxTHH4ajLW+KP6esnIH9CWzxSd08cfG1jfDlptXlkNoZ8eBtOr3EKrv5+Omzbu6z787h2n12x6/nv4M85WVg69Be8/VY7dJsWMTkagX97Xx3seEFr9MtchsV/PokTj7sHd/9U+s465vfENw/sh5STb8UXo21MJVj2xwu4cr8TsOcdnc0wWYPc8Z/i3oNiadan4Ldnz0KDI2/E5yPXYmHvd3D1ofvhmPt+RN91twSY4s/rjd/faIY2/RZgZX4J0j49a4NmvRA5ywbjj2bmnG7Tyn6qjSjCnLYPot6OZ+PlXsuQybXON+u+WfdWTc0365Hwzbob8XCyHoxTklN+Hnnc++9g2NOPB7fDF05MczZy3qq3FfBL5YYPxXjTpA94vCGWpprmIMYx5pt1N5i98GbdNCimaS5Z8jc6NdwbB25RE4fc8Qb6L+C3eE9E0cLuGPfTQ2j28n1o0vQm3HLCntghZS+c9cDn6DejDT69IQU72c+jb2ib7YSzmv6A+Ys6o8/TR+NQ89g+De7Hj6OnljZHOaZxWjMKOf0ewx1HbIOUQy/C3U/fjedONc3nzsfgvvY9kZWVFnzx3VXH1HRz0A67Am/0GgaMbYqX6qVgy132wU2f/IXMZXyXeiIKB7yMp04rbdYfbNdng2a9oWnWh2L5P/fjFtNc71z7CnwxfCRy8s26yG+HB399gHOnaXCKBiCr1yO4qew2+Dd69kXBpHfR/Mrd3NdFq3UYTnnrB/NcplnnRweCb0fnO4EzgUlfoPN79+KZe8/GGcE71yk4tuHHmLCiK4Y1rmvytQOOrP8mRsLkqcj4rklHYa9HcdcJ5tzdTsfNH31o9u634LzttizPW2Y1d7sFn5um88sHD8L+KTuhwYtfYkq+4TZ5Ry4/ALvcGL9ci13IIEz45hpcsm0KdjvyFrSZMAq5Kzug4537Y29zLee/8AWmFc0xvmzYR6Fk1cf44PDdsF3Kdjjrmc8xdSl/veMcHJRSC7vWeQKdZw9GMV+UKZiMoiGv4+WzzXXudTTubtvP+LMv4Ud0Z5SZ4ec34Ed8Zp3N+pA5M7Cm2324jzE74gvsaNN0t/oInR4/DDvaW+/L2fbY9pFWWDB/MLJ+vg7n8Y6C/S/AIz91MddXevu7b9YrgA1WQ8zJbuHCTDMZMVEZ6Pv6I7jkmFNx/j3P4P1PPsEntPeb4dmLz8YpDZ5A826zg2FXjCwsGP4xGp95JHY+7ka80Pwjc+7X+OjFK3D6DrvgoLqvo9OcFVj0VwtcfezxOPHm59Gk7PmaPnoT6l9/MR78a6pJmNnITPkMN+1bF4dd8AhadBmMyZmZmP3HG7i9wbE4+9rX8foH9HsBd51XBwed/ADeMM20SRnyRr6D63c5Fbe82os/WFGK2T3RpuGpZgJpgV9n2cY1HT88cgJO3bs+mo00hcqZgoEfXovTTzgVVzZ8vTTGT97Ciw+eh/OPuQav/D4DS3KB8S2Px77nnoO72nMgEAVYs+gPfHH50ahz4s14sElZft5+HA0vuhFnPvgHBmfnm7P8bfC+WfdWfc0365Hwzbob8XCyHoxTmtMVUyZjyPNPB7fDZw3sb/an/nb4TcnsT7VNb/0pBj36EKb/1rFMGbHBN+tucIYKb9aN5ZpGcMUQTG55Mo7ibcQHnYEHP/4B05ezmWNTxYZuMbDqHbS6dD/snLIb6t31EQbO+RFt76hV+s76/sfjspuuxWOP3ozHHrwRjz1k7OkH8Gm37li1rKdpwI7DUVumoPalj6Jz8M4631U3DSx/uzvzK7S+6kDsUnN37HFYbRy227bY48wH8Nek0ea605Db5V5cF7yzvhP2O+Vc3POI4Xj4pnU8Dzd9Gz2mjEPeiNfx4qkp2Hq3ffHQN/2wZGWGCX4i8vs1whOnhjXrfGc9FWv7PIEHDkhBjV1OxM3f/43s4J31DBRN/REDv2+KDr99jQnTBmJFr8fWe2e9aEYrfHzN7ubaamIb3l1w9/V4rOG/OWj4/DNo1e1vk+NRKFrxB8a0ewc/t2mJQeMGmednk5xl8toO316Wgh2ZnzuaYsSCXzH8lTNxZMrW2POUu/D9TL6zzhcN0rC47fW4vLapUe1z8MiP32J+5ztxSfDO+i446ryLcddDt5ncGG7yP3AnXm7cCoNmdkT7hvviwM1q4rAbX8Gfc/jOummU8/pjZve38Nu3r6PbwJ5YkT8KU36wzfrNplkfa5r1bvjr4do4YIsaOOSip9E+3TS2wYsN45A78nHctX8tbL75wbj+3bZYsrY7RjQ9G/8zddr9qpfQd/ZQI1pTZ9usn7MVUvY4Ard8/gdWr+CdBmyQyzRIyzd626BZ5zvref2exGPBO+vbYYc6Z+Pee2/AY9RAkOMb8Mw7LfDH31+j59NHmWvZAim7HoELrr8Kjz12S+k5xh59/AG81OE3ZC0ZitxOd+Ci/22OlAMuwtNd+phY/E+3xQQbrIa4tFlff6O1uH8zvHT9iahTp06ZnYq6Z76Nn2eshk1LAee64qVYNqI1nj73VJwYnHcdXvvsK3z0Zgs0euhL9OWPr5fkYtHfL+OWi08JzjnhhBNwwmm34N7Phpf9lBsxDn89exsuOeUkNHj0A3QJ3sguQtHkdmh8yVk4JXjuE3HidS/grT7zAw+jUuRM/gXNbngKzdtG/Nzc4rH459OncNVLv2DQum+nm4nf374Td1/+KH7kmA0wDwPfuwnX17Nxnoi6V96PZr2XBxMzp+fJvzyCW597Fu/1jbyf3wQ+/0+0vOVinHZiWX5OPANX3vc5etmAipO3ePlm3Zu3jW2+WY+Eb9bdiIeT9VCtISYvs7p3Rf+GD2HyB+8hd/TI9b8d3lv1NTbqE1Kx6Pdfg0Z93EcfoCBb1sxSr5r5SqVVc368+53/TLPOn/VaMxIY1hRPXbRv8DnklNp1cGvzTzGk73cYMqAdhvZqg68fOgCH8LbzlANw1qOtMXVVV4x473Tst5l5rO7N+KD9Nxg75heMHdwOo/v/gFEDOmPR8vEoMU35qHdPwMk7pWCXk6/Aa9/9gdSMfshjc8TPcef3x7iW9XHhnqbRIvfuh+PM5u2xdqW5rkJj45ujcf1dUTNlH5x0X2P0HN4BY4e2x9hBP2Fk7zaYMKEX1hTMQ9ag0m+DZ7N+/9d9sHiFaf4qbNbLPrM++QN8ctX22CLFNHEX3IvvOn6NIUO+wNeP1sHh5po2/99F+GToYCzr/QTujPzM+spf0e2ZE7BzSg1se+a9+Kb7Dxg7ijn4CaP7fYcxwzsh06y7KB6N/LkfoNmRfBd8Sxx5wxP4tkcHDB36Kwb88ipeuiAFNczjRz/6IdKW/4GhL59b+pn1nffG6Q83RY8eP2Bw//fw/k38CbzNsU3d29AmfSBWjTEx197aNOv744rG76LbkM4mNz9h7MC2GNm/HUZMG4bi5UOQ+kk9nM7PrO92Mq567V0TW1v0/rEh7jmM9dwcZzdug+lrJmL2j7ZZvwlfpqaiYM1oTGp9Os7hZ/5TDsYZD7+EHkN+wZA/38PX9x6M7U3taxx5G1r1HWxy3QVD3jgbB6bsiN0va4Tes+Jr1td9Zn3Gx/jk+t2xdcrO2OOORujV60eMHfGzyfGPGNnnB4wfPwCrl/2DKZ9djgPMtaf87zK89sMXGDu2Y1CHMUaLIwf+hDkLJ6CEvwnfvSGuOHLb4DPr1zR5D2P4E3Ar2Kiba/LNejhssBpiV7POhrQwPwc5Of9abl5RWRNbioICTtDchBSjKN80zsF5uaaJLw6eq6iwKHivvhRFKMgrfR4GuiprDXLyN5gsiwqQn5dreApQtI6oBEXmMXsNWWvMvwFnGUrIU4ii4pKIaysxG5bC4DrsY8XFRUhPm4DRo42IzOPrUGw4c0ufOzBylx0iSkzTzfzk5PJD6OujuCAPudbPxJ1X8O/zJnPx8s26N28b23yzHgnfrLsRD6d2DSFyTD3Sv/4SAx95ALO++aq0Wefvr7saPG/Vw8reUc/q3wejXngG/V54FvPH8x08GXyz7gZnqKjNOo1fgLZ2DFZ0fQINL66N3Wptgc2C24cjbTPU3HEX1D73OjzToavZY47AmoymaHL8XtjDNG3B+WzcTfNXY5vdcOy5D6DdeNOk5oxHxien4Qz7pWqb7Yuj7nwb41eyQRtvBr2pdeqbeLn+nsHx7Q47B816GU2sMY0ef/u8oC9Gt74W1x649frfBr7ZZthut31w3aufInX5cuQOeRnP8Hbp7XbHnV/0RqZt1vs8h0f4+C5H4e4fegfN+syPz8Gh25lrPvs+tOW3wRf2REbbO3D57luXj3vL/+HMO9/BmNxBWNXnYdywi2k6d6qPF//422R2Ahb1ewmNTt8B22/wcYCaO+yCujc2RMexZo0tMLa8LwY0PRFn7bfVBt84T9sC2+91Hl7u8DdWoiv6v3CmadZNHreuhV13i/wW9M1QY/uTcHOTLzCN3waf2RWj3q2PE/apgc2D3G9Wet6W/Az9ybjo/R+wavkolMz6EO9fdST22tI+j7UaqLX71XinV3fkYiymfH05zjfPU+ug6/DJKNNz5I5HyYwP0Oqm47B/zfLfBr/NrrvjhqbfYPyiOWYA/ooBr9bDXilbY7v6z6HnzIhmfdCreL6e8dnhIFz3SefwZn3eH+jf6EjsWCMFu934KvpMMrUp6YO0dnfipt23RY31+LfEdrsciiufeB+jVk9CztTP8Pl1e2O/mpFaTMGW22yHQ8641Ox3xiKf39Ew5GncfNyO656j9om3oM3YsSj03wYfHTZYDbG7Wa8YpcHKJvX1Id+EEMWFcs5i08xnTJ2OiZPM5CrlNTktKZRttpK5ePlm3Zu3jW2+WY+Eb9bdiIdTu4aQM9/4rs3MxJgWb2PoE49gyZ+dS79szv6cm7dqZ6wvP6c+odkbGPLUY0j7ozOWZ0V8IU+M8M26G5yhKmzW2TDnpwe3peesao9uTS7COVtvhRo1/rWttzkDD338NSaaJjt7Fd8R52ewhyM74y004++s17Tnbo9D692OLwYNxJpsNqqm4Rr0Ah45/wDssN3W2GbrfXD0BS+hHxsnflY5eJ7f8U+jM3HsDnvixCsbY8Aa81hRmrlOc12F/NxzP4xvU/o76/z97IBnm21w0bMfYHBGOoowD9kjmuGNC7bDHv87HE/+OBAr1/Dz4VNQMvQ1vHTB9tjx8NPx9G8DgVVDseCbK3D6/7bDXlc9id/H8TpMo7imJ2YGv7O+A7Yti2XrbY7ERQ++gxGr2fgPQ96gZ3D/4Xtix0OvQ/N//jF+5BiFJaYZfeXMbbHLuhxshaOvfADfDxqLnGzTsPLL9Bjnyv6Y3e4OXH/iDsFvovO8mjW3wW7718drHbtiyVreot4Z3Z+pi8NTdsZRp92Kll/eiHN3q4ltttoK22xbF3c1/xpTWT/+Dn6hua4l3TGGv7N+AH+LvYx/3+NwVpPPsGAhPzvL88ahYOqHpb+zvnWNMt4dscf+N+PD/j2wusQ8D0ZiWvtbccNe2+Eg3n4/fixK+CIDfVe3Lf2d9W1s/v/9nfU5q8w5Rfwegi4Y+W4DU8N9cPCNr2HwAn7BHPcXJkejm6PZZTtjx4NPxP3fdkUeX4gpMrpgfa2VmPMWd8OIZqfhsNo74qgHzRow3ZzD2hT1QkbZ76zXsjHWqI0LH3oTvWeMQ1GByUfJWORN+xxf3LgvDq5VGiNt31MuRNPfByBrpTmnmJzf4LsbT8Cx22+LWiaefU64AC16sJE315SzCTXrJJcYL9hOehJjsFlmQp8/f37wHJzAXOe5jIFqOG2SbJIlpuWkzZ07FzNmzAj+XxIn+cjrOhZmjI0+jNV1PJqRT5obu4FlHVetWhXU1XWey3iN5NRcK2PcMDfE1MwJvln3Vo1t/WZ9qtE4x2BR0b/jjmOQd93Mm2c2QNnZojHJsZzouVXLybg453DuIf/GXkNsjJr5ilwbzlexGGPi4rxs2TJRHWlaTtZDHSf5zDycOWZ08Pn10S+9gDVDBgY/5eUb9upnvPWdH3eY9sXn6Hff3Zj2W8fgxaXFRq+S8UjT6DUurRo+6XwVud/h/jUh+x0zt+fl5WLlglGYapr1VRs262uMBT8txsaYTZtpKhf9g1mD22PcetYVS/lt2jCNWSEbG/P/hWy0RyBr/G+YuO68DshI74/8wozS8/LM864caJqfX8uO/4JJY3pjTfACAZsnY8WjkDfzT2SYYxnpZrwXmseCY2zkzHOw6VvRBwtHWw5jQ37GvIXmugMe05Au74/M1PYYP+JXzF8wxlwfm3zju6wvFprHx438A/MX8XHThM7/GxkjzLlpvZC1ouyFh2Jz/pr+mDeiA1LXxdIZc2aNMPyGI28ssLQ35ozsYJ6rq9HpqNJGuMRcW95wZKW1x4R1fu0xdeogFOaZBpS38jOOPHMtJSZ3Wf2wYLx5johzJ4zsjqy1bDiZ/9/R7elTgi+YO+KCF9FneW9MH8XzfjL2FzIXm+tgPnLKrrvI+C35p+ycMhv1J2ZnmvNKzPUxj/wdd5PjnGld1qvThJF9kMMalhgrGIvCBd0xc1h7pI35Byv5MQRec/Ab8KkomdsV09f5mtwN74oVq3nN5lqCOyRGIm/Wn5hkapiW3hc5/CK6gNtcw4r+WDzhZ4wb0Qlz55smntqhLmyjHuTHnLeWOuiMdHMNEzP6IzfLPE5/flHd2v5YNKR9RG1+M72Rea4S1sacxziKxyF32m+YPPTf65yU1gNr1pZpNp/njcDaSZ2N1nj8J4wf1dmMxzEoXm3ytXYMitisD34S81I/QxHHZ5R5SLv34BjmvCOdP2j003Da/Q7fhOHfKXwiiZGUG0PXsWjGYFeuXBlsKOlvJ91YTMtJP2uu49FM68c4uXjZd7lc54SZhlN7nTTmVOrLmGxjwHd/rIhjNQ0nzRUnX4LOWJDqm3Vv1dhss94p0Dn1zjHIjwXZccAxyFdg+SIh/5WMSY4pzdxKc43JWEzLybg453DjzOfY2GuIjY/mOh7NtH6Mie/iLVmyJKlza6wW5NRcJ98JnNr5d/S9/25MfLc5ckcMM/s+/w57dTI26qznvJ9+RH/TqKd++jHWLl2KZatXB5r1+53yphqTZm7nxx5XmCapXLNums2ls3rjxWfuxgXn1sUF55yCC84+FRdddA6uvvpC3LCenYsrGtTDhWebc3heYMbn3NNx2RXn47p1512Aay8/C5ecF3HeBWfiysvPLzt+Pq694kxcfG7E8bPr4eJLzsW1ge8ZuMg+vu54XdSvfxauutJylPJcddFpaHDuyeb4ybjwgjNw+RUX4vqrzseV9eviQj4/r9U8foV5/Iarzg0eZ5z1G5yDa68y5/I6zy87z8Ry4YWG46oLIjjOw9WXnI4G5vmD4yaO4PhV5+DyC08t9TN24fmn4/LLzfOt87sQ115qYjyffnzufy3guCKSg9dc+ny85qFDXsSwN87HYSm1cNA5jTCI7zibZrrRk3eac00Mpgb1I2tQFs81Jp51z2livfqieuvxXnDuabj00vPWq9P1V52NS883OQniqIsG9c8O6n7dlXw8wresPtes82Ws55Ze8zqOeoFurjPPe91lpobnlT0vj51vanM583aeuf7SONc9d6Sda7R38bm4zsRy3aV8jrLHWX+TtysDXnsN5+Pqi01tWP91/owxUovmea44B5ddUHY8MHPOZecZrZUef+PF+5GzoG/ZR0HGrmvW5479xIxX0xxHmYc4FoM1y3GsItPOPVrOyP0O/07hK4cSs5MXO33X8TDjqwSrzaTOJpYX4TonzMjJgKWcdmKlv+t4NLMJcx2LZoxz+fLlQcPuOh7NNJx2gZTmhuezjprcMK+so32l2XWOyyyntP7043XSIuNksz4tM803696qsa3frE9bnFam/3/HHccgxxUndf4rGZMcU5r5nOdz3tHMH1pOxsU5J1FriF0/NPOVNje0zMzMde+su467jJyMT1uPeNcQIsdc8+Tvv0Xfe+7AlI8/RO6oEabBG+9s/LxVLeNn1GkLO/6MwY8+hNHN3sSqWbOCW7aXmrpTsy6NRDNqjuY6FmaVoVXX8WiW8P2OmdvzTYx8Z73cbfB547Fqfn+0+exVvPDUnXjeNITekmhP342JE5uhzzMnYbeUFOx8wpPomTsB2Vkj8OHbT7t9vMVlrT98EasXDjSNemmzbm+Dn8931iP2RS7j+E/GfkfTv9r9Dl8I5d9J+cy61NdumqR+DJCJ4jVLQT9yasBbF7jZksKKQQLGRh8WVgKebwUkBevAOvrPrHvztrHNf2Y9Ev4z627Ew1mZa0ju0qVIa/0Z+t57J2Z8+Vlwy3Qhf9JtzChnE+jtv2/8SENB2nhkdvoNw556HCNea4yVGbz9txR8c4J3gkhR1fY7/4nPrGeNChqU4DZvTPeWVOPPLPO3x/sh7adn0OS+2/DqO19iUpapE781H/w8u8vPW3xmtO9/Z71i2GA1xPF9wVzVaNZ5jUwub5uSXm9VWbzo65t1b94SYb5Zj4Rv1t2Ih7Oy15DcJUsx/qMPMeCh+4JviGfDx2ZvwybQ23/fgt9SN7Vb+ncXjHzhGQx9+QUsn8jPxP6L6t6s0/c/06xbW0MrbVa8JdNYj7FmAU43VeMXq42PqJHrfG/xW1l+fbMeHTZYDfGm0KwztkmTJiE1NVUcZ1VbvHyz7s3bxjbfrEfCN+tuxMO5MdaQHNO8jf/wfQxq+CDmtP0u+Py6/w32qmVBoz4hFSt6/oPRLzfC0EbPYslYvqu7Pnyz7obl3CjNurf/lvE3v7ONBe/4Oo572wjmm/WosMFqiDeVZn3ixIkYN26cOM6qtnj5Zt2bt41tvlmPhG/W3YiHc2OtITkmjnHvtsDgxx7BvPbtgsYv+JZ4R2Po7T9mplFnrbL698PYVxtjyHNPY9GwIc7x45t1Nyynb9a9edsY5pv1qLDBaoj9O+vRUdUWL9+se/O2sc0365Hwzbob8XBuzDVkzby5GP12Uwx+9GEs+OVn37BXBStr1Ff164Nxr7+GIc8+hfl9+6C40K0t36y7YTl9s+7N28Yw36xHhQ1WQ7wpNOu8xilTpiAtLU18vVVt8fLNujdvG9t8sx4J36y7EQ/nxl5DVs+dg9QP3jMN+yOY0/Z7FJhGMPhZN1ej6C2pxiadtVnZuwfGNH4Rw19qhIWDBqAoyl7IN+tuWE7frHvztjHMN+tRYYPVEG8KzTrB5PIL5qSoaouXb9a9edvY5pv1SPhm3Y14OBOxhvAd9vTWn2HIU49hZpsvg2+HD36329EwekuO2e8V4JfJjX7peYx+qykWjxqJkgr075t1Nyynb9a9edsY5pv1qLDBaog3lWa9uv90G319s+7NWyLMN+uR8M26G/FwJmoNyTUNXcaPP2Doc09j6mefIHfk8NKfdRs3xtk8ekuc8YUTWuZvHTHqpRcwruW7WDGFPw9WMXyz7obljLtZn/6dSdZkM/mN9ebN2zrj76yPQ9HyQaZZf9I36xvCBqsh3lSa9ZUrV2Lp0qVlf8WOqrZ4+Wbdm7eNbb5Zj4Rv1t2IhzORa0iB2QNM7/RrcHv11E9aYc3A/kHD7j/HnjwLXjAZPQrzfvoBoxu/iAmffoS1CxeUVaxi+GbdDcsZd7M+7RsgJ630N9a9efP2r60289fS/v6ddRdssBriTaVZ57vqmZmZZX/Fjqq2ePlm3Zu3jW2+WY+Eb9bdiIcz0WtIcVEh5vfrgyGNnsOE5s2wokf34PZr/9NuiTX702xrhw7GzK++wPDnnsbEr79CQdaqskrFBt+su2E5tc36ygUjMaXPA5g37Hmsmvo1lk/+LCZbMflz5+MVGf1WZrQ2/y/1/1zFWeqj81PHmGF8jbmORTM9ZxzXGvglPk5N/dXXGYcftcp/l6Z9iIx/bsKC8Z+WDqAosHsPzfyh3e9o9h4WvlmPAfQjpwZz5szB9OnTy/6KHVVt8fLNujdvG9t8sx4J36y7EQ9nUtYQk9Np/fpi0IvPYWzjF7Hkj07INQ0kG3Y2ka7m0lvlWfBFcsayBvTDxPffwYDHHsaUn39CoamnFL5Zd8Nyapv1rMUTMGvYa5ja+z5M7/9oTDat36OY2rdh8K/reDSb1q8hpvR+WOyr4eS55NNe5zTD5zpWkU3t8wimGHMdi2al1yrnVMdJvyCnujgZ49S+wjgNp1g76+Iz1ymMkTzxa5X5Mf/f8y4sndaxdABFgd17aOYP7X5Hs/ew8M16DKAfOaVgbJMnT8b48ePFcVa1xcs36968bWzzzXokfLPuRjycyVhDWAXWccG4cRjX4i0MNs3inJ/aInf0yNJG0jfsG8f4bnrZRw6Wde+KMa82xsCnHsPULp2Rs1a2nlv4Zt0Ny6nd7+TnrUV+9mLkrZkXs2VnzUHWshnIyZrrPB5m+dkLsHr5DMydMQZrV84K/nad57LsVbPFnLzONStmBr6u49GMfrxW17FoxpgWz0/Hwjnjkb92vvOcMCMnzXUsmjG+IE4Tr+t4mOWunhvEyFq4joeZjYsxLlkwUVRHcrKOkprQh9dI4/+7zgmzeLTKnFKr/DeI0cRdmL+6bASFw+49NPOHdr+j2XtYrNes80kkxkBzcnKcx6IZA+UGhN+SLvXXctLPmut4NNNy0oc/2zZ27FixP8+XXqs2Rhuf1I9GP9aR9WRdXee4LB5O+mzoB7MGTl4wzjfr3qqx2Wa9Ez7s+QIyFqSW6f/fcccxyEl97ty5wb+JGJN2PEr9aJbTdSyaMS42BolaQ+KJUTvP0dgYsGGX1JGm5dTGyfO1nPSbv2AhVmVlYcX0aRjzwXvod/89mNjyXawe2C/4ZnL/OfZKNtOoF05IRe7IEZj9/bcY8kRDDH7+Wczq3QvZphHNNxtSV62iGTVKrVKzruPRTKMdq1ONXzxaTeh+x5xPn1wzx+cXmMbd9AexWn4BkJdvGgvHsWhWZHqXNdn5mDc/E2tzClBo9lau81zGa5RyBtdp/KTx0eiXly/3Y4xLlq3CosxlovhoAafiWoPcGGO8ruNhxlwyRg0nbeGiZVi6PCuI2XXcZaWcpo4CzsDHxrjBsYosHq1So1arNsb8giL3eIow7ZgMxmOZuY5HM8vpOhbNIvc7/DuFXb/E6ERyPpHreJjx1UV+S/r8+fOD5+ArFK7zXMbzGayUk+fb5LqORzNbGAknYyKXbdalcVpO17EwIwctUbmxMbKOrCfr6jrPZVpO+rnihBmkUxaN9826t2ps67+zPtVonGOw0Ow27DjgGOS7PpzU+a9kTHJMSec5mh2T0vmKRh8NJ+Pil3dy7qHvxl5D4skN/ejvOh7NGBNfSecXlErnVrshcB2PZvShJSrOyDUkq+zurNULFiDjp3YY8swTGPncU5jX/sfg590K08a7G09vIuO76fwiueU9uiH1jdcwqOFDSG3VEovNPqWAdS8pCWrpqlc0o0apVWpWMh5p5JNyJlOrydnvuM8JM76IS05pfhhX6RoyH9nZ2aI413E6joXZv7mRXSeNfrm58tz8q9XMhGiVpq0HYyvNj1yv/HfhwkXBd2fJ9CrnpI9Wq1YDOq1mB1rlvzKtxrffkeTGGn00/Svjsvsd/u1vgw+BLY6Uk+fPmjULU6dOFfuSj7wSMDb6MFYJ7C1amtzQl3WU3gbPa9RwMo9WwBvmdMaSdN+se6vGtn6zzo99uMA5IJ7b4DXzB7k4JqWgj3YNSeRt8Nq5lRzk0uSGSNZt8MlYQyJvLS7MzcHCwQMx7v13MOypx5H+zttY2bsniial+99kVxrvTig2+cseOTz4ffsRzz2F4a++jJl/dEK2yb8FtUPTIBm3wW+q+52KQC7NfE6wHon6KBWvjzyaetCP1yrNDcF5lfOrFOSU5oVgfPST1qMy1hA2ehKQk3WUcMajVTs+NFplTpOx39HolbnR6pVzjv/MegWgHzk18N8G74bl1ExcYROC/8y6t+pt/jPrkUhks27XD818RS5yapCsZl2jgXjXkMhm3SJncSamdfgZwxu/hDGmsZzz/bdYM2QQiiam+aY9RuMX9RWmp5n/H4XFpjFPa/4Whr/wLMZ/9jGWTZhQlul/wfpr9zv+M+tuWM7K3O9UBHJp5nOC9ahKzboGvlkPBzmlYyRZWmVOq8p+h7lhLaX5IXyzHgPop50Q/O+su2E5NRNX2ITgm3Vv1dt8sx4J36y7EQ9nMteQaA3Q8rQJSP3gfQx55imktXgLi37riDVDB6PQPM7b4/2X0JW30iZ9QvARgqXd/sK0zz7CiBefx4hXXsKcf7qhKGR+YP21+x3frLthOStzv1MRyKWZzwnWwzfrbpBTmhfC6jUZa4hv1stDo1WC55NLo1fmhrWU5ofwzXoMoF88E8KmsHj5Zt2bt41tvlmPhG/W3YiHM5lrSEUNUFFuHub+0x1DX3gOQ59+AhmtPsDSv/7E2iGDglu8+U77Jt+08xveTZPOXOSOGoGVvXpg9ndtMKpxIwx8oiEmffM1shfML8uoG6y/dr/jm3U3LGdl7ncqArk08znBevhm3Q1ySvNCWL0mYw3xzXp5aLRK8HxyafTK3LCW0vwQvlmPAfTTTghMLr/sSQryacRHH434pAPTgr6+WffmLRHmm/VI+GbdjXg4k7mGxNIAFZvnX2vOndHpNwx9/hkMfPSh4PPsS//ugpwRw4OGNT910/t9dsYb/MwdvzV/9Ehk9euDWd+2wfDnnsLARx5EWuvPsGLyJBSZGlUE1l+73/HNuhuWszL3OxWBXJr5nGA9fLPuBjmleSGsXpOxhvhmvTw0WiV4Prk0emVuWEtpfgjfrMcA+mkmBMY2ZcqU4BvhpXGSTyM++mjEJx2YFvT1zbo3b4kw36xHwjfrbsTDmcw1RNIAFWZnY+X06Zj8czsMedY0pA/ehwlvvYklf3UJbvvOY+PKBpZNe3Vt3MviC2Jkk24eyxrQDzPbfIWhTz6K/iYn/Fz6Ev4ajUBDrL9mv0P4Zt0Ny1mZ+52KQC7NfE6wHr5Zd4Oc0rwQVq/JWEN8s14eGq0SPJ9cGr0yN6ylND+Eb9ZjAP00EwJjmzhxIsaNGyeOk3wa8dFHIz7pwLSgr2/WvXlLhPlmPRK+WXcjHs5kriHSBohYa5rDpelpmPpTOwx+5kn0v/9u8OfIFv7ecd3PvfG28KCh3bDZrcLGeOxn0nlHwcLfOmLi+y0w5LFHMOCh+zH2w/cx1zTuazJLN3cSsP6a/Q7hm3U3LGdl7ncqArk08znBevhm3Q1ySvNCWL0mYw3xzXp5aLRK8HxyafTK3LCW0vwQvlmPAfTTTAiMzTfrblhOzcQVNiH4Zt1b9TbfrEfCN+tuxMOZzDVE3ACZOPPL6sF32peMGY2Mdj9gzNvNMOrlRhjzyouY1voTLP7zD+SOHoHiyRODL6TLN01ulXy33VwzX3woMnHkjBqBzM6/B5/bH/XCMxjyeEOMbPIK0lp/irk9/8HqhQvAzMhHVXwNkG/W3bCclbnfqQjk0sznBOvhm3U3yCnNC2H1mow1xDfr5aHRKsHzyaXRK3PDWkrzQ/hmPQbQTzMh8BqnTZsWNOzS6yWfRnz00YhPOjAt6OubdW/eEmG+WY+Eb9bdiIczmWtIZTVAq8yaO7vrX8HntMe92xxjX38VqcamftIqeMd9zeABwTvSxZMmBj8Bt+7d97Jbyf8zZppzvrAQXKtp0HmNS/7ugulfmLhea4zhzz1T+pN27zXH9F9/wZKxY1AQsQ7nm/pr6sH6a/Y7hG/W3QjTakXgWA7b71QEcpFTmh+C9fDNuhvklOaFsHpNxhrim/Xy0GiV4Pnk0uiVuWEtpfkhfLMeA+innRCY3Llz55b9FTvIpxEffTTikw5MC/r6Zt2bt0SYb9Yj4Zt1N+LhTOYaUukNUHEJVkxMx7RffsaoZm9iaKPnMKJxI4x/swmmf/4J5rX/EZl/dMKKXv+UfqO8aY7ZvAcNvGmQg2+XZxOfgHfhg2+zN1wFaeMD7qJJ6cGLCNnDh2L5P92woMNPmPrpRxjz2ssY8vzTGGGa9UnftsHikSORv2Z1WcD/Iln7Hd+su1GhVkPAsRy236kI5CKnND8E6+GbdTfIKc0LYfWq0YB2Pid8s+6GRqsEzyeXRq/MDWspzQ/hm/UYQL94JoRNYfHyzbo3bxvbfLMeCd+suxEPZzLXkI3ZABWbmJanp2HyD99h2MuNMODxhhj63FMY9cpLSG3aBJPeb4FZX3+JRb/9gqVd/8TKPj2xZvDA4OfP7GfD1xnfiaeZZj4wNvQ0fqndhsYG3Jo9f4JpyI1/sXmuEtOUl5h/C0zDnj1sCLL698Xynv8E324/76e2mPJRS4x7/VUMffZJDHzyMaS3/gyLhg1G/uqsssjcSNZ+xzfrbki0GgmO5bD9TkUgFzml+SFYD9+su0FOaV4Iq1eNBrTzOeGbdTc0WiV4Prk0emVuWEtpfoi4mnUmWDtQsrOzA2LpRVvBS8EEM1HSgULQT8NJcJAsXbq07K/YQT7ySsDYNAOF57OOmtzQl3WULl6WUzM4qQHXQGHz4pt1b9XX1m/WZy2bXKb89cE5gBtKzfyhWUh4Prk084fl1IBzTqLWELt+aOYr7cJOsPGRbrQILWcy1xDuCSSwnJKaFJvry1m1CsunTsGigf0x7eefkPpeCwx55gn0f+BeDHjoPgx75vHgNvPJLd/BnG++xpIunbGqTy/TSPfBan5p26ABQSO/dujgoMHOGTEMOaOGI3f0SOSNGR18sR3/n40+P1ueM3J4cA7fJacPfVcbbmsre/dEZqffMdtwTf6wJca+2SRozgc8fB8GP/UYUlt9gDn/dEfWjOnBiw6xIFn7HTZAm8J+JxFatQjb71QEcpFTmh+C9UjUGpIsrXJe1bywRE5pXgirV40GtPM5wRhXmTlPCs0YSYZWmdOqst9hbrR65X4nMzMz+P8UJixWsxeck5PjPB7N6MtXCfhqCAN2neMy+jFQ+2qIxJgkFsYOlliNnPQjJ//fdU6Y8Xy+0sxXtlzHw4x+5LNCcp3jMsZGH0lOaTyfdaS/NEb6so6rV68W+VpO1sV1PJpRA7TIx8g9fXG6b9a9VWNbv1nnnSQlxSXlxh3ngPnz5wf/Rj4ezfgcdj7XzB/k0sytltN1PJrRl3NOotYQu35o5itykXPDOsViXJy5hkh9tZzJXEO4J5D4Ws5YasLn5ZaM2+RC8//B57lNnPmGM9fkd61pwJalp2N2966Y1OYrjHzjNfR/5AH0ues29LnnDtPI34PBjz6M4aaJHvXyCxj3xqtIa/GWaa7fx7TWn2LWt19jXvt2WPRbRyzs2AHzzf/Pbfs9Zn33DWZ8/UXwOfOMjz9E2rvNkdrsdYxt8gp+e/A+fHzV5Wh5yUX45rZbMJhfEPfpx5jy4w+Y+dcfyDQN/4pZM5G1ZDEKTJyRW8qK8pSs/c6yZcs2if3OxtTqhuba78Ri5CKnND801iNRa0iytMp5lfOr63iYWU6alNPqVaMB7XxOY4x8EU3qqxkjydAqc1pV9jvMDWvpOh7N6Mv9Dl+U4N8p/Gx1rDZv3jzMmTMHs2bNch6PZvSdMWMGMjIygudwneMyyzl79mzn8WhGH2uu42EWycn/d50Tzfgb6+PHjxfHST76SDhtfBIua6yjlI9GH9aR9ZT6Wk7XsWhm44x8bNH8xRiW3g8f9Hwe3Sf+5pt1b9XQSpv1npM6o2WP5wK9z5s7r9y449jgmNxwjEQzPgfHomY+p59rTFZk8XDSN5FriI1P6kejDzk3rFMsNnXq1OBLSqW+Wk4boySn1pK1hrgeDzNyBfGZ/59nmq75pklfYJrLBUuWYr7ZCM2aPh3TzHo9adgwTOjdC2N+/w3D23yNoR+3wpCW72FIi7cx+M3XMei1xhj44vMY9NzTGPTkYxjwyINBQ9/v7tsD40/I8SfUBjR8CAMffxQDn34CAxo9h8FvNMHIVi0x/vtvce9FDbDHlltgp5QUnHr4Yfinw8+YOmY0Zpg9w8wpUzDPbEDnm432PHONvE7+7YrJZbaONNfxMGP+bY6kteD51Co16zoeZvQLaiLUjo2Pfq7j0awqaNWajdN1rCLTctIvUWuIjU8ao+Wjn7QWPF+rVXJqtKONk0YfDSeNMU4385rUVzNGtPHRqoJWafTTxGk5Nfmhr93v8O8U3iohMXvLk+tYRcZXe5goPofreJjx1TC+eus6Fs3IQz/6u45HMy0nb7NJTU3F6NGjxXFqrtVeJ3ldx8PM3qovvUYafVlH1tN1PMy0nPRjnLTIONdkrcWEWSP9O+veqrGVNus9JnYKXpSi3iPHhjXOATNnzhTPWRyLHJOR4yoW4/ma+YpmOV3HKjK7hkiv186TrmNhxuukj2aO1OaGxsWd7xq4jkUzLafNjUYD2jWEPvGsIZJr5bmMkbahX9bq1Vi9di3W5OZibX4BsguLsDYvF6t5bMkSLDcbpsVm07ts+jQsnZKBJelpWJw6DpmjRmLh0CGYP7A/5vXtbawP5g/ojwWDB2HhsCFYNGI4Zg8ZjMn9+2Hx5ElYaWq6ZukSXH/9DTj0qKPw9nvvo9Nff2GRyfva/PyAf3V2NrLWrDHXWaq7yOuMxaxe49GA61hFRq1yM+k6Fs0012qvU1J/mtWNRqv0TZRWaTyfcdI0vhpOGv0StYYkU6ucX13Hopmth+tYNLPXqtGdNj80xsi7QVzHopl0jCRLq8xNVdnvWA24jlVknHPY6PP/xZ9Zt2/ra8DbD/jZHyl4CwBvP9CAty/wmqXgLRpazsmTJwcNuxTkI68EjI0xamBvsdFA8xkuQqsde2vIhuBneH2z7q362vq3wc9enlGm/PXBOYC3S0nngnjmc+3cGg+n/d4TKbRriHZutbfLacDNBBdnKbScyVxDuCeQQqOdsPUjFhTqwgO/lWGx2eRF4rbbb8cVV1wRbODCoNUqoR2T8ex37EZWCvJVpf1OorRKxKNXLSdrkcg1JBla5bzK+VUKckq1SsSjV+18TjDGrKzoX0jpgmaMJEOrzGlV2e8wN1q9cr/Dhp3w3wYfAvqRUwrGlp6ejrFjx4rjJJ9USIyNPlIuns86anJDX9aRn+GSwHJqBhg1QNtQA/7b4L1Vb1u/WfffBu+/Dd6FeDiTuYYk4hu26RO2flSEeLTq2u/cdtttuOiii4LbccOg0SqRjP0OwRce/LfBl4flrMz9TkUgFzml+SFYj0StIcnSKudV/23wbpBTOkaSpVXmtKrsd5gb1lKaH4L7HfvmhG/WQ0A/zYTAa+RnRfjuuvR6yacRH3004pMOTAv6so6+WffmbWObb9Yj4Zt1N+LhTOYa4pv18tBolUjGfofwzboblrMy9zsVgVzklOaHYD18s+4GOaV5IaxeNRpgjNSABr5Zd0OjVYLnk0ujV+aGtZTmh/DNegygXzwTwqawePlm3Zu3jW2+WY+Eb9bdiIczmWuIb9bLQ6NVIln7Hd+su2E5K3O/UxHIRU5pfgjWwzfrbpBTmhfC6lWjAcZIDWjgm3U3NFoleD65NHplblhLaX4I36zHAPppJwQOEs3nYsinER99NOKTDkwL+rKOvln35m1jm2/WI+GbdTfi4UzmGuKb9fLQaJVI1n7HN+tuWM7K3O9UBHKRU5ofgvXwzbob5JTmhbB61WiAMVIDGvhm3Q2NVgmeTy6NXpkb1lKaH8I36zGAfvFMCP6d9fKwnJqJK2xC8M26t+ptvlmPhG/W3YiHM5lriG/Wy0OjVSJZ+x3frLthOStzv1MRyEVOaX4I1sM3626QU5oXwupVowHGSA1o4Jt1NzRaJXg+uTR6ZW5YS2l+CN+sxwD6aScEvqtuEywB+TTio49GfNKBaUFf1tE36968bWzzzXokfLPuRjycyVxDfLNeHhqtEsna7/hm3Q3LWZn7nYpALnJK80OwHr5Zd4Oc0rwQVq8aDTBGakAD36y7odEqwfPJpdErc8NaSvND+GY9BtBPMyHwGu0P2Uuvl3wa8dFHIz7pwLSgL+vom3Vv3ja2+WY9Er5ZdyMezmSuIb5ZLw+NVolk7HcI36y7YTkrc79TEchFTml+CNbDN+tukFOaF8LqVaMBxkgNaOCbdTc0WiV4Prk0emVuWEtpfgjfrMcA+mkmBMY2ceJE/9NtDlhOzcQVNiH4Zt1b9TbfrEfCN+tuxMOZzDXEN+vlodEqkYz9DuGbdTcsZ2XudyoCucgpzQ/Bevhm3Q1ySvNCWL1qNMAYqQENfLPuhkarBM8nl0avzA1rKc0P4Zv1GEA/zYTA2Nisjxs3Thwn+TTio49GfNKBaUFf1tE36968bWzzzXokfLPuRjycyVxDfLNeHhqtEsnY7xC+WXfDclbmfqcikIuc0vwQrIdv1t0gpzQvhNWrRgOMkRrQwDfrbmi0SvB8cmn0ytywltL8EL5ZjwH000wIvEbeAj9hwgTx9ZJPIz76aMQnHZgW9GUd/0vNeo9JnTHZNDXTlk3HlKVTvXmrJjYNM5bPRK/JXXyzbuCbdTfi4UzmGuKb9fLQaJVIxn6H8M26G5azMvc7FYFc5JTmh2A9fLPuBjmleSGsXjUaYIzUgAa+WXdDo1WC55NLo1fmhrWU5odYr1nnE0iMxDZY1/FoRmImmEVyHQ8zJonBSjntQLFCkpjldB2ryObOnRt8bt11LJqRj7yuY2HG2OgjzakdKJrc0Jd1XL16tfN4mFlO1sV1PMzsQKFFagDmv+mL0/Fej2fQadz3GD57MEbPHYaRc4ZE2NAIi3w8FtP6avw0PtYqw9d1LMwqg0/qq/WzlijOSB+JH83lNxRj5o1A59S2eN/ofMaS9PXGhjXOHfPnzxfPWXY+18wfHI+a+cNyatYQzjmJWkPs+qGZrzRzubXMzMygAXIdC7N4OJO5hnBP4DoeZpZTUhP6MD6aVHPxaHXD/Q5hm/WpU6eWO98ar1OqVVqy9jvLli0LmgPXsWim0Wt11yqNdWeMNI0GyCnND41+iVpDkqVVzqucX13Hopmth+tYNLN61WhAMz6sMUa+MOE6FmbklI6RZGmVuakq+x368Tql+aFxv8MXCvn/KbxwqeXk5Dgfj2a8YIpn3rx5yM7ODi7edV6YaThp8fhp4+RA4eSuiVHDGU+MrsejGWNi/VhH1pPxus4LM+21ugxFwLRF6Xin+1No0f0JfNCrET40xn8rzXo6HqtOxviqe4y0Khznh71eRPNuj5vrfx5TF6YFYzAv799xxzHISZ0vEvLfRI3JeMayxpdxcbPFuYf+iVhDEp0bxsTFmc1PIufWRMb5X1pDYjENH2OK3O9wY0rcfPPNqF+/PtLS0oLHwjScyHrQ6KeNk1qlZjXjUcMZT4yux6NZVdMqTcPJuLKystatIZpauh6PZvHUURtjorVKS7Qfjf0H73b5r+tVw8eYNrX9Dv9O4YIhMZsYvsLgOh5mfFWBkwFFxOfgKxWu81xmB5aU014r/3Udj2b008ZpX2mWxEiznK5jYcbYmB9pjPYVJqmffYWJdVy1alUQr+s8l9FPw8lrZYy0yHqgGFixZimGz+iDQVO7GeuKgcb4r7UBGX+j36Quwb+Rj1do07oFfl1Hd0D/yX8GfzvPcxi56DNwivu4ywKfjL/k12mMfqV8Mt/B07ujx/jf0H1sR1F85CFfkBfH8WimjXMdp/F1HY9qJjbGyFgZs/Mch2k4Ax/Ww5i0HsyJS6vUNJ9r9OwBRu/L1hsbNI5Bbij5SjP/TfSYdB2PZvQhp2Zu5ZzDuYe+G3sNiSc39NPkhjHxxV7+/KekjvFwMj76aeOU+kWuIdwTbGy98joZnzY35JPohhapVT4H3xkhbrnlFjRo0ACTJk0KHnNpmNep4dTkxhr9aK5j0Yxxcr9DzUrGI03DydiSpdVk73diMS0n47JrCBsLTZySa9VeJ41+Uj4aY+K8miit0rRxWr1K5ywbF2+d5riU1FHDSZ9kajXR+x2pH41+5JTmh3HZNYR/+8+sh4B+Gk6CCeZAkcKKQQLGRh9pTnk+66jJDX1ZR94WJoHlZF0kYA2oAdqG9SguKUZBYX6pFZW33PwcrF6bhbx8M1gcx6PZ2pw1mDNvdvCv63iY5eRlY032auQVxM7J68zOWRv4uo5HM/qtzV6D/EIzYTqOh1lhUQGWLFuMBYvmO4+HGXmYE2leaIyP18t4XcfDLOA0MWbnrnUer8gYI2NlzK7jLiMn6yipCX14jTRpPaxWnbkJnqu8/i04B9jGQAI7n2vmD3Jp5g/LqZlbOeckag2x64dmviIXOTXgC718F0+CeDiTuYZsqp9Z523wYdBolaiM/Y4G/jPrbljOytzvVARykVOaH4L1SNQaUhla1YxJzqucX6UgpzQvhNWrRgOMkRrQgDH6z6yXh0arBM8nl0avzI1Wr9zv+C+YqwD0I6cUvMbIz6xLQD6N+OijEZ90YFrQl3X8LzTrFcKcXpCnm/CKCouwaGFm8K8EJcUlyJdymussKigKfKWgX2G+vI7EqpVZWLpE/sIScyLNC8H4eL2MVwrGWFwkn9gJxpi1anXZX7GDdZTWhNeouk6rVUVuOAf4Zj0cmjXErh/J2Gj5Zt0NyympCX2060c8Wo3WrPsvmPPNehhYd61eyUVOaX4I1qMqNesa+GY9HOSUjpFkaZU59c16BbDBaog3hWadsaWnp/vfWXfAcmomruo+ISRDq4RfvMJBTukYqQytSnNDMKe+WQ8H6yFdQ+yYTIZWfbPuhuWU1IQ+2jEZj1Z9sx4d5COvBNVdqwTrrtUrucgpzQ/Bevj9jhvklOaFsHrVaIAxUgMa+GbdDY1WCZ5PLo1emRvWUpofwjfrMYB+mgmBsfHzaKmpqeI4yacRH3004pMOTAv6so6+WXfDjhEJZzK0SvjFKxzklI6RytCqNDcEc+qb9XCwHtI1xI7JZGjVN+tuWE5JTeijHZPxaNU369FBPvJKUN21SrDuWr2Si5zS/BCsh9/vuEFOaV4Iq1eNBhgjNaCBb9bd0GiV4Pnk0uiVuWEtpfkhfLMeA+inmRAYm2/W3bCcmomruk8IydAq4RevcJBTOkYqQ6vS3BDMqW/Ww8F6SNcQOyaToVXfrLthOSU1oY92TMajVd+sRwf5yCtBddcqwbpr9UouckrzQ7Aefr/jBjmleSGsXjUaYIzUgAa+WXdDo1WC55NLo1fmhrWU5ofwzXoMoJ9mQuA1Tp8+HZMnTxZfL/k04qOPRnzSgWlBX9bRN+tu2DEi4UyGVgm/eIWDnNIxUhlaleaGYE59sx4O1kO6htgxmQyt+mbdDcspqQl9tGMyHq36Zj06yEdeCaq7VgnWXatXcpFTmh+C9fD7HTfIKc0LYfWq0QBjpAY08M26GxqtEjyfXBq9MjespTQ/hG/WYwD9tBMCfx7CJlgC8mnERx+N+KQD04K+rKNv1t2wY0TCmSyt+sUrHOSUjpHK0Ko0NwRz6pv1cLAe0jXEjslkaNU3625YTklN6KMdk/Fo1Tfr0UE+8kpQ3bVKsO5avZKLnNL8EKyH3++4QU5pXgirV40GGCM1oIFv1t3QaJXg+eTS6JW5YS2l+SF8sx4D6KedEDhI2LBLQT6N+OijEZ90YFrQl3X0zbobdoxIOJOlVb94hYOc0jFSGVqV5oZgTn2zHg7WQ7qG2DGZDK36Zt0NyympCX20YzIerfpmPTrIR14JqrtWCdZdq1dykVOaH4L18PsdN8gpzQth9arRAGOkBjTwzbobGq0SPJ9cGr0yN6ylND+Eb9ZjAP20E4Jv1t2wnJqJq7pPCMnSql+8wkFO6RipDK1Kc0Mwp75ZDwfrIV1D7JhMhlZ9s+6G5ZTUhD7aMRmPVn2zHh3kI68E1V2rBOuu1Su5yCnND8F6+P2OG+SU5oWwetVogDFSAxr4Zt0NjVYJnk8ujV6ZG9ZSmh/CN+sxgH7aCYELF4UkBfk04qOPRnzSgWlBX9bRN+tu2DEi4UyWVv3iFQ5ySsdIZWhVmhuCOfXNejhYD+kaYsdkMrTqm3U3LKekJvTRjsl4tOqb9eggH3klqO5aJVh3rV7JRU5pfgjWw+933CCnNC+E1atGA4yRGtDAN+tuaLRK8HxyafTK3LCW0vwQvlmPAfTTTggzZ85ERkZG2V+xg3wa8dFHIz7pwLSgL+vom3U37BiRcCZLq37xCgc5pWOkMrQqzQ3BnPpmPRysh3QNsWMyGVr1zbobllNSE/pox2Q8WvXNenSQj7wSVHetEqy7Vq/kIqc0PwTr4fc7bpBTmhfC6lWjAcZIDWjgm3U3NFoleD65NHplblhLaX6I9Zp1PoHESGyDdR0PM8JutFgk1zlhZoOVckZOCK7j0Yx+NsESI+fEiRMxbtw4cZzkI6/rWJgxN/SRcjGXdmC6jkczcrGOq1evDurqOsdl9COn5loZJ02qATs4pZwE68EJgf8SrvNcFjkhuI67jNeXaK0S3GhlZmY6j0czckq1SmN8Wr0yRmrAdbwiY4y2AXIdd5kdIxLOytCqVANEIrVKs3rV1IM+Gk6Cc06i1hAbY6K1yo0WxyXhOu6yeDjpo41To1cauahX+4Kv6xyX0U/KSR/GSJNqjj5arUbudyxuvfVWXHzxxZgxY0bZI+VjJ6dUqzTysI6aetCPnK5j0YxYtmxZoFnX8WhGPvK6joVZsrTKOmq1qrlWrV7tfC7lJOi3Kex3NFolp1SrNMan1StjpAZcxyuyqrTf0WiVualK+x1ep5STsPsd/p1iEx2rkdQWVGIMdtWqVZg/f37wHEya6zyXaTntoLZJlpiGkzHRLy0tDWPHjhXHST76uI6FGc+naWIkn9TPxsg68pU71tV1nsvIpeGk2Thdx6KZlpNx8ZX0efPmITs7WxWn61iY0UdbR/pJ+WiMid+twMlAolMa+TSc8cRJPqkGGBeNMTJWSR1pGk6eL/WhWd1Ic8OYqFFqlZrd2Fql2Tpq4qSPhpNxcc7h3EN+iWY1nDZGaT1oGt3QGBNfSU+UVmn0iSdOqR9jJB/1yj2BRq8STp5rY3Qdj2b0keqGxpgi9zsWt9xyCxo0aIBJkyYFGzCXhrWcNk5pPWjxxMl31alZyXikkY+8rmNhxvO1MUp1Q7NaZR0ToVVrNk7XsWim5WRcm8p+J1FapcUTp4bTxlXd9zuJ1CrN1lETJ300nIzL7nf4d4q9gFiNpDk5Oc5j0YxkJGaC6R8ZfEWm5aSfNdfxaKbxs0JIT08PmnVNnFJOjY81Xp/Ul/HQj3XkK3esq+u8MNNw0uKN0/V4NGNcfCV97ty5wb+SOHmdUk4bnyZGrR9j4kaLE7tEp7R4r1Xjq9UOY2OMjDURetXGR6sKWrWmjVPLybg453Dx4nNI51Ypp42P5joezbR+idYqTXutNA1n5BrCPYEmTtfj0UwbI300fFardr/Dd1Vss3788cfju+++w8CBAzFhwoRgwxmZAy2njVEbp8aP1813KhO1hmivk8acSn0jtVrd9zt8F8/vd9wW77VqfLV65b+Mkc16IvSqjY+m1eqmtt/h3ylcRCTGJyA5u37X8TDjq8hMLG9d4Ks/rnPCjALUcNpXRXnNruPRzCbMdawi48Q+a9Ys57FopuG0QpXmhuczp5rcMK+sIyd31tV1jsssp7T+9KMGaBoNaPXKvNrGQBKnZowkQ6uMyd4G7zoezWw9XMeimdWrRgPMqYaTZm8L0+hVUhP6xKtVaW4YE/3spL6xtUrj+Vq9ajkZl70tTJoj1kPKacekRqv0i0erHJcarWo47ZiU1sNyajTAnNrb4DVxSmpCH+2YjFerdr/Dv4m77roLKSkp2HvvvXH44YfjiSeeCN6xjcyBRqs0q1dNPehHcx2LZrxuexu863g003AmU6vVfb/DhsLvd9zGWmg4rV41GmBOyes6XpFVpf2O1I8xMaeJ0iqN55NTo1fmRhun3e/w76R8wZzU1wpe6sfkMFG8ZinoR04NOCHwFTwpyEdeCRgbfVhMCXg+66jJDevAOnKjJYHlZF0kIB81QNNogJzS/BDMKxdpTU2knMnSKid0brSkIKc0L4TVq0YDdrLUgDHyXTwJyCkdI5WhVWluCOY0UVoleD65NHq1nNL8EJxz7OIlAeshXUPsmEyGVjkuJYiH045JjQak48OC18s6ck8ggeWU1IQ+2jEZj1Zd+52RI0fi+++/x+uvv46TTjoJl156adDsRkKjVcLqVVMP+pFTg01lv5MIrRLk0+qVXOSU5odgPfx+xw1ySvNCWL1qNMAYqQENqtJ+R6NV5rSq7HeYG9ZSmh+C+x3/bfAVgH7xTAjVefGiL+vom3U37BiRcCZTq37xcoOc0jFSGVqV5oZgTn2zHg7WQ7qG2DGZDK1W92advolqgOijHZPxaDXafocN+mOPPYbrrrsuuF01EhqtElavmnrQj5waVPdmnb6J0irBumv1Si5ySvNDsB5+v+MGOaV5IaxeNRpgjNSABr5Zd0OjVYLnk0ujV+aGtZTmh/DNegygn3ZC4G1tG75aHgvIpxEffTTikw5MC/qyjr5Zd8OOEQlnsrTqF69wkFM6RipDq9LcEMypb9bDwXpI1xA7JpOhVd+su2E5JTWhj3ZMxqPVaPudqVOn4v777/fNuuGVoLprlWDdtXolFzml+SFYD7/fcYOc0rwQVq8aDTBGakAD36y7odEqwfPJpdErc8NaSvND+GY9BtBPOyHw8yL8PIUU5NOIjz4a8UkHpgV9WUffrLthx4iEM1la9YtXOMgpHSOVoVVpbgjm1Dfr4WA9pGuIHZPJ0Kpv1t2wnJKa0Ec7JuPRqm/Wo4N85JWgumuVYN21eiUXOaX5IVgPv99xg5zSvBBWrxoNMEZqQAPfrLuh0SrB88ml0Stzw1pK80P4Zj0G0E8zITA2/ixLamqqOE7yacRHH434pAPTgr6so2/W3bBjRMKZDK0SfvEKBzmlY6QytCrNDcGc+mY9HKyHdA2xYzIZWvXNuhuWU1IT+mjHZDxa9c16dJCPvBJUd60SrLtWr+QipzQ/BOvh9ztukFOaF8LqVaMBxkgNaOCbdTc0WiV4Prk0emVuWEtpfgjfrMcA+mkmBMY2ceJEjBs3Thwn+TTio49GfNKBaUFf1tE3627YMSLhTIZWCb94hYOc0jFSGVqV5oZgTn2zHg7WQ7qG2DGZDK36Zt0NyympCX20YzIerfpmPTrIR14JqrtWCdZdq1dykVOaH4L18PsdN8gpzQth9arRAGOkBjTwzbobGq0SPJ9cGr0yN6ylND+Eb9ZjAP00EwJj8++su2E5NRNXdZ8QkqFVwi9e4SCndIxUhlaluSGYU9+sh4P1kK4hdkwmQ6u+WXfDckpqQh/tmIxHq75Zjw7ykVeC6q5VgnXX6pVc5JTmh2A9/H7HDXJK80JYvWo0wBipAQ18s+6GRqsEzyeXRq/MDWspzQ/hm/UYQD/NhMBrzMjIQFpamvh6yacRH3004pMOTAv6so6+WXfDjhEJZzK0SvjFKxzklI6RytCqNDcEc+qb9XCwHtI1xI7JZGjVN+tuWE5JTeijHZPxaNU369FBPvJKUN21SrDuWr2Si5zS/BCsh9/vuEFOaV4Iq1eNBhgjNaCBb9bd0GiV4Pnk0uiVuWEtpfkhfLMeA+innRAY49y5c8v+ih3k04iPPhrxSQemBX0Zo2/W3bBjRMKZLK36xSsc5JSOkcrQqjQ3BHPqm/VwsB7SNcSOyWRo1TfrblhOSU3oox2T8WjVN+vRQT7ySlDdtUqw7lq9kouc0vwQrIff77hBTmleCKtXjQYYIzWggW/W3dBoleD55NLolblhLaX5ISqlWdcgOzs7mPSkF22DlSJZE0IyfrpNmlOeLx2YFvRlHaXNuuWUTlyEnRCksBOCND8E+TghSHntGJFwJkurVWXxIhijRgOEZvEiNGMkXq1qx0eitErwfK1eLacGtgGSXi/zIh0jdkwmQ6vSZp3QctoxqdGAZnwQ9GUduSeQwHJKakIf5kWbG61Wo+13pk2btq5Z33CvoNEqYfWqqQf9NJxEMpp1V06jwermv65VC61eyUVOaX4I5tXvd9wgJ00Kq1eNBrTzOVGV9jsarZKvqux3eI1avXK/s65ZZ8Ikxgu2BXUdj2ZZWVnrEuw6HmZaTpskO1gkRj9yuo5VZFy8OFhcx6IZ+cjrOhZmjI0+mtyQT5Mb+rKOrKfreJjZgSKtP/14nTRtnFI/Wk5OTvATfPzXdTzMeJ1SzmRplRtF/tSg61g0I6dUqzTGRz+NBrR6pXHC47h0HQszDSd9eD5NqjmrVWluaInUKi0evWo5aXwhNFFriI1RykUOqW4ijeOR49J1LMzi4aQP49RoQMtJ30StITyX10iTxkgfqW6srV692qlVYvLkybjvvvtw7bXXBvUm7HEtJ3m0Y5J+5HQdq8h4Z4BmDSEfeV3HwoyxJUurrKfreJhptEqjH6+Tpo1T6kfjixHxrCGSOHluMrTq9zvhpuFMllY3tf0O/z+FTyI1Jsj1eDTjBfNVrXnz5gWTgh1wsRj5NJy0ePy0cXKgUEiSGGnxxKkxDRdjYv1YR9bTCjFW08YXT240foyLizM/zsB/NbV0PR7NEp0bxsh3RPiuQSK1mug4GRsnPMaq0auUU3udNI3fhlpN1JikaXy1+WFc3IBw7qG/RLNaTo0PTcvHmDge+WJvIrQar2ljTPQaEk9uNH6MKWy/Q/A7be69915cc801wTmEPZ7oa6VpORkntZroNURjGq5kaJUWT240foyLL5xV9/1OMrSa6Dhpfr8Tbtpr1Zo2P4zL7nf4dwrvxZeYfTWEnb7reJgR9vOGfIWBtxW4znOZLYaUkzwclLxm1/FoRj+alJM2e/bs4DY3/r8kTsvpOhZmjI35Yayu42HGuJhTaW4YD7lYRw4UwnWey+in4eS1MkaaRgPklOaHoB8nPdZEUkc7RiScPJc8idQqYe8CkcRHs5yuY9GM8dFPWg+rV2rAdTzMGBeNr6Zzs0W4znOZhjPZWuW/hOs8l2m0SouM03U8mtGHnNL8EJxzOPfQV6JZDWc8WqWfJjeMieOR45JwneMycjI+DSfjpJ92TErnLMZILtbRfpTKdZ7L6Cfl5HUyPm1u4tUqrzlSqwS/hNbeBs96E/Y4r1PDSR7qTloPGv1ormPRjEjkGpJMrVaF/Y7VqzQ/BP3i2e9IrrUytCrNDbEp7Hf4r9/vuE07PmycGr3Sj5zS/BB2DeHf/gvmQkA/ckrB2HiL2/jx48Vxko+8EjA2+ki5eL4VrRT0jdxoxQrLybpIwLpTAzSNBsgpzQ/BvHJC0NREypkMrRKc0O1mUQJySvNCWL1qNMAYqQENGKP/grny0GiV4Pnk0ujVckrzQ9gXfKXXy3pI1xA7JpOhVbvRihXxcNoxqdGAdHxY0Jd1TMSXdtFHOybj0Wq0/Y7/grmqt99JhFYJ1l2rV3KRU5ofgvXw+x03yCnNC2H1qtEAY6QGNKhK+x2NVpnTqrLfYW5YS2l+CO534v6COQ3xptKsT5w4EePGjRPHST6N+OijEZ90YFrQl3X0zbobdoxIOJOhVcIvXuEgp3SMVIZWpbkhmFPfrIeD9ZCuIXZMJkOrvll3w3JKakIf7ZiMR6u+WY8O8pFXguquVYJ11+qVXOSU5odgPfx+xw1ySvNCWL1qNMAYqQENfLPuhkarBM8nl0avzA1rKc0P4Zv1GEA/zYTA2NLT0zF27FhxnOTTiI8+GvFJB6YFfVlH36y7YceIhDMZWiX84hUOckrHSGVoVZobgjn1zXo4WA/pGmLHZDK06pt1NyynpCb00Y7JeLTqm/XoIB95JajuWiVYd61eyUVOaX4I1sPvd9wgpzQvhNWrRgOMkRrQwDfrbmi0SvB8cmn0ytywltL8EL5ZjwH000wIvEZ+8cGMGTPE10s+jfjooxGfdGBa0Jd19M26G3aMSDiToVXCL17hIKd0jFSGVqW5IZhT36yHg/WQriF2TCZDq75Zd8NySmpCH+2YjEervlmPDvKRV4LqrlWCddfqlVzklOaHYD38fscNckrzQli9ajTAGKkBDXyz7oZGqwTPJ5dGr8wNaynND+Gb9RhAP+2EkIzfWdeITzowLejLOvpm3Q07RiScydKqX7zCQU7pGKkMrUpzQzCnvlkPB+shXUPsmEyGVn2z7obllNSEPtoxGY9WfbMeHeQjrwTVXasE667VK7nIKc0PwXr4/Y4b5JTmhbB61WiAMVIDGvhm3Q2NVgmeTy6NXpkb1lKaH8I36zGAfvFMCJvC4uWbdTfsGJFwJlOrfvFyg5zSMVIZWpXmhmBOfbMeDtZDuobYMZkMrfpm3Q3LKakJfbRjMh6t+mY9OshHXgmqu1YJ1l2rV3KRU5ofgvXw+x03yCnNC2H1qtEAY6QGNPDNuhsarRI8n1wavTI3rKU0P4Rv1mMA/eKZEHyzXh6WUzNxVfcJIZla9YuXG+SUjpHK0Ko0NwRz6pv1cLAe0jXEjslkaNU3625YTklN6KMdk/Fo1Tfr0UE+8kpQ3bVKsO5avZKLnNL8EKyH3++4QU5pXgirV40GGCM1oIFv1t3QaJXg+eTS6JW5YS2l+SF8sx4D6KedEPgbh/Pnzy/7K3aQTyM++mjEJx2YFvRlHX2z7oYdIxLOZGnVL17hIKd0jFSGVqW5IZhT36yHg/WQriF2TCZDq75Zd8NySmpCH+2YjEervlmPDvKRV4LqrlWCddfqlVzklOaHYD38fscNckrzQli9ajTAGKkBDXyz7oZGqwTPJ5dGr8wNaynND+Gb9RhAP82EwNimTJmCtLQ0cZzk04iPPhrxSQemBX1ZR9+su2HHiIQzGVol/OIVDnJKx0hlaFWaG4I59c16OFgP6Rpix2QytOqbdTcsp6Qm9NGOyXi06pv16CAfeSWo7lolWHetXslFTml+CNbD73fcIKc0L4TVq0YDjJEa0MA3625otErwfHJp9MrcsJbS/BC+WY8B9NNMCIzN/866G5ZTM3FV9wkhGVol/OIVDnJKx0hlaFWaG4I59c16OFgP6Rpix2QytOqbdTcsp6Qm9NGOyXi06pv16CAfeSWo7lolWHetXslFTml+CNbD73fcIKc0L4TVq0YDjJEa0MA3625otErwfHJp9MrcsJbS/BC+WY8B9NNMCIzNN+tuWE7NxFXdJ4RkaJXwi1c4yCkdI5WhVWluCObUN+vhYD2ka4gdk8nQqm/W3bCckprQRzsm49Gqb9ajg3zklaC6a5Vg3bV6JRc5pfkhWA+/33GDnNK8EFavGg0wRmpAA9+su6HRKsHzyaXRK3PDWkrzQ8TVrJNQI1oiJydnHbEETJRWtBSEJkksipZz+vTpmDRpUtlfsYN8UjEwNulEYME6anJDsI7Z2dllf8UOrXaoAc2gJrSczCsXac1Eq+FMhlb5M4MbbhZjATk1E1c8emWMWg0wxqysrLK/YodmjGwKWiW0eo2Hk3NOIteQZGmV41IKLWc8Y1IzPixYR+4JpNBoRzsm49FqtP3OjBkz8MADD+D6668v98KMVquEdkzGs4awKdD8VC35qtJ+J1FaJbR6JbScrIXf77hBTqlWiXj0qp3PCb/fcUOrVUKrV+ZGq1fud/gdaETK6tWrITE7MbuOVWR89XX27NnBgHEdDzNy8tVb17FoRh4uhPR3HY9m9NNw0mbOnBm8cu46Fs3IR17XsTBjbPThwHQdDzOezzpqckNf1pGv3rmOh5nllNaffoxREye5yCn1o7Ees2bNUtVEypksrXLCmzt3rvNYNLP1cB2LZlavUg3QGKMmPzTGyFhdx6KZdIxUhlY1uSFforRKs3Fq6mE5XccqMs45nHuk10tO6RixY7KqaFXLSR+NXnm+dHxYY05ZR+4JXMfDzHJKamK1qomRsWm1avc7G3JyA8Y77+666y5cddVVwbjlY/Y4OTXzudWrph7003DS+A7XvHnznMeiGfnI6zoWZsnQKn0TpVUa/RijJk5ykVPqR2M9/H7HbbYermPRzOpVqgEaY9Tkh1aV9jv/da3SbJyaetBHq1e73+H/p8yZMwexGgVARyaJ/+86J8x4Pl9NzsjICJ7DdY7LLCdNymmvVcJHi4eT50+bNi1o1l3Hw0zLyfMZo+tYNCOHzY00RhrryHpKfC2n61hFRr94fDUx8kUXxinhJY+tiYTT+vBf1/Ews3yaOvJ8apVfiOg6HmbxcNIn0XHSGCNjlfjyXHutEj/60FzHKrJ4/BKlVWv009ZRw8nz7RriOh5mllNaR3ud2hilfNYSqVWajdN1LJrFy5nINYQ+Uj9y2dxI4+P5YVrlOyX9+/fHzTffjEsuuQSpqanBpsz6kVObU1sP1/Ewi4eT5ydyDeH5mvqTw+ZGGiMtkVql0S8eX02Mfr/jtng46ZPoOGlVab+jiS+RWrVGP20dNZw8P3INSeFb+xLjLQR8FZi3hLiORzO+OsBXYXlLgOt4mPF+f96CJOXktfLzCfzXdTya0Y+crmMVGV9F4eLrOhbNyEde17EwszFKc8pcso6a3JCLdeSrTa7jYWY5NddKDdCkGiCXVq/MK3+CT1MTKWeytMpXGbl5dB2LZuSU5oWmjZO5ZIzUgOt4RcYYOS5dx8KMnNIxQp94tSodHzTmNFFapfEaNXWkaTlpnHMStYbwOpOlVY5L17Ewi4fTxinNKTml48MauVhH7glcx8PMckquledqx2Q8Wg3b7/C2SG7A7rvvPlx77bXBXoGP2eMardK0eqXRj5yuYxUZb7ndFPY7idAqjX5avZJLq1fWw+933EZOaV5o2jiZS8ZIDbiOV2RVab8j9aMxp1Vlv8PcsJaaOLnf4R0S/H/xZ9bpRHINmCR+9kd63z+DZJKksJ8V4DVLQT8NJ8HbHjSfiyEfeSVgbPSR5pTn24lACvqyjtIvXLGcms+3UAM0KchFTml+COaVA0VTEylnMrWq+XIgckrzQli9ajTAGDUaIBgjb7uSQjNG4tWqJjfMaaK0SvB8cmn0ajk14JyTqDXEjslkaJXjUgotpx2TGg1oxgdBX9aRewIJLKekJvTRjsl4tBptv8N3vfiZdX7BHBuISGi0Sli9aupBPw0nwdtDN4X9TiK0aqHVK7nIKc0PwXr4/Y4b5JTmhbB61WiAMWo0QFSl/Y5Gq8xpVdnvMDdavXK/wxdeCP9t8CGgHzml4DXytgcuxtLrJZ+0qFYI0pzyfNZRO8hYR/9t8G7YMSLhTIZWCW60+K6IFOSU5oWwetVogDFKJ2cLxihtgMgpHSOVoVVpbgjmNFFaJXg+uTR6tZzS/BD+2+DdiIfTjkmNBqTjw4K+rGMivmGbPtoxGY9Wo+13/LfB+2+DDwPrrtUrucgpzQ/Bevj9jhvklOaFsHrVaIAxUgMaVKX9jkarzGlV2e8wN6ylND9EXN8Gb4PVEG8KzTpj4zfBjx8/Xhwn+TTio49GfNKBaUFf1tE3627YMSLhTIZWCb94hYOc0jFSGVqV5oZgTn2zHg7WQ7qG2DGZDK36Zt0NyympCX20YzIerfpmPTrIR14JqrtWCdZdq1dykVOaH4L18PsdN8gpzQth9arRAGOkBjTwzbobGq0SPJ9cGr0yN6ylND+Eb9ZjAP00EwJjY7POL42Rxkk+jfjooxGfdGBa0Jd19M26G3aMSDiToVXCL17hIKd0jFSGVqW5IZhT36yHg/WQriF2TCZDq75Zd8NySmpCH+2YjEervlmPDvKRV4LqrlWCddfqlVzklOaHYD38fscNckrzQli9ajTAGKkBDXyz7oZGqwTPJ5dGr8wNaynND+Gb9RhAP82EwNjS09MxduxYcZzk04iPPhrxSQemBX1ZR9+su2HHiIQzGVol/OIVDnJKx0hlaFWaG4I59c16OFgP6Rpix2QytOqbdTcsp6Qm9NGOyXi06pv16CAfeSWo7lolWHetXslFTml+CNbD73fcIKc0L4TVq0YDjJEa0MA3625otErwfHJp9MrcsJbS/BC+WY8B9NNMCIxt+vTpwbvr0jjJpxEffTTikw5MC/qyjr5Zd8OOEQlnMrRK+MUrHOSUjpHK0Ko0NwRz6pv1cLAe0jXEjslkaNU3625YTklN6KMdk/Fo1Tfr0UE+8kpQ3bVKsO5avZKLnNL8EKyH3++4QU5pXgirV40GGCM1oIFv1t3QaJXg+eTS6JW5YS2l+SF8sx4D6BfPhLApLF6+WXfDjhEJZzK16hcvN8gpHSOVoVVpbgjm1Dfr4WA9pGuIHZPJ0Kpv1t2wnJKa0Ec7JuPRqm/Wo4N85JWgumuVYN21eiUXOaX5IVgPv99xg5zSvBBWrxoNMEZqQAPfrLuh0SrB88ml0Stzw1pK80P4Zj0G0E87IXCQbLgAxwLyacRHH434pAPTgr6so2/W3bBjRMKZLK36xSsc5JSOkcrQqjQ3BHPqm/VwsB7SNcSOyWRo1TfrblhOSU3oox2T8WjVN+vRQT7ySlDdtUqw7lq9kouc0vwQrIff77hBTmleCKtXjQYYIzWggW/W3dBoleD55NLolblhLaX5IXyzHgPoF8+E4N9ZLw/LqZm4qvuEkEyt+sXLDXJKx0hlaFWaG4I59c16OFgP6Rpix2QytOqbdTcsp6Qm9NGOyXi06pv16CAfeSWo7lolWHetXslFTml+CNbD73fcIKc0L4TVq0YDjJEa0MA3625otErwfHJp9MrcsJbS/BC+WY8B9NNOCFx8bYIlIJ9GfPTRiE86MC3oyzr6Zt0NO0YknMnSql+8wkFO6RipDK1Kc0Mwp75ZDwfrIV1D7JhMhlZ9s+6G5ZTUhD7aMRmPVn2zHh3kI68E1V2rBOuu1Su5yCnND8F6+P2OG+SU5oWwetVogDFSAxr4Zt0NjVYJnk8ujV6ZG9ZSmh+iUpp1DbKzs4NJT3rRNlgpkjUhzJw5E1OmTCn7K3aQTyM++khzyvOlA9OCvqyjtFm3nNKJi7ATghR2QpDmhyAfJwQprx0jEs5kabWqLF4EY9RogNAsXoRmjMSrVe34SJRWCZ6v1avl1MA2QNLrZV6kY8SOyWRoVdqsE1pOOyY1GtCMD4K+rCP3BBJYTklN6MO8aHOj1Wq0/c60adPWNevLli0re7QUGq0SVq+aetBPw0kko1l35TQarG7+61q10OqVXOSU5odgXv1+xw1y0qSwetVoQDufE1Vpv6PRKvmqyn6H16jVK/c765p1kkuMF8xgeQGu42HGwmRlZWH+/Pnrgo7VGKiGkzx2QXAdj2aW03UsmpErLS0NY8aMEfOSj7yuY2FmY5TmhueTT5Mb+rCOq1atCurqOsdlWk76MUZNnOTSaIdxcXGeN29e8K/rnDDTcNKH8UlzQ6Mf+VzHohlj5EaRk4HreDSz9XAdi2baOK12NJw0xshYN7Ze6WNzI9UceaR8tA21KonRckqv1cYpvVaalpNxcc5J1BpCDk2M5CAXfV3HKzJqle+2arSq4bRxSuthOaX5odGHdeSeoCqMSakfYwrb7xD8tZj77rsP11577brNmD3O69Rwkoe+ktxYs5yuY9GMcVKrmZmZzuPRjHzkdR0LMxujNDc8X6oba/RJlFZp9GOMmjjJpdEO42JjUN33O/auV9fxaGbr4ToWzbRxWu1oOGlVab8j9WNMVWm/Qz9tnNzv8EUJ/p3CJ5FaTk6O8/Foxgvlq1o2wTZpsZqGkxaPn9SXMTG2CRMmBL+zLo1TwxmPabhsjKwj68m6us4Ls0TGZ03DybhWr16NuXPnBncQJEKv2tzQTxsj3xHhuwaa+OK5XtfjFZnGz06wnPAYq0av2uvVmIYrUqv8N5FjUuOrzSnj4rt4nHv49399TLoer8gYE8cj3xlJZB21puFkjMlaQ+zGSWIaPsbE2Njk8f8JGyfBF/TvvfdeXHPNNUEeCOvHd3G4OYt8vlhNmxv6aeOkVhO9hmhMw5VMrWpNW8dNYb+TDK0m0s/Ob36/E26JjM+aNs7I/U4K78WXmE0Mu37X8TAj7OcNuRBxQXKd5zI7sKSc5KF4ec2u49GMfjTXsTBjTLzGyZMnBw07/18Sp4aTsTE/jNV1PMx4bVYQruNhZjcSrCMHCuE6z2V2AyLl5LUyRppGA+SU5oegHyc91oRwnecyO0YknDyXPInSKo3gZMAFTKJTmpaT8dFPWg+rV2rAdTzMGBeN7/xws0W4znOZhjPZWuW/hOs8l2m0SouM03U8mtGHnNL8EJxzOPfQV6JZDWc8WqWfJjeMieOR45JwneMycjI+DSfjpJ92TErnLMZILtbRfpTKdZ7L6Cfl5HUyPm1utFplbNxosZZ27rHIyMhYdxs86x0J21C4njeaMTfUnbQeNPrRXMeiGZHINSSZWq0K+x2rV2l+CPrFs9+RXOumoFUa46OfVq/SOcvG5fc7btOODxunRq/0I6c0P4Td7/Bv/wVzIaAfOTXgKz4zZswo+yt2kI+8EjA2+khzyvOtaKWgb+RGK1ZYTtZFAtadGqBpNEBOaX4I5pUTgqYmUs5kaZUT+oabxVhATmleCKtXjQYYIzWgAWP0XzBXHhqtEjyfXBq9Wk5pfgj7gq/0elkP6Rpix2QytLphc1cR4uG0Y1KjAen4sKAv65iIL+2ij3ZMxqNV+s2aNQsDBgxAy5YtMWzYsHXx8vEHHngAN9xwQ3CrI0FtDxkyBB988AH++uuv4DEJrF419aCfdg1hA+S/YK48NFolqDWtXslFTml+CNbD73fcIKc0L4TVq0YD2vmcqEr7HY1WmdOqst9hblhLaX4Irgn2Y1K+WQ8B/bQTgn31TgryacRHH434pAPTgr6+WQ+HHSMSzmRp1S9e4SCndIxUhlaluSGYU9+sh4P1kK4hdkwmQ6u+WXfDckpqQh/tmIxHq7x9mnVkY37llVfioIMOwuOPPx68q84vmHvwwQdx4403Bo0u78Rr2LAh9ttvP9x8882YM2dO2bPEDqtXTT3op11DfLPuhkarBLWm1Su5yCnND8F6+P2OG+SU5oWwetVoQDufE1Vpv6PRKnPqm/UKYIPVEG8qzToHyYY/xxILyKcRH3004pMOTAv6+mY9HHaMSDiTpVW/eIWDnNIxUhlaleaGYE59sx4O1kO6htgxmQyt+mbdDcspqQl9tGMyHq0yNjayzO0nn3yC7bffHrVq1ULdunVxyy23BA08///222/Hqaeeim233TY43qJFi7JnkMHqVVMP+mnXEN+su6HRKkGtafVKLnJK80OwHn6/4wY5pXkhrF41GtDO54Rv1t3QaJXg+eTS6JW5YS2l+SF8sx4D6KedEHhb24Y/xxILyKcRH3004pMOTAv6+mY9HHaMSDiTpVW/eIWDnNIxUhlaleaGYE59sx4O1kO6htgxmQyt+mbdDcspqQl9tGMyHq0yNrvRYjN77rnnIiUlJbCtttoK++yzT9DA16hRY93jfKd9+vTpKj6rV0096KddQ3yz7oZGqwRrr9UrucgpzQ/Bevj9jhvklOaFsHrVaEA7nxO+WXdDo1WC55NLo1fmhrWU5ofwzXoMoJ9mQuA18jPr/K116fWSTyM++mjEJx2YFvT1zXo47BiRcCZDq4RfvMJBTukYqQytSnNDMKe+WQ8H6yFdQ+yYTIZWfbPuhuWU1IQ+2jEZj1btfsfi/fffxx577LGuMbe22WabBf/uvPPO+Oqrr4JzpeOYsHrV1IN+2jXEN+tuaLRKUGtavZKLnNL8EKyH3++4QU5pXgirV40GtPM54Zt1NzRaJXg+uTR6ZW5YS2l+CN+sxwD6aSYExpaenh78dJs0TvJpxEcfjfikA9OCvqyjb9bdsGNEwpkMrRJ+8QoHOaVjpDK0Ks0NwZz6Zj0crId0DbFjMhla9c26G5ZTUhP6aMdkPFq1+x3ry8+uX3LJJeWadWt8V33KlCnBuVKtElavmnrQj5wa+GbdDY1WCdZdq1dykVOaH4L18PsdN8gpzQth9arRAGPUzOeEb9bd0GiV4Pnk0uiVuWEtpfkhfLMeA+inmRAY26RJk5CamiqOk3wa8dFHIz7pwLSgL+vom3U37BiRcCZDq4RfvMJBTukYqQytSnNDMKe+WQ8H6yFdQ+yYTIZWfbPuhuWU1IQ+2jEZj1Zd+5233347uPV9w0Z9m222Qbt27YJzGJtUq4TVq6Ye9COnBr5Zd8NyauYPrV7JRU5pfgjWw+933CCnNC+E1atGA4xRM58Tvll3Q6NVgueTS6NX5oa1lOaH8M16DKCfZkJgbL5Zd8Nyaiau6j4hJEOrhF+8wkFO6RipDK1Kc0Mwp75ZDwfrIV1D7JhMhlZ9s+6G5ZTUhD7aMRmPVl37nYkTJ+KKK64o16xffvnlwb6B0GiVsHrV1IN+5NTAN+tuWE7N/KHVK7nIKc0PwXr4/Y4b5JTmhbB61WiAMVIDGvhm3Q2NVgmeTy6NXpkb1lKaH8I36zGAfpoJgdfIn2Xhwiu9XvJpxEcfjfikA9OCvqyjb9bdsGNEwpkMrRJ+8QoHOaVjpDK0Ks0NwZz6Zj0crId0DbFjMhla9c26G5ZTUhP6aMdkPFp17Xf4/++88w4233zzdY06vwW+Q4cO62LSaJWwetXUg37k1MA3625YTs38odUrucgpzQ/Bevj9jhvklOaFsHrVaIAxUgMa+GbdDY1WCZ5PLo1emRvWUpofwjfrMYB+2gmBCxfjlIJ8GvHRRyM+6cC0oC/j8826G3aMSDiTpVW/eIWDnNIxUhlaleaGYE59sx4O1kO6htgxmQyt+mbdDcspqQl9tGMyHq2G7Xf4fTb2s+ts2i+44ALMmDGj7Khv1qOhumuVYN21eiUXOaX5IVgPv99xg5zSvBBWrxoNMEZqQAPfrLuh0SrB88ml0Stzw1pK80P4Zj0G0E87IfifbnPDcmomruo+ISRLq37xCgc5pWOkMrQqzQ3BnPpmPRysh3QNsWMyGVr1zbobllNSE/pox2Q8Wg3b7+Sb6/js88+DZn277bfHTz/9FDxmodEqYfWqqQf9yKmBb9bdsJya+UOrV3KRU5ofgvXw+x03yCnNC2H1qtEAY6QGNPDNuhsarRI8n1wavTI3rKU0P8R6zToTJjFeMIN1HYtmvNDVq1cHCebFM3jXeS4jJ4N1HYtmdqCQz3U8msUTJxcvDhZJjDTykdd1LMx4Po2xuo5HM/JJc8OY6MM6ZmVlBfG6znOZHSiaa7Vxuo5FM16rhpNx5eTkYP78+YG/JE7L6ToWZsnSKl9U4mQg1SrHo2ZMMj6tXskn1QDjojFGjktJHWnMq5ST50t9aFY3Ug0wJvpRq9TsxtYqzepVEyd9tHrlnMO5h/wSzZJTqlcbo0arGt3QGFNmZmYwLqVa1YwPGn3iiVOqV8ZIH+qVewJJnLxGKaetozY3Wq2u2+9wDjKbLW7X7ZZ9+PTpOO3yy3HWVVdhTtmL3vY4t5+5ilrYOKX1oMUT59KlSwPNSsYjTTNGeD4t0VplHbVa1VyrjdN1LJrxWjWcjGtT2e9otKqdWxkf/TQa0O53+G9V2u/817VKs3rVxEkf6d6Dxrjsfod/p/BJJMZAaa5j0YzB8pWeefPmBYm2AcRi5KOP61hFprlWmjZOioEDhb+1bovrOs9lGk7tdfK6tH6sBevIVylZV9d5YabhpGnjpGn8GBdf1WId+a8mTkntaYnODWOyH9nQXGs81+t6vCKj7qS+jIvGGBmrpo5STo2PNY1fMrRK08ap9WNcnHPsIi25Zp6vWUM010nTxhiPVjXjgxbPtWr97BrCPYFGr67Ho5k2Rq1fodk0rzD/zjXjMddstAozMlD4xx8o/PZb4KuvsOKNN9CtQQO0PfNMrGnVCujQAQV//omCvn2RN2lSKadp2gMzm7a8GLWuuVaaOk5TO74xkag1RHudlaHV6r7f4YsRfr/jNi0nTeun3e/wX7/fCTdySutP08ZJH83eg3HZ/Q7/TmFzKTE6kdh1LJqRmLeHW2L+7TrPZTyfAbuORTP6WXMdj2ZaTtr06dODL5ijICRxWiG4joWZjY9cruNhxvOtgFzHw8wODNbRbrRc57lMy0mzcbqORTPLKc0P48rOzg4Waf4r1auU08aniZE+Gq0yJr4rwheXJPHR4rlWra9mfNAYG2NkrNI4NXrVxldVtErj+do4LafrWDRjXJxz+Eoz+aVxSseIjU8TYzK0quW0MWo0oBkfjIs+XEO4J5DEaTkl18pzbYyu49GMPiKt8p1Y02DzZsnVZg+wpH17FLz3Hkruugsl55yDkpNPRskJJwDHHIOSY4/FmuOPR/GJJwJnnIHi+vVRfMUVKLrjDhS89RYKevRAwdSpKMjKCp4zsCi5sjFq49SuIWwKNGuIRq82vqqkVSknzcbpOhbNLKc0P4yLt/n7/Y7b4rlWra9mfNi4GCPvIpDGqdGrNr54tFrV9jtavdr9Dv/2n1kPgS2OFIzN/3SbG5aTdZGAdbcC1miAnNL8EMyrbQwksGNEwpkMrRL+M1zhIKd0jFSGVqW5IZjTRGmV4Pnk0ujVckrzQ3DOSdQaYsdkMrTKcSlBPJx2TGo0IB0fFvRlHavlZ9bNRhnduqHo0UeRf9JJwKGHApdeCrz2GtCmDfDLL0D37sDgwcCAAcBvvwGtWwNNm6Lk6adR3KABSg44ADCNPEzjjg8+4LfSUfxlBG5YvWrqQT/tGuI/s+6GRqsEtabVK7nIKc0PwXr4/Y4b5JTmhbB61WhAO58TVWm/o9Eqc1pV9jvMDWspzQ/B/Q5feCF8sx4C+mkmBMbG31IdN26cOE7yacRHH434pAPTgr6+WQ+HHSMSzmRolfCLVzjIKR0jlaFVaW4I5tQ36+FgPaRriB2TydCqb9bdsJySmtBHOyZFWs3JAQYOBB54ADjiCOSfdx5Wm0a7ZMIEmMmn9Djrs+G182+OW8NjEoKCZcuQz+dp1AioUwfYfffgnXi0aAHMmVPmVB5Wr5p60E+7hvhm3Q2NVglqTatXcpFTmh+C9fD7HTfIKc0LYfWq0YB2Pid8s+6GRqsEzyeXRq/MDWspzQ/hm/UYQD/NhMDY/DvrblhOzcRV3SeEZGiV8ItXOMgpHSOVoVVpbgjm1Dfr4WA9pGuIHZPJ0Kpv1t2wnJKa0Ec7JmPWKpvVxo2BAw8ETjsteAc9Oy0NmbNmBV8uJwErmGd4S6gBs5cI3lk/9lhgp52Am28Gxo0rPXEDWL1q6kE/7Rrim3U3NFolqDWtXslFTml+CNbD73fcIKc0L4TVq0YD2vmc8M26GxqtEjyfXBq9MjespTQ/hG/WYwD9NBMCr5GfpZg5c6b4esmnER99NOKTDkwL+vpmPRx2jEg4k6FVwi9e4SCndIxUhlaluSGYU9+sh4P1kK4hdkwmQ6u+WXfDckpqQh/tmIxJq6NGAdddB/zvf8BTTwHDh3NAgpEtWLbM3ayzvnPnApmZZQ/8i6BZN/GtY8zOBkaPBho2BHbdFTjnHKBHj7KD/8LqVVMP+mnXEN+su6HRKkGtafVKLnJK80OwHn6/4wY5pXkhrF41GtDO54Rv1t3QaJXg+eTS6JW5YS2l+SF8sx4D6KedELh4aSYE8mnERx+N+KQD04K+vlkPhx0jEs5kadUvXuEgp3SMVIZWpbkhmFPfrIeD9ZCuIXZMJkOrvll3w3JKakIf7ZiMqlXGzc+b16sX3PaOjz8GTHNuscbwLcjKQjFjHDIE+Oyz0mb+rrtKm/vLLweuuqr0bz7O29y//x7FpvkP3lkve5514KaN5/Dd+6OPDr5BPhJWr5p60E+7hvhm3Q2NVglqTatXcpFTmh+C9fD7HTfIKc0LYfWq0YB2Pieq0n5Ho1Xm1DfrFcAGqyHeVJp1TgibwuLlm3U37BiRcCZTq37xcoOc0jFSGVqV5oZgTn2zHg7WQ7qG2DGZDK36Zt0NyympCX20YzKqVjt3Lm2aeYv6zz+XPfgvck18WV99BTz+OHDhhcisXRt9UlLwo7EvjLU09n7Z/7c11n3bbTHlkENQxC+ja94cSE8ve6YIsL7t2gH8RvnDDwe6dmXxg0NWr5p60E+7hvhm3Q2NVglqTatXcpFTmh+C9fD7HTfIKc0LYfWq0YB2Pid8s+6GRqsEzyeXRq/MDWspzQ/hm/UYQD/thMCf+ODPJkhBPo346KMRn3RgWtDXN+vhsGNEwpksrfrFKxzklI6RytCqNDcEc+qb9XCwHtI1xI7JZGjVN+tuWE5JTeijHZOhWuU3uZ96KnDkkUDv3mUPRoDf3v7MMyg84ACMNY34d8aeMFbX2G7GtjKWUmY1jO1p7CRjtxljAz+oRg1kXX890L69+zPqvXoB/KZ5fj5+6NDgoSITp3ZM0k+7hvhm3Q2NVglqTatXcpFTmh+C9fD7HTfIKc0LYfWajDXEN+vlodEqwfPJpdErc8NaSvND+GY9BtBPOyFwoPB3OaUgn0Z89NGITzowLejrm/Vw2DEi4UyWVv3iFQ5ySsdIZWhVmhuCOfXNejhYD+kaYsdkMrTqm3U3LKekJvTRjkmnVmfMAC67DNh//9JmOhLMf//+wEUXYaFpun8ydr4x25jHaicY+8TYxK22Aho0AHr25CAvIzFgrfjOPn8W7qabgJkzwYxoxyT9tGuIb9bd0GiVoNa0eiUXOaX5IVgPv99xg5zSvBBWr8lYQ3yzXh4arRI8n1wavTI3rKU0P4Rv1mMA/TQTAmObPHkyxo8fL46TfBrx0UcjPunAtKCvb9bDYceIhDMZWiX84hUOckrHSGVoVZobgjn1zXo4WA/pGmLHZDK06pt1NyynpCb00Y7JclplrE8/DeyzT+m3tEc+H/P3998orlcP6abRftDY1sZczXgsVsvYjcZGbrEFSk4+GejSpfTFAAt+8VyrVsBeewHvvIMicyzf5EVTD9Zfu4b4Zt0NjVYJak2rV3KRU5ofgvXw+x03yCnNC2H1mow1xDfr5aHRKsHzyaXRK3PDWkrzQ/hmPQbQTzMhMDb/O+tuWE7NxFXdJ4RkaJXwi1c4yCkdI5WhVWluCObUN+vhYD2ka4gdk8nQqm/W3bCckprQRzsm12m17G/07QscdRRwzz2lv5seiQEDgtvSh262Ga40TXbNsqY7HuPt8vWMDTUW3HbPz6hHgnMav6yubl0U9egBjv5C5fyhXUN8s+6GRqsENarVK7nIKc0PwXr4/Y4b5JTmhbB6TcYa4pv18tBoleD55NLolblhLaX5IXyzHgPop5kQGJv/nXU3LKdm4qruE0IytEr4xSsc5JSOkcrQqjQ3BHPqm/VwsB7SNcSOyWRo1TfrblhOSU3oox2TgVapG/7B5vy224ATTwS6dw+Or8PUqUD9+hhuGvWryppsV/OttYuMjTbPHXx7PD8PHwm+gHD44Sh+8EEUZGVBXo341hDfrLuh0SpBjWr1Si5ySvNDsB5+v+MGOaV5Iaxek7GG+Ga9PDRaJXg+uTR6ZW5YS2l+iEpp1jWwzbr0om2wUiRjQmBsGRkZSEtLE8dJPo346KMRn3RgWjCuRDbrhJ0QpIhnQiAfJwQprx0jEs5kaJWoKosXwRg1GiA0ixehGSPxalU7PhKlVYLna/VqOTWwzXoi1hA7JpOhVWmzTmg57ZjUaEAzPgi7hiS6WZci0KrhKuFc9/vvwAEHAK+8QiGWnWFg5pXie+7Bgi22wB2mqa6Md9Q3tM2N3W0so1Yt4MknOTGVkRswrkceCd7xL/zpJ9+sO1BVtGqh1Su5yCnND8G8+v2OG+SkSWH1mow1pKrsdzRaJV9V2e/wGrV6Xa9Zt4mO1Uiak5MTXLjreJgxSH5LOr94zYowVuP5TLCU0/pJ+Wj0o7mOVWRz587FzJkznceimYZTmxuezzpqckMf1pGTAevqOsdlWk760Yem0YBWr1yc582bF/zrOifMNJz0YR35r+t4NNPohsYYly5dGkwGruPRTMupjZO51PhZ42aLsW5svdKH59OkmqOPZnxsqFVJjJZTeq3x1EPLybg45yRqDbE+Uq54ckPjeGTzI9VqPPWQ5obG8zV6pdGHdeSe4D8/Js1GqSAzEyWXX47i445DYZ8+4BaxwDRxBWzaTRNfsOOOaGya6R3KmuuNYXzut4xl77svitq1Q4HZQAbXQTPXVHL00Si+5hrkmea5QJBTGutPcx2LZqwdtZqoNYT1qM5apcWtV+Xcysaguu93EqlVmjZO5lLjZ60q7Xekfoypqu136KuJ0+53+HcKn0hiJLUFlRjJSMwE22S5znOZltP62SRLzPpJfRknB0mmWdwlMdI0cdprlF4nTZMbxkQ/1pGvUjJe13kus/FprlUbo5aTcXHx4gsv/Hdjx6m9Tpr1k/oyJi5enNilWiUnzXUsmlVGnK5j0Yyx8VVYxiqpI03DyfM110kfDV+itWqNPlo/crqORTPGxTmHcw+fY2OvIdZHG6PGjzFxPPKdkURolWavVeOr4YxcQ7gnSIRetfHxFvgc0xTnjRiBktq1UfTQQ8jni0WmQaYVpKUhv359DN5iCxwQ0VhvLDvWWHdjuOACFMyZg7ySEuSZTV1+VhaKb7wRxUceifyBA4PH8gR51WqHtdOuIbaWrmNhZuuoudZ4tVrd9zurV6+Oaw1xHQsz7XXSrJ8mRs6r1X2/Q/P7HbdpOWn00fqR03UsmjEuu9/h3ym8xUdifAKS87YA1/EwI/gqCAeKvSXEdZ7LOLA0nOSxQbuORzObME2c3ICwYSdc54SZ5XQdCzPGxvwwVtfxMGNczKk0NwS5WEcOFMJ1nsvsbS98xch1PMzsLSg0jQbIKc0PwVpw0iMv4TrPZXaMSDh5LvkSrVXewmhvC3OdE2aW03UsmjE++knrYfXKWriOh5kFXzzjuCRc57lMM0aSrVX+S7jOc5lGqzQbp0avllOaH4JzDuce+hKu81zGa5Vycp7SapV+Uq3SCI5HLtKE6xyXkZPxaThZD/ppx6RUAwS5WEfuCQjXeS6jHzklawivk/GpcmMsl41wmzbBt66X/PBD6TFes3k+fP89lmy+Oe40DfQ2ZQ31xraHjOXz2+gNd4nRWXAttObNUXzYYSj+7LN/H4uIJZpRrzTXsWhGJHINSaZWq8J+h1zklOaHYC3i2e9IrpXXRz5pPWhWN9LcEJxXq/t+h//6/Y7brFY19WCMGr3STzo+aITd7/Bv/wVzIaCfFYIU9tZiKchHXgkYG32kOeX5rKMmN/SNXLxiheVkXSRg3akBO1AksBOCND8E8xq5eMUKO0YknMnSauTiJQE5pXkhrF41GmCM1IAGjNEuXrGCnNIxUhlaleaGYE4TpVWC55NLo1fLKc0PsWGzHitYD+kaYsdkMrRqm/VYEQ+nHZMaDUjHhwV9WUfbrMcKyympCX20Y5KR5c6ejZInngCOPx4YNar0ADFrFnD//cHPtNWOaKY3tp1uLLVmTZTceCM75bKLMRro0QPFZ56JEnNNUrD+2jXEf8GcGxqtEtSoVq/kIqc0PwTr4fc7bpBTmhfC6jUZa0hV2e9otMqcVpX9DnPDWkrzQ3C/Y3tJ36yHgH6aCYHXOH369OC31qXXSz6N+OijEZ90YFrQ1zfr4bBjRMKZDK0SfvEKBzmlY6QytCrNDcGc+mY9HKyHdA2xYzIZWvXNuhuWU1IT+mjHJCPLmzABuOkm4OGHgblzSw8Qgwcjt149tN1sM2y3QUO9MW1fY58ZKzziCGDevLKLMXo1m7oiXud551EQZY/GBtZfu4b4Zt0NjVYJalSrV3KRU5ofgvXw+x03yCnNC2H1mow1xDfr5aHRKsHzyaXRK3PDWkrzQ/hmPQbQTzMhMDb/021uWE7NxFXdJ4RkaJXwi1c4yCkdI5WhVWluCObUN+vhYD2ka4gdk8nQqm/W3bCckprQRzsmGVneyJHAJZcAH3xQ+rvmFn/8gVl77IEHTeNco6yRToRtYew2Y4W1a6/3M25FJraiZ54BTj4ZWL267NHYwPpr1xDfrLuh0SpBjWr1Si5ySvNDsB5+v+MGOaV5Iaxek7GG+Ga9PDRaJXg+uTR6ZW5YS2l+CN+sxwD6aSYExuabdTcsp2biqu4TQjK0SvjFKxzklI6RytCqNDcEc+qb9XCwHtI1xI7JZGjVN+tuWE5JTeijHZOMLG/QIKBePeCrr4Ds7NIDxE8/Ydzmm+NM0zhvVtZIJ8rImcvPrffsyeIHl8OMFL3xBnDMMaW36AvA+mvXEN+su6HRKkGNavVKLnJK80OwHn6/4wY5pXkhrF41GtDO54Rv1t3QaJXg+eTS6JW5YS2l+SF8sx4D6KeZEBhbeno6xo4dK46TfBrx0UcjPunAtKCvb9bDYceIhDMZWiX84hUOckrHSGVoVZobgjn1zXo4WA/pGmLHZDK06pt1NyynpCb00Y5JRpbXqxdwyCFA27YUUukBok0bjDJN81ERTXSi7GRjy9ms//QTB39wOcxI0bvvBr+3Dt4NIADrr11DfLPuhkarBDWq1Su5yCnND8F6+P2OG+SU5oWwek3GGuKb9fLQaJXg+eTS6JW5YS2l+SF8sx4D6KeZEHiNc+bMCT63Lr1e8mnERx+N+KQD04K+vlkPhx0jEs5kaJXwi1c4yCkdI5WhVWluCObUN+vhYD2ka4gdk8nQqm/W3bCckprQRzsmGVneP/8A++5b2hhH5qh166BZPyKiiU6UsVlftPfewJdfrnu3nxkp+vBD4Oijgb59g8diBeuvXUN8s+6GRqsENarVK7nIKc0PwXr4/Y4b5JTmhbB6TcYa4pv18tBoleD55NLolblhLaX5IXyzHgPop50QVq1ahWXLlpX9FTvIpxEffTTikw5MC/r6Zj0cdoxIOJOlVb94hYOc0jFSGVqV5oZgTn2zHg7WQ7qG2DGZDK36Zt0NyympCX20Y5KR5fXuDRx8cPBOuklU6QHiq68w1jTNJ0U00YmyusZW7rln8PNtpvDB5TAjRe+8Axx5JDBkSPBYrGD9tWuIb9bd0GiVoEa1eiUXOaX5IVgPv99xg5zSvBBWr8lYQ3yzXh4arRI8n1wavTI3rKU0P4Rv1mMA/eKZEOzvrEtAPo346KMRn3RgWtDXN+vhsGNEwplMrfrFyw1ySsdIZWhVmhuCOfXNejhYD+kaYsdkMrTqm3U3LKekJvTRjklGljdwIFCnDtCyJZCVVXqA+OEHjDdN8wXGEv2Z9bOMFey+O/DnnwwwuBxmpOjll0vfWc/ICB6LFay/dg3xzbobGq0S1KhWr+QipzQ/BOvh9ztukFOaF8LqVaMB7XxO+GbdDY1WCZ5PLo1emRvWUpofwjfrMYB+8UwIm8Li5Zt1N+wYkXAmU6t+8XKDnNIxUhlaleaGYE59sx4O1kO6htgxmQyt+mbdDcspqQl9tGOSkeUNHw6cfTbw+utA5IvwHTticq1auNk0zltGNNKJsKuNFe61FzB0aNnFGL2a+IoeeQQ48cT1rzMGsP7aNcQ3625otEpQo1q9kouc0vwQrIff77hBTmleCKvXZKwhvlkvD41WCZ5PLo1emRvWUpofwjfrMYB+2gkhMzMT8+fPL/srdpBPIz76aMQnHZgW9PXNejjsGJFwJkurfvEKBzmlY6QytCrNDcGc+mY9HKyHdA2xYzIZWvXNuhuWU1IT+mjHJCPL48+jXXkl8NRTMAt76QGif38srlMHTU3jvHVEI72xbXtjLxjLO+wwYPbssosxel22DEW33gqceSbFW/ZobGD9tWuIb9bd0GiVoEa1eiUXOaX5IVgPv99xg5zSvBBWr8lYQ3yzXh4arRI8n1wavTI3rKU0P4Rv1mMA/TQTAq9x6tSpwTfCS6+XfBrx0UcjPunAtKCvb9bDYceIhDMZWiX84hUOckrHSGVoVZobgjn1zXo4WA/pGmLHZDK06pt1NyynpCb00Y5JRpY3bRrQsCFw7bXA5MmlB4g5c4J3sgdsvjl2imimN7YdY+zPbbdF4c03r/e778WpqSi66iqUsGEXgvXXriG+WXdDo1WCGtXqlVzklOaHYD38fscNckrzQli9JmMN8c16eWi0SvB8cmn0ytywltL8EHE16/aiNcjJyVlHLAGLqhEtk8PkasRAP+1A4e+sjxs3ruyv2EE+qRgYm0ZABOuoyQ3BOmZH/uZsjCCnRrTUgHTCI8il1SvzykVaUxMpZ7K0yi9D1Gy0yCnNC2H1qtEAY9RogGCMWZGfN40RmjESr1Y1uWFOE6VVC3Jp9BoPJ+ecRK0hdkwmQ6scl1JoOe2Y1EAzPixYR+4JpNCMEe2YZGT5nDe+/rr0i9siv2Wdz9ehA+bWqIELTQOdqFvhbzCWdeCBQKdOLF7ZxRi0bYvic88F+I3wQrD+2jWEDZDmO3rIp5mvqrtWCa1eyaWdW1kPv99xg5wa3Vm9JmMNqSr7HQ2Y06qy32FutHrlfod3ahMpfAUmVqMAOGnxFQ3X8WhG33nz5gU/aUZy1zkus5wsjOt4NLN+/Nd1PMwiOfn/rnPCjH5jxozBiBEjRLzksdcq4bTXKcmpNdZRykcjF+vIekp9yam5VsZIcx2LZuTS6JVGv2nTpol4mQ/mVMpp68h/XcfDzPLRV1oLnj979mzMmDHDeTzMLCdNyqmNk2b9pJw0xshYpb6aMcLrpLmORTOrVe34SJRWabxGWw/X8TCLh5O+iVxDrI80Rpr1k+jGmlarWk4bp0Z3mvFBI1ei1hCrVZrreJjxuhaZfxcsX45lPXuiYN99kd2sGZbOnYtM81jmypVYOngwVpx2Gn7fckvsvkFTvTHsAGPfGis45xwsychAJt8pZP5ME5L30EPIP/54LOnWrfSxGPMaxFmmAWkteD61OnPmTOfxMKOfRq/VXavWNHqlkUszt9Lo5/c75c1y0qSc2jhp1k/KSatK+x3XsYoskVql8Vo1dbScmvzQ1+53+HeKTXQsZgPlE9gLiNV4Pn9/nLeI8zlc57jMcvIz4FJO60dzHQ+zeDhp48ePx9ixY53Hwow85COvhFMTnzXWUcpnjXVkPaW+ltN1LJrFG6fr8YqMfoxTwst8MD4pp9WbNEbLRz9pLXg+N1mcDFzHw8xy0qScNkb6uo6HGXmsn5STxhhnzZol8uW5mjFiY3Qdq8i0WiVforRqTRNnJKckpzSeb9cQ1/Ews5y8Vgmn9eG/ruNhRg7rJ42RRq1yXEp84+GkH811rCLTjA8afeJZQ1yPRzNNjLwuXuc80xAvmTwZBVdcgbX162Nx375YaB5buHQpFpsNcf7XX2NNrVq4wzTRNcqa6o1hmxt73FjmPvtgzaefItNs4HgNC/nvqFHIPeMM5F1yCRaZeW4hN5cx5tXGyfxIa8HztWsI+aTa0dTRmlartERqlRZvnK7HKzL6+f1OebOcGu3YGOnrOh5m5LF+Uk5add/vJFKr1jRxWk76SXJK4/mcc+yLEqrb4LWfF9HewsjbDzS3LvA2C95+oLl1gX7a2yWY2Llz55b9FTvIJ71dgrFpb7FgHTW5IVhH6We4CO1nN+K51UarV3urjaYmUs5kaZWfa+IreFKQU6M7q1eNBhij9LYnC8aoubVYM0bi1aomN8xporRqQS6NXuPh5JyTqDXEjslkaFX6eUNCy2nHpAaa8WHBOmo+SqUZI9oxGWiVXNROx46lP4vWujUPlJ1hYOIouvhiDDONNH9SzdVoV4ada2zIllsCt9++/k/IEe++C9Srh6I2bYKfcJOC9deuIdrb4Mmnma+qu1aJeNcQDVgPv99xg5wa3Vm9JmMNqSr7HQ2Yl6qy39HsPSy43+G7+oT/grkQ0E9bVC5emgmBfNKiWiFIc8rzpV8mYUFf1tF/wZwbdoxIOJOpVd5iIwU5pXkhrF41GmCM0snZgjH6L5grD41WCZ5PLo1eLac0P4T/gjk34uG0Y1KjAen4sKAv65iIL+2ij3ZMBlqlbvgHG+TLLy+1CROC4wH4nP37A8ccg7amoT4qosFc+8qYAABFQElEQVSuLPufsb+M4ZRTUPL332XEZZgzJ/gG+OI77kCB2XfIqxHfGuK/YM4NjVYJalSrV3KRU5ofgvXw+x03yCnNC2H1mow1xH/BXHlotErwfHJp9MrcsJbS/BBxfcGcDVZDvKk06xwkmleayacRH3004pMOTAv6+mY9HHaMSDiTpVW/eIWDnNIxUhlaleaGYE59sx4O1kO6htgxmQyt+mbdDcspqQl9tGNynVbL/uYXygVfNPfaaxRI2YMGzHvr1ig46CB8aZrqg8ua7HiNt74fZOwnY/l77w188QUvqozUgOO9SZOgiS/66Sdw9Bcq5w/tGuKbdTc0WiWoUa1eyUVOaX4I1sPvd9wgpzQvhNVrMtYQ36yXh0arBM8nl0avzA1rKc0P4Zv1GEC/eCYE/856eVhOzcRV3SeEZGrVL15ukFM6RipDq9LcEMypb9bDwXpI1xA7JpOhVd+su2E5JTWhj3ZMltMqb4W+/nrgiCOAv/4qfcyC62Hz5li7zz742TTXdYy5GvBYjd8uf7mx7sZyd90VeOedUo5I9OkD8PfWH3sMRUuX+mY9BFVFqwS1ptUrucgpzQ/Bevj9jhvklOaFsHpNxhrim/Xy0GiV4Pnk0uiVuWEtpfkhfLMeA+inmRB4jfxSAH7Bg/R6yacRH3004pMOTAv6+mY9HHaMSDiToVXCL17hIKd0jFSGVqW5IZhT36yHg/WQriF2TCZDq75Zd8NySmpCH+2YdGqVP9923HHA2WcDqallD5aBd9S1bYv8E0/EYNNkNzbG30V3NeNhtoWx+sY+NpZurPjkk4PnNKIoIylDejrAn2ozXLwNnxnJNzFq6sH6a9cQ36y7odEqQa1p9UouckrzQ7Aefr/jBjmleSGsXpOxhvhmvTw0WiV4Prk0emVuWEtpfgjfrMcA+mkmBMY2efLk4BvhpXGSTyM++mjEJx2YFvT1zXo47BiRcCZDq4RfvMJBTukYqQytSnNDMKe+WQ8H6yFdQ+yYTIZWfbPuhuWU1IQ+2jHp1Cq5v/wSOOAA4Kabgi+YWw883rs3cOutWLL11uhlGu73jN1pjI37jsY2M2abc/7/LsbqGnvYGG+j55fVLeft9k2bBo14uevmF9iSu3Zt4McfYS4SReYc7Zikn3YN8c26GxqtEqy1Vq/kIqc0PwTr4fc7bpBTmhfC6lWjAe18Tvhm3Q2NVgmeTy6NXpkb1lKaH8I36zGAfpoJgbFNmjQJqamp4jjJpxEffTTikw5MC/r6Zj0cdoxIOJOhVcIvXuEgp3SMVIZWpbkhmFPfrIeD9ZCuIXZMJkOrvll3w3JKakIf7ZgM1Sq/bI6fW+ft6ffdB0yZUnbgX+SZx3JefLH0HfjddsNM04B3MfaZsRbGXjHGd97fMfaFsZ7GFhnDUUcBjzyCvE6d3Nc7eTJw223AzjsDLVoEjTph9aqpB/20a4hv1t3QaJVgzbV6JRc5pfkhWA+/33GDnNK8EFavGg1o53PCN+tuaLRK8HxyafTK3LCW0vwQvlmPAfTTTAiMLT09PfiddWmc5NOIjz4a8UkHpgV9fbMeDjtGJJzJ0CrhF69wkFM6RipDq9LcEMypb9bDwXpI1xA7JpOhVd+su2E5JTWhj3ZMRtXq/PnAk08Ce+4J3HADMGRI2YFSrDU+C0wtiwcPBt5/v7TBPv984LTTgNNPL7Wzzip97OKLgSuvBO6+G/kdOiA/J6fsWTbA0KGl5+2+O9Co0Xo/4Wb1qqkH/bRriG/W3dBolaDWtHolFzml+SFYD7/fcYOc0rwQVq8aDWjnc8I3625otErwfHJp9MrcsJbS/BC+WY8B9NNMCIyNP2I/ceJEcZzk04iPPhrxSQemBX19sx4OO0YknMnQKuEXr3CQUzpGKkOr0twQzKlv1sPBekjXEDsmk6FV36y7YTklNaGPdkxWqFXOKW+/Dfzvf8AZZwC//gosWxYcWmuucaFpYtfLKm9fHzcOGD++9Off+C75vHmciEkWnMIK5pn/X4+Rv7XLb6Inx/77l/6uurmuSFi9aupBP+0a4pt1NzRaJag1rV7JRU5pfgjWw+933CCnNC+E1atGA9r5nPDNuhsarRI8n1wavTI3rKU0P4Rv1mMA/bQTAhcvzYRAPo346KMRn3RgWtDXN+vhsGNEwpksrfrFKxzklI6RytCqNDcEc+qb9XCwHtI1xI7JZGjVN+tuWE5JTeijHZMxaZXvgv/8c/A769h3X+C554JGfK3ZB5Rr1mNA0KwbCzipg5EjgaefBg48EKhbF+jYkeIMzo2E1aumHvTTriG+WXdDo1WCddfqlVzklOaHYD38fscNckrzQli9ajSgnc+JqrTf0WiVOfXNegWwwWqIN5VmnYPE/856eVhOzcRV3SeEZGnVL17hIKd0jFSGVqW5IZhT36yHg/WQriF2TCZDq75Zd8NySmpCH+2YjFmrzPuoUcDDDwP77QeccAJyXn0VSwcNQjHnZsH1FhjOPLN/KOGX1DVsCBx6aOk3vvP31PlufEi+rV419aCfdg3xzbobGq0S1JpWr+QipzQ/BOvh9ztukFOaF8LqVaMB7XxO+GbdDY1WCZ5PLo1emRvWUpofwjfrMYB+8UwIm8Li5Zt1N+wYkXAmU6t+8XKDnNIxUhlaleaGYE59sx4O1kO6htgxmQyt+mbdDcspqQl9tGNSrFVurH7/HbjuOpTsvTeK2Ghfc03pb6T37w9Mm1Z6Szt/r53g8/KFfd4Obxp7/Pknis25RfwMO99JZ5PeuDHAz71XMH9ZvWrqQT/tGuKbdTc0WiWoNa1eyUVOaX4I1sPvd9wgpzQvhNWrRgPa+ZzwzbobGq0SPJ9cGr0yN6ylND/Ees06L0BiDDQnJ2fdRBur8YIpnnnz5gXP4TonzHg+TcrJ862v63g00/oxzkyzGFNI/H/XOWGm4bQ+mtywjpoY6cM6sp6SGC1nPHXUxin1Y1wcKHPnzg3+dZ0TZrxOKWdkjK7j0Uzrxxi5yeJGxHU8msV7rZo6ajlpHI+822Vj6zXyOjUxVoZWJTHyOuMZk1I/WjxxcrOVqDVEG6P1k16jNY5HjkupVrWc1k8TJ+uo5UzUGhKZG2mM9ImZjxtzs6kKbNIkZH/yCVbfdhuKzj8fJfytdP4UW506pV8wd955pV8q16BB6RfNHX88Sk44ASX16qHYHCu66SYUvP468k3znm/mrXXPGyVXkXG6jkczrR9rx8YgUWuI9ZHWkedXBa3SIuuojVPqx7hWr17t9zshFu+1auqo5aT5/Y7beJ3xjknX8WimzQ/jsvsd/i1u1rUJ5isSnOzmz58fXHgiEyz1o2kTzPP5BXP8rXWpr+V0HQszbYw8XztQyMc6sp72lcNYzHJqY0xknIyLEwEHCl9Rl+hVw8lzNfHRtLlhjJzQ+cqdJD6a5XQdi2baOHm+Rjs0xsYFmrFubL3a+OKJUeoXqVX+q4lRc602TtfxaEYfbZxcvDj30HdjryE2vkTmhjFxPHJTubG1as1eryZOTR0ZI/kStYbY+LS5Ecdo4uH7YSuLirDQ7AMKBg9GyXffoaRxY5Q89hhK7r4bJTfcgJIrr0TJ1VeX/v300yhu0gTFLVuioH175KWl/dug01w8G5iNU3StZabND2tHrSZqDdHGyPOrglZpNkZNnPTRxMm4NoX9TiK1StPGyfM12rHm9ztu03LyfE2MNPpp47T7Hf6dwrfmJcYnIDlvC3AdDzPC3gZvbwlxnecyO2FKOSNvtXEdj2b0Y3Jdx8KMICd/um3cuHHiOG0xXcfCzAqVXK7jYcZcMqfS3BDkYh05UAjXeS6jn4aT10oN0DQaIKc0PwTrEXmrjes8l9kxIuHkuYnUKo2IvC3MdU6YkZPmOhbN4tUrNeA6HmYWkbeFuc5zmYYz2Vrlv4TrPJdptEpjbKyjtB40+pBTmh+Ccw7nHvoSrvNcpuGMR6usgyY3BLXKcUm4znEZOaVatRbvmJTOWQS5WEd7a7HrPJfRT8rJ62RetLlRa5X7HbNh5i6Aj6wzPpfRcYk5VmLqHPhEHOdqw+95p8I3fN5oxtywjtJ60OinXUMib4N3nRNm5COv61iYJVOrVWG/Y/UqzQ9h1xDml3Cd5zLLKbnWZGl1U9jv8F+/33GbdnwwNq1emRvp+KARnHP44hL/9p9ZDwH9rBAkYGz82TY269I4yUdeCexk8P/27m5JjirnGjD3f28vhhl+hxmYwT5wBD7AjrBP+4unA/F5YGe6lrKonK7WihB2O1OslLS091Z1VXfK5X517OSG78eb16UoTnVJoO61IHQ0UI2SQl4/3rwuRfVIwnmGVuHjzSsBzjQvUHrtaECMNNDBx5vXpcCZ9sg1tJrmBuT0VloF9+Pq6LU40/zAH4f1S6Ee6R5SPXmGVmtYvxRHOKsnOxpI+6PA9+Nh/VIUZ1ITPt2ePKLV3887oe/jD5gLtQql1049+OHsYD6zvkZHq6DuXb3iwpnmB9Rjzjtr4EzzAqXXjgbE2FnP4SmddzpaldOnct6RG7VM8wM1rMMM6xvg11kQxPbdd989/P3vf4/jxNcRH5+O+NLGLPBVxxnW16geSTjP0CrM5rUNnGmPXEOraW5ATmdY34Z6pHtI9eQZWp1hfY3iTGrCp9uTR7T6HM47MMP6GsXZWT+6esWFM80PqMecd9bAmeYFSq8dDYiRBjqYYX2NjlbB/bg6epUbtUzzAzOsXwB+3QVBcn2eIgW+jvj4dMSXNmaBrzrOsL5G9UjCeZZWZ/PaBs60R66h1TQ3IKczrG9DPdI9pHryDK3OsL5GcSY14dPtySNanWF9H/jwJrh3rYK6d/WKC2eaH1CPOe+sgTPNC5ReOxoQIw10MMP6Gh2tgvtxdfQqN2qZ5gdmWL8A/I4sCM9h85phfY3qkYTzTK3O5rUGzrRHrqHVNDcgpzOsb0M90j2kevIMrc6wvkZxJjXh0+3JI1qdYX0f+PAmuHetgrp39YoLZ5ofUI8576yBM80LlF47GhAjDXQww/oaHa2C+3F19Co3apnmB2ZYvwD8jiwIM6z/GcXZWbjufUE4U6uzea2BM+2Ra2g1zQ3I6Qzr21CPdA+pnjxDqzOsr1GcSU34dHvyiFZnWN8HPrwJ7l2roO5dveLCmeYH1GPOO2vgTPMCpdeOBsRIAx3MsL5GR6vgflwdvcqNWqb5gRnWLwC/7oLw66+/Prx58+a3ry4Hvo74+HTElzZmga86zrC+RvVIwnmWVmfz2gbOtEeuodU0NyCnM6xvQz3SPaR68gytzrC+RnEmNeHT7ckjWp1hfR/48Ca4d62Cunf1igtnmh9QjznvrIEzzQuUXjsaECMNdDDD+hodrYL7cXX0KjdqmeYHZli/APw6C4Jn9Hn1H3/8MX5efB3x8emIL23MAl91nGF9jeqRhPMMrcJsXtvAmfbINbSa5gbkdIb1bahHuodUT56h1RnW1yjOpCZ8uj15RKszrO8DH94E965VUPeuXnHhTPMD6jHnnTVwpnmB0mtHA2KkgQ5mWF+jo1VwP66OXuVGLdP8wAzrF4BfZ0EQm9+z/vnnn8dx4uuIj09HfGljFviq4wzra1SPJJxnaBVm89oGzrRHrqHVNDcgpzOsb0M90j2kevIMrc6wvkZxJjXh0+3JI1qdYX0f+PAmuHetgrp39YoLZ5ofUI8576yBM80LlF47GhAjDXQww/oaHa2C+3F19Co3apnmB2ZYvwD8OguC2L755pv5PesLFGdn4br3BeEMrcJsXtvAmfbINbSa5gbkdIb1bahHuodUT56h1RnW1yjOpCZ8uj15RKszrO8DH94E965VUPeuXnHhTPMD6jHnnTVwpnmB0mtHA2KkgQ5mWF+jo1VwP66OXuVGLdP8wAzrF4BfZ0EQm2H9iy++iOPE1xEfn4740sYs8FXHGdbXqB5JOM/QKszmtQ2caY9cQ6tpbkBOZ1jfhnqke0j15BlanWF9jeJMasKn25NHtDrD+j7w4U1w71oFde/qFRfOND+gHnPeWQNnmhcovXY0IEYa6GCG9TU6WgX34+roVW7UMs0PzLB+Afh1FgTP+MMPPzwO7Onz4uuIj09HfGljFviq4wzra1SPJJxnaBVm89oGzrRHrqHVNDcgpzOsb0M90j2kevIMrc6wvkZxJjXh0+3JI1qdYX0f+PAmuHetgrp39YoLZ5ofUI8576yBM80LlF47GhAjDXQww/oaHa2C+3F19Co3apnmB/5rWEeemAeugiYm2Ldv3z68evXqd/Gu7luZQDuclSR/rq7vWZdTnK9fv378IXNJjAwf3tW1LZPLboz4Ur9aZNXRT70X7+q+leHqcDIxprlhXU5xvX///rGOHz58aMW5urZlfLp15JfyMTH5rQUWg45WO5xH4sSXakBcTIxiTerIcNYifal5xvQ5WekmzY2YaJRWafav1iqrOqa5YXw6nOKy5lh78Cea9awpZ8WY1oPh6mjgqFY7nGfuIc4EHb0mnO4VXzc3qW6YmJ7LeeeXX355PPMkMTJ8aU3uXatlYkxzw7qc4przzrbh69ajG2eHs+K69/POLbXKqo5pbhi/Dqe4nHe8KOHrzyrRlxpSCVpd2zPBeqWnElyL7iXW5eRXtrq+Z10/cdq8NEsSI+twdp+TyWnqKyZ+6uhVyhLxpdbhZEfjXP37nonLq1o///zz459JnJ4z5az4OjF2/cTkOyK+a3ALrbLy6/h2tSM2MYr1FnrtxseeglbLunF2OcVlzXFw9v/4q/eQio+tru9Z1+/WWmXdZ2Udzo/3EGeCTpyrf9+zbox8Onyl1edw3vFdvFvtId3nZHKa+n6s1Xs/77x7927OOxt29Fk7vl29+nPOO2vznB1O1o2zyymuOu/4uvWddcSra3vmFZ9bv9JcwvXn6vqeVcJW1/ZMXN4WZgNLX73rcFaMCru6vmXuV8c0N2Lio45e9Uli7HKybj2KM82PuPjVYSuJU3wpZ9XxlrkRk1dfO98V6XIeibMWytW1PRObGMWaxtnRazc3T0WrzP3dOhbn6tqeiateacafxOlZ0z3Ec3Zj7GpATPVdkSQ+1u2PirOjAXVM8yMuPuroTJDEWZzJs7q3Ww/P2dXqcznvdL+z3uGsGG+tVXXsavWW9SjOND/i+vi7lUmc4ks5q463zI2Yut9Z73IeibOznldc+tEcksbZ0Ws3N0e0yu+pnHf4ddZzcTnveOHF16d8Zj31rUR1PhNRyU3BD2cHNi9xpigxJBAbH2+ZSOD+ElAKdRCfV7USFKe6JMBHA6yjAZxpfkBe5zNca+BM8wKl144GxEgDHTylz3CluQE5fSqf4SrOND9gzbH2pM+rHukeUj15hlb1ZYIjnNWTHQ2k/VHwvOr4HD6znvp2tAql1049+OHs4N4/s35LrQK+rl5x4UzzA+ox5501cKZ5gdJrRwNipIEOntJ5p6NVOX0q5x25Ucs0P+C848UlmB8wtwF+3QXhxx9/fPj+++9/++py4OuIj09HfGljFviq4wzra1SPJJxnaXU2r23gTHvkGlpNcwNyOsP6NtQj3UOqJ8/Q6r0P63xvNQDx6fbkEa0+l/PO/IC5NYqzs3509YoLZ5ofUI8576yBM80LlF47GhAjDXQww/oaHa2C+3F19Co3apnmB2ZYvwD8OguC2OZXt61RnJ2F694XhDO0CrN5bQNn2iPX0GqaG5DTGda3oR7pHlI9eYZWZ1hfoziTmvDp9uQRrc6wvg98eBPcu1ZB3bt6xYUzzQ+ox5x31sCZ5gVKrx0NiJEGOphhfY2OVsH9uDp6lRu1TPMDM6xfAH6dBUFsX3/99cOLFy/iOPF1xMenI760MQt81XGG9TWqRxLOM7QKs3ltA2faI9fQapobkNMZ1rehHukeUj15hlZnWF+jOJOa8On25BGtzrC+D3x4E9y7VkHdu3rFhTPND6jHnHfWwJnmBUqvHQ2IkQY6mGF9jY5Wwf24OnqVG7VM8wMzrF8Afp0FQWzznfU1irOzcN37gnCGVmE2r23gTHvkGlpNcwNyOsP6NtQj3UOqJ8/Q6gzraxRnUhM+3Z48otUZ1veBD2+Ce9cqqHtXr7hwpvkB9Zjzzho407xA6bWjATHSQAczrK/R0Sq4H1dHr3Kjlml+YIb1C8CvsyB4Rr9SwOfW0+fF1xEfn4740sYs8FXHGdbXqB5JOM/QKszmtQ2caY9cQ6tpbkBOZ1jfhnqke0j15BlanWF9jeJMasKn25NHtDrD+j7w4U1w71oFde/qFRfOND+gHnPeWQNnmhcovXY0IEYa6GCG9TU6WgX34+roVW7UMs0PzLB+Afh1FwSbV2dBwNcRH5+O+NLGLPBVxxnW16geSTjP0upsXtvAmfbINbSa5gbkdIb1bahHuodUT56h1RnW1yjOpCZ8uj15RKszrO8DH94E965VUPeuXnHhTPMD6jHnnTVwpnmB0mtHA2KkgQ6e0nmno1U5nWH9E6hgO8TPZfOyIDyHzWuG9TWqRxLOM7U6m9caONMeuYZW09yAnM6wvg31SPeQ6skztDrD+hrFmdSET7cnj2h1hvV94MOb4N61Cure1SsunGl+QD3mvLMGzjQvUHrtaECMNNDBDOtrdLQK7sfV0avcqGWaH5hh/QLw6y4IfpH9mzdvfvvqcuDriI9PR3xpYxb4quMM62tUjyScZ2l1Nq9t4Ex75BpaTXMDcjrD+jbUI91DqifP0OoM62sUZ1ITPt2ePKLVGdb3gQ9vgnvXKqh7V6+4cKb5AfWY884aONO8QOm1owEx0kAHM6yv0dEquB9XR69yo5ZpfmCG9QvAr7sgaBRCSoGvIz4+HfGljVngq44zrK9RPZJwnqXV2by2gTPtkWtoNc0NyOkM69tQj3QPqZ48Q6szrK9RnElN+HR78ohWZ1jfBz68Ce5dq6DuXb3iwpnmB9Rjzjtr4EzzAqXXjgbESAMdPKXzTkercvrshnX/g8QQV7Cr63tWBy1FWl3fsgo25axGKSElxq8SnJjYvv3224cvv/wyjhMf3tW1LRMbn5SrGqWTG77q+O7du+X1LStOdVld3zJ195ysowGcaX6YelgQUh14zpTzDK2y+vkKq2t7hjPVKhMfv44GxNjJD3v9+vXjRr26tmU40x65hlbT3LBbapW5v6vX4kzzw6w5t9pDqidvrVX9qC9X17bsCCcfcXY0kPZHGV91dCZYXd+y4kxqwsczslRzfLpafQ7nHeZdhJ09BB/e1bUtE9s9a5Wpu+dkHQ3gTPPD+M15Z204U60y8fHraECMnfywp3Te6WhVbp7Secdzpvlhdd7x9888eGofPnxY/vueCZR4Xr58+fD+/fvHh1/dt2UdTnbEL/UVk9j+9re/Pfzf//1fHGeHkx2JcfXve1YxqqN6quvqvi3rPusR63CKS6P4yf7+vIVej9SxG6PviFgMOvEded7Vv3/Kun5is7CL9X9drx2+P2r1VjEeyU03Toctaw////WeXP37p0xM+tGB8pZavWWcYnxKe0iHT0z3ft5h4qTVW+4hR2Jc/fuePTWtsg6nuN6+fXv3551ba5Xd2o/NeWfbzqhHN8467/j6M69uJFaJ8WrB6vqWeVXBYkBE/h9eqVjdt7JqrJSzntWfq+t7xi/lrFdfvvrqq4cXL17EcRbn6tqW4ZCfNEZxdXJTMaqjz+ar6+q+lfHrcNYrU+xWGhCXTfrVq1ePjfZXx9l9TsaPpbkRk++KeBU20SkrztW1PevGWXqlgdX1PRObtxKJNaljh/Nsrfrzr9Yq+zjO1fU944MzzY+4rDnWHr6JZjucR3LDr5MbMenHX3755S/Xapn4+HXjTP0+3kOcCf5qvXpO8XVzgy/RDftYq/4ff7VWWSc3ZfzY6tqeiZNWb7WHiO0src55Z23FmTxr9zkZv5SP3VqrrBtn6bWzZrE576ztSD3EmPoxfjjT/Iir9hBfz2fWN8Cvwym277777vG762mcJYYEYuOTcrlfHTu54auO3haWoDjVJYEa0ADraABnmh+Q1zpsJageSTjP0Cr4boFXm1PgTPMCpdeOBsRIAx2IsfsZroTzGlpNcwNyeiutgvtxderBB2dHr/XW4vR5caY9Uj15hlb1ZYIjnNWTHQ2oY2fN4quO85n1P6OjVSi9durBD2cHvvszn1n/M4qzs3509YoLZ5ofUI8576yBM80LlF47GhAjDXTwlM47Ha3K6RnnnY5e5aarV+ed+QFznwA/nB0Q0X/+85/fvroc+Dri49MRnzp2csNXHWdYX6N6JOE8S6uzeW0DZ9oj19BqmhuQ06eyeRVnmh+YYX2NI5zVkx0NpP1R4HurAYhPtyePaHWG9X3gw5vg3rUK6t7VKy6caX5APea8swbONC9Qeu1oQIw00MFTOu90tCqnM6x/AhVsh/i5bF6axNttUuDriI9PR3xpYxb4quMM62tUjyScZ2l1Nq9t4Ex75BpaTXMDcjrD+jbUI91DqifP0OoM62sUZ1ITPt2ePKLVGdb3gQ9vgnvXKqh7V6+4cKb5AfWY884aONO8QOm1owEx0kAHM6yv0dEquB9XR69yo5ZpfmCG9QvAr7sgzLC+RnF2Fq57XxDO0upsXtvAmfbINbSa5gbkdIb1bahHuodUT56h1RnW1yjOpCZ8uj15RKszrO8DH94E965VUPeuXnHhTPMD6jHnnTVwpnmB0mtHA2KkgQ5mWF+jo1VwP66OXuVGLdP8wAzrF4Bfd0GoH9qVAl9HfHw64ksbs8BXHWdYX6N6JOE8S6uzeW0DZ9oj19BqmhuQ0xnWt6Ee6R5SPXmGVmdYX6M4k5rw6fbkEa3OsL4PfHgT3LtWQd27esWFM80PqMecd9bAmeYFSq8dDYiRBjqYYX2NjlbB/bg6epUbtUzzAzOsXwB+nQXBM/7zn/98/CFz6fPi64iPT0d8aWMW+KrjDOtrVI8knGdoFWbz2gbOtEeuodU0NyCnM6xvQz3SPaR68gytzrC+RnEmNeHT7ckjWp1hfR/48Ca4d62Cunf1igtnmh9QjznvrIEzzQuUXjsaECMNdDDD+hodrYL7cXX0KjdqmeYHZli/APw6C4LYvvnmm4cvvvgijhNfR3x8OuJLG7PAVx1nWF+jeiThPEOrMJvXNnCmPXINraa5ATmdYX0b6pHuIdWTZ2h1hvU1ijOpCZ9uTx7R6gzr+8CHN8G9axXUvatXXDjT/IB6zHlnDZxpXqD02tGAGGmggxnW1+hoFdyPq6NXuVHLND8ww/oF4NdZEMQ2w/oaxdlZuO59QThDqzCb1zZwpj1yDa2muQE5nWF9G+qR7iHVk2dodYb1NYozqQmfbk8e0eoM6/vAhzfBvWsV1L2rV1w40/yAesx5Zw2caV6g9NrRgBhpoIMZ1tfoaBXcj6ujV7lRyzQ/MMP6BeDXWRDE9tVXXz18/vnncZz4OuLj0xFf2pgFvuo4w/oa1SMJ5xlahdm8toEz7ZFraDXNDcjpDOvbUI90D6mePEOrM6yvUZxJTfh0e/KIVmdY3wc+vAnuXaug7l294sKZ5gfUY847a+BM8wKl144GxEgDHcywvkZHq+B+XB29yo1apvmBGdYvAL/OguAZ//3vfz/88MMP8fPi64iPT0d8aWMW+KrjDOtrVI8knGdoFWbz2gbOtEeuodU0NyCnM6xvQz3SPaR68gytzrC+RnEmNeHT7ckjWp1hfR/48Ca4d62Cunf1igtnmh9QjznvrIEzzQuUXjsaECMNdDDD+hodrYL7cXX0KjdqmeYHZli/APy6C4Im8RPhU+DriI9PR3xpYxb4quMM62tUjyScZ2l1Nq9t4Ex75BpaTXMDcjrD+jbUI91DqifP0OoM62sUZ1ITPt2ePKLVGdb3gQ9vgnvXKqh7V6+4cKb5AfWY884aONO8QOm1owEx0kAHM6yv0dEquB9XR69yo5ZpfuDQsO6hu43y/v3734kTVGOnkBzJ7YhBgjucoEk6v2cdX9qcYusICNSxkxtQx3Tzgq5oaSBd8ABXV6/yapNO89vpkTO12jlo4Uy1CqXXjgbE2NEAiPHXX3/97avL0emRo1rt5OaWWi109XqE05pzqz2kevIMraYHLehyVk920OmPgjo6E6To9Ei3J49o9bmcdwxAz+G8cyutQlevuLp6VYs576yBM9UqlF47Guiu5/CUzjsdyOlTOe/ITVevzjv1a8A/8wCJeVXC/4BwV9f37O3btw+vXr16fPDV9S378OHD40KZcioKv3q1KLHiXF37lNXvWV9d2zN8eFfXtkxs/NKcul8dO7nhq44Wg9X1LStOdVld3zJ1lxfW0QDOND9MXl++fBnroHok4TxLqw5ZDiKra3tW9Vhd27PSa0cD/DqcTIz6cnVty3CmPXINraa5YXJzK60y9+Pq6LU40/wwa86t9pDqyTO0qi9X17bsCGf1ZEcDaX+U8VVHZ4LV9S0rzqQmfLo9eUSrz+W8YzB4DuedW2iVqXtXr7hwpvlh/Oa8s7aqx+ranpVeOxrg1+FkT+m809Gq3DyV847c8E3zw5x3vIPA3z/z+epL7T//+c/jnz/++OPvf7/U3F+/f/ynn35a3rOy4uGTcvIpW13fMjzll3IyMX799dfLa1vW5Syf1bU9w6GO9fc/Xv+UiVE9E9+POVM7GmcnRn7ffvttxFs8KWfFl8aIo/zSGN3/j3/84+H7779fXt+yI5zlx1bXt6w46+9/vP4pE6OfI5H4urfTI534WPF14sN3K62WdeI8wun+2kNW17eseDxrwlnxdWIsnzRGRqv6MvF1b0errBMjO8p5ZA+5RYzF8RS0yirGTpzl14nzlntI+ayu7RmOrlbZLbXKjsbZ4eQ3550/2xHO8mOr61tWnPX3P17/lN37eeeWWi3rxHmE0/0f7yGfeZUhMa8uetuT99Kvru+ZV7U8wLt375bXt8yrC96+knJ6Vn7+XF3fs+JcXdszsflp8C9evIjjxId3dW3LKsaUSy7VsZMbXOqonqvrW1acnWeVF5ZqAFdXr/KqSVIddHrkDK0yr8B6hXJ1bc+qHqtre9aNUy75dTiZGH33Z3Vty3CmPcKncpNqrrSa9geTm1tplXnGTh1Zl5Pdcg/xnJ0YcfA7olV9ubq2ZUc4K840pzjT/ijDdas9xL3dnnwqWmVdvbLiXF37lHk7qu88r67tWUev965Vxq+rV1xdvfKb887aqh6ra3vWjVMu+XU42VM676R+TG6eynlHbvh24qw9xN9bn1n3loAOvB1As6Twnn9vIejA2wc6nxfh1+Ws37Oeot4mkaA++9OBOnY+gwHq6K0dKbraOfK5mC6nvHY/F9PhxHNrrVpIOp/hwpnmBY7oVYwdDYAYLbQpOj1yVKtdDdxSq4Cr86xHOK05t9xDztKqvkzR5TzSk53+KKijM0GKTo90e/KIVp/LecdBtPMDdfGlunsOWoWuXnF19aoec95ZA2dHd0f0KsaOBuApnXc6kNOnct6Rm65enXd+/8z6438DeGDv2+88tFcHJDgVg0B9viHllCSF6TQLP5wpxOYt8L6znsaJLxWS2PikXO6vz1+k4KuOXilKUJxpY6s7DbCOBnCm+QF5nZ+OugbONC9Qeu1oQIzdRW9+GvwaHa2C+3F19FqcaX7AmnOrPaR68gyt6ssERzirJzsaSPujwFcdnQkSFGdSEz7dnjyi1edw3oH5afBrFGdn/ejqFRfOND+gHnPeWQNnmhcovXY0IEYa6GB+GvwaHa2C+3F19Co3apnmB5x36gXfGdY3wK+zIHhGnxfxVvj0efF1xMenI760MQt81XGG9TWqRxLOM7QKs3ltA2faI9fQapobkNMZ1rehHukeUj15hlZnWF+jOJOa8On25BGtzrC+D3x4E9y7VkHdu3rFhTPND6jHnHfWwJnmBUqvHQ2IkQY6mGF9jY5Wwf24OnqVG7VM8wMzrF8Aft0FgYh8ziAFvo74+HTElzZmga86zrC+RvVIwnmWVmfz2gbOtEeuodU0NyCnM6xvQz3SPaR68gytzrC+RnEmNeHT7ckjWp1hfR/48Ca4d62Cunf1igtnmh9QjznvrIEzzQuUXjsaECMNdDDD+hodrYL7cXX0KjdqmeYHZli/APyOLAjPYfOaYX2N6pGE80ytzua1Bs60R66h1TQ3IKczrG9DPdI9pHryDK3OsL5GcSY14dPtySNanWF9H/jwJrh3rYK6d/WKC2eaH1CPOe+sgTPNC5ReOxoQIw10MMP6Gh2tgvtxdfQqN2qZ5gdmWL8A/LoLgibxU/xS4OuIj09HfGljFviq4wzra1SPJJxnaXU2r23gTHvkGlpNcwNyOsP6NtQj3UOqJ8/Q6gzraxRnUhM+3Z48otUZ1veBD2+Ce9cqqHtXr7hwpvkB9Zjzzho407xA6bWjATHSQAczrK/R0Sq4H1dHr3Kjlml+YIb1C8DvyIIw31n/M4qzs3Dd+4JwplZn81oDZ9oj19BqmhuQ0xnWt6Ee6R5SPXmGVmdYX6M4k5rw6fbkEa3OsL4PfHgT3LtWQd27esWFM80PqMecd9bAmeYFSq8dDYiRBjqYYX2NjlbB/bg6epUbtUzzAzOsXwB+nQXBM/q8+r/+9a/4efF1xMenI760MQt81XGG9TWqRxLOM7QKs3ltA2faI9fQapobkNMZ1rehHukeUj15hlZnWF+jOJOa8On25BGtzrC+D3x4E9y7VkHdu3rFhTPND6jHnHfWwJnmBUqvHQ2IkQY6mGF9jY5Wwf24OnqVG7VM8wMzrF8Afp0FQWzffvvtw5dffhnHia8jPj4d8aWNWeCrjjOsr1E9knCeoVWYzWsbONMeuYZW09yAnM6wvg31SPeQ6skztDrD+hrFmdSET7cnj2h1hvV94MOb4N61Cure1SsunGl+QD3mvLMGzjQvUHrtaECMNNDBDOtrdLQK7sfV0avcqGWaH5hh/QLw6ywIYvvmm28evvjiizhOfB3x8emIL23MAl91nGF9jeqRhPMMrcJsXtvAmfbINbSa5gbkdIb1bahHuodUT56h1RnW1yjOpCZ8uj15RKszrO8DH94E965VUPeuXnHhTPMD6jHnnTVwpnmB0mtHA2KkgQ5mWF+jo1VwP66OXuVGLdP8wFWG9Q5q80ofuoJNccaCoKhff/31w4sXL2JB4OuIj09HfGljFtRPHW81rEMtCCmOLAj4LAgpb/VIwnmGVuGpbF4gxo4GoLN5QadHjmq12x+30iq4v6vX4uyghvVb7CHVk2doNR3WoctZPdnRQKc/oPaQWw/rKY5o9Tmcd+Deh/VbarXQ1SsunGl+QF7nvLMGTpai9NrRQHc9h6d03uloFd9TOe94xq5e/2tY9xCJIRasRK+u79m7d+8eEyzg1fUtq+ZMOfGU4FfX94wfW13bM8/4/fffP3z11Vfx83Y4Swid3KhjJzd81VE9V9e3zDPWYrC6vmX8arHsxpn6MX6vXr16/HN1fcs6PXKGVpmD1uvXr5fX9qzLWXrtaIAfDayuf8rEaKNeXdsynOqY1ITPUa2muWG31Co7otcuJ3v79u3N9pCKMeXCcVSr+nJ1bcuOcFZPdjSgjh0N8L3VHuLebk8e0aqD1r2fd9ibN28eh4PVtT3rcJ6pVfVcXd+yjlYZv65eK87Uj3348OHQHpLE6V51vLVW57yzbaXXpCZnaZXfUznvyA3fTpzOO14o9PfPPHhqmnr173vmgYnn5cuXD+/fv398+NV9K8PX4WRH/LpxeiWEkJIYWZfzSIyrf98zMamfOqqneFf3bdmRZ71lnOJykPz5558f/+zUcvXve3br3IjRd0QsBrfSKrt1nGJz2BJrR68pZ/c5Wcfvj1r9X+/Jrp+4HLasPfwTzR551tW/f8q6fGLSj4afW2i17JZ+Yrz1HnLr3IjpuZx3aPWWe8iRGFf/vmdnaJV1c8M6fuIyGNz7eefWWmW3jpPNeWfbbvmsrJsfcdV5x9efmfYTq8R4pWF1fcu8lUhiiahenVjdt7JqrJSzXtXyzKvre8aPdeKU4HqleXXPlhXn6tqWiY2PWFfXt6xe1UpzIyZc6mhxF+/qvpXx63DWq1qdehRnmh9xabCPX71b3bey6pGE073iu7VWfVekXmle3bNlxbm6tmdH9drhFJsX0PRlotcO59la9WcSY0er7OM4V9f3jA/OND/i+uN31lf3razDeUSr3dyIST/qy79aq2VHezJds8SISx2dCZI4+aWcR+pR/ZHohn2sVc/8V2uV4eGb1oN18yPOW+4hZ2r1KZx3Sq9pfsR19LyTPOs1tJrm5tZaZeLj19Vrh5PNeWdt3f6oOLt6TfuDiav2EF/PD5jbQDVZBz4r8ssvv/z21eUoMSQQG580p+4vAaXgq463+sy6utMA62gAZ5ofkFeN0qlJynmWVn23wAtLKXCmeYHSa0cDYqSBDsQ4P2Duz+hoFdyPq6PX4kzzA/WZ9fR51SPdQ6onz9CqvkxwhLN6sqOBtD8KfNXx1p9ZTzV3RKvP5bxjKJgfMPdnFGdn/ejqFRfOND+gHnPeWQNnmhcovXY0IEYa6OApnXc6WpXTp3LekRu1TPMD//WZ9cf/BqhgO8TPZfPyyp23LqTA1xEfn4740sYs8FXHGdbXqB5JOM/S6mxe28CZ9sg1tJrmBuR0hvVtqEe6h1RPnqHVGdbXKM6kJny6PXlEqzOs7wMf3gT3rlVQ965eceFM8wPqMeedNXCmeYHSa0cDYqSBDmZYX6OjVXA/ro5e5UYt0/zADOsXgF9nQfCMP/zww+Ovb0ufF19HfHw64ksbs8BXHWdYX6N6JOE8Q6swm9c2cKY9cg2tprkBOZ1hfRvqke4h1ZNnaHWG9TWKM6kJn25PHtHqDOv7wIc3wb1rFdS9q1dcONP8gHrMeWcNnGleoPTa0YAYaaCDGdbX6GgV3I+ro1e5Ucs0PzDD+gXg11kQxHbvv7qNrzrOsL5G9UjCeYZWYTavbeBMe+QaWk1zA3I6w/o21CPdQ6onz9DqDOtrFGdSEz7dnjyi1RnW94EPb4J71yqoe1evuHCm+QH1mPPOGjjTvEDptaMBMdJABzOsr9HRKrgfV0evcqOWaX5ghvULwK+zIIhthvU1irOzcN37gnCGVmE2r23gTHvkGlpNcwNyOsP6NtQj3UOqJ8/Q6gzraxRnUhM+3Z48otUZ1veBD2+Ce9cqqHtXr7hwpvkB9Zjzzho407xA6bWjATHSQAczrK/R0Sq4H1dHr3Kjlml+YIb1C8CvsyCI7bvvvnv429/+FseJryM+Ph3xpY1Z4KuOM6yvUT2ScJ6hVZjNaxs40x65hlbT3ICczrC+DfVI95DqyTO0OsP6GsWZ1IRPtyePaHWG9X3gw5vg3rUK6t7VKy6caX5APea8swbONC9Qeu1oQIw00MEM62t0tArux9XRq9yoZZofmGH9AvDrLghi9DsAU+DriI9PR3xpYxb4inGG9TWqRxLOs7Q6m9c2cKY9cg2tprkBOZ1hfRvqke4h1ZNnaHWG9TWKM6kJn25PHtHqDOv7wIc3wb1rFdS9q1dcONP8gHrMeWcNnGleoPTa0YAYaaCDGdbX6GgV3I+ro1e5Ucs0PzDD+gXgd2RBeA6b1wzra1SPJJxnanU2rzVwpj1yDa2muQE5nWF9G+qR7iHVk2dodYb1NYozqQmfbk8e0eoM6/vAhzfBvWsV1L2rV1w40/yAesx5Zw2caV6g9NrRgBhpoIMZ1tfoaBXcj6ujV7lRyzQ/MMP6BeB3ZEGYYf3PKM7OwnXvC8KZWp3Naw2caY9cQ6tpbkBOZ1jfhnqke0j15BlanWF9jeJMasKn25NHtDrD+j7w4U1w71oFde/qFRfOND+gHnPeWQNnmhcovXY0IEYa6GCG9TU6WgX34+roVW7UMs0PzLB+Afh1F4Rff/314c2bN799dTnwdcTHpyO+tDELfNVxhvU1qkcSzrO0OpvXNnCmPXINraa5ATmdYX0b6pHuIdWTZ2h1hvU1ijOpCZ9uTx7R6gzr+8CHN8G9axXUvatXXDjT/IB6zHlnDZxpXqD02tGAGGmggxnW1+hoFdyPq6NXuVHLND8ww/oF4NddEF69evXw008//fbV5cDXER+fjvjSxizwVccZ1teoHkk4z9LqbF7bwJn2yDW0muYG5HSG9W2oR7qHVE+eodUZ1tcozqQmfLo9eUSrM6zvAx/eBPeuVVD3rl5x4UzzA+ox5501cKZ5gdJrRwNipIEOZlhfo6NVcD+ujl7lRi3T/MB/Dev+B4khrmBX1/cMsQQr0ur6lkmSYFPOahR/rq7vWXGuru2Z2L766quHzz//PI4TH97VtS1TDz4pVzVKJzd81fHdu3fL61vW5axGYR0N4Ezzw9TDCy+pDjqcfMTXqQe/jlaZg9br16+X1/YMX4ezG6e64+O7uv4pE6ONenVty3CqY21El9g1tNrRgNzcSqvM/WJMclN2ZA+x5txqDzlTq/pydW3LjnCeuYc4E6yub1mHk4/4WKq5I1p9Ducd5l2EhoPVtT3r6PXetcrUXYysowGcaX4YvznvrK2jVdaNU927nOwpnXc6WpWbp3Le4ec50/ww5x0vFPr7Z5XoSw2pYFfX9kySvD1cgksQq/tW1uXkV7a6vmcdztrY//73vz8O62mc7k+ftRsf6/BVjOrolbtajC61Dic7Gufq3/dMXF5Jf/ny5eOfSZyeM+Ws+DoxdviYmH755ZfHxSDRKcPX4TwSJ77UT1xMjGK9hV678bFuHW+p1bJunF1OcVlzapNONNvhrPjY6vqedXTDxOSV9FtplXVjZB1OMfKjV2eCTpyrf9+zbox8Onwfa5X/X61VVjHeOk7fVafZJEaGL33Wbnysw1dafQ7nHS9GPIfzzq20yo7E2eGsuOa8szbP2eFk3Ti7nOKqPcTX8bCO9MOHD/FDExFiCU4fvMvJr2x1fc+O+NV31lP/Dmf5pLlxv5ymfIyPOnrlLln0upz8jsaZ+onL5uVX8PkzidNzppwVH1td37Oun5gctCzsq+t7dvRZU9+qY4eTiVGsf7Ve+VR8qeaKL/W7tVbZx3Guru9Zl1Nc1pwagFb3bFmHs+JLuY7kht1Kq2X1rGk9jnLaQ5wJOnEmz+rebox8jmj13s874vRd9VvtIeWT5sb9R7V67+cd38Wb887ajj5r6lt17HAyMRrW/2q98qn4Us0VX+onpud23vH1zd8GT0TpWxBwCrTzNosKenV9z/jhXF3bM8/4j3/84+Hrr7+On7eKubq2ZSXUzts61LGTG77qeMu3wXtO1tEAzjQ/TD28/S3VgedMOc/QKvO2sM5bGHGmWmXi49fRgBg7+WFitPCtrm0ZzrRHrqHVNDfsllpl7u/qtTjT/LB6W1j6vDjlJuGsnjxDq923wXfrIc6OBtL+KOOrjs4Eq+tbVpxJTfh4RpZqjk9Xq8/hvMOe0tvgO7nheyutMnX3nKyjAZxpfhi/Oe+sDWeqVSY+fh0NiLGTH/aUzjsdrcrNUzrveM40P8x5xztB/H1+wNwG+OHsQKMQUgp8eBPUopfm1P3q2MkN39q8EhSnuiRQdxqoRkmAC2eaH5BXdezUJOU8S6sWdHpNgTPNC5ReOxoQIw10IEbfxUuAM+2Ra2g1zQ3I6a20Cu7H1dFrcab5gRqA0udVj3QPqZ48Q6v6MsERzurJjgbS/ijwVUdnggTFmdSET7cnj2j1uZx3DEC+Y5kCH94E965VUPeuXnHhTPMD6jHnnTVwpnmB0mtHA2KkgQ6e0nmno1U5fSrnHblRyzQ/4Lzz+w+Ye/xvgAq2Q/xcNi9NMr+67c8ozs7Cde8Lwllanc1rGzjTHrmGVtPcgJzOsL4N9Uj3kOrJM7Q6w/oaxZnUhE+3J49odYb1feDDm+DetQrq3tUrLpxpfkA95ryzBs40L1B67WhAjDTQwQzra3S0Cu7H1dGr3Khlmh+YYf0C8OsuCJrE50VS4OuIj09HfGljFviq4wzra1SPJJxnaXU2r23gTHvkGlpNcwNyOsP6NtQj3UOqJ8/Q6gzraxRnUhM+3Z48otUZ1veBD2+Ce9cqqHtXr7hwpvkB9Zjzzho407xA6bWjATHSQAczrK/R0Sq4H1dHr3Kjlml+YIb1C8CvuyAY1MWZAl9HfHw64ksbs8BXfDOsr1E9knCepdXZvLaBM+2Ra2g1zQ3I6Qzr21CPdA+pnjxDqzOsr1GcSU34dHvyiFZnWN8HPrwJ7l2roO5dveLCmeYH1GPOO2vgTPMCpdeOBsRIAx3MsL5GR6vgflwdvcqNWqb5gRnWLwC/7oLw008/Pf6QuRT4OuLj0xFf2pgFvuo4w/oa1SMJ51lanc1rGzjTHrmGVtPcgJzOsL4N9Uj3kOrJM7Q6w/oaxZnUhE+3J49odYb1feDDm+DetQrq3tUrLpxpfkA95ryzBs40L1B67WhAjDTQwQzra3S0Cu7H1dGr3Khlmh+YYf0C8OssCGL75ptvHr744os4Tnwd8fHpiC9tzAJfdZxhfY3qkYTzDK3CbF7bwJn2yDW0muYG5HSG9W2oR7qHVE+eodUZ1tcozqQmfLo9eUSrM6zvAx/eBPeuVVD3rl5x4UzzA+ox5501cKZ5gdJrRwNipIEOZlhfo6NVcD+ujl7lRi3T/MAM6xeAX2dBEJtf2/bixYs4Tnwd8fHpiC9tzAJfdZxhfY3qkYTzDK3CbF7bwJn2yDW0muYG5HSG9W2oR7qHVE+eodUZ1tcozqQmfLo9eUSrM6zvAx/eBPeuVVD3rl5x4UzzA+ox5501cKZ5gdJrRwNipIEOZlhfo6NVcD+ujl7lRi3T/MAM6xeAX2dBENsM62sUZ2fhuvcF4Qytwmxe28CZ9sg1tJrmBuR0hvVtqEe6h1RPnqHVGdbXKM6kJny6PXlEqzOs7wMf3gT3rlVQ965eceFM8wPqMeedNXCmeYHSa0cDYqSBDmZYX6OjVXA/ro5e5UYt0/zADOsXgF9nQfCMP//888O//vWv+HnxdcTHpyO+tDELfNVxhvU1qkcSzjO0CrN5bQNn2iPX0GqaG5DTGda3oR7pHlI9eYZWZ1hfoziTmvDp9uQRrc6wvg98eBPcu1ZB3bt6xYUzzQ+ox5x31sCZ5gVKrx0NiJEGOphhfY2OVsH9uDp6lRu1TPMDM6xfAH7dBcHm1VkQ8HXEx6cjvrQxC3zVcYb1NapHEs6ztDqb1zZwpj1yDa2muQE5nWF9G+qR7iHVk2dodYb1NYozqQmfbk8e0eoM6/vAhzfBvWsV1L2rV1w40/yAesx5Zw2caV6g9NrRgBhpoIOndN7paFVOZ1j/BCrYDt6/f/+46KUPXcGmOGtB0CS3/j3raU7dnzZmga86psN6caYLF9SCkKIWhDQ/gM+CkPJWjyScZ2n1qWxeIMaOBqCzeUGnR45qtdsft9IquL+r1+LsoAag9HnlJe2R6skztJoO69DlrJ7saKDTH8BXHZ0JEhRnUhM+8tLNTVerz+W8c8awnua0dPO/rtVCV6+4cKb5AXmd884aOFmK0mtHA931HJ7SeaejVXxP5bzjGbt6dd75fViXsMQ8cBV0dX3LvDLx7t273xO8umfLupyVpGqWxPjhXF3bM3FaEGxe/r66Z8vw4V1d2zKx8UlzU6Lt5KYa5e3bt1GMxZnWn5/nZB0NdLQjrg8fPjy8evXq8c/VPVvmOVPOs7T65s2bh9evXy+v7xnOVKtMfPw6GujqlVnwHCo7ek04+bifpZorraa5+aNWkxg9Z6pV5v6uXruc4rLm3GoPqZ68tVb1o778q7VaxkecaT2OcMqpOjoTdOJMasLHM7I0Rj6pbpiYnst5xzcmOnsIPryra1smtnvWKuPnOVlHAx3tiMuLEXPeWRvOVKtMfPw6GujqlT2l807qJ6bndt7x9Wf+J6lJ0Orf98wDG2Jfvnz5uChUw11i+Dqc7Ihfx1dckutz60mMrMt5JMbVv++ZmNRPHdWzhHipHXnWW8YpLpuzOvqzU8vVv+/ZrXMjRi8q+a7BrbTKbh1n9aRYO3pNObvPyTp+f9Tq/3pPdv3E5QBi7eGfaPbIs67+/VPW5ROTfvSdkVtoteyWfmK89R5y69yI6Tmcd8RJq7fcQ47EuPr3PTtDq6ybG9bxE5fB4N7PO7fWKrt1nGzOO9t2y2dl3fyIq847vo6/s16vhqyu7Zm3EUisRvH/6Lwasrq2Z/VqSPqqFuPHVte2TEw4/Z71L7/88vHvSZwdTrHJT/qqjfvlNM2NePioo3qq6+q+lXU5mRjZ6tqeFWeaH3Hxs+j5M4lTfCmne2+pVSYmi4ENLNEp63KKj19aDyanqQbExbya7rCV1JF1OO9dq8z93Tj54Fxd2zNxOVBae/Anmu1wHtEqv05uxKQf9eUttMrEya+jAZzpmiVGPrfaQ/iIr5ubrlbv/bzDxHnLPURs96zVsqN6TfMjLgPFnHfW1uUUH7+0HkxOUw1UXHPeWVu3P9wvxo5e+eFcXdszcdV5x9fzA+Y2wA9nCrHNr25bozjVJYG60wDraABnmh+QVwtCpyYp5xlaBQu6zSsFzjQvUHrtaECMNNCBGOcHzP0ZHa2C+3F19FqcaX5gfsDcGkc4qyc7Gkj7o8BXHW/xQ7v4dHvyiFafw3kHDEC3/sx6mtPSzf+6VkHdu3rFhTPND6jHnHfWwJnmBUqvHQ2IkQY6eErnnY5W5fSpnHfkRi3T/MBVfsBch3iG9X3g64iPT0d8aWMW+KrjDOtrVI8knGdoFWbz2gbOtEeuodU0NyCnM6xvQz3SPaR68gytzrC+RnEmNeHT7ckjWp1hfR/48Ca4d62Cunf1igtnmh9QjznvrIEzzQuUXjsaECMNdDDD+hodrYL7cXX0KjdqmeYHZli/APw6C4Jn/Oc///nw7bffxs+LryM+Ph3xpY1Z4KuOM6yvUT2ScJ6hVZjNaxs40x65hlbT3ICczrC+DfVI95DqyTO0OsP6GsWZ1IRPtyePaHWG9X3gw5vg3rUK6t7VKy6caX5APea8swbONC9Qeu1oQIw00MEM62t0tArux9XRq9yoZZofmGH9AvDrLggaxU8qTIGvIz4+HfGljVngq44zrK9RPZJwnqXV2by2gTPtkWtoNc0NyOkM69tQj3QPqZ48Q6szrK9RnElN+HR78ohWZ1jfBz68Ce5dq6DuXb3iwpnmB9Rjzjtr4EzzAqXXjgbESAMdPKXzTkercjrD+idQwXaIn8vmpUlu/XvWO+JLG7PAVx1nWF+jeiThPEurs3ltA2faI9fQapobkNMZ1rehHukeUj15hlZnWF+jOJOa8On25BGtzrC+D3x4E9y7VkHdu3rFhTPND6jHnHfWwJnmBUqvHQ2IkQY6mGF9jY5Wwf24OnqVG7VM8wMzrF8AfkcWhOewec2wvkb1SMJ5plZn81oDZ9oj19BqmhuQ0xnWt6Ee6R5SPXmGVmdYX6M4k5rw6fbkEa3OsL4PfHgT3LtWQd27esWFM80PqMecd9bAmeYFSq8dDYiRBjqYYX2NjlbB/bg6epUbtUzzAzOsXwB+RxaEGdb/jOLsLFz3viCcqdXZvNbAmfbINbSa5gbkdIb1bahHuodUT56h1RnW1yjOpCZ8uj15RKszrO8DH94E965VUPeuXnHhTPMD6jHnnTVwpnmB0mtHA2KkgQ5mWF+jo1VwP66OXuVGLdP8wP8f1h8e/h/dxSFnllUHCQAAAABJRU5ErkJggg==;" vertex="1" parent="1">
          <mxGeometry x="60" y="340" width="1003" height="463" as="geometry" />
        </mxCell>
      </root>
    </mxGraphModel>
  </diagram>
</mxfile>
